<?xml version="1.0" encoding="utf-8"?>
<!-- Generator: Adobe Illustrator 27.3.1, SVG Export Plug-In . SVG Version: 6.00 Build 0)  -->
<svg version="1.1" xmlns="http://www.w3.org/2000/svg" xmlns:xlink="http://www.w3.org/1999/xlink" x="0px" y="0px"
	 viewBox="0 0 5122 720" style="enable-background:new 0 0 5122 720;" xml:space="preserve">
<style type="text/css">
	.st0{display:none;}
	.st1{display:inline;fill:none;stroke:#3ECF82;stroke-miterlimit:10;}
	.st2{display:inline;fill:none;stroke:#FF0000;stroke-miterlimit:10;}
	.st3{display:inline;fill:none;stroke:#3ECF82;stroke-width:2.25;stroke-miterlimit:10;}
	.st4{display:inline;fill:none;stroke:#FE0E33;stroke-width:2.25;stroke-miterlimit:10;}
	.st5{display:inline;fill:#3ECF82;}
	.st6{display:inline;fill:#FE0E33;}
	.st7{display:inline;}
	.st8{fill:#3ECF82;}
	.st9{fill:#2A474755;}
</style>
<g id="Layer_7" class="st0">
	<path class="st1" d="M-10.92,403.61c16.96,2.64,35.17,0.12,49.55-8.65c38.15-23.25,55.45-68.42,75.68-108.26
		s52.68-81.12,97.34-82.24c46.79-1.17,81.73,42.06,103.79,83.35s42.72,88.53,85.2,108.18c66.94,30.97,141.4-25.12,186.57-83.43
		c45.17-58.31,90.65-129.03,163.59-139.96c72.02-10.79,136.49,42.55,187.9,94.13c72.89,73.15,142.61,151.03,228.64,208.14
		c55.54,36.87,127.81,64.58,187.5,34.89c38.41-19.1,62.4-57.62,89.76-90.66c27.36-33.04,65.95-64.06,108.43-58.15
		c17.25,2.4,33.06,10.75,49.88,15.27c70.39,18.91,140.32-31.51,188.29-86.4c47.97-54.88,90.68-120.23,158.37-147.27
		c97.85-39.09,209.27,18.46,282.03,94.67s124.33,171.88,204,240.84c39.54,34.23,89.68,62.13,141.64,56.2"/>
	<path class="st2" d="M-10.92,201.3c63.32,9.9,122.03,62.12,169.35,110.96c59.9,61.82,119.8,123.64,179.7,185.46
		c19,19.61,39.07,39.91,65,48.45c53.22,17.53,107.85-19.72,149.58-57.11c117.61-105.37,229.88-236.27,385.6-262.46
		c104.39-17.56,211.2,16.68,304.72,66.28c93.52,49.6,178.15,114.52,270.93,165.5c86.29,47.42,190.87,82.63,281.74,44.73
		c127.29-53.08,177.14-228.03,310.07-264.73c150.13-41.45,284.68,120.59,434.89,144.64l8.84,1.49l11.91,0.41"/>
	<path class="st1" d="M5131.85,403.24c-16.96,2.64-35.17,0.12-49.55-8.65c-38.15-23.25-55.45-68.42-75.68-108.26
		c-20.23-39.84-52.68-81.12-97.34-82.24c-46.79-1.17-81.73,42.06-103.79,83.35s-42.72,88.53-85.2,108.18
		c-66.94,30.97-141.4-25.12-186.57-83.43s-90.65-129.03-163.59-139.96c-72.02-10.79-136.49,42.55-187.9,94.13
		c-72.89,73.15-142.61,151.03-228.64,208.14c-55.54,36.87-127.81,64.58-187.5,34.89c-38.41-19.1-62.4-57.62-89.76-90.66
		c-27.36-33.04-65.95-64.06-108.43-58.15c-17.25,2.4-33.06,10.75-49.88,15.27c-70.39,18.91-140.32-31.51-188.29-86.4
		c-47.97-54.88-90.68-120.23-158.37-147.27c-97.85-39.09-209.27,18.46-282.03,94.67c-72.76,76.21-124.33,171.88-204,240.84
		c-39.54,34.23-89.68,62.13-141.64,56.2"/>
	<path class="st2" d="M2548.19,385.55"/>
	<path class="st2" d="M5131.85,200.93c-63.32,9.9-122.03,62.12-169.35,110.96c-59.9,61.82-119.8,123.64-179.69,185.46
		c-19,19.61-39.07,39.91-65,48.45c-53.22,17.53-107.85-19.72-149.58-57.11c-117.61-105.37-229.88-236.27-385.6-262.46
		c-104.39-17.56-211.2,16.68-304.72,66.28S3699.75,407.02,3606.98,458c-86.29,47.42-190.87,82.62-281.74,44.73
		C3197.95,449.65,3148.1,274.71,3015.16,238c-156.49-43.21-296.05,134.69-454.07,146.93"/>
	<line class="st3" x1="5118.94" y1="154.63" x2="5118.94" y2="313.63"/>
	<line class="st3" x1="5062.94" y1="127.63" x2="5062.94" y2="233.63"/>
	<line class="st3" x1="4977.94" y1="242.63" x2="4977.94" y2="369.63"/>
	<line class="st3" x1="4921.94" y1="264.63" x2="4921.94" y2="375.63"/>
	<line class="st3" x1="4894.94" y1="189.63" x2="4894.94" y2="350.63"/>
	<line class="st3" x1="4865.94" y1="138.63" x2="4865.94" y2="242.63"/>
	<line class="st3" x1="4810.94" y1="313.63" x2="4810.94" y2="421.63"/>
	<line class="st3" x1="4754.94" y1="481.63" x2="4754.94" y2="555.63"/>
	<line class="st3" x1="4696.94" y1="430.63" x2="4696.94" y2="620.63"/>
	<line class="st3" x1="4640.94" y1="336.63" x2="4640.94" y2="481.63"/>
	<line class="st3" x1="4587.94" y1="197.63" x2="4587.94" y2="388.63"/>
	<line class="st3" x1="4557.94" y1="106.63" x2="4557.94" y2="305.63"/>
	<line class="st3" x1="4473.94" y1="49.63" x2="4473.94" y2="213.63"/>
	<line class="st3" x1="4445.94" y1="49.63" x2="4445.94" y2="106.63"/>
	<line class="st3" x1="4389.94" y1="106.63" x2="4389.94" y2="248.63"/>
	<line class="st3" x1="4333.94" y1="54.63" x2="4333.94" y2="213.63"/>
	<line class="st3" x1="4306.94" y1="54.63" x2="4306.94" y2="147.63"/>
	<line class="st3" x1="4278.94" y1="11.63" x2="4278.94" y2="160.63"/>
	<line class="st3" x1="4191.94" y1="160.63" x2="4191.94" y2="287.63"/>
	<line class="st3" x1="4110.94" y1="255.63" x2="4110.94" y2="430.63"/>
	<line class="st3" x1="3996.94" y1="466.63" x2="3996.94" y2="575.63"/>
	<line class="st3" x1="3913.94" y1="575.63" x2="3913.94" y2="611.63"/>
	<line class="st3" x1="3827.94" y1="555.63" x2="3827.94" y2="643.63"/>
	<line class="st3" x1="3800.94" y1="350.63" x2="3800.94" y2="626.63"/>
	<line class="st3" x1="3716.94" y1="269.63" x2="3716.94" y2="408.63"/>
	<line class="st3" x1="3660.94" y1="205.63" x2="3660.94" y2="369.63"/>
	<line class="st3" x1="3577.94" y1="408.63" x2="3577.94" y2="525.63"/>
	<line class="st3" x1="3519.94" y1="430.63" x2="3519.94" y2="547.63"/>
	<line class="st3" x1="3493.94" y1="287.63" x2="3493.94" y2="466.63"/>
	<line class="st3" x1="3382.94" y1="510.63" x2="3382.94" y2="692.63"/>
	<line class="st3" x1="3324.94" y1="563.63" x2="3324.94" y2="620.63"/>
	<line class="st3" x1="3296.94" y1="481.63" x2="3296.94" y2="611.63"/>
	<line class="st4" x1="5089.44" y1="106.13" x2="5089.44" y2="197.13"/>
	<line class="st4" x1="5033.44" y1="169.13" x2="5033.44" y2="313.13"/>
	<line class="st4" x1="5005.44" y1="287.13" x2="5005.44" y2="350.13"/>
	<line class="st4" x1="4949.44" y1="293.13" x2="4949.44" y2="388.13"/>
	<line class="st4" x1="4837.44" y1="177.13" x2="4837.44" y2="369.13"/>
	<line class="st4" x1="4781.44" y1="350.13" x2="4781.44" y2="563.13"/>
	<line class="st4" x1="4725.44" y1="525.13" x2="4725.44" y2="593.13"/>
	<line class="st4" x1="4669.44" y1="421.13" x2="4669.44" y2="521.13"/>
	<line class="st4" x1="4613.44" y1="287.13" x2="4613.44" y2="421.13"/>
	<line class="st4" x1="4530.44" y1="127.13" x2="4530.44" y2="189.13"/>
	<line class="st4" x1="4500.44" y1="138.13" x2="4500.44" y2="241.13"/>
	<line class="st4" x1="4418.44" y1="78.13" x2="4418.44" y2="205.13"/>
	<line class="st4" x1="4361.44" y1="120.13" x2="4361.44" y2="343.13"/>
	<line class="st4" x1="4248.44" y1="78.13" x2="4248.44" y2="189.13"/>
	<line class="st4" x1="4221.44" y1="106.13" x2="4221.44" y2="273.13"/>
	<line class="st4" x1="4165.44" y1="231.13" x2="4165.44" y2="320.13"/>
	<line class="st4" x1="4137.44" y1="248.13" x2="4137.44" y2="471.13"/>
	<line class="st4" x1="4081.44" y1="275.13" x2="4081.44" y2="421.13"/>
	<line class="st4" x1="4053.44" y1="242.13" x2="4053.44" y2="510.13"/>
	<line class="st4" x1="4024.44" y1="441.13" x2="4024.44" y2="563.13"/>
	<line class="st4" x1="3967.44" y1="525.13" x2="3967.44" y2="611.13"/>
	<line class="st4" x1="3939.44" y1="563.13" x2="3939.44" y2="620.13"/>
	<line class="st4" x1="3885.44" y1="510.13" x2="3885.44" y2="611.13"/>
	<line class="st4" x1="3858.44" y1="547.13" x2="3858.44" y2="626.13"/>
	<line class="st4" x1="3772.44" y1="336.13" x2="3772.44" y2="441.13"/>
	<line class="st4" x1="3744.44" y1="350.13" x2="3744.44" y2="488.13"/>
	<line class="st4" x1="3688.44" y1="270.13" x2="3688.44" y2="367.13"/>
	<line class="st4" x1="3633.44" y1="281.13" x2="3633.44" y2="495.13"/>
	<line class="st4" x1="3605.44" y1="471.13" x2="3605.44" y2="586.13"/>
	<line class="st4" x1="3548.44" y1="456.13" x2="3548.44" y2="575.13"/>
	<line class="st4" x1="3465.44" y1="305.13" x2="3465.44" y2="456.13"/>
	<line class="st4" x1="3436.44" y1="399.13" x2="3436.44" y2="575.13"/>
	<line class="st4" x1="3409.44" y1="495.13" x2="3409.44" y2="586.13"/>
	<line class="st4" x1="3353.44" y1="547.13" x2="3353.44" y2="711.13"/>
	<line class="st4" x1="3268.44" y1="456.13" x2="3268.44" y2="586.13"/>
	<line class="st4" x1="3240.44" y1="524.13" x2="3240.44" y2="642.13"/>
	
		<rect x="5111.94" y="176.63" transform="matrix(-1 -4.491530e-11 4.491530e-11 -1 10236.876 481.261)" class="st5" width="13" height="128"/>
	
		<rect x="5054.94" y="168.63" transform="matrix(-1 -4.488999e-11 4.488999e-11 -1 10123.876 373.261)" class="st5" width="14" height="36"/>
	
		<rect x="4968.94" y="264.63" transform="matrix(-1 -4.490065e-11 4.490065e-11 -1 9956.876 593.261)" class="st5" width="19" height="64"/>
	
		<rect x="4912.94" y="304.63" transform="matrix(-1 -4.490642e-11 4.490642e-11 -1 9841.876 640.261)" class="st5" width="16" height="31"/>
	
		<rect x="4884.94" y="231.63" transform="matrix(-1 -4.483270e-11 4.483270e-11 -1 9786.876 545.261)" class="st5" width="17" height="82"/>
	
		<rect x="4858.94" y="180.63" transform="matrix(-1 -4.492907e-11 4.492907e-11 -1 9732.876 411.261)" class="st5" width="15" height="50"/>
	
		<rect x="4802.94" y="358.63" transform="matrix(-1 -4.486867e-11 4.486867e-11 -1 9620.876 766.261)" class="st5" width="15" height="49"/>
	
		<rect x="4744.94" y="520.63" transform="matrix(-1 -4.496948e-11 4.496948e-11 -1 9507.876 1059.2611)" class="st5" width="18" height="18"/>
	
		<rect x="4690.94" y="470.63" transform="matrix(-1 -4.479274e-11 4.479274e-11 -1 9397.876 1031.2611)" class="st5" width="16" height="90"/>
	
		<rect x="4630.94" y="376.63" transform="matrix(-1 -4.486867e-11 4.486867e-11 -1 9279.876 827.261)" class="st5" width="18" height="74"/>
	
		<rect x="4577.94" y="190.63" transform="matrix(-1 -4.496948e-11 4.496948e-11 -1 9173.876 571.261)" class="st5" width="18" height="190"/>
	
		<rect x="4549.94" y="151.63" transform="matrix(-1 -4.490642e-11 4.490642e-11 -1 9115.876 416.261)" class="st5" width="16" height="113"/>
	
		<rect x="4465.94" y="85.63" transform="matrix(-1 -4.492907e-11 4.492907e-11 -1 8946.876 254.2611)" class="st5" width="15" height="83"/>
	
		<rect x="4435.94" y="85.63" transform="matrix(-1 -4.491886e-11 4.491886e-11 -1 8889.876 182.2611)" class="st5" width="18" height="11"/>
	
		<rect x="4380.94" y="151.63" transform="matrix(-1 -4.490642e-11 4.490642e-11 -1 8777.876 385.261)" class="st5" width="16" height="82"/>
	
		<rect x="4326.94" y="96.63" transform="matrix(-1 -4.492907e-11 4.492907e-11 -1 8668.876 273.261)" class="st5" width="15" height="80"/>
	
		<rect x="4298.94" y="96.63" transform="matrix(-1 -4.488999e-11 4.488999e-11 -1 8611.876 217.2611)" class="st5" width="14" height="24"/>
	
		<rect x="4268.94" y="54.63" transform="matrix(-1 -4.493973e-11 4.493973e-11 -1 8554.876 175.2611)" class="st5" width="17" height="66"/>
	
		<rect x="4184.94" y="196.63" transform="matrix(-1 -4.498991e-11 4.498991e-11 -1 8384.876 469.261)" class="st5" width="15" height="76"/>
	
		<rect x="4100.94" y="296.63" transform="matrix(-1 -4.493973e-11 4.493973e-11 -1 8218.876 639.261)" class="st5" width="17" height="46"/>
	
		<rect x="3988.94" y="481.63" transform="matrix(-1 -4.483270e-11 4.483270e-11 -1 7994.876 1037.2611)" class="st5" width="17" height="74"/>
	
		<rect x="3904.94" y="573.63" transform="matrix(-1 -4.493973e-11 4.493973e-11 -1 7826.876 1164.2611)" class="st5" width="17" height="17"/>
	
		<rect x="3821.94" y="563.63" transform="matrix(-1 -4.482515e-11 4.482515e-11 -1 7657.876 1183.2611)" class="st5" width="14" height="56"/>
	
		<rect x="3790.94" y="388.63" transform="matrix(-1 -4.483803e-11 4.483803e-11 -1 7601.876 988.261)" class="st5" width="20" height="211"/>
	
		<rect x="3708.94" y="312.63" transform="matrix(-1 -4.486867e-11 4.486867e-11 -1 7435.876 711.261)" class="st5" width="18" height="86"/>
	
		<rect x="3653.94" y="242.63" transform="matrix(-1 -4.491530e-11 4.491530e-11 -1 7320.876 571.261)" class="st5" width="13" height="86"/>
	
		<rect x="3568.94" y="430.63" transform="matrix(-1 -4.490642e-11 4.490642e-11 -1 7153.876 924.261)" class="st5" width="16" height="63"/>
	
		<rect x="3513.94" y="438.63" transform="matrix(-1 -4.486867e-11 4.486867e-11 -1 7042.876 937.261)" class="st5" width="15" height="60"/>
	
		<rect x="3484.94" y="350.63" transform="matrix(-1 -4.483270e-11 4.483270e-11 -1 6986.876 801.261)" class="st5" width="17" height="100"/>
	
		<rect x="3373.94" y="555.63" transform="matrix(-1 -4.486867e-11 4.486867e-11 -1 6762.876 1147.2611)" class="st5" width="15" height="36"/>
	
		<rect x="3316.94" y="585.63" transform="matrix(-1 -4.495527e-11 4.495527e-11 -1 6647.876 1197.2611)" class="st5" width="14" height="26"/>
	
		<rect x="3288.94" y="515.63" transform="matrix(-1 -4.490642e-11 4.490642e-11 -1 6593.876 1106.2611)" class="st5" width="16" height="75"/>
	<line class="st3" x1="2809.94" y1="123.63" x2="2809.94" y2="216.63"/>
	
		<rect x="2803.94" y="161.63" transform="matrix(-1 -4.484514e-11 4.484514e-11 -1 5620.876 340.261)" class="st5" width="13" height="17"/>
	
		<rect x="5082.94" y="147.63" transform="matrix(-1 -4.490642e-11 4.490642e-11 -1 10181.876 334.261)" class="st6" width="16" height="39"/>
	
		<rect x="5025.94" y="213.63" transform="matrix(-1 -4.493973e-11 4.493973e-11 -1 10068.876 507.261)" class="st6" width="17" height="80"/>
	
		<rect x="4998.94" y="301.63" transform="matrix(-1 -4.486867e-11 4.486867e-11 -1 10012.876 630.261)" class="st6" width="15" height="27"/>
	
		<rect x="4940.94" y="332.63" transform="matrix(-1 -4.490065e-11 4.490065e-11 -1 9900.876 675.261)" class="st6" width="19" height="10"/>
	
		<rect x="4831.94" y="213.63" transform="matrix(-1 -4.482515e-11 4.482515e-11 -1 9677.876 583.261)" class="st6" width="14" height="156"/>
	
		<rect x="4773.94" y="388.63" transform="matrix(-1 -4.490642e-11 4.490642e-11 -1 9563.876 927.261)" class="st6" width="16" height="150"/>
	
		<rect x="4716.94" y="520.63" transform="matrix(-1 -4.493973e-11 4.493973e-11 -1 9450.876 1088.2611)" class="st6" width="17" height="47"/>
	
		<rect x="4660.94" y="462.63" transform="matrix(-1 -4.493973e-11 4.493973e-11 -1 9338.876 937.261)" class="st6" width="17" height="12"/>
	
		<rect x="4605.94" y="323.63" transform="matrix(-1 -4.486867e-11 4.486867e-11 -1 9226.876 704.261)" class="st6" width="15" height="57"/>
	
		<rect x="4520.94" y="141.63" transform="matrix(-1 -4.490642e-11 4.490642e-11 -1 9057.876 305.261)" class="st6" width="16" height="22"/>
	
		<rect x="4492.94" y="160.63" transform="matrix(-1 -4.491886e-11 4.491886e-11 -1 9003.876 366.261)" class="st6" width="18" height="45"/>
	
		<rect x="4409.94" y="87.63" transform="matrix(-1 -4.486867e-11 4.486867e-11 -1 8834.876 259.261)" class="st6" width="15" height="84"/>
	
		<rect x="4353.94" y="160.63" transform="matrix(-1 -4.488999e-11 4.488999e-11 -1 8721.876 381.261)" class="st6" width="14" height="60"/>
	
		<rect x="4240.94" y="116.63" transform="matrix(-1 -4.488644e-11 4.488644e-11 -1 8498.876 277.261)" class="st6" width="17" height="44"/>
	
		<rect x="4212.94" y="147.63" transform="matrix(-1 -4.490642e-11 4.490642e-11 -1 8441.876 421.261)" class="st6" width="16" height="126"/>
	
		<rect x="4157.94" y="269.63" transform="matrix(-1 -4.490642e-11 4.490642e-11 -1 8331.876 571.261)" class="st6" width="16" height="32"/>
	
		<rect x="4129.94" y="290.48" transform="matrix(-1 -4.490642e-11 4.490642e-11 -1 8275.876 657.261)" class="st6" width="16" height="76.31"/>
	
		<rect x="4073.94" y="320.63" transform="matrix(-1 -4.486867e-11 4.486867e-11 -1 8162.876 663.261)" class="st6" width="15" height="22"/>
	
		<rect x="4044.94" y="323.63" transform="matrix(-1 -4.486867e-11 4.486867e-11 -1 8107.876 798.261)" class="st6" width="18" height="151"/>
	
		<rect x="4015.94" y="481.63" transform="matrix(-1 -4.486867e-11 4.486867e-11 -1 8049.876 1042.2611)" class="st6" width="18" height="79"/>
	
		<rect x="3961.94" y="540.63" transform="matrix(-1 -4.495527e-11 4.495527e-11 -1 7937.876 1123.2611)" class="st6" width="14" height="42"/>
	
		<rect x="3932.94" y="568.63" transform="matrix(-1 -4.490642e-11 4.490642e-11 -1 7881.876 1170.2611)" class="st6" width="16" height="33"/>
	
		<rect x="3877.94" y="550.63" transform="matrix(-1 -4.486867e-11 4.486867e-11 -1 7770.876 1136.2611)" class="st6" width="15" height="35"/>
	
		<rect x="3849.94" y="561.63" transform="matrix(-1 -4.486867e-11 4.486867e-11 -1 7714.876 1160.2611)" class="st6" width="15" height="37"/>
	
		<rect x="3765.94" y="376.63" transform="matrix(-1 -4.486867e-11 4.486867e-11 -1 7546.876 782.261)" class="st6" width="15" height="29"/>
	
		<rect x="3735.94" y="391.63" transform="matrix(-1 -4.493973e-11 4.493973e-11 -1 7488.876 837.261)" class="st6" width="17" height="54"/>
	
		<rect x="3680.94" y="312.63" transform="matrix(-1 -4.479274e-11 4.479274e-11 -1 7377.876 649.261)" class="st6" width="16" height="24"/>
	
		<rect x="3623.94" y="323.63" transform="matrix(-1 -4.486867e-11 4.486867e-11 -1 7265.876 813.261)" class="st6" width="18" height="166"/>
	
		<rect x="3596.94" y="471.63" transform="matrix(-1 -4.498991e-11 4.498991e-11 -1 7208.876 990.261)" class="st6" width="15" height="47"/>
	
		<rect x="3538.94" y="498.63" transform="matrix(-1 -4.486867e-11 4.486867e-11 -1 7095.876 1045.2611)" class="st6" width="18" height="48"/>
	
		<rect x="3457.94" y="350.63" transform="matrix(-1 -4.495527e-11 4.495527e-11 -1 6929.876 799.261)" class="st6" width="14" height="98"/>
	
		<rect x="3429.94" y="441.63" transform="matrix(-1 -4.495527e-11 4.495527e-11 -1 6873.876 973.261)" class="st6" width="14" height="90"/>
	
		<rect x="3401.94" y="538.63" transform="matrix(-1 -4.486867e-11 4.486867e-11 -1 6818.876 1092.2611)" class="st6" width="15" height="15"/>
	
		<rect x="3345.94" y="585.63" transform="matrix(-1 -4.486867e-11 4.486867e-11 -1 6706.876 1278.2611)" class="st6" width="15" height="107"/>
	
		<rect x="3260.94" y="513.63" transform="matrix(-1 -4.490642e-11 4.490642e-11 -1 6537.876 1092.2611)" class="st6" width="16" height="65"/>
	
		<rect x="3232.94" y="526.63" transform="matrix(-1 -4.486867e-11 4.486867e-11 -1 6480.876 1106.2611)" class="st6" width="15" height="53"/>
	<line class="st3" x1="2559.85" y1="480.76" x2="2559.85" y2="554.76"/>
	<line class="st3" x1="2618.53" y1="429.76" x2="2618.53" y2="619.76"/>
	<line class="st3" x1="2675.19" y1="335.76" x2="2675.19" y2="480.76"/>
	<line class="st3" x1="2728.81" y1="196.76" x2="2728.81" y2="387.76"/>
	<line class="st3" x1="2759.16" y1="105.76" x2="2759.16" y2="304.76"/>
	<line class="st4" x1="2589.7" y1="524.26" x2="2589.7" y2="592.26"/>
	<line class="st4" x1="2646.35" y1="420.26" x2="2646.35" y2="520.26"/>
	<line class="st4" x1="2703.01" y1="286.26" x2="2703.01" y2="420.26"/>
	<line class="st4" x1="2786.98" y1="126.26" x2="2786.98" y2="188.26"/>
	<rect x="2551.76" y="519.76" class="st5" width="18.21" height="18"/>
	<rect x="2608.41" y="469.76" class="st5" width="16.19" height="90"/>
	<rect x="2667.09" y="375.76" class="st5" width="18.21" height="74"/>
	<rect x="2720.72" y="189.76" class="st5" width="18.21" height="190"/>
	<rect x="2751.07" y="150.76" class="st5" width="16.19" height="113"/>
	<rect x="2581.1" y="519.76" class="st6" width="17.2" height="47"/>
	<rect x="2637.75" y="461.76" class="st6" width="17.2" height="12"/>
	<rect x="2695.42" y="322.76" class="st6" width="15.18" height="57"/>
	<rect x="2780.41" y="140.76" class="st6" width="16.19" height="22"/>
	<line class="st3" x1="2860.92" y1="50.51" x2="2860.92" y2="177.51"/>
	<line class="st3" x1="2940.83" y1="145.51" x2="2940.83" y2="320.51"/>
	<line class="st3" x1="3053.29" y1="356.51" x2="3053.29" y2="465.51"/>
	<line class="st3" x1="3135.18" y1="478.51" x2="3135.18" y2="514.51"/>
	<line class="st3" x1="3220.02" y1="458.51" x2="3220.02" y2="546.51"/>
	<line class="st4" x1="2831.82" y1="13.63" x2="2831.82" y2="163.01"/>
	<line class="st4" x1="2887.06" y1="121.01" x2="2887.06" y2="210.01"/>
	<line class="st4" x1="2914.69" y1="138.01" x2="2914.69" y2="361.01"/>
	<line class="st4" x1="2969.93" y1="165.01" x2="2969.93" y2="311.01"/>
	<line class="st4" x1="2997.55" y1="132.01" x2="2997.55" y2="400.01"/>
	<line class="st4" x1="3026.16" y1="331.01" x2="3026.16" y2="453.01"/>
	<line class="st4" x1="3082.4" y1="428.01" x2="3082.4" y2="514.01"/>
	<line class="st4" x1="3110.02" y1="466.01" x2="3110.02" y2="523.01"/>
	<line class="st4" x1="3163.29" y1="413.01" x2="3163.29" y2="514.01"/>
	<line class="st4" x1="3189.93" y1="450.01" x2="3189.93" y2="529.01"/>
	<rect x="2853.03" y="86.51" class="st5" width="14.8" height="76"/>
	<rect x="2933.92" y="186.51" class="st5" width="16.77" height="46"/>
	<rect x="3044.42" y="371.51" class="st5" width="16.77" height="74"/>
	<rect x="3127.28" y="476.51" class="st5" width="16.77" height="17"/>
	<rect x="3212.13" y="466.51" class="st5" width="13.81" height="56"/>
	<rect x="2824.42" y="37.51" class="st6" width="15.78" height="126"/>
	<rect x="2878.68" y="159.51" class="st6" width="15.78" height="32"/>
	<rect x="2906.3" y="180.35" class="st6" width="15.78" height="76.31"/>
	<rect x="2962.53" y="210.51" class="st6" width="14.8" height="22"/>
	<rect x="2988.18" y="213.51" class="st6" width="17.76" height="151"/>
	<rect x="3016.79" y="371.51" class="st6" width="17.76" height="79"/>
	<rect x="3074.01" y="443.51" class="st6" width="13.81" height="42"/>
	<rect x="3100.65" y="471.51" class="st6" width="15.78" height="33"/>
	<rect x="3155.89" y="453.51" class="st6" width="14.8" height="35"/>
	<rect x="3183.52" y="464.51" class="st6" width="14.8" height="37"/>
	<g class="st7">
		<g>
			<path d="M4898.23,273.01c0.48,0,0.48-0.75,0-0.75C4897.75,272.26,4897.75,273.01,4898.23,273.01L4898.23,273.01z"/>
		</g>
	</g>
	<g class="st7">
		<g>
			<path class="st8" d="M5091.93,165.96c0.48,0,0.48-0.75,0-0.75C5091.45,165.21,5091.45,165.96,5091.93,165.96L5091.93,165.96z"/>
		</g>
	</g>
	<path class="st2" d="M2759.16,711.13"/>
</g>
<g id="Layer_1" class="st0">
	<line class="st3" x1="2" y1="155" x2="2" y2="314"/>
	<line class="st3" x1="58" y1="128" x2="58" y2="234"/>
	<line class="st3" x1="143" y1="243" x2="143" y2="370"/>
	<line class="st3" x1="199" y1="265" x2="199" y2="376"/>
	<line class="st3" x1="226" y1="190" x2="226" y2="351"/>
	<line class="st3" x1="255" y1="139" x2="255" y2="243"/>
	<line class="st3" x1="310" y1="314" x2="310" y2="422"/>
	<line class="st3" x1="366" y1="482" x2="366" y2="556"/>
	<line class="st3" x1="424" y1="431" x2="424" y2="621"/>
	<line class="st3" x1="480" y1="337" x2="480" y2="482"/>
	<line class="st3" x1="533" y1="198" x2="533" y2="389"/>
	<line class="st3" x1="563" y1="107" x2="563" y2="306"/>
	<line class="st3" x1="647" y1="50" x2="647" y2="214"/>
	<line class="st3" x1="675" y1="50" x2="675" y2="107"/>
	<line class="st3" x1="731" y1="107" x2="731" y2="249"/>
	<line class="st3" x1="787" y1="55" x2="787" y2="214"/>
	<line class="st3" x1="814" y1="55" x2="814" y2="148"/>
	<line class="st3" x1="842" y1="12" x2="842" y2="161"/>
	<line class="st3" x1="929" y1="161" x2="929" y2="288"/>
	<line class="st3" x1="1010" y1="256" x2="1010" y2="431"/>
	<line class="st3" x1="1124" y1="467" x2="1124" y2="576"/>
	<line class="st3" x1="1207" y1="576" x2="1207" y2="612"/>
	<line class="st3" x1="1293" y1="556" x2="1293" y2="644"/>
	<line class="st3" x1="1320" y1="351" x2="1320" y2="627"/>
	<line class="st3" x1="1404" y1="270" x2="1404" y2="409"/>
	<line class="st3" x1="1460" y1="206" x2="1460" y2="370"/>
	<line class="st3" x1="1543" y1="409" x2="1543" y2="526"/>
	<line class="st3" x1="1601" y1="431" x2="1601" y2="548"/>
	<line class="st3" x1="1627" y1="288" x2="1627" y2="467"/>
	<line class="st3" x1="1738" y1="511" x2="1738" y2="693"/>
	<line class="st3" x1="1796" y1="564" x2="1796" y2="621"/>
	<line class="st3" x1="1824" y1="482" x2="1824" y2="612"/>
	<line class="st4" x1="31.5" y1="106.5" x2="31.5" y2="197.5"/>
	<line class="st4" x1="87.5" y1="169.5" x2="87.5" y2="313.5"/>
	<line class="st4" x1="115.5" y1="287.5" x2="115.5" y2="350.5"/>
	<line class="st4" x1="171.5" y1="293.5" x2="171.5" y2="388.5"/>
	<line class="st4" x1="283.5" y1="177.5" x2="283.5" y2="369.5"/>
	<line class="st4" x1="339.5" y1="350.5" x2="339.5" y2="563.5"/>
	<line class="st4" x1="395.5" y1="525.5" x2="395.5" y2="593.5"/>
	<line class="st4" x1="451.5" y1="421.5" x2="451.5" y2="521.5"/>
	<line class="st4" x1="507.5" y1="287.5" x2="507.5" y2="421.5"/>
	<line class="st4" x1="590.5" y1="127.5" x2="590.5" y2="189.5"/>
	<line class="st4" x1="620.5" y1="138.5" x2="620.5" y2="241.5"/>
	<line class="st4" x1="702.5" y1="78.5" x2="702.5" y2="205.5"/>
	<line class="st4" x1="759.5" y1="120.5" x2="759.5" y2="343.5"/>
	<line class="st4" x1="872.5" y1="78.5" x2="872.5" y2="189.5"/>
	<line class="st4" x1="899.5" y1="106.5" x2="899.5" y2="273.5"/>
	<line class="st4" x1="955.5" y1="231.5" x2="955.5" y2="320.5"/>
	<line class="st4" x1="983.5" y1="248.5" x2="983.5" y2="471.5"/>
	<line class="st4" x1="1039.5" y1="275.5" x2="1039.5" y2="421.5"/>
	<line class="st4" x1="1067.5" y1="242.5" x2="1067.5" y2="510.5"/>
	<line class="st4" x1="1096.5" y1="441.5" x2="1096.5" y2="563.5"/>
	<line class="st4" x1="1153.5" y1="525.5" x2="1153.5" y2="611.5"/>
	<line class="st4" x1="1181.5" y1="563.5" x2="1181.5" y2="620.5"/>
	<line class="st4" x1="1235.5" y1="510.5" x2="1235.5" y2="611.5"/>
	<line class="st4" x1="1262.5" y1="547.5" x2="1262.5" y2="626.5"/>
	<line class="st4" x1="1348.5" y1="336.5" x2="1348.5" y2="441.5"/>
	<line class="st4" x1="1376.5" y1="350.5" x2="1376.5" y2="488.5"/>
	<line class="st4" x1="1432.5" y1="270.5" x2="1432.5" y2="367.5"/>
	<line class="st4" x1="1487.5" y1="281.5" x2="1487.5" y2="495.5"/>
	<line class="st4" x1="1515.5" y1="471.5" x2="1515.5" y2="586.5"/>
	<line class="st4" x1="1572.5" y1="456.5" x2="1572.5" y2="575.5"/>
	<line class="st4" x1="1655.5" y1="305.5" x2="1655.5" y2="456.5"/>
	<line class="st4" x1="1684.5" y1="399.5" x2="1684.5" y2="575.5"/>
	<line class="st4" x1="1711.5" y1="495.5" x2="1711.5" y2="586.5"/>
	<line class="st4" x1="1767.5" y1="547.5" x2="1767.5" y2="711.5"/>
	<line class="st4" x1="1852.5" y1="456.5" x2="1852.5" y2="586.5"/>
	<line class="st4" x1="1880.5" y1="524.5" x2="1880.5" y2="642.5"/>
</g>
<g id="Layer_3" class="st0">
	<rect x="-4" y="177" class="st5" width="13" height="128"/>
	<rect x="52" y="169" class="st5" width="14" height="36"/>
	<rect x="133" y="265" class="st5" width="19" height="64"/>
	<rect x="192" y="305" class="st5" width="16" height="31"/>
	<rect x="219" y="232" class="st5" width="17" height="82"/>
	<rect x="247" y="181" class="st5" width="15" height="50"/>
	<rect x="303" y="359" class="st5" width="15" height="49"/>
	<rect x="358" y="521" class="st5" width="18" height="18"/>
	<rect x="414" y="471" class="st5" width="16" height="90"/>
	<rect x="472" y="377" class="st5" width="18" height="74"/>
	<rect x="525" y="191" class="st5" width="18" height="190"/>
	<rect x="555" y="152" class="st5" width="16" height="113"/>
	<rect x="640" y="86" class="st5" width="15" height="83"/>
	<rect x="667" y="86" class="st5" width="18" height="11"/>
	<rect x="724" y="152" class="st5" width="16" height="82"/>
	<rect x="779" y="97" class="st5" width="15" height="80"/>
	<rect x="808" y="97" class="st5" width="14" height="24"/>
	<rect x="835" y="55" class="st5" width="17" height="66"/>
	<rect x="921" y="197" class="st5" width="15" height="76"/>
	<rect x="1003" y="297" class="st5" width="17" height="46"/>
	<rect x="1115" y="482" class="st5" width="17" height="74"/>
	<rect x="1199" y="574" class="st5" width="17" height="17"/>
	<rect x="1285" y="564" class="st5" width="14" height="56"/>
	<rect x="1310" y="389" class="st5" width="20" height="211"/>
	<rect x="1394" y="313" class="st5" width="18" height="86"/>
	<rect x="1454" y="243" class="st5" width="13" height="86"/>
	<rect x="1536" y="431" class="st5" width="16" height="63"/>
	<rect x="1592" y="439" class="st5" width="15" height="60"/>
	<rect x="1619" y="351" class="st5" width="17" height="100"/>
	<rect x="1732" y="556" class="st5" width="15" height="36"/>
	<rect x="1790" y="586" class="st5" width="14" height="26"/>
	<rect x="1816" y="516" class="st5" width="16" height="75"/>
	<line class="st3" x1="2311" y1="124" x2="2311" y2="217"/>
	<rect x="2304" y="162" class="st5" width="13" height="17"/>
	<g class="st7">
		<g>
			<path class="st8" d="M1160.55-201c1.93,0,1.93-3,0-3C1158.62-204,1158.62-201,1160.55-201L1160.55-201z"/>
		</g>
	</g>
</g>
<g id="Layer_4" class="st0">
	<rect x="22" y="148" class="st6" width="16" height="39"/>
	<rect x="78" y="214" class="st6" width="17" height="80"/>
	<rect x="107" y="302" class="st6" width="15" height="27"/>
	<rect x="161" y="333" class="st6" width="19" height="10"/>
	<rect x="275" y="214" class="st6" width="14" height="156"/>
	<rect x="331" y="389" class="st6" width="16" height="150"/>
	<rect x="387" y="521" class="st6" width="17" height="47"/>
	<rect x="443" y="463" class="st6" width="17" height="12"/>
	<rect x="500" y="324" class="st6" width="15" height="57"/>
	<rect x="584" y="142" class="st6" width="16" height="22"/>
	<rect x="610" y="161" class="st6" width="18" height="45"/>
	<rect x="696" y="88" class="st6" width="15" height="84"/>
	<rect x="753" y="161" class="st6" width="14" height="60"/>
	<rect x="863" y="117" class="st6" width="17" height="44"/>
	<rect x="892" y="148" class="st6" width="16" height="126"/>
	<rect x="947" y="270" class="st6" width="16" height="32"/>
	<rect x="975" y="290.85" class="st6" width="16" height="76.31"/>
	<rect x="1032" y="321" class="st6" width="15" height="22"/>
	<rect x="1058" y="324" class="st6" width="18" height="151"/>
	<rect x="1087" y="482" class="st6" width="18" height="79"/>
	<rect x="1145" y="541" class="st6" width="14" height="42"/>
	<rect x="1172" y="569" class="st6" width="16" height="33"/>
	<rect x="1228" y="551" class="st6" width="15" height="35"/>
	<rect x="1256" y="562" class="st6" width="15" height="37"/>
	<rect x="1340" y="377" class="st6" width="15" height="29"/>
	<rect x="1368" y="392" class="st6" width="17" height="54"/>
	<rect x="1424" y="313" class="st6" width="16" height="24"/>
	<rect x="1479" y="324" class="st6" width="18" height="166"/>
	<rect x="1509" y="472" class="st6" width="15" height="47"/>
	<rect x="1564" y="499" class="st6" width="18" height="48"/>
	<rect x="1649" y="351" class="st6" width="14" height="98"/>
	<rect x="1677" y="442" class="st6" width="14" height="90"/>
	<rect x="1704" y="539" class="st6" width="15" height="15"/>
	<rect x="1760" y="586" class="st6" width="15" height="107"/>
	<rect x="1844" y="514" class="st6" width="16" height="65"/>
	<rect x="1873" y="527" class="st6" width="15" height="53"/>
	<line class="st3" x1="2561.09" y1="481.13" x2="2561.09" y2="555.13"/>
	<line class="st3" x1="2502.41" y1="430.13" x2="2502.41" y2="620.13"/>
	<line class="st3" x1="2445.75" y1="336.13" x2="2445.75" y2="481.13"/>
	<line class="st3" x1="2392.13" y1="197.13" x2="2392.13" y2="388.13"/>
	<line class="st3" x1="2361.78" y1="106.13" x2="2361.78" y2="305.13"/>
	<line class="st4" x1="2531.24" y1="524.63" x2="2531.24" y2="592.63"/>
	<line class="st4" x1="2474.59" y1="420.63" x2="2474.59" y2="520.63"/>
	<line class="st4" x1="2417.93" y1="286.63" x2="2417.93" y2="420.63"/>
	<line class="st4" x1="2333.95" y1="126.63" x2="2333.95" y2="188.63"/>
	
		<rect x="2550.97" y="520.13" transform="matrix(-1 -1.224647e-16 1.224647e-16 -1 5120.1543 1058.2566)" class="st5" width="18.21" height="18"/>
	
		<rect x="2496.34" y="470.13" transform="matrix(-1 -1.224647e-16 1.224647e-16 -1 5008.8633 1030.2566)" class="st5" width="16.19" height="90"/>
	
		<rect x="2435.63" y="376.13" transform="matrix(-1 -1.224647e-16 1.224647e-16 -1 4889.4785 826.2567)" class="st5" width="18.21" height="74"/>
	
		<rect x="2382.01" y="190.13" transform="matrix(-1 -1.224647e-16 1.224647e-16 -1 4782.2344 570.2567)" class="st5" width="18.21" height="190"/>
	
		<rect x="2353.68" y="151.13" transform="matrix(-1 -1.224647e-16 1.224647e-16 -1 4723.5537 415.2566)" class="st5" width="16.19" height="113"/>
	
		<rect x="2522.64" y="520.13" transform="matrix(-1 -1.224647e-16 1.224647e-16 -1 5062.4854 1087.2566)" class="st6" width="17.2" height="47"/>
	
		<rect x="2465.99" y="462.13" transform="matrix(-1 -1.224647e-16 1.224647e-16 -1 4949.1709 936.2567)" class="st6" width="17.2" height="12"/>
	
		<rect x="2410.34" y="323.13" transform="matrix(-1 -1.224647e-16 1.224647e-16 -1 4835.8564 703.2567)" class="st6" width="15.18" height="57"/>
	
		<rect x="2324.34" y="141.13" transform="matrix(-1 -1.224647e-16 1.224647e-16 -1 4664.873 304.2566)" class="st6" width="16.19" height="22"/>
	<line class="st3" x1="2260.02" y1="50.88" x2="2260.02" y2="177.88"/>
	<line class="st3" x1="2180.11" y1="145.88" x2="2180.11" y2="320.88"/>
	<line class="st3" x1="2067.64" y1="356.88" x2="2067.64" y2="465.88"/>
	<line class="st3" x1="1985.76" y1="478.88" x2="1985.76" y2="514.88"/>
	<line class="st3" x1="1900.92" y1="458.88" x2="1900.92" y2="546.88"/>
	<line class="st4" x1="2289.12" y1="14" x2="2289.12" y2="163.38"/>
	<line class="st4" x1="2233.88" y1="121.38" x2="2233.88" y2="210.38"/>
	<line class="st4" x1="2206.25" y1="138.38" x2="2206.25" y2="361.38"/>
	<line class="st4" x1="2151.01" y1="165.38" x2="2151.01" y2="311.38"/>
	<line class="st4" x1="2123.38" y1="132.38" x2="2123.38" y2="400.38"/>
	<line class="st4" x1="2094.77" y1="331.38" x2="2094.77" y2="453.38"/>
	<line class="st4" x1="2038.54" y1="428.38" x2="2038.54" y2="514.38"/>
	<line class="st4" x1="2010.92" y1="466.38" x2="2010.92" y2="523.38"/>
	<line class="st4" x1="1957.65" y1="413.38" x2="1957.65" y2="514.38"/>
	<line class="st4" x1="1931.01" y1="450.38" x2="1931.01" y2="529.38"/>
	
		<rect x="2253.11" y="86.88" transform="matrix(-1 -1.224647e-16 1.224647e-16 -1 4521.0249 249.7522)" class="st5" width="14.8" height="76"/>
	
		<rect x="2170.24" y="186.88" transform="matrix(-1 -1.224647e-16 1.224647e-16 -1 4357.2598 419.7522)" class="st5" width="16.77" height="46"/>
	
		<rect x="2059.75" y="371.88" transform="matrix(-1 -1.224647e-16 1.224647e-16 -1 4136.2749 817.7522)" class="st5" width="16.77" height="74"/>
	
		<rect x="1976.88" y="476.88" transform="matrix(-1 -1.224647e-16 1.224647e-16 -1 3970.5366 970.7522)" class="st5" width="16.77" height="17"/>
	
		<rect x="1895" y="466.88" transform="matrix(-1 -1.224647e-16 1.224647e-16 -1 3803.8115 989.7522)" class="st5" width="13.81" height="56"/>
	
		<rect x="2280.74" y="37.88" transform="matrix(-1 -1.224647e-16 1.224647e-16 -1 4577.2578 201.7522)" class="st6" width="15.78" height="126"/>
	
		<rect x="2226.48" y="159.88" transform="matrix(-1 -1.224647e-16 1.224647e-16 -1 4468.7383 351.7522)" class="st6" width="15.78" height="32"/>
	
		<rect x="2198.85" y="180.72" transform="matrix(-1 -1.224647e-16 1.224647e-16 -1 4413.4922 437.7522)" class="st6" width="15.78" height="76.31"/>
	
		<rect x="2143.61" y="210.88" transform="matrix(-1 -1.224647e-16 1.224647e-16 -1 4302.0137 443.7522)" class="st6" width="14.8" height="22"/>
	
		<rect x="2115" y="213.88" transform="matrix(-1 -1.224647e-16 1.224647e-16 -1 4247.7539 578.7522)" class="st6" width="17.76" height="151"/>
	
		<rect x="2086.39" y="371.88" transform="matrix(-1 -1.224647e-16 1.224647e-16 -1 4190.5347 822.7522)" class="st6" width="17.76" height="79"/>
	
		<rect x="2033.12" y="443.88" transform="matrix(-1 -1.224647e-16 1.224647e-16 -1 4080.0422 929.7522)" class="st6" width="13.81" height="42"/>
	
		<rect x="2004.51" y="471.88" transform="matrix(-1 -1.224647e-16 1.224647e-16 -1 4024.7961 976.7522)" class="st6" width="15.78" height="33"/>
	
		<rect x="1950.25" y="453.88" transform="matrix(-1 -1.224647e-16 1.224647e-16 -1 3915.2903 942.7522)" class="st6" width="14.8" height="35"/>
	
		<rect x="1922.62" y="464.88" transform="matrix(-1 -1.224647e-16 1.224647e-16 -1 3860.0442 966.7522)" class="st6" width="14.8" height="37"/>
</g>
<g id="Layer_6" class="st0">
</g>
<g id="Layer_2" class="st0">
</g>
<g id="Layer_5" class="st0">
	<g class="st7">
		<g>
			<path d="M222.71,273.38c0.48,0,0.48-0.75,0-0.75C222.23,272.62,222.22,273.38,222.71,273.38L222.71,273.38z"/>
		</g>
	</g>
	<g class="st7">
		<g>
			<path class="st8" d="M29.01,166.33c0.48,0,0.48-0.75,0-0.75C28.53,165.58,28.53,166.33,29.01,166.33L29.01,166.33z"/>
		</g>
	</g>
</g>
<g id="Layer_8">
	<g>
		<g>
			<path class="st9" d="M0.36,173.78c24.49,10.46,45.69,27.68,56.9,52.29c9.79,21.49,12.78,45.51,21.46,67.46
				c8.61,21.76,18.89,46.46,33.87,64.72c11.41,13.9,27.59,19.81,45.28,15.79c21.57-4.9,40.23-21.48,53.76-38.24
				c10.87-13.47,13.37-27.49,19.29-43.31c2.84-7.58,15.8-46.74,27.33-41.92c4.52,1.89,8.1,9.43,10.25,13.26
				c6.98,12.43,11.74,26.15,16.11,39.67c15.79,48.89,17.67,98.2,22.31,148.81c4,43.63,17.75,85.39,45.39,120.11
				c36.73,46.13,62.49-20.69,72.8-49.61c21.97-61.62,36.47-125.7,56.96-187.81c9.91-30.03,20.74-60.13,35.79-88.02
				c10.34-19.16,23.9-41.42,44.69-50.64c19.11-8.46,38.21-13.47,56.03-25.23c9.39-6.2,18.17-13.27,26.22-21.12
				c6.87-6.69,12.95-14.8,20.67-20.56c18.12-13.53,31.83,4.31,43.38,16.82c12.13,13.13,27.58,22.72,46.12,20.75
				c16.58-1.76,29.34-12.88,41.59-23.18c11.79-9.91,26.93-21.88,42.88-13.76c22.41,11.4,30.47,48.35,38.06,69.73
				c27.62,77.84,64.74,157.7,143.09,195.69c44.42,21.54,76.85,59.26,95.03,104.79c12.16,30.44,16,67.74,35.63,94.66
				c21.22,29.1,59.69,24.34,89.23,11.95c41.16-17.26,79.98-49.7,102.18-88.65c9.39-16.48,15.52-34.45,22.32-52.08
				c8.93-23.14,20.03-45.05,34.19-65.46c9.02-13,18.76-25.66,29.02-37.7c7.23-8.48,16.16-19.64,27.38-22.87
				c13.35-3.84,22.56,7.45,28.54,17.71c15.93,27.36,21.67,60.6,30.44,90.68c5.4,18.51,12.41,53,33.44,60.71
				c25.68,9.42,42.38-33.52,52.27-49.32c6.53-10.44,17.76-29.03,32.73-24.9c14.87,4.1,23.97,26.91,30.46,39.03
				c22.17,41.42,42.25,83.67,60.56,126.91c5.91,13.96,11.65,30.93,28.48,33.99c23.33,4.24,42.58-20.15,56.84-34.74
				c29.62-30.3,61.5-57.04,102.4-70.59c21.57-7.15,40.92-7.4,63.09-7.61c16.45-0.16,32.11-6.9,45.28-16.49
				c32.17-23.44,43.21-64.09,54.4-100.24c15.74-50.81,34.91-99.04,66.54-142.26c25.87-35.34,57.07-71.35,95.2-93.77
				c26.48-15.57,59.51-21.29,77.68,8.18c16.27,26.4,21.65,60.12,29.61,89.64c12.53,46.47,27.48,92.16,47.73,135.89
				c11.26,24.32,25.77,46.82,37.41,70.85c7.91,16.31,14.45,33.16,24,48.65c24.1,39.14,62.39,61.68,108.22,65.02
				c6.42,0.47,6.39-9.53,0-10c-28.49-2.08-56.29-12.06-77.22-31.97c-15.49-14.73-26.3-33.29-35.32-52.48
				c-21.03-44.74-46.62-86.91-64.63-133.15c-16.04-41.19-27.24-83.73-38.79-126.32c-6.62-24.41-12.97-53.78-31.09-72.7
				c-19.89-20.78-49.61-16.94-73.38-5.27c-38,18.65-68.98,52.62-94.95,85.24c-30.66,38.51-53.62,81.03-69.65,127.58
				c-13.59,39.45-20.69,88.96-51.02,119.9c-13.63,13.9-32.4,23.93-52.15,23.7c-19.56-0.23-37.04,0.12-56.14,5.66
				c-40.18,11.66-73.99,35.34-103.44,64.5c-10.92,10.82-21.13,22.6-32.95,32.47c-7.62,6.37-17.52,13.21-27.96,10.03
				c-6.26-1.91-9.34-6.94-12.24-12.48c-5.6-10.67-9.75-22.16-14.47-33.23c-9.55-22.4-19.85-44.47-30.82-66.21
				c-11.11-22-21.64-45-35.23-65.62c-6.38-9.68-14.48-20.43-26.72-22.33c-12.36-1.92-22.7,5.89-30.26,14.81
				c-10.8,12.75-17.87,28.12-26.89,42.07c-5.35,8.28-15.29,24.24-26.93,16.71c-9.53-6.16-14.12-21.1-17.67-31.1
				c-5.2-14.65-9.16-29.73-13.31-44.7c-7.38-26.62-13.84-59.16-32.48-80.66c-25.63-29.55-54.79,2.09-72.18,23.99
				c-17.34,21.84-33.62,44.33-45.72,69.56c-8.21,17.11-14.25,35.05-21.33,52.63c-17.87,44.35-51.98,79.56-93.93,102.23
				c-20.14,10.88-45.62,20.88-68.83,15.06c-15.08-3.78-24.39-14.83-30.85-28.37c-16.01-33.6-20.97-71.21-38.49-104.44
				c-21.4-40.58-54.61-68.67-95.03-89c-41.97-21.11-74.04-60.57-96.04-101.23c-18.42-34.04-29.84-70.77-43.46-106.82
				c-7.51-19.88-16.83-47.35-38.62-55.79c-33.5-12.98-52.49,27.87-80.45,36.12c-23.84,7.03-38.9-11.36-53.35-26.73
				c-9.7-10.31-22.17-17.74-36.73-13.38c-15.61,4.68-26.08,21.66-37.6,32.06c-19.5,17.6-42.2,28.35-66.77,36.78
				c-20.38,6.99-34.58,22.31-46.24,39.96c-34.54,52.29-50.95,117.22-68.17,176.72c-9.1,31.45-17.76,63.04-27.67,94.25
				c-7.26,22.84-14.57,46.93-27.28,67.45c-3.28,5.29-7.67,12.28-13.76,14.72c-15.67,6.28-28.47-19.45-34.69-29.69
				c-12.32-20.28-21.8-41.15-26.65-64.47c-4.35-20.92-5.36-42.32-6.73-63.58c-3.28-50.87-10.76-101.83-31.49-148.87
				c-6.89-15.64-24.17-46.53-41.77-22.45c-12.69,17.37-19.87,39.61-25.96,60c-6.11,20.47-25.03,38.33-43.06,48.82
				c-11.15,6.48-24.95,10.83-37.52,5.81c-10.32-4.12-16.95-13.65-22.41-22.88c-13.91-23.52-25.32-49.39-32.67-75.68
				c-5.68-20.34-10.22-41.11-22.48-58.75c-12.86-18.51-31.3-31.97-51.87-40.76C-0.45,162.65-5.55,171.26,0.36,173.78L0.36,173.78z"
				/>
		</g>
	</g>
	<g>
		<g>
			<path class="st9" d="M5116.1,165.27c-21.66,9.25-41.03,23.77-53.88,43.76c-11.57,18-15.63,39.06-21.47,59.32
				c-7.57,26.24-19.36,53.43-34.28,76.41c-15.03,23.14-37.51,25.43-60.51,10.82c-18.37-11.67-34.74-29.05-40.79-50.16
				c-5.54-19.34-13.23-41.77-25.81-57.71c-18.76-23.78-36.12,11.89-42.41,26.81c-19.99,47.42-27.03,97.92-30.28,148.86
				c-1.38,21.72-2.59,43.57-7.51,64.84c-5.34,23.07-15.5,43.58-27.92,63.61c-6.07,9.8-18.6,32.71-33.33,25.47
				c-6.01-2.95-10.24-9.9-13.55-15.41c-12.59-20.96-19.95-45.28-27.26-68.46c-20.18-64.02-35.66-129.53-59.02-192.53
				c-15.82-42.67-36.77-101.16-84.35-116.85c-26.18-8.63-50.07-21.63-69.94-40.99c-10.19-9.93-19.75-24.34-34.47-27.74
				c-16.2-3.75-28.24,6.61-38.26,17.85c-13.66,15.31-30.27,30.11-52.32,21.95c-26.48-9.81-46.47-48.92-79.12-34.78
				c-21.65,9.38-30.73,37.33-38.28,57.57c-29.37,78.81-59.56,167.02-140.94,206.9c-40.64,19.91-73.64,50.21-94.29,90.87
				c-16.76,33-21.35,70.66-37.92,103.45c-20.91,41.38-68.76,28.21-102,9.49c-41.57-23.42-74.2-58.64-91.69-103.07
				c-7.47-18.97-14.15-38.18-23.45-56.38c-12.28-24.02-28.4-45.67-45.3-66.6c-10.96-13.58-26.09-33.49-45.69-33.16
				c-10.23,0.17-18.6,6.34-24.82,13.98c-18.2,22.35-24.58,54.72-32.07,81.8c-4.3,15.54-8.41,31.22-14.11,46.32
				c-3.36,8.9-8.09,22.85-17.22,27.65c-12.71,6.68-23.29-13.07-28.53-21.63c-8.18-13.35-15.2-27.85-25.75-39.58
				c-8.02-8.9-19.31-15.92-31.68-12.46c-11.56,3.24-19.19,14.44-25.25,24.02c-26.01,41.14-46.62,87.19-65.61,131.94
				c-5.3,12.49-11.13,40.24-27.17,43.69c-11.3,2.43-21.61-5.99-29.44-12.98c-11.19-10-21.2-21.29-31.91-31.78
				c-30.1-29.5-65.04-53.01-106.17-63.9c-18.65-4.94-35.77-3.94-54.68-4.37c-19.34-0.44-38.06-11.82-50.9-25.75
				c-29.53-32.05-36.42-81.83-50.39-121.61c-16.23-46.21-39.66-88.28-70.39-126.37c-26.03-32.27-57.26-66.27-95.55-83.94
				c-23.87-11.02-52.81-13.31-71.81,7.69c-17.83,19.7-24.03,49.33-30.73,74.18c-11.6,43.05-23.14,85.97-39.57,127.5
				c-18.08,45.67-43.19,87.79-64.37,131.95c-9.27,19.32-20.59,37.88-36.69,52.28c-20.58,18.41-47.36,27.57-74.6,29.55
				c-6.38,0.47-6.43,10.47,0,10c47.14-3.44,85.84-27.2,109.88-67.78c9.26-15.63,15.45-32.62,23.72-48.72
				c12.76-24.85,27.26-48.51,38.77-74.06c19.53-43.33,33.89-88.45,46.17-134.3c7.74-28.89,13.03-62.94,30.27-88.09
				c19.69-28.73,54.57-18.71,79.8-2.87c37.43,23.49,68.26,59.31,93.81,94.92c31.45,43.82,49.68,92.75,65.54,143.83
				c11.06,35.63,22.85,74.63,55.21,96.8c13.76,9.43,29.34,15.13,46.08,14.74c22.27-0.51,42.21,1.43,63.53,8.9
				c40.17,14.09,71.22,41.18,100.47,71.1c14.13,14.46,33.47,38.13,56.59,32.7c16.23-3.81,21.75-21.24,27.52-34.9
				c18.77-44.47,39.41-88.1,62.61-130.45c6.09-11.11,15.01-32.11,29.35-34.66c15.57-2.76,26.74,17.76,33.33,28.61
				c9.61,15.81,27.06,57.68,52.5,44.98c20.19-10.08,26.67-44.05,32.19-63.31c8.51-29.68,14.26-63.09,30.9-89.59
				c7.26-11.57,17.85-20.43,31.83-13.12c10.17,5.32,18.07,15.28,25.26,23.97c10.65,12.87,20.97,26.22,30.19,40.16
				c13.28,20.09,23.41,41.57,31.96,64.03c6.55,17.22,12.8,34.61,22.25,50.5c22.62,38.03,61.07,69.74,101.84,86.51
				c30.2,12.43,68.57,16,89.23-14.13c19.08-27.84,22.93-65.12,35.64-95.95c19-46.1,52.46-81.64,97.23-103.45
				c39.51-19.24,71.07-53.57,93.88-90.6c20.63-33.47,34.04-70.37,47.16-107.24c7.33-20.59,16-58.5,39.46-67.19
				c16.3-6.04,30.7,7.05,42.22,16.74c12.66,10.66,26.32,21.47,43.68,21.73c18.15,0.28,32.22-10.24,43.81-23.11
				c12.52-13.91,26.83-27.97,44.45-12.31c16.88,15.01,30.47,31.29,50.21,43.14c16.35,9.81,34.17,13.85,51.05,21.93
				c20.7,9.9,34.11,32.44,44.42,51.91c30.97,58.48,47.15,124.76,65.28,188c8.44,29.45,16.75,59.04,27.15,87.87
				c6.67,18.47,13.88,39.95,27.71,54.51c16.44,17.3,35.3,6,47.53-11c26.24-36.47,38.99-76.29,42.67-120.67
				c4.35-52.44,7.43-103.22,25.05-153.43c3.77-10.74,7.87-21.56,13.6-31.44c2.2-3.79,5.83-11.08,10.44-12.63
				c11.17-3.77,25.74,39.82,28.25,47.29c5.3,15.74,8.76,28.1,19.75,41.11c14.19,16.8,34.09,33.59,56.66,36.49
				c17.65,2.26,32-5.72,42.4-19.58c14.31-19.08,24.87-43.56,33.16-65.78c8.12-21.78,11-45.68,21.41-66.58
				c11.52-23.11,32.05-39.25,55.44-49.24C5127.05,171.39,5121.96,162.77,5116.1,165.27L5116.1,165.27z"/>
		</g>
	</g>
</g>
</svg>
