<?xml version="1.0" encoding="utf-8"?>
<!-- Generator: Adobe Illustrator 27.3.1, SVG Export Plug-In . SVG Version: 6.00 Build 0)  -->
<svg version="1.1" xmlns="http://www.w3.org/2000/svg" xmlns:xlink="http://www.w3.org/1999/xlink" x="0px" y="0px"
	 viewBox="0 0 2950 720" style="enable-background:new 0 0 2950 720;" xml:space="preserve">
<style type="text/css">
	.st0{display:none;}
	.st1{display:inline;fill:none;stroke:#3ECF82;stroke-miterlimit:10;}
	.st2{display:inline;fill:none;stroke:#FF0000;stroke-miterlimit:10;}
	.st3{display:inline;fill:none;stroke:#3ECF82;stroke-width:2.25;stroke-miterlimit:10;}
	.st4{display:inline;fill:none;stroke:#FE0E33;stroke-width:2.25;stroke-miterlimit:10;}
	.st5{display:inline;fill:#3ECF82;}
	.st6{display:inline;}
	.st7{fill:#3ECF82;}
	.st8{display:inline;fill:#FE0E33;}
	.st9{display:inline;fill:none;stroke:#FF0000;stroke-width:2.25;stroke-miterlimit:10;}
	.st10{display:inline;fill:#FF0000;stroke:#FF0000;stroke-miterlimit:10;}
	.st11{fill:#00A99D;}
</style>
<g id="Layer_7" class="st0">
	<path class="st1" d="M-51.73,352.97c-2.9,44.58,62.21,65.23,100.36,41.98s55.45-68.42,75.68-108.26s52.68-81.12,97.34-82.24
		c46.79-1.17,81.73,42.06,103.79,83.35s42.72,88.53,85.2,108.18c66.94,30.97,141.4-25.12,186.57-83.43
		c45.17-58.31,90.65-129.03,163.59-139.96c72.02-10.79,136.49,42.55,187.9,94.13c72.89,73.15,142.61,151.03,228.64,208.14
		c55.54,36.87,127.81,64.58,187.5,34.89c38.41-19.1,62.4-57.62,89.76-90.66c27.36-33.04,65.95-64.06,108.43-58.15
		c17.25,2.4,33.06,10.75,49.88,15.27c70.39,18.91,140.32-31.51,188.29-86.4c47.97-54.88,90.68-120.23,158.37-147.27
		c97.85-39.09,209.27,18.46,282.03,94.67s124.33,171.88,204,240.84c39.54,34.23,89.68,62.13,141.64,56.2
		c47.95-5.47,87.76-38.31,123.54-70.7c91.25-82.57,176.74-171.5,255.65-265.94"/>
	<path class="st2" d="M-57.14,204.51c84.44-23.96,164.5,44.71,225.58,107.74c59.9,61.82,119.8,123.64,179.69,185.46
		c19,19.61,39.07,39.91,65,48.45c53.22,17.53,107.85-19.72,149.58-57.11c117.61-105.37,229.88-236.27,385.6-262.46
		c104.39-17.56,211.2,16.68,304.72,66.28c93.52,49.6,178.15,114.52,270.93,165.5c86.29,47.42,190.87,82.63,281.74,44.73
		c127.29-53.08,177.14-228.03,310.07-264.73c169.54-46.81,319.21,165.89,494,146.31c33.6-3.76,65.57-16.16,96.75-29.21
		c96.55-40.41,189.97-88.27,279.18-143.01"/>
</g>
<g id="Layer_1" class="st0">
	<line class="st3" x1="12" y1="155" x2="12" y2="314"/>
	<line class="st3" x1="68" y1="128" x2="68" y2="234"/>
	<line class="st3" x1="153" y1="243" x2="153" y2="370"/>
	<line class="st3" x1="209" y1="265" x2="209" y2="376"/>
	<line class="st3" x1="236" y1="190" x2="236" y2="351"/>
	<line class="st3" x1="265" y1="139" x2="265" y2="243"/>
	<line class="st3" x1="320" y1="314" x2="320" y2="422"/>
	<line class="st3" x1="376" y1="482" x2="376" y2="556"/>
	<line class="st3" x1="434" y1="431" x2="434" y2="621"/>
	<line class="st3" x1="490" y1="337" x2="490" y2="482"/>
	<line class="st3" x1="543" y1="198" x2="543" y2="389"/>
	<line class="st3" x1="573" y1="107" x2="573" y2="306"/>
	<line class="st3" x1="657" y1="50" x2="657" y2="214"/>
	<line class="st3" x1="685" y1="50" x2="685" y2="107"/>
	<line class="st3" x1="741" y1="107" x2="741" y2="249"/>
	<line class="st3" x1="797" y1="55" x2="797" y2="214"/>
	<line class="st3" x1="824" y1="55" x2="824" y2="148"/>
	<line class="st3" x1="852" y1="12" x2="852" y2="161"/>
	<line class="st3" x1="939" y1="161" x2="939" y2="288"/>
	<line class="st3" x1="1020" y1="256" x2="1020" y2="431"/>
	<line class="st3" x1="1134" y1="467" x2="1134" y2="576"/>
	<line class="st3" x1="1217" y1="576" x2="1217" y2="612"/>
	<line class="st3" x1="1303" y1="556" x2="1303" y2="644"/>
	<line class="st3" x1="1330" y1="351" x2="1330" y2="627"/>
	<line class="st3" x1="1414" y1="270" x2="1414" y2="409"/>
	<line class="st3" x1="1470" y1="206" x2="1470" y2="370"/>
	<line class="st3" x1="1553" y1="409" x2="1553" y2="526"/>
	<line class="st3" x1="1611" y1="431" x2="1611" y2="548"/>
	<line class="st3" x1="1637" y1="288" x2="1637" y2="467"/>
	<line class="st3" x1="1748" y1="511" x2="1748" y2="693"/>
	<line class="st3" x1="1806" y1="564" x2="1806" y2="621"/>
	<line class="st3" x1="1834" y1="482" x2="1834" y2="612"/>
	<line class="st4" x1="41.5" y1="106.5" x2="41.5" y2="197.5"/>
	<line class="st4" x1="97.5" y1="169.5" x2="97.5" y2="313.5"/>
	<line class="st4" x1="125.5" y1="287.5" x2="125.5" y2="350.5"/>
	<line class="st4" x1="181.5" y1="293.5" x2="181.5" y2="388.5"/>
	<line class="st4" x1="293.5" y1="177.5" x2="293.5" y2="369.5"/>
	<line class="st4" x1="349.5" y1="350.5" x2="349.5" y2="563.5"/>
	<line class="st4" x1="405.5" y1="525.5" x2="405.5" y2="593.5"/>
	<line class="st4" x1="461.5" y1="421.5" x2="461.5" y2="521.5"/>
	<line class="st4" x1="517.5" y1="287.5" x2="517.5" y2="421.5"/>
	<line class="st4" x1="600.5" y1="127.5" x2="600.5" y2="189.5"/>
	<line class="st4" x1="630.5" y1="138.5" x2="630.5" y2="241.5"/>
	<line class="st4" x1="712.5" y1="78.5" x2="712.5" y2="205.5"/>
	<line class="st4" x1="769.5" y1="120.5" x2="769.5" y2="343.5"/>
	<line class="st4" x1="882.5" y1="78.5" x2="882.5" y2="189.5"/>
	<line class="st4" x1="909.5" y1="106.5" x2="909.5" y2="273.5"/>
	<line class="st4" x1="965.5" y1="231.5" x2="965.5" y2="320.5"/>
	<line class="st4" x1="993.5" y1="248.5" x2="993.5" y2="471.5"/>
	<line class="st4" x1="1049.5" y1="275.5" x2="1049.5" y2="421.5"/>
	<line class="st4" x1="1077.5" y1="242.5" x2="1077.5" y2="510.5"/>
	<line class="st4" x1="1106.5" y1="441.5" x2="1106.5" y2="563.5"/>
	<line class="st4" x1="1163.5" y1="525.5" x2="1163.5" y2="611.5"/>
	<line class="st4" x1="1191.5" y1="563.5" x2="1191.5" y2="620.5"/>
	<line class="st4" x1="1245.5" y1="510.5" x2="1245.5" y2="611.5"/>
	<line class="st4" x1="1272.5" y1="547.5" x2="1272.5" y2="626.5"/>
	<line class="st4" x1="1358.5" y1="336.5" x2="1358.5" y2="441.5"/>
	<line class="st4" x1="1386.5" y1="350.5" x2="1386.5" y2="488.5"/>
	<line class="st4" x1="1442.5" y1="270.5" x2="1442.5" y2="367.5"/>
	<line class="st4" x1="1497.5" y1="281.5" x2="1497.5" y2="495.5"/>
	<line class="st4" x1="1525.5" y1="471.5" x2="1525.5" y2="586.5"/>
	<line class="st4" x1="1582.5" y1="456.5" x2="1582.5" y2="575.5"/>
	<line class="st4" x1="1665.5" y1="305.5" x2="1665.5" y2="456.5"/>
	<line class="st4" x1="1694.5" y1="399.5" x2="1694.5" y2="575.5"/>
	<line class="st4" x1="1721.5" y1="495.5" x2="1721.5" y2="586.5"/>
	<line class="st4" x1="1777.5" y1="547.5" x2="1777.5" y2="711.5"/>
	<line class="st4" x1="1862.5" y1="456.5" x2="1862.5" y2="586.5"/>
	<line class="st4" x1="1890.5" y1="524.5" x2="1890.5" y2="642.5"/>
</g>
<g id="Layer_3" class="st0">
	<rect x="6" y="177" class="st5" width="13" height="128"/>
	<rect x="62" y="169" class="st5" width="14" height="36"/>
	<rect x="143" y="265" class="st5" width="19" height="64"/>
	<rect x="202" y="305" class="st5" width="16" height="31"/>
	<rect x="229" y="232" class="st5" width="17" height="82"/>
	<rect x="257" y="181" class="st5" width="15" height="50"/>
	<rect x="313" y="359" class="st5" width="15" height="49"/>
	<rect x="368" y="521" class="st5" width="18" height="18"/>
	<rect x="424" y="471" class="st5" width="16" height="90"/>
	<rect x="482" y="377" class="st5" width="18" height="74"/>
	<rect x="535" y="191" class="st5" width="18" height="190"/>
	<rect x="565" y="152" class="st5" width="16" height="113"/>
	<rect x="650" y="86" class="st5" width="15" height="83"/>
	<rect x="677" y="86" class="st5" width="18" height="11"/>
	<rect x="734" y="152" class="st5" width="16" height="82"/>
	<rect x="789" y="97" class="st5" width="15" height="80"/>
	<rect x="818" y="97" class="st5" width="14" height="24"/>
	<rect x="845" y="55" class="st5" width="17" height="66"/>
	<rect x="931" y="197" class="st5" width="15" height="76"/>
	<rect x="1013" y="297" class="st5" width="17" height="46"/>
	<rect x="1125" y="482" class="st5" width="17" height="74"/>
	<rect x="1209" y="574" class="st5" width="17" height="17"/>
	<rect x="1295" y="564" class="st5" width="14" height="56"/>
	<rect x="1320" y="389" class="st5" width="20" height="211"/>
	<rect x="1404" y="313" class="st5" width="18" height="86"/>
	<rect x="1464" y="243" class="st5" width="13" height="86"/>
	<rect x="1546" y="431" class="st5" width="16" height="63"/>
	<rect x="1602" y="439" class="st5" width="15" height="60"/>
	<rect x="1629" y="351" class="st5" width="17" height="100"/>
	<rect x="1742" y="556" class="st5" width="15" height="36"/>
	<rect x="1800" y="586" class="st5" width="14" height="26"/>
	<rect x="1826" y="516" class="st5" width="16" height="75"/>
	<line class="st3" x1="2321" y1="124" x2="2321" y2="217"/>
	<rect x="2314" y="162" class="st5" width="13" height="17"/>
	<g class="st6">
		<g>
			<path class="st7" d="M1170.55-201c1.93,0,1.93-3,0-3C1168.62-204,1168.62-201,1170.55-201L1170.55-201z"/>
		</g>
	</g>
</g>
<g id="Layer_4" class="st0">
	<rect x="32" y="148" class="st8" width="16" height="39"/>
	<rect x="88" y="214" class="st8" width="17" height="80"/>
	<rect x="117" y="302" class="st8" width="15" height="27"/>
	<rect x="171" y="333" class="st8" width="19" height="10"/>
	<rect x="285" y="214" class="st8" width="14" height="156"/>
	<rect x="341" y="389" class="st8" width="16" height="150"/>
	<rect x="397" y="521" class="st8" width="17" height="47"/>
	<rect x="453" y="463" class="st8" width="17" height="12"/>
	<rect x="510" y="324" class="st8" width="15" height="57"/>
	<rect x="594" y="142" class="st8" width="16" height="22"/>
	<rect x="620" y="161" class="st8" width="18" height="45"/>
	<rect x="706" y="88" class="st8" width="15" height="84"/>
	<rect x="763" y="161" class="st8" width="14" height="60"/>
	<rect x="873" y="117" class="st8" width="17" height="44"/>
	<rect x="902" y="148" class="st8" width="16" height="126"/>
	<rect x="957" y="270" class="st8" width="16" height="32"/>
	<rect x="985" y="290.85" class="st8" width="16" height="76.31"/>
	<rect x="1042" y="321" class="st8" width="15" height="22"/>
	<rect x="1068" y="324" class="st8" width="18" height="151"/>
	<rect x="1097" y="482" class="st8" width="18" height="79"/>
	<rect x="1155" y="541" class="st8" width="14" height="42"/>
	<rect x="1182" y="569" class="st8" width="16" height="33"/>
	<rect x="1238" y="551" class="st8" width="15" height="35"/>
	<rect x="1266" y="562" class="st8" width="15" height="37"/>
	<rect x="1350" y="377" class="st8" width="15" height="29"/>
	<rect x="1378" y="392" class="st8" width="17" height="54"/>
	<rect x="1434" y="313" class="st8" width="16" height="24"/>
	<rect x="1489" y="324" class="st8" width="18" height="166"/>
	<rect x="1519" y="472" class="st8" width="15" height="47"/>
	<rect x="1574" y="499" class="st8" width="18" height="48"/>
	<rect x="1659" y="351" class="st8" width="14" height="98"/>
	<rect x="1687" y="442" class="st8" width="14" height="90"/>
	<rect x="1714" y="539" class="st8" width="15" height="15"/>
	<rect x="1770" y="586" class="st8" width="15" height="107"/>
	<rect x="1854" y="514" class="st8" width="16" height="65"/>
	<rect x="1883" y="527" class="st8" width="15" height="53"/>
	<line class="st9" x1="2939.36" y1="154.13" x2="2939.36" y2="313.13"/>
	<line class="st3" x1="2882.7" y1="127.13" x2="2882.7" y2="233.13"/>
	<line class="st3" x1="2796.71" y1="242.13" x2="2796.71" y2="369.13"/>
	<line class="st3" x1="2740.05" y1="264.13" x2="2740.05" y2="375.13"/>
	<line class="st3" x1="2712.73" y1="189.13" x2="2712.73" y2="350.13"/>
	<line class="st3" x1="2683.39" y1="138.13" x2="2683.39" y2="242.13"/>
	<line class="st3" x1="2627.75" y1="313.13" x2="2627.75" y2="421.13"/>
	<line class="st3" x1="2571.09" y1="481.13" x2="2571.09" y2="555.13"/>
	<line class="st3" x1="2512.41" y1="430.13" x2="2512.41" y2="620.13"/>
	<line class="st3" x1="2455.75" y1="336.13" x2="2455.75" y2="481.13"/>
	<line class="st3" x1="2402.13" y1="197.13" x2="2402.13" y2="388.13"/>
	<line class="st3" x1="2371.78" y1="106.13" x2="2371.78" y2="305.13"/>
	<line class="st4" x1="2909.51" y1="105.63" x2="2909.51" y2="196.63"/>
	<line class="st4" x1="2852.86" y1="168.63" x2="2852.86" y2="312.63"/>
	<line class="st4" x1="2824.53" y1="286.63" x2="2824.53" y2="349.63"/>
	<line class="st4" x1="2767.87" y1="292.63" x2="2767.87" y2="387.63"/>
	<line class="st4" x1="2654.56" y1="176.63" x2="2654.56" y2="368.63"/>
	<line class="st4" x1="2597.9" y1="349.63" x2="2597.9" y2="562.63"/>
	<line class="st4" x1="2541.24" y1="524.63" x2="2541.24" y2="592.63"/>
	<line class="st4" x1="2484.59" y1="420.63" x2="2484.59" y2="520.63"/>
	<line class="st4" x1="2427.93" y1="286.63" x2="2427.93" y2="420.63"/>
	<line class="st4" x1="2343.95" y1="126.63" x2="2343.95" y2="188.63"/>
	
		<rect x="2932.28" y="176.13" transform="matrix(-1 -1.224647e-16 1.224647e-16 -1 5877.7104 480.2566)" class="st10" width="13.15" height="128"/>
	
		<rect x="2874.61" y="168.13" transform="matrix(-1 -1.224647e-16 1.224647e-16 -1 5763.3843 372.2566)" class="st5" width="14.16" height="36"/>
	
		<rect x="2787.6" y="264.13" transform="matrix(-1 -1.224647e-16 1.224647e-16 -1 5594.4243 592.2567)" class="st5" width="19.22" height="64"/>
	
		<rect x="2730.94" y="304.13" transform="matrix(-1 -1.224647e-16 1.224647e-16 -1 5478.0742 639.2567)" class="st5" width="16.19" height="31"/>
	
		<rect x="2702.61" y="231.13" transform="matrix(-1 -1.224647e-16 1.224647e-16 -1 5422.4287 544.2567)" class="st5" width="17.2" height="82"/>
	
		<rect x="2676.31" y="180.13" transform="matrix(-1 -1.224647e-16 1.224647e-16 -1 5367.7954 410.2566)" class="st5" width="15.18" height="50"/>
	
		<rect x="2619.65" y="358.13" transform="matrix(-1 -1.224647e-16 1.224647e-16 -1 5254.4805 765.2567)" class="st5" width="15.18" height="49"/>
	
		<rect x="2560.97" y="520.13" transform="matrix(-1 -1.224647e-16 1.224647e-16 -1 5140.1543 1058.2566)" class="st5" width="18.21" height="18"/>
	
		<rect x="2506.34" y="470.13" transform="matrix(-1 -1.224647e-16 1.224647e-16 -1 5028.8633 1030.2566)" class="st5" width="16.19" height="90"/>
	
		<rect x="2445.63" y="376.13" transform="matrix(-1 -1.224647e-16 1.224647e-16 -1 4909.4785 826.2567)" class="st5" width="18.21" height="74"/>
	
		<rect x="2392.01" y="190.13" transform="matrix(-1 -1.224647e-16 1.224647e-16 -1 4802.2344 570.2567)" class="st5" width="18.21" height="190"/>
	
		<rect x="2363.68" y="151.13" transform="matrix(-1 -1.224647e-16 1.224647e-16 -1 4743.5537 415.2566)" class="st5" width="16.19" height="113"/>
	
		<rect x="2902.94" y="147.13" transform="matrix(-1 -1.224647e-16 1.224647e-16 -1 5822.0649 333.2566)" class="st8" width="16.19" height="39"/>
	
		<rect x="2845.27" y="213.13" transform="matrix(-1 -1.224647e-16 1.224647e-16 -1 5707.7388 506.2566)" class="st8" width="17.2" height="80"/>
	
		<rect x="2817.95" y="301.13" transform="matrix(-1 -1.224647e-16 1.224647e-16 -1 5651.0815 629.2567)" class="st8" width="15.18" height="27"/>
	
		<rect x="2759.27" y="332.13" transform="matrix(-1 -1.224647e-16 1.224647e-16 -1 5537.7671 674.2567)" class="st8" width="19.22" height="10"/>
	
		<rect x="2648.99" y="213.13" transform="matrix(-1 -1.224647e-16 1.224647e-16 -1 5312.1499 582.2567)" class="st8" width="14.16" height="156"/>
	
		<rect x="2590.31" y="388.13" transform="matrix(-1 -1.224647e-16 1.224647e-16 -1 5196.8115 926.2567)" class="st8" width="16.19" height="150"/>
	
		<rect x="2532.64" y="520.13" transform="matrix(-1 -1.224647e-16 1.224647e-16 -1 5082.4854 1087.2566)" class="st8" width="17.2" height="47"/>
	
		<rect x="2475.99" y="462.13" transform="matrix(-1 -1.224647e-16 1.224647e-16 -1 4969.1709 936.2567)" class="st8" width="17.2" height="12"/>
	
		<rect x="2420.34" y="323.13" transform="matrix(-1 -1.224647e-16 1.224647e-16 -1 4855.8564 703.2567)" class="st8" width="15.18" height="57"/>
	
		<rect x="2334.34" y="141.13" transform="matrix(-1 -1.224647e-16 1.224647e-16 -1 4684.873 304.2566)" class="st8" width="16.19" height="22"/>
	<line class="st3" x1="2270.02" y1="50.88" x2="2270.02" y2="177.88"/>
	<line class="st3" x1="2190.11" y1="145.88" x2="2190.11" y2="320.88"/>
	<line class="st3" x1="2077.64" y1="356.88" x2="2077.64" y2="465.88"/>
	<line class="st3" x1="1995.76" y1="478.88" x2="1995.76" y2="514.88"/>
	<line class="st3" x1="1910.92" y1="458.88" x2="1910.92" y2="546.88"/>
	<line class="st4" x1="2299.12" y1="14" x2="2299.12" y2="163.38"/>
	<line class="st4" x1="2243.88" y1="121.38" x2="2243.88" y2="210.38"/>
	<line class="st4" x1="2216.25" y1="138.38" x2="2216.25" y2="361.38"/>
	<line class="st4" x1="2161.01" y1="165.38" x2="2161.01" y2="311.38"/>
	<line class="st4" x1="2133.38" y1="132.38" x2="2133.38" y2="400.38"/>
	<line class="st4" x1="2104.77" y1="331.38" x2="2104.77" y2="453.38"/>
	<line class="st4" x1="2048.54" y1="428.38" x2="2048.54" y2="514.38"/>
	<line class="st4" x1="2020.92" y1="466.38" x2="2020.92" y2="523.38"/>
	<line class="st4" x1="1967.65" y1="413.38" x2="1967.65" y2="514.38"/>
	<line class="st4" x1="1941.01" y1="450.38" x2="1941.01" y2="529.38"/>
	
		<rect x="2263.11" y="86.88" transform="matrix(-1 -1.224647e-16 1.224647e-16 -1 4541.0249 249.7522)" class="st5" width="14.8" height="76"/>
	
		<rect x="2180.24" y="186.88" transform="matrix(-1 -1.224647e-16 1.224647e-16 -1 4377.2598 419.7522)" class="st5" width="16.77" height="46"/>
	
		<rect x="2069.75" y="371.88" transform="matrix(-1 -1.224647e-16 1.224647e-16 -1 4156.2749 817.7522)" class="st5" width="16.77" height="74"/>
	
		<rect x="1986.88" y="476.88" transform="matrix(-1 -1.224647e-16 1.224647e-16 -1 3990.5366 970.7522)" class="st5" width="16.77" height="17"/>
	
		<rect x="1905" y="466.88" transform="matrix(-1 -1.224647e-16 1.224647e-16 -1 3823.8115 989.7522)" class="st5" width="13.81" height="56"/>
	
		<rect x="2290.74" y="37.88" transform="matrix(-1 -1.224647e-16 1.224647e-16 -1 4597.2578 201.7522)" class="st8" width="15.78" height="126"/>
	
		<rect x="2236.48" y="159.88" transform="matrix(-1 -1.224647e-16 1.224647e-16 -1 4488.7383 351.7522)" class="st8" width="15.78" height="32"/>
	
		<rect x="2208.85" y="180.72" transform="matrix(-1 -1.224647e-16 1.224647e-16 -1 4433.4922 437.7522)" class="st8" width="15.78" height="76.31"/>
	
		<rect x="2153.61" y="210.88" transform="matrix(-1 -1.224647e-16 1.224647e-16 -1 4322.0137 443.7522)" class="st8" width="14.8" height="22"/>
	
		<rect x="2125" y="213.88" transform="matrix(-1 -1.224647e-16 1.224647e-16 -1 4267.7539 578.7522)" class="st8" width="17.76" height="151"/>
	
		<rect x="2096.39" y="371.88" transform="matrix(-1 -1.224647e-16 1.224647e-16 -1 4210.5347 822.7522)" class="st8" width="17.76" height="79"/>
	
		<rect x="2043.12" y="443.88" transform="matrix(-1 -1.224647e-16 1.224647e-16 -1 4100.0425 929.7522)" class="st8" width="13.81" height="42"/>
	
		<rect x="2014.51" y="471.88" transform="matrix(-1 -1.224647e-16 1.224647e-16 -1 4044.7961 976.7522)" class="st8" width="15.78" height="33"/>
	
		<rect x="1960.25" y="453.88" transform="matrix(-1 -1.224647e-16 1.224647e-16 -1 3935.2903 942.7522)" class="st8" width="14.8" height="35"/>
	
		<rect x="1932.62" y="464.88" transform="matrix(-1 -1.224647e-16 1.224647e-16 -1 3880.0442 966.7522)" class="st8" width="14.8" height="37"/>
</g>
<g id="Layer_6" class="st0">
</g>
<g id="Layer_2" class="st0">
</g>
<g id="Layer_5" class="st0">
	<g class="st6">
		<g>
			<path d="M232.71,273.38c0.48,0,0.48-0.75,0-0.75C232.23,272.62,232.22,273.38,232.71,273.38L232.71,273.38z"/>
		</g>
	</g>
	<g class="st6">
		<g>
			<path class="st7" d="M39.01,166.33c0.48,0,0.48-0.75,0-0.75C38.53,165.58,38.53,166.33,39.01,166.33L39.01,166.33z"/>
		</g>
	</g>
</g>
<g id="Layer_8">
	<g>
		<g>
			<path class="st11" d="M-21.66,307.34c7.82-36.33,17.89-72.1,30.56-107.04c6.03-16.63,11.85-44.34,30.8-50.95
				c21.99-7.66,41.8,12.83,48.03,31.67c8.69,26.28,4.52,55.6,10.79,82.63c4.7,20.24,12.94,41.47,28.69,55.73
				c38.35,34.71,89.37,2.6,106.4-37.83c6.07-14.39,9.13-29.83,11.1-45.26c0.83-6.5,0.16-15.16,2.1-21.29
				c1.84-5.78-4.23-13.11,11.78-10.67c5.99,0.91,12.07,7.88,15.27,12.35c8.81,12.3,11.55,26.8,14.16,41.34
				c3.48,19.38,6.96,38.76,10.44,58.13c15.31,85.26,30.62,170.52,45.93,255.78c0.13,0.74,1.14,1.33,1.85,1.05
				c118.75-47.05,148.59-186.47,197.98-290.02c14.47-30.33,31.27-59.95,53.19-85.57c21.46-25.07,50.49-51.14,83.61-58.38
				c24.94-5.46,41.4,4.84,56.17,23.87c7.53,9.7,14.99,19.34,26.52,24.43c26.64,11.77,57.33-2.74,83.89-7.38
				c38.59-6.74,72.25,10.77,96.34,40.52c24.36,30.1,34.66,68.24,45.36,104.71c18.63,63.46,47.4,120.8,94.59,168.01
				c41.19,41.21,93.91,74.89,153.18,80.05c57.48,5,102.4-24.01,124.42-76.82c14.42-34.58,19.72-72.95,38.69-105.61
				c18.45-31.76,51.89-63.25,91.67-52.06c30.06,8.46,46.5,37.65,60.15,63.4c13.15,24.81,25.18,50.65,45.09,70.93
				c0.6,0.61,1.51,0.53,2.12,0c13.5-11.75,27.01-23.5,40.51-35.26c15.91-13.85,38.48-42.15,60.86-22.84
				c18.21,15.72,29.04,40.84,41.22,61.13c22.62,37.69,51.27,65.88,98.07,50.55c53.54-17.54,105.29-47.84,151.8-79.13
				c47.04-31.65,90.68-68.37,129.84-109.37c19.34-20.25,37.58-41.55,54.61-63.78c19.29-25.19,36.86-52.09,59.98-74.06
				c23.35-22.19,54.41-39.27,87.53-37.64c36.22,1.79,59.93,28.41,77.24,57.61c31.25,52.71,43.33,113.7,63.24,171
				c8.3,23.88,37.1,116.09,77.9,87.45c10.63-7.46,15.51-21.35,20.6-32.65c8.13-18.06,16.27-36.11,24.4-54.17
				c16.27-36.11,32.48-72.25,48.81-108.34c7.62-16.84,16.18-36.73,36.49-40.44c20.49-3.74,39.34,11.69,51.47,26.56
				c17.1,20.97,28.22,46.9,54.09,58.76c0.45,0.21,1.07,0.34,1.51,0c44.45-34.3,83.35-75.26,114.74-121.85
				c7.66-11.38,13.49-25.79,22.24-36.15c3.76-4.45,1.64-5.07,5.85-0.76c2.21,2.26,3.55,7.77,4.87,10.67
				c3.66,8,7.31,16.01,10.97,24.01c14.62,32.02,29.25,64.03,43.87,96.05c0.8,1.75,3.39,0.23,2.59-1.51
				c-21.12-46.24-42.24-92.49-63.36-138.73c-0.47-1.03-2.09-0.93-2.59,0c-18.95,35.11-41.59,68.02-68.01,97.93
				c-12.13,13.73-24.98,26.81-38.5,39.17c-7.28,6.65-14.66,13.83-22.7,19.56c-13.86,9.87-18.46,6.58-29.89-4.7
				c-22.87-22.56-33.61-57.4-65.88-69.61c-28.1-10.63-46.22,9.42-57.34,32.92c-19.23,40.65-37,82.07-55.47,123.08
				c-8.7,19.32-16.86,39-26.18,58.03c-4.57,9.32-10.23,20.09-21.18,23.11c-15.96,4.41-28.91-10.17-36.52-21.96
				c-20.82-32.23-31.86-71.62-42.98-107.99c-10.78-35.27-20.96-70.95-36.57-104.47c-13.63-29.26-32.2-62.73-62.36-77.68
				c-27.19-13.47-59.43-8.38-85.64,4.95c-31.44,15.99-54.02,44.33-74.72,72.04c-23.71,31.75-47.82,62.79-75.23,91.47
				c-52.04,54.46-111.91,101.32-177.27,138.76c-33.64,19.27-70.7,40.18-108.22,50.58c-39.98,11.09-65.69-12.53-85.53-44.24
				c-14.32-22.9-26.39-55.18-49.25-71.14c-8.63-6.03-17.54-7.44-27.15-2.7c-17.7,8.73-33.2,27.37-47.89,40.16
				c-4.81,4.19-16.42,18.07-22.5,19.59c-8.47,2.12-13.27-8.16-17.99-14.94c-8.43-12.13-15.32-25.26-22.15-38.33
				c-11.48-21.98-22.67-45.98-41.59-62.71c-45.99-40.66-100.13-2.51-124.44,42.11c-33.08,60.73-29.73,150.43-109.65,173.08
				c-71.65,20.31-146.82-23.59-196.36-71.83c-26.64-25.94-49.11-56.09-66.33-89.04c-18.5-35.39-27.91-73.38-39.9-111.19
				c-18.61-58.73-59.56-128.13-131.41-117.94c-37.31,5.29-77.46,27.31-106.73-8.08c-9.63-11.65-17.4-24.9-32.2-30.65
				c-13.39-5.2-28.48-3.33-41.78,1.21c-59.98,20.46-100,82.63-126.44,136.53c-30.5,62.19-49.97,129.37-85.58,189.1
				c-18.25,30.61-40.58,59.53-69.26,81.06c-6.95,5.22-34.82,27.51-43.54,19.92c-4.05-3.52-4.16-23.16-5.22-29.07
				c-2.44-13.56-4.87-27.13-7.31-40.69c-8-44.57-16.01-89.14-24.01-133.7c-3.83-21.32-7.65-42.63-11.48-63.95
				c-3.78-21.03-5.52-43.72-12.45-63.95c-5.84-17.06-19.59-39.54-40.44-30.67c-0.49,0.21-0.71,0.81-0.74,1.3
				c-3.3,45.69-9.8,103.84-59.38,122.75c-43.32,16.52-72.39-21.55-82.37-58.79c-4.71-17.59-5.95-35.43-6.98-53.52
				c-1.01-17.67-2.75-37.16-13.68-51.87c-14.65-19.71-44.62-25.81-59.48-3.35C9.95,179.07,3.77,204.75-3.25,226.53
				c-8.48,26.3-15.49,53.01-21.31,80.02C-24.96,308.43-22.07,309.23-21.66,307.34L-21.66,307.34z"/>
		</g>
	</g>
</g>
</svg>
