<?xml version="1.0" encoding="utf-8"?>
<!-- Generator: Adobe Illustrator 27.3.1, SVG Export Plug-In . SVG Version: 6.00 Build 0)  -->
<svg version="1.1" xmlns="http://www.w3.org/2000/svg" xmlns:xlink="http://www.w3.org/1999/xlink" x="0px" y="0px"
	 viewBox="0 0 5122 720" style="enable-background:new 0 0 5122 720;" xml:space="preserve">
<style type="text/css">
	.st0{display:none;}
	.st1{display:inline;fill:none;stroke:#3ECF82;stroke-miterlimit:10;}
	.st2{display:inline;fill:none;stroke:#FF0000;stroke-miterlimit:10;}
	.st3{display:inline;fill:none;stroke:#3ECF82;stroke-width:2.25;stroke-miterlimit:10;}
	.st4{display:inline;fill:none;stroke:#FE0E33;stroke-width:2.25;stroke-miterlimit:10;}
	.st5{display:inline;fill:#3ECF82;}
	.st6{display:inline;fill:#FE0E33;}
	.st7{display:inline;}
	.st8{fill:#3ECF82;}
	.st9{opacity:0.4;}
	.st10{fill:#2A4747;}
	.st11{fill:#00B920;stroke:#FFFFFF;stroke-width:6;stroke-miterlimit:10;}
	.st12{fill:#26A000;}
	.st13{fill:#FA3800;stroke:#FFFFFF;stroke-width:6;stroke-miterlimit:10;}
	.st14{fill:#FA3800;}
</style>
<g id="Layer_1">
	<g id="Layer_7" class="st0">
		<path class="st1" d="M-10.9,403.6c17,2.6,35.2,0.1,49.5-8.6c38.2-23.2,55.5-68.4,75.7-108.3s52.7-81.1,97.3-82.2
			c46.8-1.2,81.7,42.1,103.8,83.4s42.7,88.5,85.2,108.2c66.9,31,141.4-25.1,186.6-83.4s90.7-129,163.6-140
			c72-10.8,136.5,42.6,187.9,94.1c72.9,73.1,142.6,151,228.6,208.1c55.5,36.9,127.8,64.6,187.5,34.9c38.4-19.1,62.4-57.6,89.8-90.7
			S1510.6,355,1553,361c17.2,2.4,33.1,10.8,49.9,15.3c70.4,18.9,140.3-31.5,188.3-86.4c48-54.9,90.7-120.2,158.4-147.3
			c97.8-39.1,209.3,18.5,282,94.7s124.3,171.9,204,240.8c39.5,34.2,89.7,62.1,141.6,56.2"/>
		<path class="st2" d="M-10.9,201.3c63.3,9.9,122,62.1,169.4,111c59.9,61.8,119.8,123.6,179.7,185.5c19,19.6,39.1,39.9,65,48.5
			c53.2,17.5,107.9-19.7,149.6-57.1c117.6-105.4,229.9-236.3,385.6-262.5c104.4-17.6,211.2,16.7,304.7,66.3s178.2,114.5,270.9,165.5
			c86.3,47.4,190.9,82.6,281.7,44.7c127.3-53.1,177.1-228,310.1-264.7c150.1-41.4,284.7,120.6,434.9,144.6l8.8,1.5l11.9,0.4"/>
		<path class="st1" d="M5131.9,403.2c-17,2.6-35.2,0.1-49.5-8.6c-38.1-23.2-55.5-68.4-75.7-108.3s-52.7-81.1-97.3-82.2
			c-46.8-1.2-81.7,42.1-103.8,83.4s-42.7,88.5-85.2,108.2c-66.9,31-141.4-25.1-186.6-83.4s-90.6-129-163.6-140
			c-72-10.8-136.5,42.6-187.9,94.1c-72.9,73.1-142.6,151-228.6,208.1c-55.5,36.9-127.8,64.6-187.5,34.9
			c-38.4-19.1-62.4-57.6-89.8-90.7s-65.9-64.1-108.4-58.1c-17.2,2.4-33.1,10.8-49.9,15.3c-70.4,18.9-140.3-31.5-188.3-86.4
			c-48-54.9-90.7-120.2-158.4-147.3c-97.9-39.1-209.3,18.5-282,94.7s-124.3,171.9-204,240.8c-39.5,34.2-89.7,62.1-141.6,56.2"/>
		<path class="st2" d="M2548.2,385.5"/>
		<path class="st2" d="M5131.9,200.9c-63.3,9.9-122,62.1-169.4,111c-59.9,61.8-119.8,123.6-179.7,185.5c-19,19.6-39.1,39.9-65,48.5
			c-53.2,17.5-107.9-19.7-149.6-57.1c-117.6-105.4-229.9-236.3-385.6-262.5c-104.4-17.6-211.2,16.7-304.7,66.3S3699.8,407,3607,458
			c-86.3,47.4-190.9,82.6-281.7,44.7c-127.3-53.1-177.1-228-310.1-264.7c-156.5-43.2-296.1,134.7-454.1,146.9"/>
		<line class="st3" x1="5118.9" y1="154.6" x2="5118.9" y2="313.6"/>
		<line class="st3" x1="5062.9" y1="127.6" x2="5062.9" y2="233.6"/>
		<line class="st3" x1="4977.9" y1="242.6" x2="4977.9" y2="369.6"/>
		<line class="st3" x1="4921.9" y1="264.6" x2="4921.9" y2="375.6"/>
		<line class="st3" x1="4894.9" y1="189.6" x2="4894.9" y2="350.6"/>
		<line class="st3" x1="4865.9" y1="138.6" x2="4865.9" y2="242.6"/>
		<line class="st3" x1="4810.9" y1="313.6" x2="4810.9" y2="421.6"/>
		<line class="st3" x1="4754.9" y1="481.6" x2="4754.9" y2="555.6"/>
		<line class="st3" x1="4696.9" y1="430.6" x2="4696.9" y2="620.6"/>
		<line class="st3" x1="4640.9" y1="336.6" x2="4640.9" y2="481.6"/>
		<line class="st3" x1="4587.9" y1="197.6" x2="4587.9" y2="388.6"/>
		<line class="st3" x1="4557.9" y1="106.6" x2="4557.9" y2="305.6"/>
		<line class="st3" x1="4473.9" y1="49.6" x2="4473.9" y2="213.6"/>
		<line class="st3" x1="4445.9" y1="49.6" x2="4445.9" y2="106.6"/>
		<line class="st3" x1="4389.9" y1="106.6" x2="4389.9" y2="248.6"/>
		<line class="st3" x1="4333.9" y1="54.6" x2="4333.9" y2="213.6"/>
		<line class="st3" x1="4306.9" y1="54.6" x2="4306.9" y2="147.6"/>
		<line class="st3" x1="4278.9" y1="11.6" x2="4278.9" y2="160.6"/>
		<line class="st3" x1="4191.9" y1="160.6" x2="4191.9" y2="287.6"/>
		<line class="st3" x1="4110.9" y1="255.6" x2="4110.9" y2="430.6"/>
		<line class="st3" x1="3996.9" y1="466.6" x2="3996.9" y2="575.6"/>
		<line class="st3" x1="3913.9" y1="575.6" x2="3913.9" y2="611.6"/>
		<line class="st3" x1="3827.9" y1="555.6" x2="3827.9" y2="643.6"/>
		<line class="st3" x1="3800.9" y1="350.6" x2="3800.9" y2="626.6"/>
		<line class="st3" x1="3716.9" y1="269.6" x2="3716.9" y2="408.6"/>
		<line class="st3" x1="3660.9" y1="205.6" x2="3660.9" y2="369.6"/>
		<line class="st3" x1="3577.9" y1="408.6" x2="3577.9" y2="525.6"/>
		<line class="st3" x1="3519.9" y1="430.6" x2="3519.9" y2="547.6"/>
		<line class="st3" x1="3493.9" y1="287.6" x2="3493.9" y2="466.6"/>
		<line class="st3" x1="3382.9" y1="510.6" x2="3382.9" y2="692.6"/>
		<line class="st3" x1="3324.9" y1="563.6" x2="3324.9" y2="620.6"/>
		<line class="st3" x1="3296.9" y1="481.6" x2="3296.9" y2="611.6"/>
		<line class="st4" x1="5089.4" y1="106.1" x2="5089.4" y2="197.1"/>
		<line class="st4" x1="5033.4" y1="169.1" x2="5033.4" y2="313.1"/>
		<line class="st4" x1="5005.4" y1="287.1" x2="5005.4" y2="350.1"/>
		<line class="st4" x1="4949.4" y1="293.1" x2="4949.4" y2="388.1"/>
		<line class="st4" x1="4837.4" y1="177.1" x2="4837.4" y2="369.1"/>
		<line class="st4" x1="4781.4" y1="350.1" x2="4781.4" y2="563.1"/>
		<line class="st4" x1="4725.4" y1="525.1" x2="4725.4" y2="593.1"/>
		<line class="st4" x1="4669.4" y1="421.1" x2="4669.4" y2="521.1"/>
		<line class="st4" x1="4613.4" y1="287.1" x2="4613.4" y2="421.1"/>
		<line class="st4" x1="4530.4" y1="127.1" x2="4530.4" y2="189.1"/>
		<line class="st4" x1="4500.4" y1="138.1" x2="4500.4" y2="241.1"/>
		<line class="st4" x1="4418.4" y1="78.1" x2="4418.4" y2="205.1"/>
		<line class="st4" x1="4361.4" y1="120.1" x2="4361.4" y2="343.1"/>
		<line class="st4" x1="4248.4" y1="78.1" x2="4248.4" y2="189.1"/>
		<line class="st4" x1="4221.4" y1="106.1" x2="4221.4" y2="273.1"/>
		<line class="st4" x1="4165.4" y1="231.1" x2="4165.4" y2="320.1"/>
		<line class="st4" x1="4137.4" y1="248.1" x2="4137.4" y2="471.1"/>
		<line class="st4" x1="4081.4" y1="275.1" x2="4081.4" y2="421.1"/>
		<line class="st4" x1="4053.4" y1="242.1" x2="4053.4" y2="510.1"/>
		<line class="st4" x1="4024.4" y1="441.1" x2="4024.4" y2="563.1"/>
		<line class="st4" x1="3967.4" y1="525.1" x2="3967.4" y2="611.1"/>
		<line class="st4" x1="3939.4" y1="563.1" x2="3939.4" y2="620.1"/>
		<line class="st4" x1="3885.4" y1="510.1" x2="3885.4" y2="611.1"/>
		<line class="st4" x1="3858.4" y1="547.1" x2="3858.4" y2="626.1"/>
		<line class="st4" x1="3772.4" y1="336.1" x2="3772.4" y2="441.1"/>
		<line class="st4" x1="3744.4" y1="350.1" x2="3744.4" y2="488.1"/>
		<line class="st4" x1="3688.4" y1="270.1" x2="3688.4" y2="367.1"/>
		<line class="st4" x1="3633.4" y1="281.1" x2="3633.4" y2="495.1"/>
		<line class="st4" x1="3605.4" y1="471.1" x2="3605.4" y2="586.1"/>
		<line class="st4" x1="3548.4" y1="456.1" x2="3548.4" y2="575.1"/>
		<line class="st4" x1="3465.4" y1="305.1" x2="3465.4" y2="456.1"/>
		<line class="st4" x1="3436.4" y1="399.1" x2="3436.4" y2="575.1"/>
		<line class="st4" x1="3409.4" y1="495.1" x2="3409.4" y2="586.1"/>
		<line class="st4" x1="3353.4" y1="547.1" x2="3353.4" y2="711.1"/>
		<line class="st4" x1="3268.4" y1="456.1" x2="3268.4" y2="586.1"/>
		<line class="st4" x1="3240.4" y1="524.1" x2="3240.4" y2="642.1"/>
		<rect x="5111.9" y="176.6" class="st5" width="13" height="128"/>
		<rect x="5054.9" y="168.6" class="st5" width="14" height="36"/>
		<rect x="4968.9" y="264.6" class="st5" width="19" height="64"/>
		<rect x="4912.9" y="304.6" class="st5" width="16" height="31"/>
		<rect x="4884.9" y="231.6" class="st5" width="17" height="82"/>
		<rect x="4858.9" y="180.6" class="st5" width="15" height="50"/>
		<rect x="4802.9" y="358.6" class="st5" width="15" height="49"/>
		<rect x="4744.9" y="520.6" class="st5" width="18" height="18"/>
		<rect x="4690.9" y="470.6" class="st5" width="16" height="90"/>
		<rect x="4630.9" y="376.6" class="st5" width="18" height="74"/>
		<rect x="4577.9" y="190.6" class="st5" width="18" height="190"/>
		<rect x="4549.9" y="151.6" class="st5" width="16" height="113"/>
		<rect x="4465.9" y="85.6" class="st5" width="15" height="83"/>
		<rect x="4435.9" y="85.6" class="st5" width="18" height="11"/>
		<rect x="4380.9" y="151.6" class="st5" width="16" height="82"/>
		<rect x="4326.9" y="96.6" class="st5" width="15" height="80"/>
		<rect x="4298.9" y="96.6" class="st5" width="14" height="24"/>
		<rect x="4268.9" y="54.6" class="st5" width="17" height="66"/>
		<rect x="4184.9" y="196.6" class="st5" width="15" height="76"/>
		<rect x="4100.9" y="296.6" class="st5" width="17" height="46"/>
		<rect x="3988.9" y="481.6" class="st5" width="17" height="74"/>
		<rect x="3904.9" y="573.6" class="st5" width="17" height="17"/>
		<rect x="3821.9" y="563.6" class="st5" width="14" height="56"/>
		<rect x="3790.9" y="388.6" class="st5" width="20" height="211"/>
		<rect x="3708.9" y="312.6" class="st5" width="18" height="86"/>
		<rect x="3653.9" y="242.6" class="st5" width="13" height="86"/>
		<rect x="3568.9" y="430.6" class="st5" width="16" height="63"/>
		<rect x="3513.9" y="438.6" class="st5" width="15" height="60"/>
		<rect x="3484.9" y="350.6" class="st5" width="17" height="100"/>
		<rect x="3373.9" y="555.6" class="st5" width="15" height="36"/>
		<rect x="3316.9" y="585.6" class="st5" width="14" height="26"/>
		<rect x="3288.9" y="515.6" class="st5" width="16" height="75"/>
		<line class="st3" x1="2809.9" y1="123.6" x2="2809.9" y2="216.6"/>
		<rect x="2803.9" y="161.6" class="st5" width="13" height="17"/>
		<rect x="5082.9" y="147.6" class="st6" width="16" height="39"/>
		<rect x="5025.9" y="213.6" class="st6" width="17" height="80"/>
		<rect x="4998.9" y="301.6" class="st6" width="15" height="27"/>
		<rect x="4940.9" y="332.6" class="st6" width="19" height="10"/>
		<rect x="4831.9" y="213.6" class="st6" width="14" height="156"/>
		<rect x="4773.9" y="388.6" class="st6" width="16" height="150"/>
		<rect x="4716.9" y="520.6" class="st6" width="17" height="47"/>
		<rect x="4660.9" y="462.6" class="st6" width="17" height="12"/>
		<rect x="4605.9" y="323.6" class="st6" width="15" height="57"/>
		<rect x="4520.9" y="141.6" class="st6" width="16" height="22"/>
		<rect x="4492.9" y="160.6" class="st6" width="18" height="45"/>
		<rect x="4409.9" y="87.6" class="st6" width="15" height="84"/>
		<rect x="4353.9" y="160.6" class="st6" width="14" height="60"/>
		<rect x="4240.9" y="116.6" class="st6" width="17" height="44"/>
		<rect x="4212.9" y="147.6" class="st6" width="16" height="126"/>
		<rect x="4157.9" y="269.6" class="st6" width="16" height="32"/>
		<rect x="4129.9" y="290.5" class="st6" width="16" height="76.3"/>
		<rect x="4073.9" y="320.6" class="st6" width="15" height="22"/>
		<rect x="4044.9" y="323.6" class="st6" width="18" height="151"/>
		<rect x="4015.9" y="481.6" class="st6" width="18" height="79"/>
		<rect x="3961.9" y="540.6" class="st6" width="14" height="42"/>
		<rect x="3932.9" y="568.6" class="st6" width="16" height="33"/>
		<rect x="3877.9" y="550.6" class="st6" width="15" height="35"/>
		<rect x="3849.9" y="561.6" class="st6" width="15" height="37"/>
		<rect x="3765.9" y="376.6" class="st6" width="15" height="29"/>
		<rect x="3735.9" y="391.6" class="st6" width="17" height="54"/>
		<rect x="3680.9" y="312.6" class="st6" width="16" height="24"/>
		<rect x="3623.9" y="323.6" class="st6" width="18" height="166"/>
		<rect x="3596.9" y="471.6" class="st6" width="15" height="47"/>
		<rect x="3538.9" y="498.6" class="st6" width="18" height="48"/>
		<rect x="3457.9" y="350.6" class="st6" width="14" height="98"/>
		<rect x="3429.9" y="441.6" class="st6" width="14" height="90"/>
		<rect x="3401.9" y="538.6" class="st6" width="15" height="15"/>
		<rect x="3345.9" y="585.6" class="st6" width="15" height="107"/>
		<rect x="3260.9" y="513.6" class="st6" width="16" height="65"/>
		<rect x="3232.9" y="526.6" class="st6" width="15" height="53"/>
		<line class="st3" x1="2559.9" y1="480.8" x2="2559.9" y2="554.8"/>
		<line class="st3" x1="2618.5" y1="429.8" x2="2618.5" y2="619.8"/>
		<line class="st3" x1="2675.2" y1="335.8" x2="2675.2" y2="480.8"/>
		<line class="st3" x1="2728.8" y1="196.8" x2="2728.8" y2="387.8"/>
		<line class="st3" x1="2759.2" y1="105.8" x2="2759.2" y2="304.8"/>
		<line class="st4" x1="2589.7" y1="524.3" x2="2589.7" y2="592.3"/>
		<line class="st4" x1="2646.4" y1="420.3" x2="2646.4" y2="520.3"/>
		<line class="st4" x1="2703" y1="286.3" x2="2703" y2="420.3"/>
		<line class="st4" x1="2787" y1="126.3" x2="2787" y2="188.3"/>
		<rect x="2551.8" y="519.8" class="st5" width="18.2" height="18"/>
		<rect x="2608.4" y="469.8" class="st5" width="16.2" height="90"/>
		<rect x="2667.1" y="375.8" class="st5" width="18.2" height="74"/>
		<rect x="2720.7" y="189.8" class="st5" width="18.2" height="190"/>
		<rect x="2751.1" y="150.8" class="st5" width="16.2" height="113"/>
		<rect x="2581.1" y="519.8" class="st6" width="17.2" height="47"/>
		<rect x="2637.8" y="461.8" class="st6" width="17.2" height="12"/>
		<rect x="2695.4" y="322.8" class="st6" width="15.2" height="57"/>
		<rect x="2780.4" y="140.8" class="st6" width="16.2" height="22"/>
		<line class="st3" x1="2860.9" y1="50.5" x2="2860.9" y2="177.5"/>
		<line class="st3" x1="2940.8" y1="145.5" x2="2940.8" y2="320.5"/>
		<line class="st3" x1="3053.3" y1="356.5" x2="3053.3" y2="465.5"/>
		<line class="st3" x1="3135.2" y1="478.5" x2="3135.2" y2="514.5"/>
		<line class="st3" x1="3220" y1="458.5" x2="3220" y2="546.5"/>
		<line class="st4" x1="2831.8" y1="13.6" x2="2831.8" y2="163"/>
		<line class="st4" x1="2887.1" y1="121" x2="2887.1" y2="210"/>
		<line class="st4" x1="2914.7" y1="138" x2="2914.7" y2="361"/>
		<line class="st4" x1="2969.9" y1="165" x2="2969.9" y2="311"/>
		<line class="st4" x1="2997.6" y1="132" x2="2997.6" y2="400"/>
		<line class="st4" x1="3026.2" y1="331" x2="3026.2" y2="453"/>
		<line class="st4" x1="3082.4" y1="428" x2="3082.4" y2="514"/>
		<line class="st4" x1="3110" y1="466" x2="3110" y2="523"/>
		<line class="st4" x1="3163.3" y1="413" x2="3163.3" y2="514"/>
		<line class="st4" x1="3189.9" y1="450" x2="3189.9" y2="529"/>
		<rect x="2853" y="86.5" class="st5" width="14.8" height="76"/>
		<rect x="2933.9" y="186.5" class="st5" width="16.8" height="46"/>
		<rect x="3044.4" y="371.5" class="st5" width="16.8" height="74"/>
		<rect x="3127.3" y="476.5" class="st5" width="16.8" height="17"/>
		<rect x="3212.1" y="466.5" class="st5" width="13.8" height="56"/>
		<rect x="2824.4" y="37.5" class="st6" width="15.8" height="126"/>
		<rect x="2878.7" y="159.5" class="st6" width="15.8" height="32"/>
		<rect x="2906.3" y="180.4" class="st6" width="15.8" height="76.3"/>
		<rect x="2962.5" y="210.5" class="st6" width="14.8" height="22"/>
		<rect x="2988.2" y="213.5" class="st6" width="17.8" height="151"/>
		<rect x="3016.8" y="371.5" class="st6" width="17.8" height="79"/>
		<rect x="3074" y="443.5" class="st6" width="13.8" height="42"/>
		<rect x="3100.6" y="471.5" class="st6" width="15.8" height="33"/>
		<rect x="3155.9" y="453.5" class="st6" width="14.8" height="35"/>
		<rect x="3183.5" y="464.5" class="st6" width="14.8" height="37"/>
		<g class="st7">
			<g>
				<path d="M4898.2,273c0.5,0,0.5-0.8,0-0.8S4897.8,273,4898.2,273L4898.2,273z"/>
			</g>
		</g>
		<g class="st7">
			<g>
				<path class="st8" d="M5091.9,166c0.5,0,0.5-0.8,0-0.8S5091.5,166,5091.9,166L5091.9,166z"/>
			</g>
		</g>
		<path class="st2" d="M2759.2,711.1"/>
	</g>
	<g id="Layer_1_00000018944585323985721910000017863906777246896826_" class="st0">
		<line class="st3" x1="2" y1="155" x2="2" y2="314"/>
		<line class="st3" x1="58" y1="128" x2="58" y2="234"/>
		<line class="st3" x1="143" y1="243" x2="143" y2="370"/>
		<line class="st3" x1="199" y1="265" x2="199" y2="376"/>
		<line class="st3" x1="226" y1="190" x2="226" y2="351"/>
		<line class="st3" x1="255" y1="139" x2="255" y2="243"/>
		<line class="st3" x1="310" y1="314" x2="310" y2="422"/>
		<line class="st3" x1="366" y1="482" x2="366" y2="556"/>
		<line class="st3" x1="424" y1="431" x2="424" y2="621"/>
		<line class="st3" x1="480" y1="337" x2="480" y2="482"/>
		<line class="st3" x1="533" y1="198" x2="533" y2="389"/>
		<line class="st3" x1="563" y1="107" x2="563" y2="306"/>
		<line class="st3" x1="647" y1="50" x2="647" y2="214"/>
		<line class="st3" x1="675" y1="50" x2="675" y2="107"/>
		<line class="st3" x1="731" y1="107" x2="731" y2="249"/>
		<line class="st3" x1="787" y1="55" x2="787" y2="214"/>
		<line class="st3" x1="814" y1="55" x2="814" y2="148"/>
		<line class="st3" x1="842" y1="12" x2="842" y2="161"/>
		<line class="st3" x1="929" y1="161" x2="929" y2="288"/>
		<line class="st3" x1="1010" y1="256" x2="1010" y2="431"/>
		<line class="st3" x1="1124" y1="467" x2="1124" y2="576"/>
		<line class="st3" x1="1207" y1="576" x2="1207" y2="612"/>
		<line class="st3" x1="1293" y1="556" x2="1293" y2="644"/>
		<line class="st3" x1="1320" y1="351" x2="1320" y2="627"/>
		<line class="st3" x1="1404" y1="270" x2="1404" y2="409"/>
		<line class="st3" x1="1460" y1="206" x2="1460" y2="370"/>
		<line class="st3" x1="1543" y1="409" x2="1543" y2="526"/>
		<line class="st3" x1="1601" y1="431" x2="1601" y2="548"/>
		<line class="st3" x1="1627" y1="288" x2="1627" y2="467"/>
		<line class="st3" x1="1738" y1="511" x2="1738" y2="693"/>
		<line class="st3" x1="1796" y1="564" x2="1796" y2="621"/>
		<line class="st3" x1="1824" y1="482" x2="1824" y2="612"/>
		<line class="st4" x1="31.5" y1="106.5" x2="31.5" y2="197.5"/>
		<line class="st4" x1="87.5" y1="169.5" x2="87.5" y2="313.5"/>
		<line class="st4" x1="115.5" y1="287.5" x2="115.5" y2="350.5"/>
		<line class="st4" x1="171.5" y1="293.5" x2="171.5" y2="388.5"/>
		<line class="st4" x1="283.5" y1="177.5" x2="283.5" y2="369.5"/>
		<line class="st4" x1="339.5" y1="350.5" x2="339.5" y2="563.5"/>
		<line class="st4" x1="395.5" y1="525.5" x2="395.5" y2="593.5"/>
		<line class="st4" x1="451.5" y1="421.5" x2="451.5" y2="521.5"/>
		<line class="st4" x1="507.5" y1="287.5" x2="507.5" y2="421.5"/>
		<line class="st4" x1="590.5" y1="127.5" x2="590.5" y2="189.5"/>
		<line class="st4" x1="620.5" y1="138.5" x2="620.5" y2="241.5"/>
		<line class="st4" x1="702.5" y1="78.5" x2="702.5" y2="205.5"/>
		<line class="st4" x1="759.5" y1="120.5" x2="759.5" y2="343.5"/>
		<line class="st4" x1="872.5" y1="78.5" x2="872.5" y2="189.5"/>
		<line class="st4" x1="899.5" y1="106.5" x2="899.5" y2="273.5"/>
		<line class="st4" x1="955.5" y1="231.5" x2="955.5" y2="320.5"/>
		<line class="st4" x1="983.5" y1="248.5" x2="983.5" y2="471.5"/>
		<line class="st4" x1="1039.5" y1="275.5" x2="1039.5" y2="421.5"/>
		<line class="st4" x1="1067.5" y1="242.5" x2="1067.5" y2="510.5"/>
		<line class="st4" x1="1096.5" y1="441.5" x2="1096.5" y2="563.5"/>
		<line class="st4" x1="1153.5" y1="525.5" x2="1153.5" y2="611.5"/>
		<line class="st4" x1="1181.5" y1="563.5" x2="1181.5" y2="620.5"/>
		<line class="st4" x1="1235.5" y1="510.5" x2="1235.5" y2="611.5"/>
		<line class="st4" x1="1262.5" y1="547.5" x2="1262.5" y2="626.5"/>
		<line class="st4" x1="1348.5" y1="336.5" x2="1348.5" y2="441.5"/>
		<line class="st4" x1="1376.5" y1="350.5" x2="1376.5" y2="488.5"/>
		<line class="st4" x1="1432.5" y1="270.5" x2="1432.5" y2="367.5"/>
		<line class="st4" x1="1487.5" y1="281.5" x2="1487.5" y2="495.5"/>
		<line class="st4" x1="1515.5" y1="471.5" x2="1515.5" y2="586.5"/>
		<line class="st4" x1="1572.5" y1="456.5" x2="1572.5" y2="575.5"/>
		<line class="st4" x1="1655.5" y1="305.5" x2="1655.5" y2="456.5"/>
		<line class="st4" x1="1684.5" y1="399.5" x2="1684.5" y2="575.5"/>
		<line class="st4" x1="1711.5" y1="495.5" x2="1711.5" y2="586.5"/>
		<line class="st4" x1="1767.5" y1="547.5" x2="1767.5" y2="711.5"/>
		<line class="st4" x1="1852.5" y1="456.5" x2="1852.5" y2="586.5"/>
		<line class="st4" x1="1880.5" y1="524.5" x2="1880.5" y2="642.5"/>
	</g>
	<g id="Layer_3" class="st0">
		<rect x="-4" y="177" class="st5" width="13" height="128"/>
		<rect x="52" y="169" class="st5" width="14" height="36"/>
		<rect x="133" y="265" class="st5" width="19" height="64"/>
		<rect x="192" y="305" class="st5" width="16" height="31"/>
		<rect x="219" y="232" class="st5" width="17" height="82"/>
		<rect x="247" y="181" class="st5" width="15" height="50"/>
		<rect x="303" y="359" class="st5" width="15" height="49"/>
		<rect x="358" y="521" class="st5" width="18" height="18"/>
		<rect x="414" y="471" class="st5" width="16" height="90"/>
		<rect x="472" y="377" class="st5" width="18" height="74"/>
		<rect x="525" y="191" class="st5" width="18" height="190"/>
		<rect x="555" y="152" class="st5" width="16" height="113"/>
		<rect x="640" y="86" class="st5" width="15" height="83"/>
		<rect x="667" y="86" class="st5" width="18" height="11"/>
		<rect x="724" y="152" class="st5" width="16" height="82"/>
		<rect x="779" y="97" class="st5" width="15" height="80"/>
		<rect x="808" y="97" class="st5" width="14" height="24"/>
		<rect x="835" y="55" class="st5" width="17" height="66"/>
		<rect x="921" y="197" class="st5" width="15" height="76"/>
		<rect x="1003" y="297" class="st5" width="17" height="46"/>
		<rect x="1115" y="482" class="st5" width="17" height="74"/>
		<rect x="1199" y="574" class="st5" width="17" height="17"/>
		<rect x="1285" y="564" class="st5" width="14" height="56"/>
		<rect x="1310" y="389" class="st5" width="20" height="211"/>
		<rect x="1394" y="313" class="st5" width="18" height="86"/>
		<rect x="1454" y="243" class="st5" width="13" height="86"/>
		<rect x="1536" y="431" class="st5" width="16" height="63"/>
		<rect x="1592" y="439" class="st5" width="15" height="60"/>
		<rect x="1619" y="351" class="st5" width="17" height="100"/>
		<rect x="1732" y="556" class="st5" width="15" height="36"/>
		<rect x="1790" y="586" class="st5" width="14" height="26"/>
		<rect x="1816" y="516" class="st5" width="16" height="75"/>
		<line class="st3" x1="2311" y1="124" x2="2311" y2="217"/>
		<rect x="2304" y="162" class="st5" width="13" height="17"/>
		<g class="st7">
			<g>
				<path class="st8" d="M1160.6-201c1.9,0,1.9-3,0-3S1158.6-201,1160.6-201L1160.6-201z"/>
			</g>
		</g>
	</g>
	<g id="Layer_4" class="st0">
		<rect x="22" y="148" class="st6" width="16" height="39"/>
		<rect x="78" y="214" class="st6" width="17" height="80"/>
		<rect x="107" y="302" class="st6" width="15" height="27"/>
		<rect x="161" y="333" class="st6" width="19" height="10"/>
		<rect x="275" y="214" class="st6" width="14" height="156"/>
		<rect x="331" y="389" class="st6" width="16" height="150"/>
		<rect x="387" y="521" class="st6" width="17" height="47"/>
		<rect x="443" y="463" class="st6" width="17" height="12"/>
		<rect x="500" y="324" class="st6" width="15" height="57"/>
		<rect x="584" y="142" class="st6" width="16" height="22"/>
		<rect x="610" y="161" class="st6" width="18" height="45"/>
		<rect x="696" y="88" class="st6" width="15" height="84"/>
		<rect x="753" y="161" class="st6" width="14" height="60"/>
		<rect x="863" y="117" class="st6" width="17" height="44"/>
		<rect x="892" y="148" class="st6" width="16" height="126"/>
		<rect x="947" y="270" class="st6" width="16" height="32"/>
		<rect x="975" y="290.9" class="st6" width="16" height="76.3"/>
		<rect x="1032" y="321" class="st6" width="15" height="22"/>
		<rect x="1058" y="324" class="st6" width="18" height="151"/>
		<rect x="1087" y="482" class="st6" width="18" height="79"/>
		<rect x="1145" y="541" class="st6" width="14" height="42"/>
		<rect x="1172" y="569" class="st6" width="16" height="33"/>
		<rect x="1228" y="551" class="st6" width="15" height="35"/>
		<rect x="1256" y="562" class="st6" width="15" height="37"/>
		<rect x="1340" y="377" class="st6" width="15" height="29"/>
		<rect x="1368" y="392" class="st6" width="17" height="54"/>
		<rect x="1424" y="313" class="st6" width="16" height="24"/>
		<rect x="1479" y="324" class="st6" width="18" height="166"/>
		<rect x="1509" y="472" class="st6" width="15" height="47"/>
		<rect x="1564" y="499" class="st6" width="18" height="48"/>
		<rect x="1649" y="351" class="st6" width="14" height="98"/>
		<rect x="1677" y="442" class="st6" width="14" height="90"/>
		<rect x="1704" y="539" class="st6" width="15" height="15"/>
		<rect x="1760" y="586" class="st6" width="15" height="107"/>
		<rect x="1844" y="514" class="st6" width="16" height="65"/>
		<rect x="1873" y="527" class="st6" width="15" height="53"/>
		<line class="st3" x1="2561.1" y1="481.1" x2="2561.1" y2="555.1"/>
		<line class="st3" x1="2502.4" y1="430.1" x2="2502.4" y2="620.1"/>
		<line class="st3" x1="2445.8" y1="336.1" x2="2445.8" y2="481.1"/>
		<line class="st3" x1="2392.1" y1="197.1" x2="2392.1" y2="388.1"/>
		<line class="st3" x1="2361.8" y1="106.1" x2="2361.8" y2="305.1"/>
		<line class="st4" x1="2531.2" y1="524.6" x2="2531.2" y2="592.6"/>
		<line class="st4" x1="2474.6" y1="420.6" x2="2474.6" y2="520.6"/>
		<line class="st4" x1="2417.9" y1="286.6" x2="2417.9" y2="420.6"/>
		<line class="st4" x1="2333.9" y1="126.6" x2="2333.9" y2="188.6"/>
		<rect x="2551" y="520.1" class="st5" width="18.2" height="18"/>
		<rect x="2496.3" y="470.1" class="st5" width="16.2" height="90"/>
		<rect x="2435.6" y="376.1" class="st5" width="18.2" height="74"/>
		<rect x="2382" y="190.1" class="st5" width="18.2" height="190"/>
		<rect x="2353.7" y="151.1" class="st5" width="16.2" height="113"/>
		<rect x="2522.6" y="520.1" class="st6" width="17.2" height="47"/>
		<rect x="2466" y="462.1" class="st6" width="17.2" height="12"/>
		<rect x="2410.3" y="323.1" class="st6" width="15.2" height="57"/>
		<rect x="2324.3" y="141.1" class="st6" width="16.2" height="22"/>
		<line class="st3" x1="2260" y1="50.9" x2="2260" y2="177.9"/>
		<line class="st3" x1="2180.1" y1="145.9" x2="2180.1" y2="320.9"/>
		<line class="st3" x1="2067.6" y1="356.9" x2="2067.6" y2="465.9"/>
		<line class="st3" x1="1985.8" y1="478.9" x2="1985.8" y2="514.9"/>
		<line class="st3" x1="1900.9" y1="458.9" x2="1900.9" y2="546.9"/>
		<line class="st4" x1="2289.1" y1="14" x2="2289.1" y2="163.4"/>
		<line class="st4" x1="2233.9" y1="121.4" x2="2233.9" y2="210.4"/>
		<line class="st4" x1="2206.2" y1="138.4" x2="2206.2" y2="361.4"/>
		<line class="st4" x1="2151" y1="165.4" x2="2151" y2="311.4"/>
		<line class="st4" x1="2123.4" y1="132.4" x2="2123.4" y2="400.4"/>
		<line class="st4" x1="2094.8" y1="331.4" x2="2094.8" y2="453.4"/>
		<line class="st4" x1="2038.5" y1="428.4" x2="2038.5" y2="514.4"/>
		<line class="st4" x1="2010.9" y1="466.4" x2="2010.9" y2="523.4"/>
		<line class="st4" x1="1957.7" y1="413.4" x2="1957.7" y2="514.4"/>
		<line class="st4" x1="1931" y1="450.4" x2="1931" y2="529.4"/>
		<rect x="2253.1" y="86.9" class="st5" width="14.8" height="76"/>
		<rect x="2170.2" y="186.9" class="st5" width="16.8" height="46"/>
		<rect x="2059.8" y="371.9" class="st5" width="16.8" height="74"/>
		<rect x="1976.9" y="476.9" class="st5" width="16.8" height="17"/>
		<rect x="1895" y="466.9" class="st5" width="13.8" height="56"/>
		<rect x="2280.7" y="37.9" class="st6" width="15.8" height="126"/>
		<rect x="2226.5" y="159.9" class="st6" width="15.8" height="32"/>
		<rect x="2198.9" y="180.7" class="st6" width="15.8" height="76.3"/>
		<rect x="2143.6" y="210.9" class="st6" width="14.8" height="22"/>
		<rect x="2115" y="213.9" class="st6" width="17.8" height="151"/>
		<rect x="2086.4" y="371.9" class="st6" width="17.8" height="79"/>
		<rect x="2033.1" y="443.9" class="st6" width="13.8" height="42"/>
		<rect x="2004.5" y="471.9" class="st6" width="15.8" height="33"/>
		<rect x="1950.2" y="453.9" class="st6" width="14.8" height="35"/>
		<rect x="1922.6" y="464.9" class="st6" width="14.8" height="37"/>
	</g>
	<g id="Layer_6" class="st0">
	</g>
	<g id="Layer_2_00000097491870987465477020000015104431522550641543_" class="st0">
	</g>
	<g id="Layer_5" class="st0">
		<g class="st7">
			<g>
				<path d="M222.7,273.4c0.5,0,0.5-0.8,0-0.8C222.2,272.6,222.2,273.4,222.7,273.4L222.7,273.4z"/>
			</g>
		</g>
		<g class="st7">
			<g>
				<path class="st8" d="M29,166.3c0.5,0,0.5-0.8,0-0.8S28.5,166.3,29,166.3L29,166.3z"/>
			</g>
		</g>
	</g>
	<g id="Layer_8" class="st9">
		<g>
			<g>
				<path class="st10" d="M0.4,173.8c24.5,10.5,45.7,27.7,56.9,52.3c9.8,21.5,12.8,45.5,21.5,67.5c8.6,21.8,18.9,46.5,33.9,64.7
					c11.4,13.9,27.6,19.8,45.3,15.8c21.6-4.9,40.2-21.5,53.8-38.2c10.9-13.5,13.4-27.5,19.3-43.3c2.8-7.6,15.8-46.7,27.3-41.9
					c4.5,1.9,8.1,9.4,10.2,13.3c7,12.4,11.7,26.1,16.1,39.7c15.8,48.9,17.7,98.2,22.3,148.8c4,43.6,17.8,85.4,45.4,120.1
					c36.7,46.1,62.5-20.7,72.8-49.6c22-61.6,36.5-125.7,57-187.8c9.9-30,20.7-60.1,35.8-88c10.3-19.2,23.9-41.4,44.7-50.6
					c19.1-8.5,38.2-13.5,56-25.2c9.4-6.2,18.2-13.3,26.2-21.1c6.9-6.7,13-14.8,20.7-20.6c18.1-13.5,31.8,4.3,43.4,16.8
					C721,159.4,736.4,169,755,167c16.6-1.8,29.3-12.9,41.6-23.2c11.8-9.9,26.9-21.9,42.9-13.8c22.4,11.4,30.5,48.3,38.1,69.7
					c27.6,77.8,64.7,157.7,143.1,195.7c44.4,21.5,76.8,59.3,95,104.8c12.2,30.4,16,67.7,35.6,94.7c21.2,29.1,59.7,24.3,89.2,12
					c41.2-17.3,80-49.7,102.2-88.7c9.4-16.5,15.5-34.5,22.3-52.1c8.9-23.1,20-45,34.2-65.5c9-13,18.8-25.7,29-37.7
					c7.2-8.5,16.2-19.6,27.4-22.9c13.3-3.8,22.6,7.5,28.5,17.7c15.9,27.4,21.7,60.6,30.4,90.7c5.4,18.5,12.4,53,33.4,60.7
					c25.7,9.4,42.4-33.5,52.3-49.3c6.5-10.4,17.8-29,32.7-24.9c14.9,4.1,24,26.9,30.5,39c22.2,41.4,42.2,83.7,60.6,126.9
					c5.9,14,11.7,30.9,28.5,34c23.3,4.2,42.6-20.2,56.8-34.7c29.6-30.3,61.5-57,102.4-70.6c21.6-7.2,40.9-7.4,63.1-7.6
					c16.4-0.2,32.1-6.9,45.3-16.5c32.2-23.4,43.2-64.1,54.4-100.2c15.7-50.8,34.9-99,66.5-142.3c25.9-35.3,57.1-71.4,95.2-93.8
					c26.5-15.6,59.5-21.3,77.7,8.2c16.3,26.4,21.6,60.1,29.6,89.6c12.5,46.5,27.5,92.2,47.7,135.9c11.3,24.3,25.8,46.8,37.4,70.9
					c7.9,16.3,14.4,33.2,24,48.6c24.1,39.1,62.4,61.7,108.2,65c6.4,0.5,6.4-9.5,0-10c-28.5-2.1-56.3-12.1-77.2-32
					c-15.5-14.7-26.3-33.3-35.3-52.5c-21-44.7-46.6-86.9-64.6-133.1c-16-41.2-27.2-83.7-38.8-126.3c-6.6-24.4-13-53.8-31.1-72.7
					c-19.9-20.8-49.6-16.9-73.4-5.3c-38,18.6-69,52.6-94.9,85.2c-30.7,38.5-53.6,81-69.6,127.6c-13.6,39.5-20.7,89-51,119.9
					c-13.6,13.9-32.4,23.9-52.2,23.7c-19.6-0.2-37,0.1-56.1,5.7c-40.2,11.7-74,35.3-103.4,64.5c-10.9,10.8-21.1,22.6-32.9,32.5
					c-7.6,6.4-17.5,13.2-28,10c-6.3-1.9-9.3-6.9-12.2-12.5c-5.6-10.7-9.8-22.2-14.5-33.2c-9.6-22.4-19.8-44.5-30.8-66.2
					c-11.1-22-21.6-45-35.2-65.6c-6.4-9.7-14.5-20.4-26.7-22.3c-12.4-1.9-22.7,5.9-30.3,14.8c-10.8,12.8-17.9,28.1-26.9,42.1
					c-5.3,8.3-15.3,24.2-26.9,16.7c-9.5-6.2-14.1-21.1-17.7-31.1c-5.2-14.6-9.2-29.7-13.3-44.7c-7.4-26.6-13.8-59.2-32.5-80.7
					c-25.6-29.5-54.8,2.1-72.2,24c-17.3,21.8-33.6,44.3-45.7,69.6c-8.2,17.1-14.2,35-21.3,52.6c-17.9,44.3-52,79.6-93.9,102.2
					c-20.1,10.9-45.6,20.9-68.8,15.1c-15.1-3.8-24.4-14.8-30.8-28.4c-16-33.6-21-71.2-38.5-104.4c-21.4-40.6-54.6-68.7-95-89
					c-42-21.1-74-60.6-96-101.2c-18.4-34-29.8-70.8-43.5-106.8c-7.5-19.9-16.8-47.4-38.6-55.8c-33.5-13-52.5,27.9-80.5,36.1
					c-23.8,7-38.9-11.4-53.3-26.7c-9.7-10.3-22.2-17.7-36.7-13.4c-15.6,4.7-26.1,21.7-37.6,32.1c-19.5,17.6-42.2,28.4-66.8,36.8
					c-20.4,7-34.6,22.3-46.2,40c-34.5,52.3-51,117.2-68.2,176.7c-9.1,31.5-17.8,63-27.7,94.2c-7.3,22.8-14.6,46.9-27.3,67.5
					c-3.3,5.3-7.7,12.3-13.8,14.7C367,584,354.2,558.2,348,548c-12.3-20.3-21.8-41.1-26.6-64.5c-4.4-20.9-5.4-42.3-6.7-63.6
					c-3.3-50.9-10.8-101.8-31.5-148.9c-6.9-15.6-24.2-46.5-41.8-22.4c-12.7,17.4-19.9,39.6-26,60c-6.1,20.5-25,38.3-43.1,48.8
					c-11.1,6.5-24.9,10.8-37.5,5.8c-10.3-4.1-16.9-13.6-22.4-22.9c-13.9-23.5-25.3-49.4-32.7-75.7c-5.7-20.3-10.2-41.1-22.5-58.8
					c-12.9-18.5-31.3-32-51.9-40.8C-0.4,162.6-5.6,171.3,0.4,173.8L0.4,173.8z"/>
			</g>
		</g>
		<g>
			<g>
				<path class="st10" d="M5116.1,165.3c-21.7,9.2-41,23.8-53.9,43.8c-11.6,18-15.6,39.1-21.5,59.3c-7.6,26.2-19.4,53.4-34.3,76.4
					c-15,23.1-37.5,25.4-60.5,10.8c-18.4-11.7-34.7-29-40.8-50.2c-5.5-19.3-13.2-41.8-25.8-57.7c-18.8-23.8-36.1,11.9-42.4,26.8
					c-20,47.4-27,97.9-30.3,148.9c-1.4,21.7-2.6,43.6-7.5,64.8c-5.3,23.1-15.5,43.6-27.9,63.6c-6.1,9.8-18.6,32.7-33.3,25.5
					c-6-3-10.2-9.9-13.5-15.4c-12.6-21-20-45.3-27.3-68.5c-20.2-64-35.7-129.5-59-192.5c-15.8-42.7-36.8-101.2-84.4-116.9
					c-26.2-8.6-50.1-21.6-69.9-41c-10.2-9.9-19.8-24.3-34.5-27.7c-16.2-3.8-28.2,6.6-38.3,17.8c-13.7,15.3-30.3,30.1-52.3,21.9
					c-26.5-9.8-46.5-48.9-79.1-34.8c-21.6,9.4-30.7,37.3-38.3,57.6c-29.4,78.8-59.6,167-140.9,206.9c-40.6,19.9-73.6,50.2-94.3,90.9
					c-16.8,33-21.4,70.7-37.9,103.5c-20.9,41.4-68.8,28.2-102,9.5c-41.6-23.4-74.2-58.6-91.7-103.1c-7.5-19-14.1-38.2-23.4-56.4
					c-12.3-24-28.4-45.7-45.3-66.6c-11-13.6-26.1-33.5-45.7-33.2c-10.2,0.2-18.6,6.3-24.8,14c-18.2,22.4-24.6,54.7-32.1,81.8
					c-4.3,15.5-8.4,31.2-14.1,46.3c-3.4,8.9-8.1,22.9-17.2,27.6c-12.7,6.7-23.3-13.1-28.5-21.6c-8.2-13.4-15.2-27.9-25.8-39.6
					c-8-8.9-19.3-15.9-31.7-12.5c-11.6,3.2-19.2,14.4-25.2,24c-26,41.1-46.6,87.2-65.6,131.9c-5.3,12.5-11.1,40.2-27.2,43.7
					c-11.3,2.4-21.6-6-29.4-13c-11.2-10-21.2-21.3-31.9-31.8c-30.1-29.5-65-53-106.2-63.9c-18.6-4.9-35.8-3.9-54.7-4.4
					c-19.3-0.4-38.1-11.8-50.9-25.8c-29.5-32-36.4-81.8-50.4-121.6c-16.2-46.2-39.7-88.3-70.4-126.4c-26-32.3-57.3-66.3-95.6-83.9
					c-23.9-11-52.8-13.3-71.8,7.7c-17.8,19.7-24,49.3-30.7,74.2c-11.6,43-23.1,86-39.6,127.5c-18.1,45.7-43.2,87.8-64.4,132
					c-9.3,19.3-20.6,37.9-36.7,52.3c-20.6,18.4-47.4,27.6-74.6,29.5c-6.4,0.5-6.4,10.5,0,10c47.1-3.4,85.8-27.2,109.9-67.8
					c9.3-15.6,15.4-32.6,23.7-48.7c12.8-24.9,27.3-48.5,38.8-74.1c19.5-43.3,33.9-88.4,46.2-134.3c7.7-28.9,13-62.9,30.3-88.1
					c19.7-28.7,54.6-18.7,79.8-2.9c37.4,23.5,68.3,59.3,93.8,94.9c31.4,43.8,49.7,92.8,65.5,143.8c11.1,35.6,22.9,74.6,55.2,96.8
					c13.8,9.4,29.3,15.1,46.1,14.7c22.3-0.5,42.2,1.4,63.5,8.9c40.2,14.1,71.2,41.2,100.5,71.1c14.1,14.5,33.5,38.1,56.6,32.7
					c16.2-3.8,21.8-21.2,27.5-34.9c18.8-44.5,39.4-88.1,62.6-130.5c6.1-11.1,15-32.1,29.4-34.7c15.6-2.8,26.7,17.8,33.3,28.6
					c9.6,15.8,27.1,57.7,52.5,45c20.2-10.1,26.7-44,32.2-63.3c8.5-29.7,14.3-63.1,30.9-89.6c7.3-11.6,17.9-20.4,31.8-13.1
					c10.2,5.3,18.1,15.3,25.3,24c10.6,12.9,21,26.2,30.2,40.2c13.3,20.1,23.4,41.6,32,64c6.6,17.2,12.8,34.6,22.2,50.5
					c22.6,38,61.1,69.7,101.8,86.5c30.2,12.4,68.6,16,89.2-14.1c19.1-27.8,22.9-65.1,35.6-96c19-46.1,52.5-81.6,97.2-103.5
					c39.5-19.2,71.1-53.6,93.9-90.6c20.6-33.5,34-70.4,47.2-107.2c7.3-20.6,16-58.5,39.5-67.2c16.3-6,30.7,7.1,42.2,16.7
					c12.7,10.7,26.3,21.5,43.7,21.7c18.1,0.3,32.2-10.2,43.8-23.1c12.5-13.9,26.8-28,44.5-12.3c16.9,15,30.5,31.3,50.2,43.1
					c16.4,9.8,34.2,13.9,51,21.9c20.7,9.9,34.1,32.4,44.4,51.9c31,58.5,47.1,124.8,65.3,188c8.4,29.5,16.8,59,27.1,87.9
					c6.7,18.5,13.9,40,27.7,54.5c16.4,17.3,35.3,6,47.5-11c26.2-36.5,39-76.3,42.7-120.7c4.4-52.4,7.4-103.2,25-153.4
					c3.8-10.7,7.9-21.6,13.6-31.4c2.2-3.8,5.8-11.1,10.4-12.6c11.2-3.8,25.7,39.8,28.2,47.3c5.3,15.7,8.8,28.1,19.8,41.1
					c14.2,16.8,34.1,33.6,56.7,36.5c17.6,2.3,32-5.7,42.4-19.6c14.3-19.1,24.9-43.6,33.2-65.8c8.1-21.8,11-45.7,21.4-66.6
					c11.5-23.1,32-39.2,55.4-49.2C5127,171.4,5122,162.8,5116.1,165.3L5116.1,165.3z"/>
			</g>
		</g>
	</g>
	<g id="Layer_2">
		<g id="Layer_3_00000144317826181084357090000005708838054769352618_">
		</g>
		<g id="Layer_4_00000082369930271508929540000003420897780103401875_">
		</g>
	</g>
	<circle class="st11" cx="147.3" cy="369.6" r="13.2"/>
	<g>
		<path class="st12" d="M138.8,335.7c1.7,0.3,2.3,1.6,2.3,3v3.2c0,2.3-1.7,3.8-4.6,3.8h-3.9c-0.6,0-0.9-0.3-0.9-0.9v-17.4
			c0-0.6,0.3-0.9,0.9-0.9h4c2.9,0,4.5,1.5,4.5,3.8v2.4C141,333.9,140.5,335.5,138.8,335.7z M134.2,334.6h2.2c1.2,0,1.9-0.5,1.9-1.7
			v-2.2c0-1.3-0.6-2-1.9-2h-2.2V334.6z M136.6,336.8h-2.3v6.6h2.3c1.3,0,1.9-0.6,1.9-2v-2.9C138.5,337.4,137.8,336.8,136.6,336.8z"
			/>
		<path class="st12" d="M153.1,327.3v14.5c0,2.9-1.7,4.1-4.6,4.1h-0.1c-2.9,0-4.6-1.2-4.6-4.1v-14.5c0-0.6,0.3-0.9,0.9-0.9h0.8
			c0.6,0,0.9,0.3,0.9,0.9v14c0,1.7,0.7,2.3,2.1,2.3s2.1-0.6,2.1-2.3v-14c0-0.6,0.3-0.9,0.9-0.9h0.8
			C152.8,326.4,153.1,326.7,153.1,327.3z"/>
		<path class="st12" d="M161.5,344.7c0,0.6-0.3,0.9-0.9,0.9h-0.8c-0.6,0-0.9-0.3-0.9-0.9v-6.2l-3.7-11.1c-0.2-0.6,0.1-1,0.7-1h0.8
			c0.5,0,0.9,0.2,1,0.8l2.4,8.5l2.4-8.5c0.1-0.5,0.5-0.8,1-0.8h0.8c0.7,0,1,0.4,0.7,1l-3.7,11.1V344.7z"/>
	</g>
	<circle class="st11" cx="377.3" cy="582.9" r="13.2"/>
	<g>
		<path class="st12" d="M368.8,549c1.7,0.3,2.3,1.6,2.3,3v3.2c0,2.3-1.7,3.8-4.6,3.8h-3.9c-0.6,0-0.9-0.3-0.9-0.9v-17.4
			c0-0.6,0.3-0.9,0.9-0.9h4c2.9,0,4.5,1.5,4.5,3.8v2.4C371,547.2,370.5,548.8,368.8,549z M364.2,547.9h2.2c1.2,0,1.9-0.5,1.9-1.7
			v-2.2c0-1.3-0.6-2-1.9-2h-2.2V547.9z M366.6,550.1h-2.3v6.6h2.3c1.3,0,1.9-0.6,1.9-2v-2.9C368.5,550.7,367.8,550.1,366.6,550.1z"
			/>
		<path class="st12" d="M383.1,540.6v14.5c0,2.9-1.7,4.1-4.6,4.1h-0.1c-2.9,0-4.6-1.2-4.6-4.1v-14.5c0-0.6,0.3-0.9,0.9-0.9h0.8
			c0.6,0,0.9,0.3,0.9,0.9v14c0,1.7,0.7,2.3,2.1,2.3s2.1-0.6,2.1-2.3v-14c0-0.6,0.3-0.9,0.9-0.9h0.8
			C382.8,539.7,383.1,540,383.1,540.6z"/>
		<path class="st12" d="M391.5,558c0,0.6-0.3,0.9-0.9,0.9h-0.8c-0.6,0-0.9-0.3-0.9-0.9v-6.2l-3.7-11.1c-0.2-0.6,0.1-1,0.7-1h0.8
			c0.5,0,0.9,0.2,1,0.8l2.4,8.5l2.4-8.5c0.1-0.5,0.5-0.8,1-0.8h0.8c0.7,0,1,0.4,0.7,1l-3.7,11.1V558z"/>
	</g>
	<circle class="st11" cx="748.9" cy="162.4" r="13.2"/>
	<g>
		<path class="st12" d="M740.4,128.4c1.7,0.3,2.3,1.6,2.3,3v3.2c0,2.3-1.7,3.8-4.6,3.8h-3.9c-0.6,0-0.9-0.3-0.9-0.9v-17.4
			c0-0.6,0.3-0.9,0.9-0.9h4c2.9,0,4.5,1.5,4.5,3.8v2.4C742.5,126.7,742,128.2,740.4,128.4z M735.8,127.4h2.2c1.2,0,1.9-0.5,1.9-1.7
			v-2.2c0-1.3-0.6-2-1.9-2h-2.2V127.4z M738.1,129.6h-2.3v6.6h2.3c1.3,0,1.9-0.6,1.9-2v-2.9C740,130.1,739.3,129.6,738.1,129.6z"/>
		<path class="st12" d="M754.6,120.1v14.5c0,2.9-1.7,4.1-4.6,4.1h-0.1c-2.9,0-4.6-1.2-4.6-4.1v-14.5c0-0.6,0.3-0.9,0.9-0.9h0.8
			c0.6,0,0.9,0.3,0.9,0.9v14c0,1.7,0.7,2.3,2.1,2.3s2.1-0.6,2.1-2.3v-14c0-0.6,0.3-0.9,0.9-0.9h0.8
			C754.3,119.2,754.6,119.5,754.6,120.1z"/>
		<path class="st12" d="M763,137.5c0,0.6-0.3,0.9-0.9,0.9h-0.8c-0.6,0-0.9-0.3-0.9-0.9v-6.2l-3.7-11.1c-0.2-0.6,0.1-1,0.7-1h0.8
			c0.5,0,0.9,0.2,1,0.8l2.4,8.5l2.4-8.5c0.1-0.5,0.5-0.8,1-0.8h0.8c0.7,0,1,0.4,0.7,1l-3.7,11.1V137.5z"/>
	</g>
	<circle class="st11" cx="1198" cy="611.3" r="13.2"/>
	<g>
		<path class="st12" d="M1189.5,577.4c1.7,0.3,2.3,1.6,2.3,3v3.2c0,2.3-1.7,3.8-4.6,3.8h-3.9c-0.6,0-0.9-0.3-0.9-0.9v-17.4
			c0-0.6,0.3-0.9,0.9-0.9h4c2.9,0,4.5,1.5,4.5,3.8v2.4C1191.6,575.7,1191.1,577.2,1189.5,577.4z M1184.9,576.3h2.2
			c1.2,0,1.9-0.5,1.9-1.7v-2.2c0-1.3-0.6-2-1.9-2h-2.2V576.3z M1187.2,578.5h-2.3v6.6h2.3c1.3,0,1.9-0.6,1.9-2v-2.9
			C1189.1,579.1,1188.4,578.5,1187.2,578.5z"/>
		<path class="st12" d="M1203.7,569.1v14.5c0,2.9-1.7,4.1-4.6,4.1h-0.1c-2.9,0-4.6-1.2-4.6-4.1v-14.5c0-0.6,0.3-0.9,0.9-0.9h0.8
			c0.6,0,0.9,0.3,0.9,0.9v14c0,1.7,0.7,2.3,2.1,2.3s2.1-0.6,2.1-2.3v-14c0-0.6,0.3-0.9,0.9-0.9h0.8
			C1203.4,568.1,1203.7,568.5,1203.7,569.1z"/>
		<path class="st12" d="M1212.1,586.5c0,0.6-0.3,0.9-0.9,0.9h-0.8c-0.6,0-0.9-0.3-0.9-0.9v-6.2l-3.7-11.1c-0.2-0.6,0.1-1,0.7-1h0.8
			c0.5,0,0.9,0.2,1,0.8l2.4,8.5l2.4-8.5c0.1-0.5,0.5-0.8,1-0.8h0.8c0.7,0,1,0.4,0.7,1l-3.7,11.1V586.5z"/>
	</g>
	<circle class="st11" cx="1554.6" cy="502.5" r="13.2"/>
	<g>
		<path class="st12" d="M1546.1,468.6c1.7,0.3,2.3,1.6,2.3,3v3.2c0,2.3-1.7,3.8-4.6,3.8h-3.9c-0.6,0-0.9-0.3-0.9-0.9v-17.4
			c0-0.6,0.3-0.9,0.9-0.9h4c2.9,0,4.5,1.5,4.5,3.8v2.4C1548.3,466.9,1547.7,468.4,1546.1,468.6z M1541.5,467.5h2.2
			c1.2,0,1.9-0.5,1.9-1.7v-2.2c0-1.3-0.6-2-1.9-2h-2.2V467.5z M1543.9,469.7h-2.3v6.6h2.3c1.3,0,1.9-0.6,1.9-2v-2.9
			C1545.8,470.3,1545.1,469.7,1543.9,469.7z"/>
		<path class="st12" d="M1560.4,460.2v14.5c0,2.9-1.7,4.1-4.6,4.1h-0.1c-2.9,0-4.6-1.2-4.6-4.1v-14.5c0-0.6,0.3-0.9,0.9-0.9h0.8
			c0.6,0,0.9,0.3,0.9,0.9v14c0,1.7,0.7,2.3,2.1,2.3s2.1-0.6,2.1-2.3v-14c0-0.6,0.3-0.9,0.9-0.9h0.8
			C1560.1,459.3,1560.4,459.7,1560.4,460.2z"/>
		<path class="st12" d="M1568.8,477.7c0,0.6-0.3,0.9-0.9,0.9h-0.8c-0.6,0-0.9-0.3-0.9-0.9v-6.2l-3.7-11.1c-0.2-0.6,0.1-1,0.7-1h0.8
			c0.5,0,0.9,0.2,1,0.8l2.4,8.5l2.4-8.5c0.1-0.5,0.5-0.8,1-0.8h0.8c0.7,0,1,0.4,0.7,1l-3.7,11.1V477.7z"/>
	</g>
	<circle class="st11" cx="1757.5" cy="629.9" r="13.2"/>
	<g>
		<path class="st12" d="M1749,596c1.7,0.3,2.3,1.6,2.3,3v3.2c0,2.3-1.7,3.8-4.6,3.8h-3.9c-0.6,0-0.9-0.3-0.9-0.9v-17.4
			c0-0.6,0.3-0.9,0.9-0.9h4c2.9,0,4.5,1.5,4.5,3.8v2.4C1751.2,594.3,1750.7,595.8,1749,596z M1744.5,594.9h2.2
			c1.2,0,1.9-0.5,1.9-1.7V591c0-1.3-0.6-2-1.9-2h-2.2V594.9z M1746.8,597.1h-2.3v6.6h2.3c1.3,0,1.9-0.6,1.9-2v-2.9
			C1748.7,597.7,1748,597.1,1746.8,597.1z"/>
		<path class="st12" d="M1763.3,587.6v14.5c0,2.9-1.7,4.1-4.6,4.1h-0.1c-2.9,0-4.6-1.2-4.6-4.1v-14.5c0-0.6,0.3-0.9,0.9-0.9h0.8
			c0.6,0,0.9,0.3,0.9,0.9v14c0,1.7,0.7,2.3,2.1,2.3s2.1-0.6,2.1-2.3v-14c0-0.6,0.3-0.9,0.9-0.9h0.8
			C1763,586.7,1763.3,587.1,1763.3,587.6z"/>
		<path class="st12" d="M1771.7,605.1c0,0.6-0.3,0.9-0.9,0.9h-0.8c-0.6,0-0.9-0.3-0.9-0.9v-6.2l-3.7-11.1c-0.2-0.6,0.1-1,0.7-1h0.8
			c0.5,0,0.9,0.2,1,0.8l2.4,8.5l2.4-8.5c0.1-0.5,0.5-0.8,1-0.8h0.8c0.7,0,1,0.4,0.7,1l-3.7,11.1V605.1z"/>
	</g>
	<circle class="st11" cx="2557.8" cy="582.9" r="13.2"/>
	<g>
		<path class="st12" d="M2549.3,549c1.7,0.3,2.3,1.6,2.3,3v3.2c0,2.3-1.7,3.8-4.6,3.8h-3.9c-0.6,0-0.9-0.3-0.9-0.9v-17.4
			c0-0.6,0.3-0.9,0.9-0.9h4c2.9,0,4.5,1.5,4.5,3.8v2.4C2551.5,547.2,2551,548.8,2549.3,549z M2544.8,547.9h2.2
			c1.2,0,1.9-0.5,1.9-1.7v-2.2c0-1.3-0.6-2-1.9-2h-2.2V547.9z M2547.1,550.1h-2.3v6.6h2.3c1.3,0,1.9-0.6,1.9-2v-2.9
			C2549,550.7,2548.3,550.1,2547.1,550.1z"/>
		<path class="st12" d="M2563.6,540.6v14.5c0,2.9-1.7,4.1-4.6,4.1h-0.1c-2.9,0-4.6-1.2-4.6-4.1v-14.5c0-0.6,0.3-0.9,0.9-0.9h0.8
			c0.6,0,0.9,0.3,0.9,0.9v14c0,1.7,0.7,2.3,2.1,2.3c1.4,0,2.1-0.6,2.1-2.3v-14c0-0.6,0.3-0.9,0.9-0.9h0.8
			C2563.3,539.7,2563.6,540,2563.6,540.6z"/>
		<path class="st12" d="M2572,558c0,0.6-0.3,0.9-0.9,0.9h-0.8c-0.6,0-0.9-0.3-0.9-0.9v-6.2l-3.7-11.1c-0.2-0.6,0.1-1,0.7-1h0.8
			c0.5,0,0.9,0.2,1,0.8l2.4,8.5l2.4-8.5c0.1-0.5,0.5-0.8,1-0.8h0.8c0.7,0,1,0.4,0.7,1l-3.7,11.1V558z"/>
	</g>
	<circle class="st11" cx="3364.2" cy="629.9" r="13.2"/>
	<g>
		<path class="st12" d="M3355.7,596c1.7,0.3,2.3,1.6,2.3,3v3.2c0,2.3-1.7,3.8-4.6,3.8h-3.9c-0.6,0-0.9-0.3-0.9-0.9v-17.4
			c0-0.6,0.3-0.9,0.9-0.9h4c2.9,0,4.5,1.5,4.5,3.8v2.4C3357.8,594.3,3357.3,595.8,3355.7,596z M3351.1,594.9h2.2
			c1.2,0,1.9-0.5,1.9-1.7V591c0-1.3-0.6-2-1.9-2h-2.2V594.9z M3353.4,597.1h-2.3v6.6h2.3c1.3,0,1.9-0.6,1.9-2v-2.9
			C3355.4,597.7,3354.7,597.1,3353.4,597.1z"/>
		<path class="st12" d="M3369.9,587.6v14.5c0,2.9-1.7,4.1-4.6,4.1h-0.1c-2.9,0-4.6-1.2-4.6-4.1v-14.5c0-0.6,0.3-0.9,0.9-0.9h0.8
			c0.6,0,0.9,0.3,0.9,0.9v14c0,1.7,0.7,2.3,2.1,2.3s2.1-0.6,2.1-2.3v-14c0-0.6,0.3-0.9,0.9-0.9h0.8
			C3369.6,586.7,3369.9,587.1,3369.9,587.6z"/>
		<path class="st12" d="M3378.4,605.1c0,0.6-0.3,0.9-0.9,0.9h-0.8c-0.6,0-0.9-0.3-0.9-0.9v-6.2l-3.7-11.1c-0.2-0.6,0.1-1,0.7-1h0.8
			c0.5,0,0.9,0.2,1,0.8l2.4,8.5l2.4-8.5c0.1-0.5,0.5-0.8,1-0.8h0.8c0.7,0,1,0.4,0.7,1l-3.7,11.1V605.1z"/>
	</g>
	<circle class="st11" cx="3570" cy="502.5" r="13.2"/>
	<g>
		<path class="st12" d="M3561.5,468.6c1.7,0.3,2.3,1.6,2.3,3v3.2c0,2.3-1.7,3.8-4.6,3.8h-3.9c-0.6,0-0.9-0.3-0.9-0.9v-17.4
			c0-0.6,0.3-0.9,0.9-0.9h4c2.9,0,4.5,1.5,4.5,3.8v2.4C3563.7,466.9,3563.2,468.4,3561.5,468.6z M3557,467.5h2.2
			c1.2,0,1.9-0.5,1.9-1.7v-2.2c0-1.3-0.6-2-1.9-2h-2.2V467.5z M3559.3,469.7h-2.3v6.6h2.3c1.3,0,1.9-0.6,1.9-2v-2.9
			C3561.2,470.3,3560.5,469.7,3559.3,469.7z"/>
		<path class="st12" d="M3575.8,460.2v14.5c0,2.9-1.7,4.1-4.6,4.1h-0.1c-2.9,0-4.6-1.2-4.6-4.1v-14.5c0-0.6,0.3-0.9,0.9-0.9h0.8
			c0.6,0,0.9,0.3,0.9,0.9v14c0,1.7,0.7,2.3,2.1,2.3s2.1-0.6,2.1-2.3v-14c0-0.6,0.3-0.9,0.9-0.9h0.8
			C3575.5,459.3,3575.8,459.7,3575.8,460.2z"/>
		<path class="st12" d="M3584.2,477.7c0,0.6-0.3,0.9-0.9,0.9h-0.8c-0.6,0-0.9-0.3-0.9-0.9v-6.2l-3.7-11.1c-0.2-0.6,0.1-1,0.7-1h0.8
			c0.5,0,0.9,0.2,1,0.8l2.4,8.5l2.4-8.5c0.1-0.5,0.5-0.8,1-0.8h0.8c0.7,0,1,0.4,0.7,1l-3.7,11.1V477.7z"/>
	</g>
	<circle class="st11" cx="3941.6" cy="611.3" r="13.2"/>
	<g>
		<path class="st12" d="M3933.1,577.4c1.7,0.3,2.3,1.6,2.3,3v3.2c0,2.3-1.7,3.8-4.6,3.8h-3.9c-0.6,0-0.9-0.3-0.9-0.9v-17.4
			c0-0.6,0.3-0.9,0.9-0.9h4c2.9,0,4.5,1.5,4.5,3.8v2.4C3935.2,575.7,3934.7,577.2,3933.1,577.4z M3928.5,576.3h2.2
			c1.2,0,1.9-0.5,1.9-1.7v-2.2c0-1.3-0.6-2-1.9-2h-2.2V576.3z M3930.8,578.5h-2.3v6.6h2.3c1.3,0,1.9-0.6,1.9-2v-2.9
			C3932.7,579.1,3932,578.5,3930.8,578.5z"/>
		<path class="st12" d="M3947.3,569.1v14.5c0,2.9-1.7,4.1-4.6,4.1h-0.1c-2.9,0-4.6-1.2-4.6-4.1v-14.5c0-0.6,0.3-0.9,0.9-0.9h0.8
			c0.6,0,0.9,0.3,0.9,0.9v14c0,1.7,0.7,2.3,2.1,2.3c1.4,0,2.1-0.6,2.1-2.3v-14c0-0.6,0.3-0.9,0.9-0.9h0.8
			C3947,568.1,3947.3,568.5,3947.3,569.1z"/>
		<path class="st12" d="M3955.8,586.5c0,0.6-0.3,0.9-0.9,0.9h-0.8c-0.6,0-0.9-0.3-0.9-0.9v-6.2l-3.7-11.1c-0.2-0.6,0.1-1,0.7-1h0.8
			c0.6,0,0.9,0.2,1,0.8l2.4,8.5l2.4-8.5c0.1-0.5,0.5-0.8,1-0.8h0.8c0.7,0,1,0.4,0.7,1l-3.7,11.1V586.5z"/>
	</g>
	<circle class="st11" cx="4371.9" cy="162.4" r="13.2"/>
	<g>
		<path class="st12" d="M4363.4,128.4c1.7,0.3,2.3,1.6,2.3,3v3.2c0,2.3-1.7,3.8-4.6,3.8h-3.9c-0.6,0-0.9-0.3-0.9-0.9v-17.4
			c0-0.6,0.3-0.9,0.9-0.9h4c2.9,0,4.5,1.5,4.5,3.8v2.4C4365.5,126.7,4365,128.2,4363.4,128.4z M4358.8,127.4h2.2
			c1.2,0,1.9-0.5,1.9-1.7v-2.2c0-1.3-0.6-2-1.9-2h-2.2V127.4z M4361.1,129.6h-2.3v6.6h2.3c1.3,0,1.9-0.6,1.9-2v-2.9
			C4363.1,130.1,4362.4,129.6,4361.1,129.6z"/>
		<path class="st12" d="M4377.6,120.1v14.5c0,2.9-1.7,4.1-4.6,4.1h-0.1c-2.9,0-4.6-1.2-4.6-4.1v-14.5c0-0.6,0.3-0.9,0.9-0.9h0.8
			c0.6,0,0.9,0.3,0.9,0.9v14c0,1.7,0.7,2.3,2.1,2.3s2.1-0.6,2.1-2.3v-14c0-0.6,0.3-0.9,0.9-0.9h0.8
			C4377.3,119.2,4377.6,119.5,4377.6,120.1z"/>
		<path class="st12" d="M4386.1,137.5c0,0.6-0.3,0.9-0.9,0.9h-0.8c-0.6,0-0.9-0.3-0.9-0.9v-6.2l-3.7-11.1c-0.2-0.6,0.1-1,0.7-1h0.8
			c0.5,0,0.9,0.2,1,0.8l2.4,8.5l2.4-8.5c0.1-0.5,0.5-0.8,1-0.8h0.8c0.7,0,1,0.4,0.7,1l-3.7,11.1V137.5z"/>
	</g>
	<circle class="st11" cx="4744.2" cy="582.9" r="13.2"/>
	<g>
		<path class="st12" d="M4735.7,549c1.7,0.3,2.3,1.6,2.3,3v3.2c0,2.3-1.7,3.8-4.6,3.8h-3.9c-0.6,0-0.9-0.3-0.9-0.9v-17.4
			c0-0.6,0.3-0.9,0.9-0.9h4c2.9,0,4.5,1.5,4.5,3.8v2.4C4737.8,547.2,4737.3,548.8,4735.7,549z M4731.1,547.9h2.2
			c1.2,0,1.9-0.5,1.9-1.7v-2.2c0-1.3-0.6-2-1.9-2h-2.2V547.9z M4733.4,550.1h-2.3v6.6h2.3c1.3,0,1.9-0.6,1.9-2v-2.9
			C4735.4,550.7,4734.7,550.1,4733.4,550.1z"/>
		<path class="st12" d="M4749.9,540.6v14.5c0,2.9-1.7,4.1-4.6,4.1h-0.1c-2.9,0-4.6-1.2-4.6-4.1v-14.5c0-0.6,0.3-0.9,0.9-0.9h0.8
			c0.6,0,0.9,0.3,0.9,0.9v14c0,1.7,0.7,2.3,2.1,2.3c1.4,0,2.1-0.6,2.1-2.3v-14c0-0.6,0.3-0.9,0.9-0.9h0.8
			C4749.6,539.7,4749.9,540,4749.9,540.6z"/>
		<path class="st12" d="M4758.4,558c0,0.6-0.3,0.9-0.9,0.9h-0.8c-0.6,0-0.9-0.3-0.9-0.9v-6.2l-3.7-11.1c-0.2-0.6,0.1-1,0.7-1h0.8
			c0.5,0,0.9,0.2,1,0.8l2.4,8.5l2.4-8.5c0.1-0.5,0.5-0.8,1-0.8h0.8c0.7,0,1,0.4,0.7,1l-3.7,11.1V558z"/>
	</g>
	<circle class="st11" cx="4976.5" cy="369.6" r="13.2"/>
	<g>
		<path class="st12" d="M4968,335.7c1.7,0.3,2.3,1.6,2.3,3v3.2c0,2.3-1.7,3.8-4.6,3.8h-3.9c-0.6,0-0.9-0.3-0.9-0.9v-17.4
			c0-0.6,0.3-0.9,0.9-0.9h4c2.9,0,4.5,1.5,4.5,3.8v2.4C4970.2,333.9,4969.6,335.5,4968,335.7z M4963.4,334.6h2.2
			c1.2,0,1.9-0.5,1.9-1.7v-2.2c0-1.3-0.6-2-1.9-2h-2.2V334.6z M4965.8,336.8h-2.3v6.6h2.3c1.3,0,1.9-0.6,1.9-2v-2.9
			C4967.7,337.4,4967,336.8,4965.8,336.8z"/>
		<path class="st12" d="M4982.2,327.3v14.5c0,2.9-1.7,4.1-4.6,4.1h-0.1c-2.9,0-4.6-1.2-4.6-4.1v-14.5c0-0.6,0.3-0.9,0.9-0.9h0.8
			c0.6,0,0.9,0.3,0.9,0.9v14c0,1.7,0.7,2.3,2.1,2.3c1.4,0,2.1-0.6,2.1-2.3v-14c0-0.6,0.3-0.9,0.9-0.9h0.8
			C4981.9,326.4,4982.2,326.7,4982.2,327.3z"/>
		<path class="st12" d="M4990.7,344.7c0,0.6-0.3,0.9-0.9,0.9h-0.8c-0.6,0-0.9-0.3-0.9-0.9v-6.2l-3.7-11.1c-0.2-0.6,0.1-1,0.7-1h0.8
			c0.6,0,0.9,0.2,1,0.8l2.4,8.5l2.4-8.5c0.1-0.5,0.5-0.8,1-0.8h0.8c0.7,0,1,0.4,0.7,1l-3.7,11.1V344.7z"/>
	</g>
	<circle class="st13" cx="255.8" cy="248.5" r="13.2"/>
	<g>
		<path class="st14" d="M248,212.1h-0.7c-0.6,0-0.9-0.3-0.9-0.9v-1.7c0-1.5-0.7-2.1-2.1-2.1c-1.3,0-2.1,0.6-2.1,2.1v1.3
			c0,1.2,0.4,1.6,1.5,2.2l2.5,1.4c1.6,0.9,2.7,1.9,2.7,3.7v2.7c0,2.9-1.7,4-4.6,4h-0.1c-2.9,0-4.6-1.1-4.6-4v-2.4
			c0-0.6,0.3-0.9,0.9-0.9h0.7c0.6,0,0.9,0.3,0.9,0.9v1.9c0,1.5,0.7,2.2,2.1,2.2s2.1-0.7,2.1-2.2v-1.5c0-1.2-0.4-1.6-1.5-2.3
			l-2.5-1.4c-1.8-1-2.7-1.8-2.7-3.7v-2.4c0-2.8,1.9-4,4.6-4h0.1c2.6,0,4.6,1.2,4.6,4v2.1C248.9,211.8,248.6,212.1,248,212.1z"/>
		<path class="st14" d="M258.9,224.6h-6.4c-0.6,0-0.9-0.3-0.9-0.9v-17.4c0-0.6,0.3-0.9,0.9-0.9h6.3c0.6,0,0.9,0.3,0.9,0.9v0.5
			c0,0.6-0.3,0.9-0.9,0.9h-4.6v6h3.8c0.6,0,0.9,0.3,0.9,0.9v0.5c0,0.6-0.3,0.9-0.9,0.9h-3.8v6.3h4.7c0.6,0,0.9,0.3,0.9,0.9v0.5
			C259.8,224.2,259.5,224.6,258.9,224.6z"/>
		<path class="st14" d="M269.8,223.1v0.5c0,0.6-0.3,0.9-0.9,0.9h-6c-0.6,0-0.9-0.3-0.9-0.9v-17.4c0-0.6,0.3-0.9,0.9-0.9h0.8
			c0.6,0,0.9,0.3,0.9,0.9v16h4.3C269.5,222.2,269.8,222.6,269.8,223.1z"/>
		<path class="st14" d="M279.6,223.1v0.5c0,0.6-0.3,0.9-0.9,0.9h-6c-0.6,0-0.9-0.3-0.9-0.9v-17.4c0-0.6,0.3-0.9,0.9-0.9h0.8
			c0.6,0,0.9,0.3,0.9,0.9v16h4.3C279.3,222.2,279.6,222.6,279.6,223.1z"/>
	</g>
	<circle class="st13" cx="675.3" cy="119.8" r="13.2"/>
	<g>
		<path class="st14" d="M667.5,83.4h-0.7c-0.6,0-0.9-0.3-0.9-0.9v-1.7c0-1.5-0.7-2.1-2.1-2.1c-1.3,0-2.1,0.6-2.1,2.1v1.3
			c0,1.2,0.4,1.6,1.5,2.2l2.5,1.4c1.6,0.9,2.7,1.9,2.7,3.7v2.7c0,2.9-1.7,4-4.6,4h-0.1c-2.9,0-4.6-1.1-4.6-4v-2.4
			c0-0.6,0.3-0.9,0.9-0.9h0.7c0.6,0,0.9,0.3,0.9,0.9v1.9c0,1.5,0.7,2.2,2.1,2.2s2.1-0.7,2.1-2.2v-1.5c0-1.2-0.4-1.6-1.5-2.3
			l-2.5-1.4c-1.8-1-2.7-1.8-2.7-3.7v-2.4c0-2.8,1.9-4,4.6-4h0.1c2.6,0,4.6,1.2,4.6,4v2.1C668.4,83.1,668.1,83.4,667.5,83.4z"/>
		<path class="st14" d="M678.4,95.9H672c-0.6,0-0.9-0.3-0.9-0.9V77.6c0-0.6,0.3-0.9,0.9-0.9h6.3c0.6,0,0.9,0.3,0.9,0.9V78
			c0,0.6-0.3,0.9-0.9,0.9h-4.6v6h3.8c0.6,0,0.9,0.3,0.9,0.9v0.5c0,0.6-0.3,0.9-0.9,0.9h-3.8v6.3h4.7c0.6,0,0.9,0.3,0.9,0.9V95
			C679.3,95.6,679,95.9,678.4,95.9z"/>
		<path class="st14" d="M689.3,94.5V95c0,0.6-0.3,0.9-0.9,0.9h-6c-0.6,0-0.9-0.3-0.9-0.9V77.6c0-0.6,0.3-0.9,0.9-0.9h0.8
			c0.6,0,0.9,0.3,0.9,0.9v16h4.3C689,93.6,689.3,93.9,689.3,94.5z"/>
		<path class="st14" d="M699.1,94.5V95c0,0.6-0.3,0.9-0.9,0.9h-6c-0.6,0-0.9-0.3-0.9-0.9V77.6c0-0.6,0.3-0.9,0.9-0.9h0.8
			c0.6,0,0.9,0.3,0.9,0.9v16h4.3C698.8,93.6,699.1,93.9,699.1,94.5z"/>
	</g>
	<circle class="st13" cx="827.3" cy="125.2" r="13.2"/>
	<g>
		<path class="st14" d="M819.5,88.8h-0.7c-0.6,0-0.9-0.3-0.9-0.9v-1.7c0-1.5-0.7-2.1-2.1-2.1c-1.3,0-2.1,0.6-2.1,2.1v1.3
			c0,1.2,0.4,1.6,1.5,2.2l2.5,1.4c1.6,0.9,2.7,1.9,2.7,3.7v2.7c0,2.9-1.7,4-4.6,4h-0.1c-2.9,0-4.6-1.1-4.6-4v-2.4
			c0-0.6,0.3-0.9,0.9-0.9h0.7c0.6,0,0.9,0.3,0.9,0.9V97c0,1.5,0.7,2.2,2.1,2.2s2.1-0.7,2.1-2.2v-1.5c0-1.2-0.4-1.6-1.5-2.3l-2.5-1.4
			c-1.8-1-2.7-1.8-2.7-3.7v-2.4c0-2.8,1.9-4,4.6-4h0.1c2.6,0,4.6,1.2,4.6,4v2.1C820.4,88.5,820.1,88.8,819.5,88.8z"/>
		<path class="st14" d="M830.4,101.2H824c-0.6,0-0.9-0.3-0.9-0.9V82.9c0-0.6,0.3-0.9,0.9-0.9h6.3c0.6,0,0.9,0.3,0.9,0.9v0.5
			c0,0.6-0.3,0.9-0.9,0.9h-4.6v6h3.8c0.6,0,0.9,0.3,0.9,0.9v0.5c0,0.6-0.3,0.9-0.9,0.9h-3.8V99h4.7c0.6,0,0.9,0.3,0.9,0.9v0.5
			C831.3,100.9,831,101.2,830.4,101.2z"/>
		<path class="st14" d="M841.3,99.8v0.5c0,0.6-0.3,0.9-0.9,0.9h-6c-0.6,0-0.9-0.3-0.9-0.9V82.9c0-0.6,0.3-0.9,0.9-0.9h0.8
			c0.6,0,0.9,0.3,0.9,0.9v16h4.3C841,98.9,841.3,99.2,841.3,99.8z"/>
		<path class="st14" d="M851.1,99.8v0.5c0,0.6-0.3,0.9-0.9,0.9h-6c-0.6,0-0.9-0.3-0.9-0.9V82.9c0-0.6,0.3-0.9,0.9-0.9h0.8
			c0.6,0,0.9,0.3,0.9,0.9v16h4.3C850.8,98.9,851.1,99.2,851.1,99.8z"/>
	</g>
	<circle class="st13" cx="1461.5" cy="331.8" r="13.2"/>
	<g>
		<path class="st14" d="M1453.7,295.4h-0.7c-0.6,0-0.9-0.3-0.9-0.9v-1.7c0-1.5-0.7-2.1-2.1-2.1c-1.3,0-2.1,0.6-2.1,2.1v1.3
			c0,1.2,0.4,1.6,1.5,2.2l2.5,1.4c1.6,0.9,2.7,1.9,2.7,3.7v2.7c0,2.9-1.7,4-4.6,4h-0.1c-2.9,0-4.6-1.1-4.6-4v-2.4
			c0-0.6,0.3-0.9,0.9-0.9h0.7c0.6,0,0.9,0.3,0.9,0.9v1.9c0,1.5,0.7,2.2,2.1,2.2s2.1-0.7,2.1-2.2v-1.5c0-1.2-0.4-1.6-1.5-2.3
			l-2.5-1.4c-1.8-1-2.7-1.8-2.7-3.7v-2.4c0-2.8,1.9-4,4.6-4h0.1c2.6,0,4.6,1.2,4.6,4v2.1C1454.6,295.1,1454.3,295.4,1453.7,295.4z"
			/>
		<path class="st14" d="M1464.5,307.8h-6.4c-0.6,0-0.9-0.3-0.9-0.9v-17.4c0-0.6,0.3-0.9,0.9-0.9h6.3c0.6,0,0.9,0.3,0.9,0.9v0.5
			c0,0.6-0.3,0.9-0.9,0.9h-4.6v6h3.8c0.6,0,0.9,0.3,0.9,0.9v0.5c0,0.6-0.3,0.9-0.9,0.9h-3.8v6.3h4.7c0.6,0,0.9,0.3,0.9,0.9v0.5
			C1465.4,307.5,1465.1,307.8,1464.5,307.8z"/>
		<path class="st14" d="M1475.5,306.4v0.5c0,0.6-0.3,0.9-0.9,0.9h-6c-0.6,0-0.9-0.3-0.9-0.9v-17.4c0-0.6,0.3-0.9,0.9-0.9h0.8
			c0.6,0,0.9,0.3,0.9,0.9v16h4.3C1475.2,305.5,1475.5,305.8,1475.5,306.4z"/>
		<path class="st14" d="M1485.2,306.4v0.5c0,0.6-0.3,0.9-0.9,0.9h-6c-0.6,0-0.9-0.3-0.9-0.9v-17.4c0-0.6,0.3-0.9,0.9-0.9h0.8
			c0.6,0,0.9,0.3,0.9,0.9v16h4.3C1484.9,305.5,1485.2,305.8,1485.2,306.4z"/>
	</g>
	<circle class="st13" cx="1629.1" cy="431" r="13.2"/>
	<g>
		<path class="st14" d="M1621.3,394.6h-0.7c-0.6,0-0.9-0.3-0.9-0.9V392c0-1.5-0.7-2.1-2.1-2.1c-1.3,0-2.1,0.6-2.1,2.1v1.3
			c0,1.2,0.4,1.6,1.5,2.2l2.5,1.4c1.6,0.9,2.7,1.9,2.7,3.7v2.7c0,2.9-1.7,4-4.6,4h-0.1c-2.9,0-4.6-1.1-4.6-4v-2.4
			c0-0.6,0.3-0.9,0.9-0.9h0.7c0.6,0,0.9,0.3,0.9,0.9v1.9c0,1.5,0.7,2.2,2.1,2.2s2.1-0.7,2.1-2.2v-1.5c0-1.2-0.4-1.6-1.5-2.3
			l-2.5-1.4c-1.8-1-2.7-1.8-2.7-3.7v-2.4c0-2.8,1.9-4,4.6-4h0.1c2.6,0,4.6,1.2,4.6,4v2.1C1622.2,394.2,1621.9,394.6,1621.3,394.6z"
			/>
		<path class="st14" d="M1632.2,407h-6.4c-0.6,0-0.9-0.3-0.9-0.9v-17.4c0-0.6,0.3-0.9,0.9-0.9h6.3c0.6,0,0.9,0.3,0.9,0.9v0.5
			c0,0.6-0.3,0.9-0.9,0.9h-4.6v6h3.8c0.6,0,0.9,0.3,0.9,0.9v0.5c0,0.6-0.3,0.9-0.9,0.9h-3.8v6.3h4.7c0.6,0,0.9,0.3,0.9,0.9v0.5
			C1633.1,406.7,1632.8,407,1632.2,407z"/>
		<path class="st14" d="M1643.2,405.6v0.5c0,0.6-0.3,0.9-0.9,0.9h-6c-0.6,0-0.9-0.3-0.9-0.9v-17.4c0-0.6,0.3-0.9,0.9-0.9h0.8
			c0.6,0,0.9,0.3,0.9,0.9v16h4.3C1642.9,404.7,1643.2,405,1643.2,405.6z"/>
		<path class="st14" d="M1652.9,405.6v0.5c0,0.6-0.3,0.9-0.9,0.9h-6c-0.6,0-0.9-0.3-0.9-0.9v-17.4c0-0.6,0.3-0.9,0.9-0.9h0.8
			c0.6,0,0.9,0.3,0.9,0.9v16h4.3C1652.6,404.7,1652.9,405,1652.9,405.6z"/>
	</g>
	<circle class="st13" cx="2281" cy="152.4" r="13.2"/>
	<g>
		<path class="st14" d="M2273.2,116h-0.7c-0.6,0-0.9-0.3-0.9-0.9v-1.7c0-1.5-0.7-2.1-2.1-2.1c-1.3,0-2.1,0.6-2.1,2.1v1.3
			c0,1.2,0.4,1.6,1.5,2.2l2.5,1.4c1.6,0.9,2.7,1.9,2.7,3.7v2.7c0,2.9-1.7,4-4.6,4h-0.1c-2.9,0-4.6-1.1-4.6-4v-2.4
			c0-0.6,0.3-0.9,0.9-0.9h0.7c0.6,0,0.9,0.3,0.9,0.9v1.9c0,1.5,0.7,2.2,2.1,2.2s2.1-0.7,2.1-2.2v-1.5c0-1.2-0.4-1.6-1.5-2.3
			l-2.5-1.4c-1.8-1-2.7-1.8-2.7-3.7V113c0-2.8,1.9-4,4.6-4h0.1c2.6,0,4.6,1.2,4.6,4v2.1C2274.1,115.7,2273.8,116,2273.2,116z"/>
		<path class="st14" d="M2284,128.5h-6.4c-0.6,0-0.9-0.3-0.9-0.9v-17.4c0-0.6,0.3-0.9,0.9-0.9h6.3c0.6,0,0.9,0.3,0.9,0.9v0.5
			c0,0.6-0.3,0.9-0.9,0.9h-4.6v6h3.8c0.6,0,0.9,0.3,0.9,0.9v0.5c0,0.6-0.3,0.9-0.9,0.9h-3.8v6.3h4.7c0.6,0,0.9,0.3,0.9,0.9v0.5
			C2284.9,128.2,2284.6,128.5,2284,128.5z"/>
		<path class="st14" d="M2295,127.1v0.5c0,0.6-0.3,0.9-0.9,0.9h-6c-0.6,0-0.9-0.3-0.9-0.9v-17.4c0-0.6,0.3-0.9,0.9-0.9h0.8
			c0.6,0,0.9,0.3,0.9,0.9v16h4.3C2294.7,126.1,2295,126.5,2295,127.1z"/>
		<path class="st14" d="M2304.7,127.1v0.5c0,0.6-0.3,0.9-0.9,0.9h-6c-0.6,0-0.9-0.3-0.9-0.9v-17.4c0-0.6,0.3-0.9,0.9-0.9h0.8
			c0.6,0,0.9,0.3,0.9,0.9v16h4.3C2304.4,126.1,2304.7,126.5,2304.7,127.1z"/>
	</g>
	<circle class="st13" cx="2842.6" cy="152.4" r="13.2"/>
	<g>
		<path class="st14" d="M2834.8,116h-0.7c-0.6,0-0.9-0.3-0.9-0.9v-1.7c0-1.5-0.7-2.1-2.1-2.1s-2.1,0.6-2.1,2.1v1.3
			c0,1.2,0.4,1.6,1.5,2.2l2.5,1.4c1.6,0.9,2.7,1.9,2.7,3.7v2.7c0,2.9-1.7,4-4.6,4h-0.1c-2.9,0-4.6-1.1-4.6-4v-2.4
			c0-0.6,0.3-0.9,0.9-0.9h0.7c0.6,0,0.9,0.3,0.9,0.9v1.9c0,1.5,0.7,2.2,2.1,2.2s2.1-0.7,2.1-2.2v-1.5c0-1.2-0.4-1.6-1.5-2.3
			l-2.5-1.4c-1.8-1-2.7-1.8-2.7-3.7V113c0-2.8,1.9-4,4.6-4h0.1c2.6,0,4.6,1.2,4.6,4v2.1C2835.8,115.7,2835.5,116,2834.8,116z"/>
		<path class="st14" d="M2845.7,128.5h-6.4c-0.6,0-0.9-0.3-0.9-0.9v-17.4c0-0.6,0.3-0.9,0.9-0.9h6.3c0.6,0,0.9,0.3,0.9,0.9v0.5
			c0,0.6-0.3,0.9-0.9,0.9h-4.6v6h3.8c0.6,0,0.9,0.3,0.9,0.9v0.5c0,0.6-0.3,0.9-0.9,0.9h-3.8v6.3h4.7c0.6,0,0.9,0.3,0.9,0.9v0.5
			C2846.6,128.2,2846.3,128.5,2845.7,128.5z"/>
		<path class="st14" d="M2856.7,127.1v0.5c0,0.6-0.3,0.9-0.9,0.9h-6c-0.6,0-0.9-0.3-0.9-0.9v-17.4c0-0.6,0.3-0.9,0.9-0.9h0.8
			c0.6,0,0.9,0.3,0.9,0.9v16h4.3C2856.4,126.1,2856.7,126.5,2856.7,127.1z"/>
		<path class="st14" d="M2866.4,127.1v0.5c0,0.6-0.3,0.9-0.9,0.9h-6c-0.6,0-0.9-0.3-0.9-0.9v-17.4c0-0.6,0.3-0.9,0.9-0.9h0.8
			c0.6,0,0.9,0.3,0.9,0.9v16h4.3C2866.1,126.1,2866.4,126.5,2866.4,127.1z"/>
	</g>
	<circle class="st13" cx="3490.6" cy="431" r="13.2"/>
	<g>
		<path class="st14" d="M3482.8,394.6h-0.7c-0.6,0-0.9-0.3-0.9-0.9V392c0-1.5-0.7-2.1-2.1-2.1s-2.1,0.6-2.1,2.1v1.3
			c0,1.2,0.4,1.6,1.5,2.2l2.5,1.4c1.6,0.9,2.7,1.9,2.7,3.7v2.7c0,2.9-1.7,4-4.6,4h-0.1c-2.9,0-4.6-1.1-4.6-4v-2.4
			c0-0.6,0.3-0.9,0.9-0.9h0.7c0.6,0,0.9,0.3,0.9,0.9v1.9c0,1.5,0.7,2.2,2.1,2.2s2.1-0.7,2.1-2.2v-1.5c0-1.2-0.4-1.6-1.5-2.3
			l-2.5-1.4c-1.8-1-2.7-1.8-2.7-3.7v-2.4c0-2.8,1.9-4,4.6-4h0.1c2.6,0,4.6,1.2,4.6,4v2.1C3483.7,394.2,3483.4,394.6,3482.8,394.6z"
			/>
		<path class="st14" d="M3493.6,407h-6.4c-0.6,0-0.9-0.3-0.9-0.9v-17.4c0-0.6,0.3-0.9,0.9-0.9h6.3c0.6,0,0.9,0.3,0.9,0.9v0.5
			c0,0.6-0.3,0.9-0.9,0.9h-4.6v6h3.8c0.6,0,0.9,0.3,0.9,0.9v0.5c0,0.6-0.3,0.9-0.9,0.9h-3.8v6.3h4.7c0.6,0,0.9,0.3,0.9,0.9v0.5
			C3494.5,406.7,3494.2,407,3493.6,407z"/>
		<path class="st14" d="M3504.6,405.6v0.5c0,0.6-0.3,0.9-0.9,0.9h-6c-0.6,0-0.9-0.3-0.9-0.9v-17.4c0-0.6,0.3-0.9,0.9-0.9h0.8
			c0.6,0,0.9,0.3,0.9,0.9v16h4.3C3504.3,404.7,3504.6,405,3504.6,405.6z"/>
		<path class="st14" d="M3514.3,405.6v0.5c0,0.6-0.3,0.9-0.9,0.9h-6c-0.6,0-0.9-0.3-0.9-0.9v-17.4c0-0.6,0.3-0.9,0.9-0.9h0.8
			c0.6,0,0.9,0.3,0.9,0.9v16h4.3C3514,404.7,3514.3,405,3514.3,405.6z"/>
	</g>
	<circle class="st13" cx="3664.9" cy="332.2" r="13.2"/>
	<g>
		<path class="st14" d="M3657.1,295.8h-0.7c-0.6,0-0.9-0.3-0.9-0.9v-1.7c0-1.5-0.7-2.1-2.1-2.1c-1.3,0-2.1,0.6-2.1,2.1v1.3
			c0,1.2,0.4,1.6,1.5,2.2l2.5,1.4c1.6,0.9,2.7,1.9,2.7,3.7v2.7c0,2.9-1.7,4-4.6,4h-0.1c-2.9,0-4.6-1.1-4.6-4v-2.4
			c0-0.6,0.3-0.9,0.9-0.9h0.7c0.6,0,0.9,0.3,0.9,0.9v1.9c0,1.5,0.7,2.2,2.1,2.2c1.3,0,2.1-0.7,2.1-2.2v-1.5c0-1.2-0.4-1.6-1.5-2.3
			l-2.5-1.4c-1.8-1-2.7-1.8-2.7-3.7v-2.4c0-2.8,1.9-4,4.6-4h0.1c2.6,0,4.6,1.2,4.6,4v2.1C3658,295.5,3657.7,295.8,3657.1,295.8z"/>
		<path class="st14" d="M3668,308.3h-6.4c-0.6,0-0.9-0.3-0.9-0.9v-17.4c0-0.6,0.3-0.9,0.9-0.9h6.3c0.6,0,0.9,0.3,0.9,0.9v0.5
			c0,0.6-0.3,0.9-0.9,0.9h-4.6v6h3.8c0.6,0,0.9,0.3,0.9,0.9v0.5c0,0.6-0.3,0.9-0.9,0.9h-3.8v6.3h4.7c0.6,0,0.9,0.3,0.9,0.9v0.5
			C3668.9,307.9,3668.6,308.3,3668,308.3z"/>
		<path class="st14" d="M3679,306.8v0.5c0,0.6-0.3,0.9-0.9,0.9h-6c-0.6,0-0.9-0.3-0.9-0.9v-17.4c0-0.6,0.3-0.9,0.9-0.9h0.8
			c0.6,0,0.9,0.3,0.9,0.9v16h4.3C3678.7,305.9,3679,306.3,3679,306.8z"/>
		<path class="st14" d="M3688.7,306.8v0.5c0,0.6-0.3,0.9-0.9,0.9h-6c-0.6,0-0.9-0.3-0.9-0.9v-17.4c0-0.6,0.3-0.9,0.9-0.9h0.8
			c0.6,0,0.9,0.3,0.9,0.9v16h4.3C3688.4,305.9,3688.7,306.3,3688.7,306.8z"/>
	</g>
	<circle class="st13" cx="4291.5" cy="124.5" r="13.2"/>
	<g>
		<path class="st14" d="M4283.7,88.2h-0.7c-0.6,0-0.9-0.3-0.9-0.9v-1.7c0-1.5-0.7-2.1-2.1-2.1s-2.1,0.6-2.1,2.1v1.3
			c0,1.2,0.4,1.6,1.5,2.2l2.5,1.4c1.6,0.9,2.7,1.9,2.7,3.7v2.7c0,2.9-1.7,4-4.6,4h-0.1c-2.9,0-4.6-1.1-4.6-4v-2.4
			c0-0.6,0.3-0.9,0.9-0.9h0.7c0.6,0,0.9,0.3,0.9,0.9v1.9c0,1.5,0.7,2.2,2.1,2.2s2.1-0.7,2.1-2.2v-1.5c0-1.2-0.4-1.6-1.5-2.3
			l-2.5-1.4c-1.8-1-2.7-1.8-2.7-3.7v-2.4c0-2.8,1.9-4,4.6-4h0.1c2.6,0,4.6,1.2,4.6,4v2.1C4284.6,87.8,4284.3,88.2,4283.7,88.2z"/>
		<path class="st14" d="M4294.6,100.6h-6.4c-0.6,0-0.9-0.3-0.9-0.9V82.3c0-0.6,0.3-0.9,0.9-0.9h6.3c0.6,0,0.9,0.3,0.9,0.9v0.5
			c0,0.6-0.3,0.9-0.9,0.9h-4.6v6h3.8c0.6,0,0.9,0.3,0.9,0.9v0.5c0,0.6-0.3,0.9-0.9,0.9h-3.8v6.3h4.7c0.6,0,0.9,0.3,0.9,0.9v0.5
			C4295.5,100.3,4295.2,100.6,4294.6,100.6z"/>
		<path class="st14" d="M4305.6,99.2v0.5c0,0.6-0.3,0.9-0.9,0.9h-6c-0.6,0-0.9-0.3-0.9-0.9V82.3c0-0.6,0.3-0.9,0.9-0.9h0.8
			c0.6,0,0.9,0.3,0.9,0.9v16h4.3C4305.3,98.3,4305.6,98.6,4305.6,99.2z"/>
		<path class="st14" d="M4315.3,99.2v0.5c0,0.6-0.3,0.9-0.9,0.9h-6c-0.6,0-0.9-0.3-0.9-0.9V82.3c0-0.6,0.3-0.9,0.9-0.9h0.8
			c0.6,0,0.9,0.3,0.9,0.9v16h4.3C4315,98.3,4315.3,98.6,4315.3,99.2z"/>
	</g>
	<circle class="st13" cx="4439.5" cy="116.7" r="13.2"/>
	<g>
		<path class="st14" d="M4431.7,80.3h-0.7c-0.6,0-0.9-0.3-0.9-0.9v-1.7c0-1.5-0.7-2.1-2.1-2.1s-2.1,0.6-2.1,2.1V79
			c0,1.2,0.4,1.6,1.5,2.2l2.5,1.4c1.6,0.9,2.7,1.9,2.7,3.7V89c0,2.9-1.7,4-4.6,4h-0.1c-2.9,0-4.6-1.1-4.6-4v-2.4
			c0-0.6,0.3-0.9,0.9-0.9h0.7c0.6,0,0.9,0.3,0.9,0.9v1.9c0,1.5,0.7,2.2,2.1,2.2s2.1-0.7,2.1-2.2V87c0-1.2-0.4-1.6-1.5-2.3l-2.5-1.4
			c-1.8-1-2.7-1.8-2.7-3.7v-2.4c0-2.8,1.9-4,4.6-4h0.1c2.6,0,4.6,1.2,4.6,4v2.1C4432.7,80,4432.3,80.3,4431.7,80.3z"/>
		<path class="st14" d="M4442.6,92.8h-6.4c-0.6,0-0.9-0.3-0.9-0.9V74.4c0-0.6,0.3-0.9,0.9-0.9h6.3c0.6,0,0.9,0.3,0.9,0.9v0.5
			c0,0.6-0.3,0.9-0.9,0.9h-4.6v6h3.8c0.6,0,0.9,0.3,0.9,0.9v0.5c0,0.6-0.3,0.9-0.9,0.9h-3.8v6.3h4.7c0.6,0,0.9,0.3,0.9,0.9v0.5
			C4443.5,92.4,4443.2,92.8,4442.6,92.8z"/>
		<path class="st14" d="M4453.6,91.3v0.5c0,0.6-0.3,0.9-0.9,0.9h-6c-0.6,0-0.9-0.3-0.9-0.9V74.4c0-0.6,0.3-0.9,0.9-0.9h0.8
			c0.6,0,0.9,0.3,0.9,0.9v16h4.3C4453.3,90.4,4453.6,90.7,4453.6,91.3z"/>
		<path class="st14" d="M4463.3,91.3v0.5c0,0.6-0.3,0.9-0.9,0.9h-6c-0.6,0-0.9-0.3-0.9-0.9V74.4c0-0.6,0.3-0.9,0.9-0.9h0.8
			c0.6,0,0.9,0.3,0.9,0.9v16h4.3C4463,90.4,4463.3,90.7,4463.3,91.3z"/>
	</g>
	<circle class="st13" cx="4864.1" cy="250.2" r="13.2"/>
	<g>
		<path class="st14" d="M4856.3,213.8h-0.7c-0.6,0-0.9-0.3-0.9-0.9v-1.7c0-1.5-0.7-2.1-2.1-2.1s-2.1,0.6-2.1,2.1v1.3
			c0,1.2,0.4,1.6,1.5,2.2l2.5,1.4c1.6,0.9,2.7,1.9,2.7,3.7v2.7c0,2.9-1.7,4-4.6,4h-0.1c-2.9,0-4.6-1.1-4.6-4v-2.4
			c0-0.6,0.3-0.9,0.9-0.9h0.7c0.6,0,0.9,0.3,0.9,0.9v1.9c0,1.5,0.7,2.2,2.1,2.2s2.1-0.7,2.1-2.2v-1.5c0-1.2-0.4-1.6-1.5-2.3
			l-2.5-1.4c-1.8-1-2.7-1.8-2.7-3.7v-2.4c0-2.8,1.9-4,4.6-4h0.1c2.6,0,4.6,1.2,4.6,4v2.1C4857.2,213.5,4856.9,213.8,4856.3,213.8z"
			/>
		<path class="st14" d="M4867.2,226.2h-6.4c-0.6,0-0.9-0.3-0.9-0.9v-17.4c0-0.6,0.3-0.9,0.9-0.9h6.3c0.6,0,0.9,0.3,0.9,0.9v0.5
			c0,0.6-0.3,0.9-0.9,0.9h-4.6v6h3.8c0.6,0,0.9,0.3,0.9,0.9v0.5c0,0.6-0.3,0.9-0.9,0.9h-3.8v6.3h4.7c0.6,0,0.9,0.3,0.9,0.9v0.5
			C4868.1,225.9,4867.8,226.2,4867.2,226.2z"/>
		<path class="st14" d="M4878.1,224.8v0.5c0,0.6-0.3,0.9-0.9,0.9h-6c-0.6,0-0.9-0.3-0.9-0.9v-17.4c0-0.6,0.3-0.9,0.9-0.9h0.8
			c0.6,0,0.9,0.3,0.9,0.9v16h4.3C4877.8,223.9,4878.1,224.2,4878.1,224.8z"/>
		<path class="st14" d="M4887.9,224.8v0.5c0,0.6-0.3,0.9-0.9,0.9h-6c-0.6,0-0.9-0.3-0.9-0.9v-17.4c0-0.6,0.3-0.9,0.9-0.9h0.8
			c0.6,0,0.9,0.3,0.9,0.9v16h4.3C4887.6,223.9,4887.9,224.2,4887.9,224.8z"/>
	</g>
	<circle class="st13" cx="5118.9" cy="167.7" r="13.2"/>
	<g>
		<path class="st14" d="M5111.1,131.3h-0.7c-0.6,0-0.9-0.3-0.9-0.9v-1.7c0-1.5-0.7-2.1-2.1-2.1c-1.3,0-2.1,0.6-2.1,2.1v1.3
			c0,1.2,0.4,1.6,1.5,2.2l2.5,1.4c1.6,0.9,2.7,1.9,2.7,3.7v2.7c0,2.9-1.7,4-4.6,4h-0.1c-2.9,0-4.6-1.1-4.6-4v-2.4
			c0-0.6,0.3-0.9,0.9-0.9h0.7c0.6,0,0.9,0.3,0.9,0.9v1.9c0,1.5,0.7,2.2,2.1,2.2c1.3,0,2.1-0.7,2.1-2.2V138c0-1.2-0.4-1.6-1.5-2.3
			l-2.5-1.4c-1.8-1-2.7-1.8-2.7-3.7v-2.4c0-2.8,1.9-4,4.6-4h0.1c2.6,0,4.6,1.2,4.6,4v2.1C5112,131,5111.7,131.3,5111.1,131.3z"/>
		<path class="st14" d="M5121.9,143.8h-6.4c-0.6,0-0.9-0.3-0.9-0.9v-17.4c0-0.6,0.3-0.9,0.9-0.9h6.3c0.6,0,0.9,0.3,0.9,0.9v0.5
			c0,0.6-0.3,0.9-0.9,0.9h-4.6v6h3.8c0.6,0,0.9,0.3,0.9,0.9v0.5c0,0.6-0.3,0.9-0.9,0.9h-3.8v6.3h4.7c0.6,0,0.9,0.3,0.9,0.9v0.5
			C5122.8,143.5,5122.5,143.8,5121.9,143.8z"/>
		<path class="st14" d="M5132.9,142.4v0.5c0,0.6-0.3,0.9-0.9,0.9h-6c-0.6,0-0.9-0.3-0.9-0.9v-17.4c0-0.6,0.3-0.9,0.9-0.9h0.8
			c0.6,0,0.9,0.3,0.9,0.9v16h4.3C5132.6,141.4,5132.9,141.8,5132.9,142.4z"/>
		<path class="st14" d="M5142.6,142.4v0.5c0,0.6-0.3,0.9-0.9,0.9h-6c-0.6,0-0.9-0.3-0.9-0.9v-17.4c0-0.6,0.3-0.9,0.9-0.9h0.8
			c0.6,0,0.9,0.3,0.9,0.9v16h4.3C5142.3,141.4,5142.6,141.8,5142.6,142.4z"/>
	</g>
	<circle class="st13" cx="-3" cy="167.7" r="13.2"/>
	<g>
		<path class="st14" d="M-10.8,131.3h-0.7c-0.6,0-0.9-0.3-0.9-0.9v-1.7c0-1.5-0.7-2.1-2.1-2.1c-1.3,0-2.1,0.6-2.1,2.1v1.3
			c0,1.2,0.4,1.6,1.5,2.2l2.5,1.4c1.6,0.9,2.7,1.9,2.7,3.7v2.7c0,2.9-1.7,4-4.6,4h-0.1c-2.9,0-4.6-1.1-4.6-4v-2.4
			c0-0.6,0.3-0.9,0.9-0.9h0.7c0.6,0,0.9,0.3,0.9,0.9v1.9c0,1.5,0.7,2.2,2.1,2.2s2.1-0.7,2.1-2.2V138c0-1.2-0.4-1.6-1.5-2.3l-2.5-1.4
			c-1.8-1-2.7-1.8-2.7-3.7v-2.4c0-2.8,1.9-4,4.6-4h0.1c2.6,0,4.6,1.2,4.6,4v2.1C-9.9,131-10.2,131.3-10.8,131.3z"/>
		<path class="st14" d="M0.1,143.8h-6.4c-0.6,0-0.9-0.3-0.9-0.9v-17.4c0-0.6,0.3-0.9,0.9-0.9H0c0.6,0,0.9,0.3,0.9,0.9v0.5
			c0,0.6-0.3,0.9-0.9,0.9h-4.6v6h3.8c0.6,0,0.9,0.3,0.9,0.9v0.5c0,0.6-0.3,0.9-0.9,0.9h-3.8v6.3h4.7c0.6,0,0.9,0.3,0.9,0.9v0.5
			C1,143.5,0.7,143.8,0.1,143.8z"/>
		<path class="st14" d="M11,142.4v0.5c0,0.6-0.3,0.9-0.9,0.9h-6c-0.6,0-0.9-0.3-0.9-0.9v-17.4c0-0.6,0.3-0.9,0.9-0.9h0.8
			c0.6,0,0.9,0.3,0.9,0.9v16h4.3C10.7,141.4,11,141.8,11,142.4z"/>
		<path class="st14" d="M20.7,142.4v0.5c0,0.6-0.3,0.9-0.9,0.9h-6c-0.6,0-0.9-0.3-0.9-0.9v-17.4c0-0.6,0.3-0.9,0.9-0.9h0.8
			c0.6,0,0.9,0.3,0.9,0.9v16h4.3C20.4,141.4,20.7,141.8,20.7,142.4z"/>
	</g>
</g>
<g id="Layer_5_00000128486022340123779170000015608050962517485219_">
</g>
</svg>
