<?xml version="1.0" encoding="utf-8"?>
<!-- Generator: Adobe Illustrator 27.3.1, SVG Export Plug-In . SVG Version: 6.00 Build 0)  -->
<svg version="1.1" xmlns="http://www.w3.org/2000/svg" xmlns:xlink="http://www.w3.org/1999/xlink" x="0px" y="0px"
	 viewBox="0 0 5122 720" style="enable-background:new 0 0 5122 720;" xml:space="preserve">
<style type="text/css">
	.st0{fill:none;stroke:#3ECF82;stroke-miterlimit:10;}
	.st1{fill:none;stroke:#FF0000;stroke-miterlimit:10;}
	.st2{fill:none;stroke:#3ECF82;stroke-width:2.25;stroke-miterlimit:10;}
	.st3{fill:none;stroke:#FE0E33;stroke-width:2.25;stroke-miterlimit:10;}
	.st4{fill:#3ECF82;}
	.st5{fill:#FE0E33;}
	.st6{display:none;}
	.st7{display:inline;}
	.st8{fill:#00A99D;}
</style>
<g id="Layer_7">
	<path class="st0" d="M-10.92,403.61c16.96,2.64,35.17,0.12,49.55-8.65c38.15-23.25,55.45-68.42,75.68-108.26
		s52.68-81.12,97.34-82.24c46.79-1.17,81.73,42.06,103.79,83.35s42.72,88.53,85.2,108.18c66.94,30.97,141.4-25.12,186.57-83.43
		c45.17-58.31,90.65-129.03,163.59-139.96c72.02-10.79,136.49,42.55,187.9,94.13c72.89,73.15,142.61,151.03,228.64,208.14
		c55.54,36.87,127.81,64.58,187.5,34.89c38.41-19.1,62.4-57.62,89.76-90.66c27.36-33.04,65.95-64.06,108.43-58.15
		c17.25,2.4,33.06,10.75,49.88,15.27c70.39,18.91,140.32-31.51,188.29-86.4c47.97-54.88,90.68-120.23,158.37-147.27
		c97.85-39.09,209.27,18.46,282.03,94.67s124.33,171.88,204,240.84c39.54,34.23,89.68,62.13,141.64,56.2"/>
	<path class="st1" d="M-10.92,201.3c63.32,9.9,122.03,62.12,169.35,110.96c59.9,61.82,119.8,123.64,179.7,185.46
		c19,19.61,39.07,39.91,65,48.45c53.22,17.53,107.85-19.72,149.58-57.11c117.61-105.37,229.88-236.27,385.6-262.46
		c104.39-17.56,211.2,16.68,304.72,66.28c93.52,49.6,178.15,114.52,270.93,165.5c86.29,47.42,190.87,82.63,281.74,44.73
		c127.29-53.08,177.14-228.03,310.07-264.73c150.13-41.45,284.68,120.59,434.89,144.64l8.84,1.49l11.91,0.41"/>
	<path class="st0" d="M5131.85,403.24c-16.96,2.64-35.17,0.12-49.55-8.65c-38.15-23.25-55.45-68.42-75.68-108.26
		c-20.23-39.84-52.68-81.12-97.34-82.24c-46.79-1.17-81.73,42.06-103.79,83.35s-42.72,88.53-85.2,108.18
		c-66.94,30.97-141.4-25.12-186.57-83.43s-90.65-129.03-163.59-139.96c-72.02-10.79-136.49,42.55-187.9,94.13
		c-72.89,73.15-142.61,151.03-228.64,208.14c-55.54,36.87-127.81,64.58-187.5,34.89c-38.41-19.1-62.4-57.62-89.76-90.66
		c-27.36-33.04-65.95-64.06-108.43-58.15c-17.25,2.4-33.06,10.75-49.88,15.27c-70.39,18.91-140.32-31.51-188.29-86.4
		c-47.97-54.88-90.68-120.23-158.37-147.27c-97.85-39.09-209.27,18.46-282.03,94.67c-72.76,76.21-124.33,171.88-204,240.84
		c-39.54,34.23-89.68,62.13-141.64,56.2"/>
	<path class="st1" d="M2548.19,385.55"/>
	<path class="st1" d="M5131.85,200.93c-63.32,9.9-122.03,62.12-169.35,110.96c-59.9,61.82-119.8,123.64-179.69,185.46
		c-19,19.61-39.07,39.91-65,48.45c-53.22,17.53-107.85-19.72-149.58-57.11c-117.61-105.37-229.88-236.27-385.6-262.46
		c-104.39-17.56-211.2,16.68-304.72,66.28S3699.75,407.02,3606.98,458c-86.29,47.42-190.87,82.62-281.74,44.73
		C3197.95,449.65,3148.1,274.71,3015.16,238c-156.49-43.21-296.05,134.69-454.07,146.93"/>
	<line class="st2" x1="5118.94" y1="154.63" x2="5118.94" y2="313.63"/>
	<line class="st2" x1="5062.94" y1="127.63" x2="5062.94" y2="233.63"/>
	<line class="st2" x1="4977.94" y1="242.63" x2="4977.94" y2="369.63"/>
	<line class="st2" x1="4921.94" y1="264.63" x2="4921.94" y2="375.63"/>
	<line class="st2" x1="4894.94" y1="189.63" x2="4894.94" y2="350.63"/>
	<line class="st2" x1="4865.94" y1="138.63" x2="4865.94" y2="242.63"/>
	<line class="st2" x1="4810.94" y1="313.63" x2="4810.94" y2="421.63"/>
	<line class="st2" x1="4754.94" y1="481.63" x2="4754.94" y2="555.63"/>
	<line class="st2" x1="4696.94" y1="430.63" x2="4696.94" y2="620.63"/>
	<line class="st2" x1="4640.94" y1="336.63" x2="4640.94" y2="481.63"/>
	<line class="st2" x1="4587.94" y1="197.63" x2="4587.94" y2="388.63"/>
	<line class="st2" x1="4557.94" y1="106.63" x2="4557.94" y2="305.63"/>
	<line class="st2" x1="4473.94" y1="49.63" x2="4473.94" y2="213.63"/>
	<line class="st2" x1="4445.94" y1="49.63" x2="4445.94" y2="106.63"/>
	<line class="st2" x1="4389.94" y1="106.63" x2="4389.94" y2="248.63"/>
	<line class="st2" x1="4333.94" y1="54.63" x2="4333.94" y2="213.63"/>
	<line class="st2" x1="4306.94" y1="54.63" x2="4306.94" y2="147.63"/>
	<line class="st2" x1="4278.94" y1="11.63" x2="4278.94" y2="160.63"/>
	<line class="st2" x1="4191.94" y1="160.63" x2="4191.94" y2="287.63"/>
	<line class="st2" x1="4110.94" y1="255.63" x2="4110.94" y2="430.63"/>
	<line class="st2" x1="3996.94" y1="466.63" x2="3996.94" y2="575.63"/>
	<line class="st2" x1="3913.94" y1="575.63" x2="3913.94" y2="611.63"/>
	<line class="st2" x1="3827.94" y1="555.63" x2="3827.94" y2="643.63"/>
	<line class="st2" x1="3800.94" y1="350.63" x2="3800.94" y2="626.63"/>
	<line class="st2" x1="3716.94" y1="269.63" x2="3716.94" y2="408.63"/>
	<line class="st2" x1="3660.94" y1="205.63" x2="3660.94" y2="369.63"/>
	<line class="st2" x1="3577.94" y1="408.63" x2="3577.94" y2="525.63"/>
	<line class="st2" x1="3519.94" y1="430.63" x2="3519.94" y2="547.63"/>
	<line class="st2" x1="3493.94" y1="287.63" x2="3493.94" y2="466.63"/>
	<line class="st2" x1="3382.94" y1="510.63" x2="3382.94" y2="692.63"/>
	<line class="st2" x1="3324.94" y1="563.63" x2="3324.94" y2="620.63"/>
	<line class="st2" x1="3296.94" y1="481.63" x2="3296.94" y2="611.63"/>
	<line class="st3" x1="5089.44" y1="106.13" x2="5089.44" y2="197.13"/>
	<line class="st3" x1="5033.44" y1="169.13" x2="5033.44" y2="313.13"/>
	<line class="st3" x1="5005.44" y1="287.13" x2="5005.44" y2="350.13"/>
	<line class="st3" x1="4949.44" y1="293.13" x2="4949.44" y2="388.13"/>
	<line class="st3" x1="4837.44" y1="177.13" x2="4837.44" y2="369.13"/>
	<line class="st3" x1="4781.44" y1="350.13" x2="4781.44" y2="563.13"/>
	<line class="st3" x1="4725.44" y1="525.13" x2="4725.44" y2="593.13"/>
	<line class="st3" x1="4669.44" y1="421.13" x2="4669.44" y2="521.13"/>
	<line class="st3" x1="4613.44" y1="287.13" x2="4613.44" y2="421.13"/>
	<line class="st3" x1="4530.44" y1="127.13" x2="4530.44" y2="189.13"/>
	<line class="st3" x1="4500.44" y1="138.13" x2="4500.44" y2="241.13"/>
	<line class="st3" x1="4418.44" y1="78.13" x2="4418.44" y2="205.13"/>
	<line class="st3" x1="4361.44" y1="120.13" x2="4361.44" y2="343.13"/>
	<line class="st3" x1="4248.44" y1="78.13" x2="4248.44" y2="189.13"/>
	<line class="st3" x1="4221.44" y1="106.13" x2="4221.44" y2="273.13"/>
	<line class="st3" x1="4165.44" y1="231.13" x2="4165.44" y2="320.13"/>
	<line class="st3" x1="4137.44" y1="248.13" x2="4137.44" y2="471.13"/>
	<line class="st3" x1="4081.44" y1="275.13" x2="4081.44" y2="421.13"/>
	<line class="st3" x1="4053.44" y1="242.13" x2="4053.44" y2="510.13"/>
	<line class="st3" x1="4024.44" y1="441.13" x2="4024.44" y2="563.13"/>
	<line class="st3" x1="3967.44" y1="525.13" x2="3967.44" y2="611.13"/>
	<line class="st3" x1="3939.44" y1="563.13" x2="3939.44" y2="620.13"/>
	<line class="st3" x1="3885.44" y1="510.13" x2="3885.44" y2="611.13"/>
	<line class="st3" x1="3858.44" y1="547.13" x2="3858.44" y2="626.13"/>
	<line class="st3" x1="3772.44" y1="336.13" x2="3772.44" y2="441.13"/>
	<line class="st3" x1="3744.44" y1="350.13" x2="3744.44" y2="488.13"/>
	<line class="st3" x1="3688.44" y1="270.13" x2="3688.44" y2="367.13"/>
	<line class="st3" x1="3633.44" y1="281.13" x2="3633.44" y2="495.13"/>
	<line class="st3" x1="3605.44" y1="471.13" x2="3605.44" y2="586.13"/>
	<line class="st3" x1="3548.44" y1="456.13" x2="3548.44" y2="575.13"/>
	<line class="st3" x1="3465.44" y1="305.13" x2="3465.44" y2="456.13"/>
	<line class="st3" x1="3436.44" y1="399.13" x2="3436.44" y2="575.13"/>
	<line class="st3" x1="3409.44" y1="495.13" x2="3409.44" y2="586.13"/>
	<line class="st3" x1="3353.44" y1="547.13" x2="3353.44" y2="711.13"/>
	<line class="st3" x1="3268.44" y1="456.13" x2="3268.44" y2="586.13"/>
	<line class="st3" x1="3240.44" y1="524.13" x2="3240.44" y2="642.13"/>
	
		<rect x="5111.94" y="176.63" transform="matrix(-1 -4.491530e-11 4.491530e-11 -1 10236.876 481.261)" class="st4" width="13" height="128"/>
	
		<rect x="5054.94" y="168.63" transform="matrix(-1 -4.488999e-11 4.488999e-11 -1 10123.876 373.261)" class="st4" width="14" height="36"/>
	
		<rect x="4968.94" y="264.63" transform="matrix(-1 -4.490065e-11 4.490065e-11 -1 9956.876 593.261)" class="st4" width="19" height="64"/>
	
		<rect x="4912.94" y="304.63" transform="matrix(-1 -4.490642e-11 4.490642e-11 -1 9841.876 640.261)" class="st4" width="16" height="31"/>
	
		<rect x="4884.94" y="231.63" transform="matrix(-1 -4.483270e-11 4.483270e-11 -1 9786.876 545.261)" class="st4" width="17" height="82"/>
	
		<rect x="4858.94" y="180.63" transform="matrix(-1 -4.492907e-11 4.492907e-11 -1 9732.876 411.261)" class="st4" width="15" height="50"/>
	
		<rect x="4802.94" y="358.63" transform="matrix(-1 -4.486867e-11 4.486867e-11 -1 9620.876 766.261)" class="st4" width="15" height="49"/>
	
		<rect x="4744.94" y="520.63" transform="matrix(-1 -4.496948e-11 4.496948e-11 -1 9507.876 1059.2611)" class="st4" width="18" height="18"/>
	
		<rect x="4690.94" y="470.63" transform="matrix(-1 -4.479274e-11 4.479274e-11 -1 9397.876 1031.2611)" class="st4" width="16" height="90"/>
	
		<rect x="4630.94" y="376.63" transform="matrix(-1 -4.486867e-11 4.486867e-11 -1 9279.876 827.261)" class="st4" width="18" height="74"/>
	
		<rect x="4577.94" y="190.63" transform="matrix(-1 -4.496948e-11 4.496948e-11 -1 9173.876 571.261)" class="st4" width="18" height="190"/>
	
		<rect x="4549.94" y="151.63" transform="matrix(-1 -4.490642e-11 4.490642e-11 -1 9115.876 416.261)" class="st4" width="16" height="113"/>
	
		<rect x="4465.94" y="85.63" transform="matrix(-1 -4.492907e-11 4.492907e-11 -1 8946.876 254.2611)" class="st4" width="15" height="83"/>
	
		<rect x="4435.94" y="85.63" transform="matrix(-1 -4.491886e-11 4.491886e-11 -1 8889.876 182.2611)" class="st4" width="18" height="11"/>
	
		<rect x="4380.94" y="151.63" transform="matrix(-1 -4.490642e-11 4.490642e-11 -1 8777.876 385.261)" class="st4" width="16" height="82"/>
	
		<rect x="4326.94" y="96.63" transform="matrix(-1 -4.492907e-11 4.492907e-11 -1 8668.876 273.261)" class="st4" width="15" height="80"/>
	
		<rect x="4298.94" y="96.63" transform="matrix(-1 -4.488999e-11 4.488999e-11 -1 8611.876 217.2611)" class="st4" width="14" height="24"/>
	
		<rect x="4268.94" y="54.63" transform="matrix(-1 -4.493973e-11 4.493973e-11 -1 8554.876 175.2611)" class="st4" width="17" height="66"/>
	
		<rect x="4184.94" y="196.63" transform="matrix(-1 -4.498991e-11 4.498991e-11 -1 8384.876 469.261)" class="st4" width="15" height="76"/>
	
		<rect x="4100.94" y="296.63" transform="matrix(-1 -4.493973e-11 4.493973e-11 -1 8218.876 639.261)" class="st4" width="17" height="46"/>
	
		<rect x="3988.94" y="481.63" transform="matrix(-1 -4.483270e-11 4.483270e-11 -1 7994.876 1037.2611)" class="st4" width="17" height="74"/>
	
		<rect x="3904.94" y="573.63" transform="matrix(-1 -4.493973e-11 4.493973e-11 -1 7826.876 1164.2611)" class="st4" width="17" height="17"/>
	
		<rect x="3821.94" y="563.63" transform="matrix(-1 -4.482515e-11 4.482515e-11 -1 7657.876 1183.2611)" class="st4" width="14" height="56"/>
	
		<rect x="3790.94" y="388.63" transform="matrix(-1 -4.483803e-11 4.483803e-11 -1 7601.876 988.261)" class="st4" width="20" height="211"/>
	
		<rect x="3708.94" y="312.63" transform="matrix(-1 -4.486867e-11 4.486867e-11 -1 7435.876 711.261)" class="st4" width="18" height="86"/>
	
		<rect x="3653.94" y="242.63" transform="matrix(-1 -4.491530e-11 4.491530e-11 -1 7320.876 571.261)" class="st4" width="13" height="86"/>
	
		<rect x="3568.94" y="430.63" transform="matrix(-1 -4.490642e-11 4.490642e-11 -1 7153.876 924.261)" class="st4" width="16" height="63"/>
	
		<rect x="3513.94" y="438.63" transform="matrix(-1 -4.486867e-11 4.486867e-11 -1 7042.876 937.261)" class="st4" width="15" height="60"/>
	
		<rect x="3484.94" y="350.63" transform="matrix(-1 -4.483270e-11 4.483270e-11 -1 6986.876 801.261)" class="st4" width="17" height="100"/>
	
		<rect x="3373.94" y="555.63" transform="matrix(-1 -4.486867e-11 4.486867e-11 -1 6762.876 1147.2611)" class="st4" width="15" height="36"/>
	
		<rect x="3316.94" y="585.63" transform="matrix(-1 -4.495527e-11 4.495527e-11 -1 6647.876 1197.2611)" class="st4" width="14" height="26"/>
	
		<rect x="3288.94" y="515.63" transform="matrix(-1 -4.490642e-11 4.490642e-11 -1 6593.876 1106.2611)" class="st4" width="16" height="75"/>
	<line class="st2" x1="2809.94" y1="123.63" x2="2809.94" y2="216.63"/>
	
		<rect x="2803.94" y="161.63" transform="matrix(-1 -4.484514e-11 4.484514e-11 -1 5620.876 340.261)" class="st4" width="13" height="17"/>
	
		<rect x="5082.94" y="147.63" transform="matrix(-1 -4.490642e-11 4.490642e-11 -1 10181.876 334.261)" class="st5" width="16" height="39"/>
	
		<rect x="5025.94" y="213.63" transform="matrix(-1 -4.493973e-11 4.493973e-11 -1 10068.876 507.261)" class="st5" width="17" height="80"/>
	
		<rect x="4998.94" y="301.63" transform="matrix(-1 -4.486867e-11 4.486867e-11 -1 10012.876 630.261)" class="st5" width="15" height="27"/>
	
		<rect x="4940.94" y="332.63" transform="matrix(-1 -4.490065e-11 4.490065e-11 -1 9900.876 675.261)" class="st5" width="19" height="10"/>
	
		<rect x="4831.94" y="213.63" transform="matrix(-1 -4.482515e-11 4.482515e-11 -1 9677.876 583.261)" class="st5" width="14" height="156"/>
	
		<rect x="4773.94" y="388.63" transform="matrix(-1 -4.490642e-11 4.490642e-11 -1 9563.876 927.261)" class="st5" width="16" height="150"/>
	
		<rect x="4716.94" y="520.63" transform="matrix(-1 -4.493973e-11 4.493973e-11 -1 9450.876 1088.2611)" class="st5" width="17" height="47"/>
	
		<rect x="4660.94" y="462.63" transform="matrix(-1 -4.493973e-11 4.493973e-11 -1 9338.876 937.261)" class="st5" width="17" height="12"/>
	
		<rect x="4605.94" y="323.63" transform="matrix(-1 -4.486867e-11 4.486867e-11 -1 9226.876 704.261)" class="st5" width="15" height="57"/>
	
		<rect x="4520.94" y="141.63" transform="matrix(-1 -4.490642e-11 4.490642e-11 -1 9057.876 305.261)" class="st5" width="16" height="22"/>
	
		<rect x="4492.94" y="160.63" transform="matrix(-1 -4.491886e-11 4.491886e-11 -1 9003.876 366.261)" class="st5" width="18" height="45"/>
	
		<rect x="4409.94" y="87.63" transform="matrix(-1 -4.486867e-11 4.486867e-11 -1 8834.876 259.261)" class="st5" width="15" height="84"/>
	
		<rect x="4353.94" y="160.63" transform="matrix(-1 -4.488999e-11 4.488999e-11 -1 8721.876 381.261)" class="st5" width="14" height="60"/>
	
		<rect x="4240.94" y="116.63" transform="matrix(-1 -4.488644e-11 4.488644e-11 -1 8498.876 277.261)" class="st5" width="17" height="44"/>
	
		<rect x="4212.94" y="147.63" transform="matrix(-1 -4.490642e-11 4.490642e-11 -1 8441.876 421.261)" class="st5" width="16" height="126"/>
	
		<rect x="4157.94" y="269.63" transform="matrix(-1 -4.490642e-11 4.490642e-11 -1 8331.876 571.261)" class="st5" width="16" height="32"/>
	
		<rect x="4129.94" y="290.48" transform="matrix(-1 -4.490642e-11 4.490642e-11 -1 8275.876 657.261)" class="st5" width="16" height="76.31"/>
	
		<rect x="4073.94" y="320.63" transform="matrix(-1 -4.486867e-11 4.486867e-11 -1 8162.876 663.261)" class="st5" width="15" height="22"/>
	
		<rect x="4044.94" y="323.63" transform="matrix(-1 -4.486867e-11 4.486867e-11 -1 8107.876 798.261)" class="st5" width="18" height="151"/>
	
		<rect x="4015.94" y="481.63" transform="matrix(-1 -4.486867e-11 4.486867e-11 -1 8049.876 1042.2611)" class="st5" width="18" height="79"/>
	
		<rect x="3961.94" y="540.63" transform="matrix(-1 -4.495527e-11 4.495527e-11 -1 7937.876 1123.2611)" class="st5" width="14" height="42"/>
	
		<rect x="3932.94" y="568.63" transform="matrix(-1 -4.490642e-11 4.490642e-11 -1 7881.876 1170.2611)" class="st5" width="16" height="33"/>
	
		<rect x="3877.94" y="550.63" transform="matrix(-1 -4.486867e-11 4.486867e-11 -1 7770.876 1136.2611)" class="st5" width="15" height="35"/>
	
		<rect x="3849.94" y="561.63" transform="matrix(-1 -4.486867e-11 4.486867e-11 -1 7714.876 1160.2611)" class="st5" width="15" height="37"/>
	
		<rect x="3765.94" y="376.63" transform="matrix(-1 -4.486867e-11 4.486867e-11 -1 7546.876 782.261)" class="st5" width="15" height="29"/>
	
		<rect x="3735.94" y="391.63" transform="matrix(-1 -4.493973e-11 4.493973e-11 -1 7488.876 837.261)" class="st5" width="17" height="54"/>
	
		<rect x="3680.94" y="312.63" transform="matrix(-1 -4.479274e-11 4.479274e-11 -1 7377.876 649.261)" class="st5" width="16" height="24"/>
	
		<rect x="3623.94" y="323.63" transform="matrix(-1 -4.486867e-11 4.486867e-11 -1 7265.876 813.261)" class="st5" width="18" height="166"/>
	
		<rect x="3596.94" y="471.63" transform="matrix(-1 -4.498991e-11 4.498991e-11 -1 7208.876 990.261)" class="st5" width="15" height="47"/>
	
		<rect x="3538.94" y="498.63" transform="matrix(-1 -4.486867e-11 4.486867e-11 -1 7095.876 1045.2611)" class="st5" width="18" height="48"/>
	
		<rect x="3457.94" y="350.63" transform="matrix(-1 -4.495527e-11 4.495527e-11 -1 6929.876 799.261)" class="st5" width="14" height="98"/>
	
		<rect x="3429.94" y="441.63" transform="matrix(-1 -4.495527e-11 4.495527e-11 -1 6873.876 973.261)" class="st5" width="14" height="90"/>
	
		<rect x="3401.94" y="538.63" transform="matrix(-1 -4.486867e-11 4.486867e-11 -1 6818.876 1092.2611)" class="st5" width="15" height="15"/>
	
		<rect x="3345.94" y="585.63" transform="matrix(-1 -4.486867e-11 4.486867e-11 -1 6706.876 1278.2611)" class="st5" width="15" height="107"/>
	
		<rect x="3260.94" y="513.63" transform="matrix(-1 -4.490642e-11 4.490642e-11 -1 6537.876 1092.2611)" class="st5" width="16" height="65"/>
	
		<rect x="3232.94" y="526.63" transform="matrix(-1 -4.486867e-11 4.486867e-11 -1 6480.876 1106.2611)" class="st5" width="15" height="53"/>
	<line class="st2" x1="2559.85" y1="480.76" x2="2559.85" y2="554.76"/>
	<line class="st2" x1="2618.53" y1="429.76" x2="2618.53" y2="619.76"/>
	<line class="st2" x1="2675.19" y1="335.76" x2="2675.19" y2="480.76"/>
	<line class="st2" x1="2728.81" y1="196.76" x2="2728.81" y2="387.76"/>
	<line class="st2" x1="2759.16" y1="105.76" x2="2759.16" y2="304.76"/>
	<line class="st3" x1="2589.7" y1="524.26" x2="2589.7" y2="592.26"/>
	<line class="st3" x1="2646.35" y1="420.26" x2="2646.35" y2="520.26"/>
	<line class="st3" x1="2703.01" y1="286.26" x2="2703.01" y2="420.26"/>
	<line class="st3" x1="2786.98" y1="126.26" x2="2786.98" y2="188.26"/>
	<rect x="2551.76" y="519.76" class="st4" width="18.21" height="18"/>
	<rect x="2608.41" y="469.76" class="st4" width="16.19" height="90"/>
	<rect x="2667.09" y="375.76" class="st4" width="18.21" height="74"/>
	<rect x="2720.72" y="189.76" class="st4" width="18.21" height="190"/>
	<rect x="2751.07" y="150.76" class="st4" width="16.19" height="113"/>
	<rect x="2581.1" y="519.76" class="st5" width="17.2" height="47"/>
	<rect x="2637.75" y="461.76" class="st5" width="17.2" height="12"/>
	<rect x="2695.42" y="322.76" class="st5" width="15.18" height="57"/>
	<rect x="2780.41" y="140.76" class="st5" width="16.19" height="22"/>
	<line class="st2" x1="2860.92" y1="50.51" x2="2860.92" y2="177.51"/>
	<line class="st2" x1="2940.83" y1="145.51" x2="2940.83" y2="320.51"/>
	<line class="st2" x1="3053.29" y1="356.51" x2="3053.29" y2="465.51"/>
	<line class="st2" x1="3135.18" y1="478.51" x2="3135.18" y2="514.51"/>
	<line class="st2" x1="3220.02" y1="458.51" x2="3220.02" y2="546.51"/>
	<line class="st3" x1="2831.82" y1="13.63" x2="2831.82" y2="163.01"/>
	<line class="st3" x1="2887.06" y1="121.01" x2="2887.06" y2="210.01"/>
	<line class="st3" x1="2914.69" y1="138.01" x2="2914.69" y2="361.01"/>
	<line class="st3" x1="2969.93" y1="165.01" x2="2969.93" y2="311.01"/>
	<line class="st3" x1="2997.55" y1="132.01" x2="2997.55" y2="400.01"/>
	<line class="st3" x1="3026.16" y1="331.01" x2="3026.16" y2="453.01"/>
	<line class="st3" x1="3082.4" y1="428.01" x2="3082.4" y2="514.01"/>
	<line class="st3" x1="3110.02" y1="466.01" x2="3110.02" y2="523.01"/>
	<line class="st3" x1="3163.29" y1="413.01" x2="3163.29" y2="514.01"/>
	<line class="st3" x1="3189.93" y1="450.01" x2="3189.93" y2="529.01"/>
	<rect x="2853.03" y="86.51" class="st4" width="14.8" height="76"/>
	<rect x="2933.92" y="186.51" class="st4" width="16.77" height="46"/>
	<rect x="3044.42" y="371.51" class="st4" width="16.77" height="74"/>
	<rect x="3127.28" y="476.51" class="st4" width="16.77" height="17"/>
	<rect x="3212.13" y="466.51" class="st4" width="13.81" height="56"/>
	<rect x="2824.42" y="37.51" class="st5" width="15.78" height="126"/>
	<rect x="2878.68" y="159.51" class="st5" width="15.78" height="32"/>
	<rect x="2906.3" y="180.35" class="st5" width="15.78" height="76.31"/>
	<rect x="2962.53" y="210.51" class="st5" width="14.8" height="22"/>
	<rect x="2988.18" y="213.51" class="st5" width="17.76" height="151"/>
	<rect x="3016.79" y="371.51" class="st5" width="17.76" height="79"/>
	<rect x="3074.01" y="443.51" class="st5" width="13.81" height="42"/>
	<rect x="3100.65" y="471.51" class="st5" width="15.78" height="33"/>
	<rect x="3155.89" y="453.51" class="st5" width="14.8" height="35"/>
	<rect x="3183.52" y="464.51" class="st5" width="14.8" height="37"/>
	<g>
		<g>
			<path d="M4898.23,273.01c0.48,0,0.48-0.75,0-0.75C4897.75,272.26,4897.75,273.01,4898.23,273.01L4898.23,273.01z"/>
		</g>
	</g>
	<g>
		<g>
			<path class="st4" d="M5091.93,165.96c0.48,0,0.48-0.75,0-0.75C5091.45,165.21,5091.45,165.96,5091.93,165.96L5091.93,165.96z"/>
		</g>
	</g>
	<path class="st1" d="M2759.16,711.13"/>
</g>
<g id="Layer_1">
	<line class="st2" x1="2" y1="155" x2="2" y2="314"/>
	<line class="st2" x1="58" y1="128" x2="58" y2="234"/>
	<line class="st2" x1="143" y1="243" x2="143" y2="370"/>
	<line class="st2" x1="199" y1="265" x2="199" y2="376"/>
	<line class="st2" x1="226" y1="190" x2="226" y2="351"/>
	<line class="st2" x1="255" y1="139" x2="255" y2="243"/>
	<line class="st2" x1="310" y1="314" x2="310" y2="422"/>
	<line class="st2" x1="366" y1="482" x2="366" y2="556"/>
	<line class="st2" x1="424" y1="431" x2="424" y2="621"/>
	<line class="st2" x1="480" y1="337" x2="480" y2="482"/>
	<line class="st2" x1="533" y1="198" x2="533" y2="389"/>
	<line class="st2" x1="563" y1="107" x2="563" y2="306"/>
	<line class="st2" x1="647" y1="50" x2="647" y2="214"/>
	<line class="st2" x1="675" y1="50" x2="675" y2="107"/>
	<line class="st2" x1="731" y1="107" x2="731" y2="249"/>
	<line class="st2" x1="787" y1="55" x2="787" y2="214"/>
	<line class="st2" x1="814" y1="55" x2="814" y2="148"/>
	<line class="st2" x1="842" y1="12" x2="842" y2="161"/>
	<line class="st2" x1="929" y1="161" x2="929" y2="288"/>
	<line class="st2" x1="1010" y1="256" x2="1010" y2="431"/>
	<line class="st2" x1="1124" y1="467" x2="1124" y2="576"/>
	<line class="st2" x1="1207" y1="576" x2="1207" y2="612"/>
	<line class="st2" x1="1293" y1="556" x2="1293" y2="644"/>
	<line class="st2" x1="1320" y1="351" x2="1320" y2="627"/>
	<line class="st2" x1="1404" y1="270" x2="1404" y2="409"/>
	<line class="st2" x1="1460" y1="206" x2="1460" y2="370"/>
	<line class="st2" x1="1543" y1="409" x2="1543" y2="526"/>
	<line class="st2" x1="1601" y1="431" x2="1601" y2="548"/>
	<line class="st2" x1="1627" y1="288" x2="1627" y2="467"/>
	<line class="st2" x1="1738" y1="511" x2="1738" y2="693"/>
	<line class="st2" x1="1796" y1="564" x2="1796" y2="621"/>
	<line class="st2" x1="1824" y1="482" x2="1824" y2="612"/>
	<line class="st3" x1="31.5" y1="106.5" x2="31.5" y2="197.5"/>
	<line class="st3" x1="87.5" y1="169.5" x2="87.5" y2="313.5"/>
	<line class="st3" x1="115.5" y1="287.5" x2="115.5" y2="350.5"/>
	<line class="st3" x1="171.5" y1="293.5" x2="171.5" y2="388.5"/>
	<line class="st3" x1="283.5" y1="177.5" x2="283.5" y2="369.5"/>
	<line class="st3" x1="339.5" y1="350.5" x2="339.5" y2="563.5"/>
	<line class="st3" x1="395.5" y1="525.5" x2="395.5" y2="593.5"/>
	<line class="st3" x1="451.5" y1="421.5" x2="451.5" y2="521.5"/>
	<line class="st3" x1="507.5" y1="287.5" x2="507.5" y2="421.5"/>
	<line class="st3" x1="590.5" y1="127.5" x2="590.5" y2="189.5"/>
	<line class="st3" x1="620.5" y1="138.5" x2="620.5" y2="241.5"/>
	<line class="st3" x1="702.5" y1="78.5" x2="702.5" y2="205.5"/>
	<line class="st3" x1="759.5" y1="120.5" x2="759.5" y2="343.5"/>
	<line class="st3" x1="872.5" y1="78.5" x2="872.5" y2="189.5"/>
	<line class="st3" x1="899.5" y1="106.5" x2="899.5" y2="273.5"/>
	<line class="st3" x1="955.5" y1="231.5" x2="955.5" y2="320.5"/>
	<line class="st3" x1="983.5" y1="248.5" x2="983.5" y2="471.5"/>
	<line class="st3" x1="1039.5" y1="275.5" x2="1039.5" y2="421.5"/>
	<line class="st3" x1="1067.5" y1="242.5" x2="1067.5" y2="510.5"/>
	<line class="st3" x1="1096.5" y1="441.5" x2="1096.5" y2="563.5"/>
	<line class="st3" x1="1153.5" y1="525.5" x2="1153.5" y2="611.5"/>
	<line class="st3" x1="1181.5" y1="563.5" x2="1181.5" y2="620.5"/>
	<line class="st3" x1="1235.5" y1="510.5" x2="1235.5" y2="611.5"/>
	<line class="st3" x1="1262.5" y1="547.5" x2="1262.5" y2="626.5"/>
	<line class="st3" x1="1348.5" y1="336.5" x2="1348.5" y2="441.5"/>
	<line class="st3" x1="1376.5" y1="350.5" x2="1376.5" y2="488.5"/>
	<line class="st3" x1="1432.5" y1="270.5" x2="1432.5" y2="367.5"/>
	<line class="st3" x1="1487.5" y1="281.5" x2="1487.5" y2="495.5"/>
	<line class="st3" x1="1515.5" y1="471.5" x2="1515.5" y2="586.5"/>
	<line class="st3" x1="1572.5" y1="456.5" x2="1572.5" y2="575.5"/>
	<line class="st3" x1="1655.5" y1="305.5" x2="1655.5" y2="456.5"/>
	<line class="st3" x1="1684.5" y1="399.5" x2="1684.5" y2="575.5"/>
	<line class="st3" x1="1711.5" y1="495.5" x2="1711.5" y2="586.5"/>
	<line class="st3" x1="1767.5" y1="547.5" x2="1767.5" y2="711.5"/>
	<line class="st3" x1="1852.5" y1="456.5" x2="1852.5" y2="586.5"/>
	<line class="st3" x1="1880.5" y1="524.5" x2="1880.5" y2="642.5"/>
</g>
<g id="Layer_3">
	<rect x="-4" y="177" class="st4" width="13" height="128"/>
	<rect x="52" y="169" class="st4" width="14" height="36"/>
	<rect x="133" y="265" class="st4" width="19" height="64"/>
	<rect x="192" y="305" class="st4" width="16" height="31"/>
	<rect x="219" y="232" class="st4" width="17" height="82"/>
	<rect x="247" y="181" class="st4" width="15" height="50"/>
	<rect x="303" y="359" class="st4" width="15" height="49"/>
	<rect x="358" y="521" class="st4" width="18" height="18"/>
	<rect x="414" y="471" class="st4" width="16" height="90"/>
	<rect x="472" y="377" class="st4" width="18" height="74"/>
	<rect x="525" y="191" class="st4" width="18" height="190"/>
	<rect x="555" y="152" class="st4" width="16" height="113"/>
	<rect x="640" y="86" class="st4" width="15" height="83"/>
	<rect x="667" y="86" class="st4" width="18" height="11"/>
	<rect x="724" y="152" class="st4" width="16" height="82"/>
	<rect x="779" y="97" class="st4" width="15" height="80"/>
	<rect x="808" y="97" class="st4" width="14" height="24"/>
	<rect x="835" y="55" class="st4" width="17" height="66"/>
	<rect x="921" y="197" class="st4" width="15" height="76"/>
	<rect x="1003" y="297" class="st4" width="17" height="46"/>
	<rect x="1115" y="482" class="st4" width="17" height="74"/>
	<rect x="1199" y="574" class="st4" width="17" height="17"/>
	<rect x="1285" y="564" class="st4" width="14" height="56"/>
	<rect x="1310" y="389" class="st4" width="20" height="211"/>
	<rect x="1394" y="313" class="st4" width="18" height="86"/>
	<rect x="1454" y="243" class="st4" width="13" height="86"/>
	<rect x="1536" y="431" class="st4" width="16" height="63"/>
	<rect x="1592" y="439" class="st4" width="15" height="60"/>
	<rect x="1619" y="351" class="st4" width="17" height="100"/>
	<rect x="1732" y="556" class="st4" width="15" height="36"/>
	<rect x="1790" y="586" class="st4" width="14" height="26"/>
	<rect x="1816" y="516" class="st4" width="16" height="75"/>
	<line class="st2" x1="2311" y1="124" x2="2311" y2="217"/>
	<rect x="2304" y="162" class="st4" width="13" height="17"/>
	<g>
		<g>
			<path class="st4" d="M1160.55-201c1.93,0,1.93-3,0-3C1158.62-204,1158.62-201,1160.55-201L1160.55-201z"/>
		</g>
	</g>
</g>
<g id="Layer_4">
	<rect x="22" y="148" class="st5" width="16" height="39"/>
	<rect x="78" y="214" class="st5" width="17" height="80"/>
	<rect x="107" y="302" class="st5" width="15" height="27"/>
	<rect x="161" y="333" class="st5" width="19" height="10"/>
	<rect x="275" y="214" class="st5" width="14" height="156"/>
	<rect x="331" y="389" class="st5" width="16" height="150"/>
	<rect x="387" y="521" class="st5" width="17" height="47"/>
	<rect x="443" y="463" class="st5" width="17" height="12"/>
	<rect x="500" y="324" class="st5" width="15" height="57"/>
	<rect x="584" y="142" class="st5" width="16" height="22"/>
	<rect x="610" y="161" class="st5" width="18" height="45"/>
	<rect x="696" y="88" class="st5" width="15" height="84"/>
	<rect x="753" y="161" class="st5" width="14" height="60"/>
	<rect x="863" y="117" class="st5" width="17" height="44"/>
	<rect x="892" y="148" class="st5" width="16" height="126"/>
	<rect x="947" y="270" class="st5" width="16" height="32"/>
	<rect x="975" y="290.85" class="st5" width="16" height="76.31"/>
	<rect x="1032" y="321" class="st5" width="15" height="22"/>
	<rect x="1058" y="324" class="st5" width="18" height="151"/>
	<rect x="1087" y="482" class="st5" width="18" height="79"/>
	<rect x="1145" y="541" class="st5" width="14" height="42"/>
	<rect x="1172" y="569" class="st5" width="16" height="33"/>
	<rect x="1228" y="551" class="st5" width="15" height="35"/>
	<rect x="1256" y="562" class="st5" width="15" height="37"/>
	<rect x="1340" y="377" class="st5" width="15" height="29"/>
	<rect x="1368" y="392" class="st5" width="17" height="54"/>
	<rect x="1424" y="313" class="st5" width="16" height="24"/>
	<rect x="1479" y="324" class="st5" width="18" height="166"/>
	<rect x="1509" y="472" class="st5" width="15" height="47"/>
	<rect x="1564" y="499" class="st5" width="18" height="48"/>
	<rect x="1649" y="351" class="st5" width="14" height="98"/>
	<rect x="1677" y="442" class="st5" width="14" height="90"/>
	<rect x="1704" y="539" class="st5" width="15" height="15"/>
	<rect x="1760" y="586" class="st5" width="15" height="107"/>
	<rect x="1844" y="514" class="st5" width="16" height="65"/>
	<rect x="1873" y="527" class="st5" width="15" height="53"/>
	<line class="st2" x1="2561.09" y1="481.13" x2="2561.09" y2="555.13"/>
	<line class="st2" x1="2502.41" y1="430.13" x2="2502.41" y2="620.13"/>
	<line class="st2" x1="2445.75" y1="336.13" x2="2445.75" y2="481.13"/>
	<line class="st2" x1="2392.13" y1="197.13" x2="2392.13" y2="388.13"/>
	<line class="st2" x1="2361.78" y1="106.13" x2="2361.78" y2="305.13"/>
	<line class="st3" x1="2531.24" y1="524.63" x2="2531.24" y2="592.63"/>
	<line class="st3" x1="2474.59" y1="420.63" x2="2474.59" y2="520.63"/>
	<line class="st3" x1="2417.93" y1="286.63" x2="2417.93" y2="420.63"/>
	<line class="st3" x1="2333.95" y1="126.63" x2="2333.95" y2="188.63"/>
	
		<rect x="2550.97" y="520.13" transform="matrix(-1 -1.224647e-16 1.224647e-16 -1 5120.1543 1058.2566)" class="st4" width="18.21" height="18"/>
	
		<rect x="2496.34" y="470.13" transform="matrix(-1 -1.224647e-16 1.224647e-16 -1 5008.8633 1030.2566)" class="st4" width="16.19" height="90"/>
	
		<rect x="2435.63" y="376.13" transform="matrix(-1 -1.224647e-16 1.224647e-16 -1 4889.4785 826.2567)" class="st4" width="18.21" height="74"/>
	
		<rect x="2382.01" y="190.13" transform="matrix(-1 -1.224647e-16 1.224647e-16 -1 4782.2344 570.2567)" class="st4" width="18.21" height="190"/>
	
		<rect x="2353.68" y="151.13" transform="matrix(-1 -1.224647e-16 1.224647e-16 -1 4723.5537 415.2566)" class="st4" width="16.19" height="113"/>
	
		<rect x="2522.64" y="520.13" transform="matrix(-1 -1.224647e-16 1.224647e-16 -1 5062.4854 1087.2566)" class="st5" width="17.2" height="47"/>
	
		<rect x="2465.99" y="462.13" transform="matrix(-1 -1.224647e-16 1.224647e-16 -1 4949.1709 936.2567)" class="st5" width="17.2" height="12"/>
	
		<rect x="2410.34" y="323.13" transform="matrix(-1 -1.224647e-16 1.224647e-16 -1 4835.8564 703.2567)" class="st5" width="15.18" height="57"/>
	
		<rect x="2324.34" y="141.13" transform="matrix(-1 -1.224647e-16 1.224647e-16 -1 4664.873 304.2566)" class="st5" width="16.19" height="22"/>
	<line class="st2" x1="2260.02" y1="50.88" x2="2260.02" y2="177.88"/>
	<line class="st2" x1="2180.11" y1="145.88" x2="2180.11" y2="320.88"/>
	<line class="st2" x1="2067.64" y1="356.88" x2="2067.64" y2="465.88"/>
	<line class="st2" x1="1985.76" y1="478.88" x2="1985.76" y2="514.88"/>
	<line class="st2" x1="1900.92" y1="458.88" x2="1900.92" y2="546.88"/>
	<line class="st3" x1="2289.12" y1="14" x2="2289.12" y2="163.38"/>
	<line class="st3" x1="2233.88" y1="121.38" x2="2233.88" y2="210.38"/>
	<line class="st3" x1="2206.25" y1="138.38" x2="2206.25" y2="361.38"/>
	<line class="st3" x1="2151.01" y1="165.38" x2="2151.01" y2="311.38"/>
	<line class="st3" x1="2123.38" y1="132.38" x2="2123.38" y2="400.38"/>
	<line class="st3" x1="2094.77" y1="331.38" x2="2094.77" y2="453.38"/>
	<line class="st3" x1="2038.54" y1="428.38" x2="2038.54" y2="514.38"/>
	<line class="st3" x1="2010.92" y1="466.38" x2="2010.92" y2="523.38"/>
	<line class="st3" x1="1957.65" y1="413.38" x2="1957.65" y2="514.38"/>
	<line class="st3" x1="1931.01" y1="450.38" x2="1931.01" y2="529.38"/>
	
		<rect x="2253.11" y="86.88" transform="matrix(-1 -1.224647e-16 1.224647e-16 -1 4521.0249 249.7522)" class="st4" width="14.8" height="76"/>
	
		<rect x="2170.24" y="186.88" transform="matrix(-1 -1.224647e-16 1.224647e-16 -1 4357.2598 419.7522)" class="st4" width="16.77" height="46"/>
	
		<rect x="2059.75" y="371.88" transform="matrix(-1 -1.224647e-16 1.224647e-16 -1 4136.2749 817.7522)" class="st4" width="16.77" height="74"/>
	
		<rect x="1976.88" y="476.88" transform="matrix(-1 -1.224647e-16 1.224647e-16 -1 3970.5366 970.7522)" class="st4" width="16.77" height="17"/>
	
		<rect x="1895" y="466.88" transform="matrix(-1 -1.224647e-16 1.224647e-16 -1 3803.8115 989.7522)" class="st4" width="13.81" height="56"/>
	
		<rect x="2280.74" y="37.88" transform="matrix(-1 -1.224647e-16 1.224647e-16 -1 4577.2578 201.7522)" class="st5" width="15.78" height="126"/>
	
		<rect x="2226.48" y="159.88" transform="matrix(-1 -1.224647e-16 1.224647e-16 -1 4468.7383 351.7522)" class="st5" width="15.78" height="32"/>
	
		<rect x="2198.85" y="180.72" transform="matrix(-1 -1.224647e-16 1.224647e-16 -1 4413.4922 437.7522)" class="st5" width="15.78" height="76.31"/>
	
		<rect x="2143.61" y="210.88" transform="matrix(-1 -1.224647e-16 1.224647e-16 -1 4302.0137 443.7522)" class="st5" width="14.8" height="22"/>
	
		<rect x="2115" y="213.88" transform="matrix(-1 -1.224647e-16 1.224647e-16 -1 4247.7539 578.7522)" class="st5" width="17.76" height="151"/>
	
		<rect x="2086.39" y="371.88" transform="matrix(-1 -1.224647e-16 1.224647e-16 -1 4190.5347 822.7522)" class="st5" width="17.76" height="79"/>
	
		<rect x="2033.12" y="443.88" transform="matrix(-1 -1.224647e-16 1.224647e-16 -1 4080.0422 929.7522)" class="st5" width="13.81" height="42"/>
	
		<rect x="2004.51" y="471.88" transform="matrix(-1 -1.224647e-16 1.224647e-16 -1 4024.7961 976.7522)" class="st5" width="15.78" height="33"/>
	
		<rect x="1950.25" y="453.88" transform="matrix(-1 -1.224647e-16 1.224647e-16 -1 3915.2903 942.7522)" class="st5" width="14.8" height="35"/>
	
		<rect x="1922.62" y="464.88" transform="matrix(-1 -1.224647e-16 1.224647e-16 -1 3860.0442 966.7522)" class="st5" width="14.8" height="37"/>
</g>
<g id="Layer_6">
</g>
<g id="Layer_2">
</g>
<g id="Layer_5">
	<g>
		<g>
			<path d="M222.71,273.38c0.48,0,0.48-0.75,0-0.75C222.23,272.62,222.22,273.38,222.71,273.38L222.71,273.38z"/>
		</g>
	</g>
	<g>
		<g>
			<path class="st4" d="M29.01,166.33c0.48,0,0.48-0.75,0-0.75C28.53,165.58,28.53,166.33,29.01,166.33L29.01,166.33z"/>
		</g>
	</g>
</g>
<g id="Layer_8" class="st6">
	<g class="st7">
		<g>
			<path class="st8" d="M-31.66,307.34c7.82-36.33,17.89-72.1,30.56-107.04c6.03-16.63,11.85-44.34,30.8-50.95
				c21.99-7.66,41.8,12.83,48.03,31.67c8.69,26.28,4.52,55.6,10.79,82.63c4.7,20.24,12.94,41.47,28.69,55.73
				c38.35,34.71,89.37,2.6,106.4-37.83c6.07-14.39,9.13-29.83,11.1-45.26c0.83-6.5,0.16-15.16,2.1-21.29
				c1.84-5.78-4.23-13.11,11.78-10.67c5.99,0.91,12.07,7.88,15.27,12.35c8.81,12.3,11.55,26.8,14.16,41.34
				c3.48,19.38,6.96,38.76,10.44,58.13c15.31,85.26,30.62,170.52,45.93,255.78c0.13,0.74,1.14,1.33,1.85,1.05
				c118.75-47.05,148.59-186.47,197.98-290.02c14.47-30.33,31.27-59.95,53.19-85.57c21.46-25.07,50.49-51.14,83.61-58.38
				c24.94-5.46,41.4,4.84,56.17,23.87c7.53,9.7,14.99,19.34,26.52,24.43c26.64,11.77,57.33-2.74,83.89-7.38
				c38.59-6.74,72.25,10.77,96.34,40.52c24.36,30.1,34.66,68.24,45.36,104.71c18.63,63.46,47.4,120.8,94.59,168.01
				c41.19,41.21,93.91,74.89,153.18,80.05c57.48,5,102.4-24.01,124.42-76.82c14.42-34.58,19.72-72.95,38.69-105.61
				c18.45-31.76,51.89-63.25,91.67-52.06c30.06,8.46,46.5,37.65,60.15,63.4c13.15,24.81,25.18,50.65,45.09,70.93
				c0.6,0.61,1.51,0.53,2.12,0c13.5-11.75,27.01-23.5,40.51-35.26c15.91-13.85,38.48-42.15,60.86-22.84
				c18.21,15.72,29.04,40.84,41.22,61.13c22.62,37.69,51.27,65.88,98.07,50.55c53.54-17.54,105.29-47.84,151.8-79.13
				c47.04-31.65,90.68-68.37,129.84-109.37c19.34-20.25,37.58-41.55,54.61-63.78c19.29-25.19,36.86-52.09,59.98-74.06
				c23.35-22.19,54.41-39.27,87.53-37.64c36.22,1.79,59.93,28.41,77.24,57.61c31.25,52.71,43.33,113.7,63.24,171
				c8.3,23.88,37.1,116.09,77.9,87.45c10.63-7.46,15.51-21.35,20.6-32.65c8.13-18.06,16.27-36.11,24.4-54.17
				c16.27-36.11,32.48-72.25,48.81-108.34c7.62-16.84,16.18-36.73,36.49-40.44c20.49-3.74,39.34,11.69,51.47,26.56
				c17.1,20.97,28.22,46.9,54.09,58.76c0.45,0.21,1.07,0.34,1.51,0c44.45-34.3,83.35-75.26,114.74-121.85
				c7.66-11.38,13.49-25.79,22.24-36.15c3.76-4.45,1.64-5.07,5.85-0.76c2.21,2.26,3.55,7.77,4.87,10.67
				c3.66,8,7.31,16.01,10.97,24.01c14.62,32.02,29.25,64.03,43.87,96.05c0.8,1.75,3.39,0.23,2.59-1.51
				c-21.12-46.24-42.24-92.49-63.36-138.73c-0.47-1.03-2.09-0.93-2.59,0c-18.95,35.11-41.59,68.02-68.01,97.93
				c-12.13,13.73-24.98,26.81-38.5,39.17c-7.28,6.65-14.66,13.83-22.7,19.56c-13.86,9.87-18.46,6.58-29.89-4.7
				c-22.87-22.56-33.61-57.4-65.88-69.61c-28.1-10.63-46.22,9.42-57.34,32.92c-19.23,40.65-37,82.07-55.47,123.08
				c-8.7,19.32-16.86,39-26.18,58.03c-4.57,9.32-10.23,20.09-21.18,23.11c-15.96,4.41-28.91-10.17-36.52-21.96
				c-20.82-32.23-31.86-71.62-42.98-107.99c-10.78-35.27-20.96-70.95-36.57-104.47c-13.63-29.26-32.2-62.73-62.36-77.68
				c-27.19-13.47-59.43-8.38-85.64,4.95c-31.44,15.99-54.02,44.33-74.72,72.04c-23.71,31.75-47.82,62.79-75.23,91.47
				c-52.04,54.46-111.91,101.32-177.27,138.76c-33.64,19.27-70.7,40.18-108.22,50.58c-39.98,11.09-65.69-12.53-85.53-44.24
				c-14.32-22.9-26.39-55.18-49.25-71.14c-8.63-6.03-17.54-7.44-27.15-2.7c-17.7,8.73-33.2,27.37-47.89,40.16
				c-4.81,4.19-16.42,18.07-22.5,19.59c-8.47,2.12-13.27-8.16-17.99-14.94c-8.43-12.13-15.32-25.26-22.15-38.33
				c-11.48-21.98-22.67-45.98-41.59-62.71c-45.99-40.66-100.13-2.51-124.44,42.11c-33.08,60.73-29.73,150.43-109.65,173.08
				c-71.65,20.31-146.82-23.59-196.36-71.83c-26.64-25.94-49.11-56.09-66.33-89.04c-18.5-35.39-27.91-73.38-39.9-111.19
				c-18.61-58.73-59.56-128.13-131.41-117.94c-37.31,5.29-77.46,27.31-106.73-8.08c-9.63-11.65-17.4-24.9-32.2-30.65
				c-13.39-5.2-28.48-3.33-41.78,1.21c-59.98,20.46-100,82.63-126.44,136.53c-30.5,62.19-49.97,129.37-85.58,189.1
				c-18.25,30.61-40.58,59.53-69.26,81.06c-6.95,5.22-34.82,27.51-43.54,19.92c-4.05-3.52-4.16-23.16-5.22-29.07
				c-2.44-13.56-4.87-27.13-7.31-40.69c-8-44.57-16.01-89.14-24.01-133.7c-3.83-21.32-7.65-42.63-11.48-63.95
				c-3.78-21.03-5.52-43.72-12.45-63.95c-5.84-17.06-19.59-39.54-40.44-30.67c-0.49,0.21-0.71,0.81-0.74,1.3
				c-3.3,45.69-9.8,103.84-59.38,122.75c-43.32,16.52-72.39-21.55-82.37-58.79c-4.71-17.59-5.95-35.43-6.98-53.52
				c-1.01-17.67-2.75-37.16-13.68-51.87c-14.65-19.71-44.62-25.81-59.48-3.35c-12.75,19.27-18.93,44.95-25.95,66.73
				c-8.48,26.3-15.49,53.01-21.31,80.02C-34.96,308.43-32.07,309.23-31.66,307.34L-31.66,307.34z"/>
		</g>
	</g>
</g>
</svg>
