<?xml version="1.0" encoding="UTF-8"?>
<!DOCTYPE svg PUBLIC "-//W3C//DTD SVG 1.1//EN" "http://www.w3.org/Graphics/SVG/1.1/DTD/svg11.dtd">
<svg xmlns="http://www.w3.org/2000/svg" version="1.1" width="1115px" height="224px" style="shape-rendering:geometricPrecision; text-rendering:geometricPrecision; image-rendering:optimizeQuality; fill-rule:evenodd; clip-rule:evenodd" xmlns:xlink="http://www.w3.org/1999/xlink">
<g><path style="opacity:0.825" fill="#fefffe" d="M 116.5,-0.5 C 119.167,-0.5 121.833,-0.5 124.5,-0.5C 130.639,6.27743 129.305,10.9441 120.5,13.5C 113.002,10.7005 111.669,6.03385 116.5,-0.5 Z"/></g>
<g><path style="opacity:0.798" fill="#fefffe" d="M 60.5,5.5 C 66.8197,5.31955 69.3197,8.31955 68,14.5C 62.8574,18.4574 59.0241,17.2908 56.5,11C 57.0074,8.45475 58.3407,6.62142 60.5,5.5 Z"/></g>
<g><path style="opacity:0.804" fill="#fefffe" d="M 175.5,5.5 C 183.841,4.8734 186.175,8.20674 182.5,15.5C 177.369,17.8226 174.035,16.3226 172.5,11C 173.124,8.91494 174.124,7.08161 175.5,5.5 Z"/></g>
<g><path style="opacity:0.847" fill="#fefffe" d="M 75.5,28.5 C 85.5918,29.3869 88.7585,34.3869 85,43.5C 78.8382,48.1343 73.8382,47.1343 70,40.5C 69.3333,38.1667 69.3333,35.8333 70,33.5C 71.7297,31.5981 73.563,29.9314 75.5,28.5 Z"/></g>
<g><path style="opacity:0.836" fill="#fefffe" d="M 160.5,28.5 C 170.372,28.5269 173.872,33.1935 171,42.5C 162.941,48.5594 157.441,46.7261 154.5,37C 155.187,33.1604 157.187,30.3271 160.5,28.5 Z"/></g>
<g><path style="opacity:0.859" fill="#fefffe" d="M 117.5,35.5 C 125.472,34.6428 130.139,38.1428 131.5,46C 128.837,55.3986 123.171,58.0652 114.5,54C 108.528,46.6662 109.528,40.4996 117.5,35.5 Z"/></g>
<g><path style="opacity:0.805" fill="#fefffe" d="M 27.5,51.5 C 35.5026,51.8386 38.336,55.8386 36,63.5C 30.8787,67.8754 26.5454,67.2087 23,61.5C 22.0769,57.0165 23.5769,53.6832 27.5,51.5 Z"/></g>
<g><path style="opacity:0.801" fill="#fefffe" d="M 208.5,51.5 C 216.161,50.663 219.661,53.9964 219,61.5C 215.581,66.9188 211.414,67.5854 206.5,63.5C 203.641,58.9324 204.307,54.9324 208.5,51.5 Z"/></g>
<g><path style="opacity:0.925" fill="#fefffe" d="M 329.5,55.5 C 344.85,53.6701 359.183,56.5034 372.5,64C 383.604,72.7134 388.937,84.2134 388.5,98.5C 381.167,98.5 373.833,98.5 366.5,98.5C 365.627,81.7952 356.794,73.4619 340,73.5C 323.034,73.4659 313.034,81.7992 310,98.5C 307.286,112.741 308.952,126.407 315,139.5C 321.698,147.129 330.198,150.795 340.5,150.5C 357.081,150.084 366.081,141.751 367.5,125.5C 374.5,125.5 381.5,125.5 388.5,125.5C 388.032,150.472 375.365,164.639 350.5,168C 308.456,172.494 287.122,153.66 286.5,111.5C 285.811,94.3923 291.145,79.5589 302.5,67C 310.534,60.7167 319.534,56.8834 329.5,55.5 Z"/></g>
<g><path style="opacity:0.933" fill="#fefffe" d="M 1114.5,99.5 C 1114.5,107.833 1114.5,116.167 1114.5,124.5C 1110.32,149.513 1095.65,164.013 1070.5,168C 1055.08,170.182 1040.42,167.849 1026.5,161C 1010.51,148.735 1003.17,132.402 1004.5,112C 1003.17,91.6022 1010.51,75.2689 1026.5,63C 1043.87,55.0568 1061.87,53.3901 1080.5,58C 1095.15,62.6489 1105.32,72.1489 1111,86.5C 1112.35,90.9191 1113.52,95.2524 1114.5,99.5 Z M 1054.5,73.5 C 1081.01,72.509 1093.68,85.3423 1092.5,112C 1092.77,142.063 1078.1,154.396 1048.5,149C 1037.26,146.09 1030.42,138.923 1028,127.5C 1025.53,114.976 1026.2,102.642 1030,90.5C 1035.07,80.249 1043.24,74.5823 1054.5,73.5 Z"/></g>
<g><path style="opacity:0.93" fill="#fefffe" d="M 441.5,57.5 C 450.751,57.1822 459.917,57.5155 469,58.5C 483.138,94.4181 496.971,130.418 510.5,166.5C 502.804,166.831 495.138,166.497 487.5,165.5C 484.256,158.352 481.589,151.018 479.5,143.5C 462.833,143.5 446.167,143.5 429.5,143.5C 427.83,151.343 425.163,158.843 421.5,166C 414.167,166.667 406.833,166.667 399.5,166C 413.992,130.023 427.992,93.8562 441.5,57.5 Z M 453.5,77.5 C 454.497,77.4701 455.164,77.9701 455.5,79C 460.146,94.087 465.479,108.92 471.5,123.5C 460.167,124.833 448.833,124.833 437.5,123.5C 441.435,113.528 445.268,103.528 449,93.5C 451.017,88.2873 452.517,82.954 453.5,77.5 Z"/></g>
<g><path style="opacity:0.935" fill="#fefffe" d="M 529.5,57.5 C 552.502,57.3334 575.502,57.5 598.5,58C 615.357,62.192 623.69,73.0254 623.5,90.5C 623.928,105.154 617.594,115.654 604.5,122C 612.294,136.421 619.961,150.921 627.5,165.5C 619.5,166.833 611.5,166.833 603.5,165.5C 597.249,151.831 590.582,138.331 583.5,125C 572.839,124.5 562.172,124.333 551.5,124.5C 551.5,138.5 551.5,152.5 551.5,166.5C 544.167,166.5 536.833,166.5 529.5,166.5C 529.5,130.167 529.5,93.8333 529.5,57.5 Z M 551.5,75.5 C 564.504,75.3334 577.504,75.5001 590.5,76C 597.805,78.2424 601.805,83.2424 602.5,91C 601.921,98.2477 598.255,103.248 591.5,106C 578.171,106.5 564.837,106.667 551.5,106.5C 551.5,96.1667 551.5,85.8333 551.5,75.5 Z"/></g>
<g><path style="opacity:0.95" fill="#fefffe" d="M 650.5,57.5 C 669.17,57.3334 687.836,57.5001 706.5,58C 726.905,61.0722 739.738,72.5722 745,92.5C 749.408,111.234 747.408,129.234 739,146.5C 730.815,157.997 719.649,164.497 705.5,166C 686.824,166.833 668.158,166.666 649.5,165.5C 650.371,129.185 650.705,93.1851 650.5,57.5 Z M 671.5,75.5 C 715.965,69.4597 732.799,88.1263 722,131.5C 718.041,141.12 710.874,146.62 700.5,148C 690.839,148.5 681.172,148.666 671.5,148.5C 671.5,124.167 671.5,99.8333 671.5,75.5 Z"/></g>
<g><path style="opacity:0.93" fill="#fefffe" d="M 798.5,57.5 C 807.751,57.1822 816.917,57.5155 826,58.5C 839.931,94.1273 853.765,129.794 867.5,165.5C 859.855,166.665 852.188,166.831 844.5,166C 841.404,158.644 838.738,151.144 836.5,143.5C 820.163,143.333 803.83,143.5 787.5,144C 784.695,151.414 781.695,158.747 778.5,166C 771.167,166.667 763.833,166.667 756.5,166C 770.6,129.866 784.6,93.699 798.5,57.5 Z M 810.5,77.5 C 811.497,77.4701 812.164,77.9701 812.5,79C 817.144,94.0999 822.477,108.933 828.5,123.5C 817.167,124.833 805.833,124.833 794.5,123.5C 800.44,108.346 805.773,93.0125 810.5,77.5 Z"/></g>
<g><path style="opacity:0.932" fill="#fefffe" d="M 886.5,57.5 C 893.508,57.3337 900.508,57.5004 907.5,58C 924.947,81.0594 941.78,104.559 958,128.5C 958.5,104.836 958.667,81.169 958.5,57.5C 965.5,57.5 972.5,57.5 979.5,57.5C 979.5,93.8333 979.5,130.167 979.5,166.5C 972.468,166.83 965.468,166.497 958.5,165.5C 941.176,142.185 924.342,118.518 908,94.5C 907.5,118.498 907.333,142.498 907.5,166.5C 900.5,166.5 893.5,166.5 886.5,166.5C 886.5,130.167 886.5,93.8333 886.5,57.5 Z"/></g>
<g><path style="opacity:0.92" fill="#fefffe" d="M 96.5,61.5 C 112.315,60.4813 119.482,67.8147 118,83.5C 111.918,94.972 103.084,97.8053 91.5,92C 81.03,79.7852 82.6966,69.6185 96.5,61.5 Z"/></g>
<g><path style="opacity:0.923" fill="#fefffe" d="M 134.5,61.5 C 150.84,60.6714 158.006,68.338 156,84.5C 151.412,93.5447 144.245,96.7114 134.5,94C 123.308,88.4234 120.474,79.9234 126,68.5C 128.441,65.5464 131.275,63.2131 134.5,61.5 Z"/></g>
<g><path style="opacity:0.86" fill="#fefffe" d="M 177.5,67.5 C 186.586,69.3405 189.753,74.6738 187,83.5C 181,90.1667 175,90.1667 169,83.5C 166.436,75.2437 169.27,69.9104 177.5,67.5 Z"/></g>
<g><path style="opacity:0.855" fill="#fefffe" d="M 60.5,68.5 C 72.5771,68.7285 76.4105,74.3952 72,85.5C 64.479,91.2181 58.479,89.8848 54,81.5C 52.973,75.554 55.1396,71.2207 60.5,68.5 Z"/></g>
<g><path style="opacity:0.916" fill="#fefffe" d="M 78.5,94.5 C 90.8199,93.9889 97.8199,99.8222 99.5,112C 97.2667,124.222 89.9333,129.556 77.5,128C 66.2484,122.584 63.0818,114.084 68,102.5C 70.8308,98.8209 74.3308,96.1543 78.5,94.5 Z"/></g>
<g><path style="opacity:0.917" fill="#fefffe" d="M 154.5,94.5 C 169.76,93.359 176.927,100.359 176,115.5C 171.057,127.593 162.557,131.093 150.5,126C 141.155,117.899 140.155,108.899 147.5,99C 149.898,97.4758 152.231,95.9758 154.5,94.5 Z"/></g>
<g><path style="opacity:0.836" fill="#fefffe" d="M 33.5,102.5 C 42.4134,103.336 45.5801,108.003 43,116.5C 36.8633,122.255 31.53,121.588 27,114.5C 26.3121,108.871 28.4788,104.871 33.5,102.5 Z"/></g>
<g><path style="opacity:0.831" fill="#fefffe" d="M 203.5,102.5 C 214.286,102.774 217.453,107.774 213,117.5C 206.952,121.906 201.952,120.906 198,114.5C 196.873,109.089 198.707,105.089 203.5,102.5 Z"/></g>
<g><path style="opacity:0.801" fill="#fefffe" d="M -0.5,114.5 C -0.5,112.5 -0.5,110.5 -0.5,108.5C 4.52891,104.499 8.52891,105.499 11.5,111.5C 8.91054,118.085 4.91054,119.085 -0.5,114.5 Z"/></g>
<g><path style="opacity:0.788" fill="#fefffe" d="M 234.5,105.5 C 240.82,105.32 243.32,108.32 242,114.5C 236.692,118.78 232.859,117.613 230.5,111C 231.007,108.455 232.341,106.621 234.5,105.5 Z"/></g>
<g><path style="opacity:0.921" fill="#fefffe" d="M 99.5,127.5 C 114.927,129.096 120.76,137.429 117,152.5C 110.819,161.83 102.652,163.996 92.5,159C 83.5386,151.534 82.3719,143.034 89,133.5C 92.0688,130.554 95.5688,128.554 99.5,127.5 Z"/></g>
<g><path style="opacity:0.919" fill="#fefffe" d="M 137.5,127.5 C 154.077,128.995 159.91,137.662 155,153.5C 145.711,163.794 136.044,164.127 126,154.5C 120.529,141.448 124.363,132.448 137.5,127.5 Z"/></g>
<g><path style="opacity:0.859" fill="#fefffe" d="M 176.5,133.5 C 186.299,134.775 189.799,140.108 187,149.5C 183.1,154.533 178.267,155.7 172.5,153C 165.413,144.763 166.746,138.263 176.5,133.5 Z"/></g>
<g><path style="opacity:0.863" fill="#fefffe" d="M 60.5,134.5 C 68.6249,133.395 73.2916,136.895 74.5,145C 72.3993,153.137 67.3993,156.137 59.5,154C 51.3788,147.009 51.7121,140.509 60.5,134.5 Z"/></g>
<g><path style="opacity:0.812" fill="#fefffe" d="M 28.5,156.5 C 38.2138,158.573 39.8804,163.406 33.5,171C 24.274,171.946 21.274,168.113 24.5,159.5C 25.9014,158.479 27.2347,157.479 28.5,156.5 Z"/></g>
<g><path style="opacity:0.823" fill="#fefffe" d="M 209.5,156.5 C 217.201,156.362 220.367,160.029 219,167.5C 214.537,172.741 210.204,172.741 206,167.5C 204.663,162.872 205.83,159.205 209.5,156.5 Z"/></g>
<g><path style="opacity:0.86" fill="#fefffe" d="M 119.5,166.5 C 128.306,167.804 131.806,172.804 130,181.5C 127.081,187.025 122.581,188.858 116.5,187C 110.458,183.252 108.958,178.085 112,171.5C 114.17,169.177 116.67,167.51 119.5,166.5 Z"/></g>
<g><path style="opacity:0.836" fill="#fefffe" d="M 76.5,176.5 C 85.4134,177.336 88.5801,182.003 86,190.5C 79.8633,196.255 74.53,195.588 70,188.5C 69.3121,182.871 71.4788,178.871 76.5,176.5 Z"/></g>
<g><path style="opacity:0.85" fill="#fefffe" d="M 161.5,176.5 C 170.015,176.844 173.515,181.177 172,189.5C 166.667,196.167 161.333,196.167 156,189.5C 154.102,183.387 155.935,179.053 161.5,176.5 Z"/></g>
<g><path style="opacity:0.804" fill="#fefffe" d="M 60.5,206.5 C 65.4058,205.306 68.4058,207.139 69.5,212C 67.3739,217.804 63.7073,218.971 58.5,215.5C 56.8829,211.911 57.5496,208.911 60.5,206.5 Z"/></g>
<g><path style="opacity:0.795" fill="#fefffe" d="M 175.5,206.5 C 180.703,205.189 184.036,207.022 185.5,212C 183.259,217.616 179.592,218.782 174.5,215.5C 172.992,212.231 173.325,209.231 175.5,206.5 Z"/></g>
<g><path style="opacity:0.835" fill="#fefffe" d="M 124.5,223.5 C 121.833,223.5 119.167,223.5 116.5,223.5C 113.043,219.588 112.709,215.422 115.5,211C 122.246,207.874 126.579,209.874 128.5,217C 127.766,219.561 126.433,221.727 124.5,223.5 Z"/></g>
</svg>
