<?xml version="1.0" encoding="utf-8"?>
<!-- Generator: Adobe Illustrator 27.3.1, SVG Export Plug-In . SVG Version: 6.00 Build 0)  -->
<svg version="1.1" xmlns="http://www.w3.org/2000/svg" xmlns:xlink="http://www.w3.org/1999/xlink" x="0px" y="0px"
	 viewBox="0 0 1000 1000" style="enable-background:new 0 0 1000 1000;" xml:space="preserve">
<style type="text/css">
	.st0{fill:#439775;}
	.st1{fill:#FFFFFF;}
	.st2{display:none;}
	.st3{display:inline;}
</style>
<g id="Layer_1">
	<g>
		<ellipse class="st0" cx="499.62" cy="501.75" rx="492.53" ry="493.25"/>
	</g>
	<g>
		<g>
			<g>
				<path class="st1" d="M10.13,498.34c46.28-1.11,92.18,5.52,138.01,11c45.69,5.47,92.12,9.65,138,3.8
					c39.67-5.06,78.51-18.15,111-41.88c32.58-23.8,58.5-55.36,80.44-88.94c24.3-37.19,44.06-77.06,66.56-115.31
					c2.87-4.89,5.8-9.75,8.77-14.58c2.03-3.3-3.16-6.31-5.18-3.03c-23.14,37.57-42.71,77.19-65.78,114.8
					c-21.11,34.4-45.52,67.36-76.77,93.26c-30.9,25.6-68.04,41.16-107.44,47.94c-44.3,7.62-89.82,4.63-134.24-0.28
					c-45.37-5.01-90.62-12.26-136.36-12.87c-5.67-0.08-11.33-0.04-17,0.09C6.27,492.43,6.26,498.43,10.13,498.34L10.13,498.34z"/>
			</g>
		</g>
		<g>
			<g>
				<path class="st1" d="M549.61,255.25c5.62-2.41,6.84-9.2,5.24-14.53c-0.83-2.79-2.34-5.45-4.42-7.49
					c-2.52-2.48-5.93-3.93-9.28-4.88c-6.86-1.95-14.86-1.4-21.04-5.09c-1.37-0.82-2.57-1.76-3.68-2.92
					c-0.89-0.93-1.84-2.27-2.25-3.25c-0.23-0.55-0.5-1.52-0.55-1.87c-0.04-0.28-0.03-1.52-0.01-1.64c0.23-1.41,0.87-2.59,1.83-3.62
					c2.42-2.59,5.85-4.19,8.88-5.95c3.73-2.17,7.47-4.33,11.23-6.47c7.57-4.32,15.18-8.58,22.82-12.78
					c15.21-8.35,30.56-16.46,46.04-24.31c15.48-7.85,31.08-15.45,46.81-22.79c1.96-0.91,3.92-1.82,5.88-2.73
					c-1.47-0.6-2.94-1.2-4.41-1.79c6.44,27.89,12.04,55.97,16.77,84.19c2.35,14.03,4.49,28.1,6.42,42.2
					c0.96,7.03,1.86,14.06,2.71,21.1c0.21,1.7,0.41,3.41,0.61,5.12c0.16,1.38,0.59,3.16,0.1,4.51c-0.06,0.18-0.62,0.98-0.33,0.66
					c-0.05,0.06-0.71,0.62-0.22,0.26c-0.15,0.11-0.31,0.2-0.46,0.29c-0.68,0.4,0.48-0.07-0.3,0.14c-0.28,0.08-0.55,0.15-0.83,0.22
					c-0.09,0.02-0.58,0.08-0.08,0.02c-0.41,0.05-0.82,0.06-1.23,0.05c-2.37-0.02-4.96-0.93-7.52-1.9
					c-3.89-1.48-7.78-2.96-11.68-4.45c-7.63-2.9-15.26-5.81-22.88-8.71c-1.51-0.58-3.29,0.64-3.69,2.1
					c-0.46,1.69,0.58,3.11,2.1,3.69c7.16,2.73,14.32,5.45,21.48,8.18c3.42,1.3,6.85,2.61,10.27,3.91c2.8,1.07,5.59,2.3,8.56,2.83
					c2.67,0.47,5.43,0.58,7.97-0.5c2.98-1.27,4.68-4.01,4.95-7.19c0.14-1.61-0.13-3.23-0.31-4.82c-0.23-1.95-0.46-3.9-0.7-5.85
					c-0.43-3.57-0.88-7.14-1.35-10.71c-3.82-29.46-8.54-58.8-14.19-87.96c-3.18-16.38-6.65-32.69-10.4-48.95
					c-0.47-2.04-2.74-2.56-4.41-1.79c-15.75,7.28-31.39,14.81-46.9,22.6c-15.51,7.79-30.89,15.83-46.13,24.12
					c-7.59,4.13-15.14,8.32-22.66,12.57c-7.42,4.2-14.96,8.29-22.19,12.81c-3.17,1.98-6.16,4.41-7.64,7.93
					c-1.47,3.48-1.07,7.23,0.59,10.56c3.33,6.67,10.55,10.13,17.53,11.43c3.7,0.69,7.45,1.06,11.12,1.91
					c1.67,0.38,3.35,0.85,4.91,1.55c0.77,0.35,1.53,0.75,2.24,1.2c0.16,0.1,0.31,0.21,0.47,0.32c-0.05-0.03-0.31-0.25-0.04-0.04
					c0.26,0.21,0.51,0.43,0.75,0.66c1.74,1.67,2.74,3.58,3.27,6.05c0.03,0.13,0.16,0.84,0.12,0.57c-0.05-0.34,0.01,0.11,0.02,0.15
					c0.01,0.18,0.03,0.36,0.04,0.55c0.03,0.62,0.02,1.25-0.05,1.87c0.06-0.54-0.02,0-0.07,0.22c-0.07,0.29-0.15,0.57-0.24,0.85
					c-0.04,0.12-0.08,0.24-0.13,0.35c0.02-0.04,0.22-0.44,0.05-0.15c-0.16,0.29-0.33,0.57-0.5,0.85c-0.17,0.28,0.07-0.08,0.1-0.11
					c-0.11,0.13-0.21,0.25-0.33,0.37c-0.18,0.18-0.36,0.35-0.55,0.51c0.4-0.33-0.07,0.02-0.24,0.13c-0.31,0.19-0.64,0.34-0.98,0.48
					c-1.49,0.64-1.82,2.83-1.08,4.1C546.4,255.71,548.11,255.89,549.61,255.25L549.61,255.25z"/>
			</g>
		</g>
		<g>
			<g>
				<path class="st1" d="M970.71,630.76c-20.42-13.77-43.47-22.65-66.72-30.36c-24.76-8.21-50.32-14.14-76.56-13.88
					c-22.92,0.23-45.86,4.6-67.27,12.76c-21.39,8.15-41.27,19.94-58.57,34.93c-17.91,15.51-33.04,34.38-44.24,55.26
					c-1.4,2.6-2.73,5.24-4,7.91c-0.7,1.46-0.4,3.24,1.08,4.1c1.31,0.77,3.4,0.39,4.1-1.08c10.03-20.97,23.87-39.96,40.72-55.98
					c16.19-15.39,35.12-27.76,55.63-36.59c20.25-8.71,42.14-13.82,64.14-15.04c25.48-1.41,50.61,3.05,74.87,10.63
					c22.81,7.13,45.68,15.26,66.22,27.67c2.57,1.55,5.09,3.17,7.57,4.85C970.89,638.11,973.89,632.91,970.71,630.76L970.71,630.76z"
					/>
			</g>
		</g>
		<g>
			<g>
				<path class="st1" d="M654.46,694.65c-0.63,25-0.61,50.02,0.07,75.03c0.19,7.12,0.44,14.24,0.74,21.35c0.07,1.62,1.33,3,3,3
					c1.57,0,3.07-1.37,3-3c-1.05-24.99-1.45-50.01-1.19-75.02c0.07-7.12,0.2-14.24,0.38-21.36
					C660.56,690.78,654.56,690.79,654.46,694.65L654.46,694.65z"/>
			</g>
		</g>
		<g>
			<g>
				<path class="st1" d="M658.55,794.9c21.45,2.49,43.07,3.34,64.65,2.52c6.09-0.23,12.18-0.6,18.26-1.1c1.61-0.13,3-1.28,3-3
					c0-1.52-1.38-3.13-3-3c-21.52,1.75-43.16,1.86-64.7,0.3c-6.08-0.44-12.15-1.02-18.21-1.72c-1.61-0.19-3,1.51-3,3
					C655.55,793.68,656.94,794.71,658.55,794.9L658.55,794.9z"/>
			</g>
		</g>
		<g>
			<g>
				<path class="st1" d="M745.69,792.24c0-58.07,0-116.13,0-174.2c0-57.77,0-115.54,0-173.31c0-32.59,0-65.18,0-97.76
					c0-3.86-6-3.87-6,0c0,58.07,0,116.13,0,174.2c0,57.77,0,115.54,0,173.31c0,32.59,0,65.18,0,97.76
					C739.69,796.1,745.69,796.1,745.69,792.24L745.69,792.24z"/>
			</g>
		</g>
		<g>
			<g>
				<path class="st1" d="M743.91,343.96c-23.44,0-46.88,0-70.32,0c-6.65,0-13.3,0-19.95,0c-3.86,0-3.87,6,0,6
					c23.44,0,46.88,0,70.32,0c6.65,0,13.3,0,19.95,0C747.77,349.96,747.78,343.96,743.91,343.96L743.91,343.96z"/>
			</g>
		</g>
		<g>
			<g>
				<path class="st1" d="M656.07,349.96c3.86,0,3.87-6,0-6C652.21,343.96,652.21,349.96,656.07,349.96L656.07,349.96z"/>
			</g>
		</g>
		<g>
			<g>
				<path class="st1" d="M653.07,346.96c0,33.89,0,67.77,0,101.66c0,33.71,0,67.42,0,101.14c0,19.02,0,38.03,0,57.05
					c0,3.86,6,3.87,6,0c0-33.89,0-67.77,0-101.66c0-33.71,0-67.42,0-101.14c0-19.02,0-38.03,0-57.05
					C659.07,343.1,653.07,343.1,653.07,346.96L653.07,346.96z"/>
			</g>
		</g>
		<g>
			<g>
				<path class="st1" d="M655.57,600.15c-3.02,16.66-6.01,33.67-12.95,49.23c-5.64,12.66-14.08,24.63-25.78,32.33
					c-6.55,4.31-13.83,6.88-21.47,8.48c-8.54,1.79-17.31,2.7-26,3.38c-4.49,0.35-8.98,0.59-13.48,0.73
					c-4.32,0.13-8.7,0.31-13.02,0.02c-3.51-0.24-6.97-1.16-9.67-3.51c-2.71-2.36-4.65-5.39-6.32-8.54
					c-7.42-13.94-10.49-30.09-9.14-45.79c0.16-1.91,0.4-3.82,0.71-5.71c0.26-1.6-0.42-3.23-2.1-3.69c-1.43-0.39-3.43,0.49-3.69,2.1
					c-2.78,17.02-0.62,34.46,6.23,50.29c3.07,7.09,7.22,15.16,14.55,18.63c4.07,1.93,8.54,2.32,12.99,2.35
					c4.7,0.03,9.41-0.09,14.11-0.32c9.44-0.44,18.87-1.35,28.22-2.71c8.72-1.27,17.37-3.22,25.3-7.17
					c13.49-6.72,23.85-18.73,30.83-31.89c8.24-15.51,12.06-32.85,15.24-49.98c0.41-2.21,0.81-4.42,1.21-6.64
					c0.29-1.59-0.43-3.23-2.1-3.69C657.81,597.66,655.86,598.55,655.57,600.15L655.57,600.15z"/>
			</g>
		</g>
		<g>
			<g>
				<path class="st1" d="M517.56,632.43c0-21.13,0-42.27,0-63.4c0-21.05,0-42.1,0-63.15c0-11.9,0-23.8,0-35.7c0-3.86-6-3.87-6,0
					c0,21.13,0,42.27,0,63.4c0,21.05,0,42.1,0,63.15c0,11.9,0,23.8,0,35.7C511.56,636.29,517.56,636.29,517.56,632.43L517.56,632.43
					z"/>
			</g>
		</g>
		<g>
			<g>
				<path class="st1" d="M514.56,474.4c3.86,0,3.87-6,0-6C510.7,468.4,510.69,474.4,514.56,474.4L514.56,474.4z"/>
			</g>
		</g>
		<g>
			<g>
				<path class="st1" d="M514.56,474.4c22.79,0,45.58,0,68.37,0c6.49,0,12.98,0,19.46,0c3.86,0,3.87-6,0-6c-22.79,0-45.58,0-68.37,0
					c-6.49,0-12.98,0-19.46,0C510.7,468.4,510.69,474.4,514.56,474.4L514.56,474.4z"/>
			</g>
		</g>
		<g>
			<g>
				<path class="st1" d="M598.18,471.4c0,41.87,0,83.74,0,125.6s0,83.74,0,125.6c0,23.62,0,47.24,0,70.85c0,3.86,6,3.87,6,0
					c0-41.87,0-83.74,0-125.6c0-41.87,0-83.74,0-125.6c0-23.62,0-47.24,0-70.85C604.18,467.53,598.18,467.53,598.18,471.4
					L598.18,471.4z"/>
			</g>
		</g>
		<g>
			<g>
				<path class="st1" d="M598.74,790.46c-21.92,0-43.83,0-65.75,0c-6.14,0-12.29,0-18.43,0c-3.86,0-3.87,6,0,6
					c21.92,0,43.83,0,65.75,0c6.14,0,12.29,0,18.43,0C602.6,796.46,602.6,790.46,598.74,790.46L598.74,790.46z"/>
			</g>
		</g>
		<g>
			<g>
				<path class="st1" d="M520,792.24c0-18.66,0-37.32,0-55.98c0-5.33,0-10.66,0-15.99c0-3.86-6-3.87-6,0c0,18.66,0,37.32,0,55.98
					c0,5.33,0,10.66,0,15.99C514,796.1,520,796.1,520,792.24L520,792.24z"/>
			</g>
		</g>
		<g>
			<g>
				<path class="st1" d="M520.34,725.21c0.87-6.9-3.16-13.6-8.76-17.35c-5.77-3.87-13.18-4.72-19.94-3.85
					c-11.32,1.46-21.19,7.36-30.33,13.87c-9.09,6.48-17.83,13.77-28.07,18.41c-4.59,2.08-10.34,3.64-15.42,3.78
					c-6.46,0.18-12.93-1.37-18.67-4.35c-13.11-6.81-21.53-20.46-23.35-34.96c-0.2-1.61-1.23-3-3-3c-1.46,0-3.2,1.38-3,3
					c1.73,13.74,8.17,26.95,19.24,35.56c10.8,8.39,24.93,11.81,38.26,8.4c10.95-2.8,20.36-9.46,29.34-16.05
					c8.74-6.41,17.94-13.58,27.95-16.93c6.19-2.07,12.63-3,19.12-1.01c6.45,1.98,11.49,7.66,10.63,14.48c-0.2,1.61,1.52,3,3,3
					C519.13,728.21,520.14,726.82,520.34,725.21L520.34,725.21z"/>
			</g>
		</g>
		<g>
			<g>
				<path class="st1" d="M376.05,697.08c0-28.22,0-56.45,0-84.67c0-7.97,0-15.94,0-23.91c0-3.86-6-3.87-6,0c0,28.22,0,56.45,0,84.67
					c0,7.97,0,15.94,0,23.91C370.05,700.94,376.05,700.95,376.05,697.08L376.05,697.08z"/>
			</g>
		</g>
		<g>
			<g>
				<path class="st1" d="M374.27,592.73c21.92,0,43.83,0,65.75,0c6.14,0,12.29,0,18.43,0c3.86,0,3.87-6,0-6
					c-21.92,0-43.83,0-65.75,0c-6.14,0-12.29,0-18.43,0C370.41,586.73,370.4,592.73,374.27,592.73L374.27,592.73z"/>
			</g>
		</g>
		<g>
			<g>
				<path class="st1" d="M455.45,589.73c0,26.66,0,53.32,0,79.98c0,26.66,0,53.32,0,79.98c0,15,0,29.99,0,44.99c0,3.86,6,3.87,6,0
					c0-26.66,0-53.32,0-79.98s0-53.32,0-79.98c0-15,0-29.99,0-44.99C461.45,585.87,455.45,585.86,455.45,589.73L455.45,589.73z"/>
			</g>
		</g>
		<g>
			<g>
				<path class="st1" d="M458.45,792.9c-22.79,0-45.58,0-68.37,0c-6.49,0-12.98,0-19.46,0c-3.86,0-3.87,6,0,6
					c22.79,0,45.58,0,68.37,0c6.49,0,12.98,0,19.46,0C462.31,798.9,462.31,792.9,458.45,792.9L458.45,792.9z"/>
			</g>
		</g>
		<g>
			<g>
				<path class="st1" d="M374.83,794.68c0-11.39,0-22.77,0-34.16c0-3.86-6-3.87-6,0c0,11.39,0,22.77,0,34.16
					C368.83,798.54,374.83,798.54,374.83,794.68L374.83,794.68z"/>
			</g>
		</g>
		<g>
			<g>
				<path class="st1" d="M373.4,770.04c5.28-10.19-0.75-22.61-10.11-28.02c-5.49-3.17-11.88-4.38-18.15-4.62
					c-6.52-0.25-13.18,0.36-19.61,1.38c-3.25,0.51-6.48,1.26-9.55,2.45c-3.19,1.24-6.09,2.91-8.94,4.8
					c-2.66,1.76-5.3,3.61-8.24,4.88c-2.76,1.19-5.75,1.88-8.71,2.34c-3.08,0.48-6.21,0.63-9.32,0.74c-3.12,0.11-6.26,0.26-9.38,0.08
					c-2.73-0.15-5.56-0.6-7.99-1.93c-2.23-1.22-3.85-3.01-5.15-5.17c-1.51-2.52-2.45-5.17-3.3-7.98c-0.88-2.89-1.69-5.81-2.22-8.79
					c-0.24-1.33-0.36-2.37-0.43-3.83c-0.03-0.7-0.04-1.4-0.01-2.09c0.01-0.29,0.03-0.57,0.05-0.85c0.01-0.12,0.13-1.06,0.07-0.71
					c0.18-1.13,0.63-2.66,0.96-3.31c0.7-1.37,1.21-1.97,2.37-2.96c1.23-1.05,1.08-3.16,0-4.24c-1.22-1.22-3-1.05-4.24,0
					c-8.71,7.42-4.78,21.37-1.64,30.55c1.89,5.53,4.69,10.96,9.8,14.14c5.47,3.41,12.23,3.34,18.45,3.17
					c6.53-0.19,13.23-0.44,19.52-2.39c3.21-1,6.22-2.47,9.06-4.26c2.71-1.71,5.3-3.62,8.13-5.13c5.58-2.97,12.02-3.86,18.23-4.43
					c6.11-0.56,12.44-0.96,18.5,0.23c5.93,1.16,11.42,3.85,14.73,8.68c1.61,2.35,2.64,4.62,3.05,7.49
					c-0.07-0.51,0.05,0.57,0.05,0.53c0.02,0.33,0.04,0.66,0.04,0.99c0,0.33,0,0.66-0.02,0.99c0-0.02-0.08,0.95-0.03,0.52
					c-0.18,1.43-0.6,2.65-1.16,3.72c-0.75,1.44-0.37,3.26,1.08,4.1C370.64,771.9,372.65,771.48,373.4,770.04L373.4,770.04z"/>
			</g>
		</g>
		<g>
			<g>
				<path class="st1" d="M249.84,717.16c17.7,0,35.4,0,53.11,0c5.07,0,10.14,0,15.21,0c3.86,0,3.87-6,0-6c-17.7,0-35.4,0-53.11,0
					c-5.07,0-10.14,0-15.21,0C245.98,711.16,245.97,717.16,249.84,717.16L249.84,717.16z"/>
			</g>
		</g>
		<g>
			<g>
				<path class="st1" d="M315.15,715.38c0,20.61,0,41.23,0,61.84c0,5.82,0,11.64,0,17.46c0,3.86,6,3.87,6,0c0-20.61,0-41.23,0-61.84
					c0-5.82,0-11.64,0-17.46C321.15,711.52,315.15,711.51,315.15,715.38L315.15,715.38z"/>
			</g>
		</g>
		<g>
			<g>
				<path class="st1" d="M316.93,797.68c3.86,0,3.87-6,0-6C313.07,791.68,313.07,797.68,316.93,797.68L316.93,797.68z"/>
			</g>
		</g>
		<g>
			<g>
				<path class="st1" d="M316.93,791.68c-21.57,0-43.14,0-64.72,0c-6.08,0-12.16,0-18.24,0c-3.86,0-3.87,6,0,6
					c21.57,0,43.14,0,64.72,0c6.08,0,12.16,0,18.24,0C320.79,797.68,320.8,791.68,316.93,791.68L316.93,791.68z"/>
			</g>
		</g>
		<g>
			<g>
				<path class="st1" d="M235.76,791.02c0-29.49,0-58.98,0-88.46c0-8.33,0-16.66,0-24.99c0-3.86-6-3.87-6,0c0,29.49,0,58.98,0,88.46
					c0,8.33,0,16.66,0,24.99C229.76,794.88,235.76,794.88,235.76,791.02L235.76,791.02z"/>
			</g>
		</g>
		<g>
			<g>
				<path class="st1" d="M235.7,681.92c3.74-11.88,14.3-19.7,24.98-25.08c12.24-6.17,25.73-9.47,37.82-15.99
					c6.06-3.27,11.68-7.38,16.34-12.47c4.81-5.26,8.74-11.3,12.06-17.59c6.88-13.02,11.47-27.86,10.29-42.72
					c-0.99-12.46-6.2-24.76-15.41-33.38c-10.5-9.83-24.46-12.3-38.39-10.65c-7.8,0.93-15.49,2.68-23.09,4.65
					c-7.64,1.98-15.26,4.22-22.66,6.97c-5.54,2.06-11.38,4.72-15.28,9.33c-4.05,4.78-5.5,11.11-3.42,17.11
					c4.94,14.23,20.63,17.37,33.97,16.7c15.2-0.77,30.14-4.29,44.49-9.22c14.4-4.95,28.29-11.26,42.05-17.75
					c14.91-7.03,29.79-14.14,44.68-21.22c27.91-13.26,56.28-26.14,81.84-43.68c13.12-9,25.26-19.3,37.16-29.83
					c10.49-9.29,20.87-18.7,31.02-28.36c19.99-19.05,39.05-39.13,55.83-61.09c16.48-21.57,30.55-45.04,40.28-70.44
					c2.4-6.28,4.52-12.66,6.36-19.13c1.06-3.72-4.73-5.31-5.79-1.6c-7.14,25.14-18.83,48.66-33.31,70.36
					c-14.67,21.99-32.07,42.03-50.56,60.87c-19.23,19.58-39.57,38.27-60.55,55.96c-11.53,9.73-23.62,18.64-36.51,26.49
					c-12.62,7.69-25.75,14.51-39.02,21.01c-13.94,6.83-28.01,13.41-42.04,20.07c-13.88,6.59-27.7,13.3-41.67,19.7
					c-13.45,6.16-27.14,11.9-41.37,16.01c-6.93,2-13.97,3.61-21.1,4.67c-6.89,1.03-14.07,1.7-21.03,1.06
					c-6.26-0.58-12.75-2.8-16.65-7.99c-3.36-4.46-4.25-10.3-0.81-14.98c3.18-4.32,8.68-6.69,13.56-8.46
					c7.24-2.64,14.66-4.84,22.11-6.77c13.78-3.57,29.37-7.6,43.37-2.95c11.02,3.66,19.24,13.32,23.15,24.01
					c4.65,12.73,3.33,26.58-1,39.2c-4.37,12.73-11.61,25.72-22.07,34.42c-10.31,8.58-23.59,12.54-35.87,17.34
					c-11.27,4.4-22.65,9.89-30.92,19c-3.91,4.3-6.89,9.27-8.64,14.82C228.75,684.02,234.54,685.6,235.7,681.92L235.7,681.92z"/>
			</g>
		</g>
	</g>
</g>
<g id="Layer_2" class="st2">
	<g class="st3">
		<g>
			<path d="M902.19,586.94c1.93,0,1.93-3,0-3C900.26,583.94,900.25,586.94,902.19,586.94L902.19,586.94z"/>
		</g>
	</g>
	<g class="st3">
		<ellipse class="st0" cx="500.17" cy="498.5" rx="299.83" ry="299.5"/>
	</g>
	<g class="st3">
		<g>
			<g>
				<path class="st1" d="M524.3,546.84c0-31.87,0-63.75,0-95.62c0-8.96,0-17.93,0-26.89c0-3.86-6-3.87-6,0c0,31.87,0,63.75,0,95.62
					c0,8.96,0,17.93,0,26.89C518.3,550.7,524.3,550.71,524.3,546.84L524.3,546.84z"/>
			</g>
		</g>
		<g>
			<g>
				<path class="st1" d="M795.98,545.52c-35.6,0-71.2,0-106.8,0c-35.42,0-70.84,0-106.25,0c-19.98,0-39.96,0-59.94,0
					c-3.86,0-3.87,6,0,6c35.6,0,71.2,0,106.8,0c35.42,0,70.84,0,106.25,0c19.98,0,39.96,0,59.94,0
					C799.84,551.52,799.84,545.52,795.98,545.52L795.98,545.52z"/>
			</g>
		</g>
		<g>
			<g>
				<path class="st1" d="M522.1,429.02c4.39-5.27,6.07-12.38,11.35-16.88c2.2-1.88,4.93-3.22,7.73-3.97c2.6-0.69,5.82-1.01,8.2-0.34
					c0.62,0.18,0.72,0.19,1.33,0.63c-0.23-0.17-0.02,0.01-0.03,0.02c-0.22,0.24,0.26-0.17-0.02-0.04c-0.01,0-0.12-0.46-0.02-0.06
					c0.1,0.39-0.04-0.11-0.01-0.13c0.21-0.14,0.18-0.21-0.11,0.03c-0.25,0.21-0.24,0.23-0.52,0.42c-0.71,0.46-1.5,0.81-2.28,1.13
					c-3.25,1.38-6.7,2.33-10.16,2.97c-7.18,1.33-14.62,1.15-21.85,0.3c-8.04-0.94-15.95-2.82-23.84-4.56
					c-3.72-0.82-7.46-1.78-11.24-2.3c-3.38-0.47-7.14-0.23-9.38,2.71c-2.4,3.16-1.21,7.11,1.31,9.77c2.56,2.7,6.22,4.05,9.74,4.95
					c3.67,0.94,7.53,1.33,11.31,1.09c2.02-0.13,4.06-0.42,6.04-0.87c1.57-0.36,3.33-1.18,4.97-0.97c0.26,0.03,0.51,0.11,0.75,0.2
					c0.33,0.11-0.01-0.01-0.06-0.03c0.12,0.06,0.24,0.13,0.36,0.2c0.12,0.07,0.23,0.14,0.34,0.22c-0.05-0.03-0.33-0.28-0.08-0.05
					c0.23,0.21,0.46,0.44,0.66,0.69c-0.3-0.38,0.09,0.17,0.17,0.31c0.15,0.25,0.28,0.5,0.4,0.76c-0.19-0.4,0.1,0.26,0.14,0.38
					c0.12,0.34,0.22,0.68,0.31,1.03c0.38,1.46,0.43,2.08,0.48,3.63c0.06,1.55-0.05,3.1-0.12,4.65c-0.39,8.39-0.63,16.78-0.71,25.17
					c-0.08,8.39-0.01,16.79,0.21,25.18c0.11,4.05,0.06,8.18,0.64,12.2c0.52,3.64,2.15,6.85,5.13,9.07
					c5.34,3.97,12.9,3.08,19.13,2.86c4.17-0.15,8.34-0.3,12.51-0.45c3.84-0.14,7.65-0.41,10.71-3.01c4.89-4.16,3.93-11.51,3.2-17.14
					c-0.94-7.33-0.29-14.62,2.17-21.6c2.49-7.07,7.07-13.04,11.59-18.91c4.48-5.82,8.66-11.81,12.12-18.3
					c6.85-12.85,11.24-27.23,11.27-41.87c0.03-13.11-3.59-26.46-10.78-37.47c-3.67-5.61-8.21-10.52-13.55-14.57
					c-5.96-4.52-12.82-7.7-19.81-10.27c-14.62-5.37-30.44-8.55-46.06-7.77c-13.85,0.69-27.55,4.6-39.15,12.31
					c-11.44,7.6-20.08,18.38-24.48,31.43c-2.39,7.11-3.53,14.6-4.08,22.06c-0.55,7.58-0.55,15.25-0.1,22.83
					c0.47,7.92,1.58,15.9,4.21,23.41c2.16,6.18,5.21,12,8.6,17.58c6.57,10.82,14.75,21.13,19.45,32.86
					c1.16,2.88,2.11,5.85,2.77,8.88c0.72,3.31,0.94,6.66,1.31,10.02c0.41,3.78,1.04,7.46,2.65,10.94c1.49,3.22,3.94,5.83,6.77,7.91
					c6.04,4.43,13.79,5.55,21.1,5.46c8.31-0.1,16.66-1.08,24.89-2.22c5.77-0.8,15.07-1.13,16.85-8.16c0.39-1.54-0.49-3.29-2.1-3.69
					c-15.06-3.75-31.02-3.62-46.03,0.37c-3.74,0.99-7.41,2.23-10.99,3.71c-3.39,1.4-8.25,2.94-8.36,7.38
					c-0.1,4.06,3.84,6.32,6.98,7.9c3.46,1.74,7.04,3.26,10.69,4.56c14.57,5.19,30.4,6.54,45.66,4.09c3.4-0.55,7.9-2.17,8.17-6.26
					c0.32-4.88-5.17-5.39-8.68-6c-8.22-1.43-16.51-2.74-24.86-3.13c-8.14-0.37-16.43,0.2-24.3,2.4c-3.89,1.09-7.42,3.47-7.4,7.93
					c0.02,3.89,2.59,7.13,5.92,8.89c1.66,0.87,3.45,1.48,5.23,2.04c1.54,0.49,3.27-0.58,3.69-2.1c0.45-1.62-0.55-3.2-2.1-3.69
					c-2.35-0.75-5.49-1.64-6.49-3.96c0.05,0.11-0.27-1.13-0.24-0.85c-0.05-0.53,0.03-0.9,0.14-1.09c0.52-0.86,2.01-1.17,3.06-1.46
					c6.64-1.83,13.51-2.38,20.38-2.2c6.96,0.18,13.86,1.07,20.72,2.2c1.71,0.28,3.41,0.57,5.11,0.87c0.77,0.14,1.54,0.27,2.31,0.41
					c0.42,0.08,0.85,0.14,1.27,0.23c0.23,0.04,0.47,0.1,0.69,0.17c-0.06-0.03-0.1-0.07-0.12-0.12c0-0.05-0.3-0.58-0.31-0.81
					c0-0.02,0.14-0.69,0.17-0.64c0.07,0.14-0.88,0.65-1.19,0.79c-0.97,0.43-2.77,0.6-4.07,0.78c-12.78,1.85-26.01,0.59-38.3-3.31
					c-2.92-0.93-5.81-2-8.61-3.25c-1.45-0.65-2.89-1.34-4.3-2.07c-0.7-0.36-1.42-0.71-2.08-1.15c-0.33-0.22-0.87-0.79-1.02-0.87
					c-0.06-0.09-0.12-0.19-0.17-0.28c0.05,0.1,0.06,0.2,0.03,0.31c0-0.11,0-0.21,0-0.32c0.01,0.05,0.01,0.1,0.02,0.15
					c0.11,0.02-0.1,0.22-0.11,0.22c0.3-0.19,0.6-0.38,0.92-0.55c1.4-0.73,2.88-1.33,4.35-1.91c2.99-1.18,6.04-2.2,9.14-3.05
					c14.16-3.87,29.23-4.09,43.47-0.54c-0.7-1.23-1.4-2.46-2.1-3.69c-0.01,0.04-0.36,0.91-0.12,0.44c-0.02,0.04-0.57,0.75-0.23,0.37
					c-0.43,0.48-0.43,0.46-1.12,0.84c-0.57,0.31-0.69,0.36-1.42,0.59c-0.75,0.24-1.52,0.42-2.29,0.56
					c-3.82,0.73-7.71,1.22-11.57,1.68c-7.78,0.93-15.84,1.9-23.69,1.37c-6.09-0.41-12.65-2.4-16.51-7.41
					c-4.12-5.34-3.51-13.07-4.49-19.45c-3.95-25.57-26.67-42.94-32.97-67.57c-1.87-7.32-2.47-14.87-2.63-22.4
					c-0.16-7.27-0.05-14.57,0.79-21.8c0.78-6.8,2.31-13.7,5.07-19.98c2.58-5.87,6.15-11.14,10.62-15.7
					c8.54-8.7,19.71-14.52,31.52-17.32c14.5-3.45,29.77-2.35,44.13,1.19c13.3,3.28,27.27,8.17,37.21,17.97
					c8.85,8.73,14.15,20.46,16.13,32.65c2.12,13-0.17,26.64-4.95,38.94c-2.55,6.56-5.92,12.82-9.77,18.71
					c-3.98,6.09-8.77,11.58-12.86,17.59c-4.15,6.1-7.16,12.93-8.43,20.22c-0.66,3.74-0.96,7.55-0.77,11.34
					c0.15,3.04,0.72,6.04,0.92,9.08c0.09,1.37,0.13,2.78-0.04,4.14c0.07-0.51-0.1,0.53-0.1,0.5c-0.07,0.31-0.14,0.62-0.24,0.93
					c-0.19,0.62-0.24,0.8-0.73,1.53c-0.39,0.58-1.22,1.28-2.44,1.64c-1.67,0.49-3.43,0.46-5.15,0.52
					c-3.93,0.14-7.85,0.28-11.78,0.42c-3.4,0.12-6.84,0.39-10.24,0.11c-1.2-0.1-2.34-0.29-3.67-0.72c-0.99-0.32-2.21-0.98-2.95-1.71
					c-1.9-1.89-2.16-5.12-2.27-7.9c-0.35-8.27-0.49-16.56-0.5-24.84c-0.02-8.15,0.11-16.29,0.39-24.43
					c0.13-3.86,0.36-7.71,0.48-11.57c0.09-2.75-0.1-5.68-1-8.31c-1-2.9-2.79-5.37-5.72-6.52c-3.55-1.39-7.1,0.24-10.61,0.9
					c-3.34,0.63-6.92,0.65-10.27,0.07c-3.01-0.52-6.65-1.3-9.02-3.31c-0.49-0.41-0.93-0.88-1.2-1.31c-0.12-0.19-0.22-0.4-0.33-0.6
					c0.21,0.37-0.07-0.58-0.04-0.02c0-0.01,0.03-1.01,0-0.45c-0.02,0.37,0.26-0.45,0.01-0.1c0.4-0.55-0.24,0.06,0.32-0.3
					c0.32-0.16,0.36-0.19,0.11-0.08c0.2-0.07,0.4-0.13,0.6-0.17c0.65-0.15,2.27-0.06,3.06,0.08c2.01,0.35,4,0.79,6,1.22
					c7.71,1.65,15.37,3.53,23.15,4.79c7.4,1.2,14.92,1.92,22.41,1.36c3.76-0.28,7.53-0.83,11.19-1.77c3.42-0.88,7.24-2,10.24-3.91
					c3.23-2.06,4.92-6.07,2.18-9.31c-2.14-2.53-5.78-3.05-8.9-3.06c-6.54-0.04-13.02,2.57-17.8,7.01c-2.43,2.26-4.25,5.04-5.79,7.95
					c-1.49,2.81-2.8,5.84-4.85,8.31c-1.04,1.24-1.22,3.02,0,4.24C518.92,430.09,521.06,430.28,522.1,429.02L522.1,429.02z"/>
			</g>
		</g>
		<g>
			<g>
				<path class="st1" d="M488.72,541.16c-0.84,5.71,3.85,9.5,9.13,10.25c2.45,0.34,5.51-0.05,7.77,1.07
					c0.72,0.36,1.47,1.05,1.73,1.84c0.29,0.9,0.09,0.85-0.67,1.17c-2.57,1.09-5.86,1.36-8.6,1.76c-3.21,0.48-6.46,0.74-9.7,0.87
					c-6.31,0.24-12.63-0.09-18.89-0.82c-25.17-2.96-48.88-12.62-73.29-18.85c-12-3.06-24.44-5.59-36.88-5.24
					c-10.84,0.31-21.2,3.14-30.53,8.68c-16.04,9.52-28.03,24.68-44.56,33.43c-3.31,1.76-23.17,10.12-20.75,0.48
					c1.21-4.83,8.02-6.82,12.03-8.51c5.58-2.35,11.26-4.47,17.01-6.34c22.43-7.29,46.71-10.87,70.08-6.29
					c22.51,4.42,41.81,17.02,62.5,26.19c10.17,4.51,20.66,8.14,31.74,9.56c12.62,1.62,25.33,0.46,37.93-0.75
					c12.53-1.2,25.38-2.65,37.94-1.02c4.81,0.62,9.2,2.45,10.06,7.69c0.69,4.21-1.01,8.33-3.95,11.31
					c-3.71,3.75-8.78,5.8-13.75,7.27c-6.05,1.79-12.3,2.79-18.61,2.94c-1.15,0.03-2.67,0.27-3.78-0.09c-0.64-0.2-0.68,0.04-0.2-0.9
					c1.17-2.28,4.1-3.67,6.21-4.91c4.98-2.93,10.3-5.19,15.86-6.75c5.34-1.49,10.79-2.29,16.33-2.43c-0.86-0.5-1.73-0.99-2.59-1.49
					c1.17,2.31-7.13,5.99-8.62,6.73c-3.89,1.92-7.96,3.46-12.12,4.69c-8.54,2.54-17.39,3.77-26.27,4.33
					c-18.21,1.14-36.44-0.31-54.66,0.09c-8.48,0.19-18.92,0.72-23.71,8.95c-0.62,1.06-0.54,2.8,0.47,3.64
					c4.58,3.78,10.09,5.04,15.88,5.61c6.13,0.6,12.3,0.89,18.45,1.25c12.64,0.73,25.31,1.19,37.97,0.76
					c24.52-0.84,49.09-5.25,70.84-17.08c19.21-10.45,35.49-25.26,53.28-37.8c8.57-6.03,17.58-11.68,27.3-15.66
					c4.89-2,10.01-3.71,15.22-4.7c4.17-0.79,10.36-1.09,12.58,3.42c2.09,4.25-0.87,9.76-3.54,13.04
					c-3.69,4.52-8.79,8.05-13.99,10.59c-2.22,1.08-4.93,2.43-7.47,2.18c-2.1-0.21-2.67-1.78-2.09-3.6
					c1.61-5.06,7.57-7.66,12.26-8.96c2.92-0.81,5.86-1.12,8.88-1.03c3.86,0.11,3.86-5.89,0-6c-6.7-0.19-13.45,1.51-19.19,5.01
					c-4.43,2.7-8.76,7.78-8.13,13.31c0.78,6.77,7.99,8.24,13.52,6.47c6.11-1.96,11.82-5.62,16.61-9.84
					c4.37-3.86,8.26-8.87,9.42-14.71c1.12-5.64-0.73-11.58-6.03-14.43c-5.12-2.75-11.3-2.02-16.72-0.72
					c-5.63,1.36-11.09,3.32-16.38,5.67c-21.37,9.48-38.9,25.48-57.63,39.1c-9.58,6.97-19.6,13.45-30.5,18.18
					c-12.16,5.28-25.29,8.42-38.43,10.05c-13.45,1.67-27.04,1.91-40.57,1.52c-6.81-0.19-13.62-0.54-20.42-0.96
					c-6.33-0.39-12.96-0.35-19.19-1.63c-2.75-0.56-5.49-1.46-7.69-3.28c0.16,1.21,0.31,2.42,0.47,3.64
					c3.94-6.76,14.58-5.94,21.24-6.02c9.6-0.12,19.19,0.21,28.79,0.34c18.64,0.26,37.95-0.07,55.7-6.46
					c4.79-1.73,9.49-3.85,13.86-6.47c4.26-2.55,8.42-7.06,5.79-12.24c-0.46-0.91-1.59-1.51-2.59-1.49
					c-12.47,0.31-24.79,3.78-35.52,10.17c-4.2,2.5-11.17,7.03-8.7,12.95c1.19,2.86,4.08,3.83,6.96,3.96
					c3.32,0.15,6.73-0.13,10.03-0.53c11.44-1.38,25.48-4.7,32.28-14.96c2.78-4.19,3.71-9.79,2.41-14.65
					c-1.5-5.57-5.96-9.16-11.48-10.41c-6.32-1.44-13.16-1.42-19.61-1.27c-6.87,0.16-13.72,0.79-20.57,1.45
					c-13.42,1.28-27.12,2.81-40.54,0.82c-24.13-3.57-44.68-17.81-66.67-27.28c-11.54-4.97-23.42-8.43-35.95-9.74
					c-12.89-1.35-25.92-0.48-38.66,1.8c-12.76,2.29-25.22,6.1-37.25,10.9c-5.46,2.18-11.83,4.19-16.22,8.25
					c-3.95,3.65-5.69,10.17-2.13,14.68c3.65,4.62,10.22,3.7,15.26,2.51c4.79-1.13,9.4-3.07,13.7-5.44
					c8.74-4.83,16.33-11.5,23.88-17.96c7.59-6.49,15.31-13.03,24.33-17.46c11.23-5.52,23.87-6.14,36.11-4.71
					c27.18,3.17,52.66,14.62,79.26,20.45c13.2,2.89,26.83,4.64,40.35,3.61c3.4-0.26,6.79-0.69,10.14-1.29
					c2.92-0.53,6.6-0.89,8.95-2.89c4.35-3.7,1.63-10.28-2.81-12.52c-2.71-1.36-5.81-1.33-8.75-1.58c-1.19-0.1-5.46-0.83-5.16-2.86
					c0.24-1.62-0.4-3.2-2.1-3.69C491,538.66,488.95,539.56,488.72,541.16L488.72,541.16z"/>
			</g>
		</g>
		<g>
			<g>
				<path class="st1" d="M659.61,579.14c-0.74-0.42,0.08-0.47-0.47,0.25c-0.37,0.49-0.61,1.07-1,1.56
					c-1.21,1.53-2.63,2.94-3.99,4.34c-2.73,2.82-5.61,5.49-8.58,8.04c-5.99,5.14-12.39,9.77-18.91,14.2
					c-14.01,9.51-28.38,18.53-42.69,27.57c-29.53,18.65-59.37,36.81-89.56,54.39c-6.6,3.84-13.66,7.96-21.49,8.26
					c-8.31,0.33-16.47-2.92-24.28-5.35c-15.72-4.88-31.42-9.91-46.7-16.06c-15.54-6.26-30.23-14-44.29-23.1
					c-13.7-8.88-27.22-17.86-41.79-25.28c-28.18-14.36-58.62-24.28-89.88-29.12c-3.91-0.61-7.84-1.13-11.77-1.59
					c-1.62-0.19-2.98,1.52-3,3c-0.02,1.78,1.4,2.81,3,3c32.44,3.81,64.29,13.15,93.66,27.43c15.12,7.35,29.19,16.25,43.23,25.45
					c14.5,9.5,29.43,17.75,45.44,24.44c15.7,6.56,31.9,11.83,48.14,16.89c8.12,2.53,16.37,5.68,24.92,6.25
					c8.27,0.55,15.96-2.45,23.1-6.34c15.57-8.47,30.67-17.94,45.83-27.11c15.38-9.31,30.68-18.76,45.89-28.35
					c14.85-9.36,29.73-18.72,44.28-28.53c6.75-4.55,13.36-9.31,19.61-14.53c3.11-2.6,6.12-5.32,8.98-8.19
					c2.51-2.52,5.61-5.23,7.13-8.49c1.36-2.92,1.26-6.45-1.8-8.2C659.28,572.04,656.26,577.22,659.61,579.14L659.61,579.14z"/>
			</g>
		</g>
	</g>
	<g class="st3">
		<g>
			<path class="st1" d="M583.32,454.37c4.48,0.37,8.95,0.75,13.43,1.12c0.81,0.07,1.5-0.74,1.5-1.5c0-0.87-0.69-1.43-1.5-1.5
				c-4.48-0.37-8.95-0.75-13.43-1.12c-0.81-0.07-1.5,0.74-1.5,1.5C581.82,453.74,582.51,454.3,583.32,454.37L583.32,454.37z"/>
		</g>
	</g>
	<g class="st3">
		<g>
			<path class="st1" d="M612.41,405.07c11.57,0.58,23.17,0.29,34.7-0.88c1.9-0.19,1.92-3.19,0-3c-11.53,1.16-23.13,1.46-34.7,0.88
				C610.48,401.97,610.49,404.97,612.41,405.07L612.41,405.07z"/>
		</g>
	</g>
	<g class="st3">
		<g>
			<path class="st1" d="M612.03,346.72c4.85-2.61,9.7-5.22,14.54-7.83c1.7-0.92,0.19-3.51-1.51-2.59c-4.85,2.61-9.7,5.22-14.54,7.83
				C608.82,345.04,610.33,347.64,612.03,346.72L612.03,346.72z"/>
		</g>
	</g>
	<g class="st3">
		<g>
			<path class="st1" d="M557.8,311.54c4.54-9.39,7.92-19.29,10.02-29.5c0.39-1.88-2.5-2.69-2.89-0.8
				c-2.05,9.96-5.3,19.63-9.72,28.78C554.37,311.76,556.96,313.28,557.8,311.54L557.8,311.54z"/>
		</g>
	</g>
	<g class="st3">
		<g>
			<path class="st1" d="M484.75,294.09c-4.25-4.93-7.07-10.94-8.27-17.33c-0.35-1.9-3.25-1.09-2.89,0.8
				c1.29,6.91,4.45,13.34,9.04,18.66C483.89,297.68,486.01,295.55,484.75,294.09L484.75,294.09z"/>
		</g>
	</g>
	<g class="st3">
		<g>
			<path class="st1" d="M418.81,338.15c-9-6.83-18.49-12.98-28.39-18.41c-1.69-0.93-3.21,1.66-1.51,2.59
				c9.91,5.42,19.4,11.58,28.39,18.41C418.83,341.9,420.33,339.3,418.81,338.15L418.81,338.15z"/>
		</g>
	</g>
	<g class="st3">
		<g>
			<path class="st1" d="M412.14,374.16c-6.34,0-12.68,0-19.02,0c-1.93,0-1.93,3,0,3c6.34,0,12.68,0,19.02,0
				C414.07,377.16,414.08,374.16,412.14,374.16L412.14,374.16z"/>
		</g>
	</g>
	<g class="st3">
		<g>
			<path class="st1" d="M388.65,377.16c1.93,0,1.93-3,0-3C386.72,374.16,386.71,377.16,388.65,377.16L388.65,377.16z"/>
		</g>
	</g>
	<g class="st3">
		<g>
			<path class="st1" d="M424.45,415.54c-16.78,1.49-33.56,2.98-50.35,4.48c-1.91,0.17-1.93,3.17,0,3
				c16.78-1.49,33.56-2.98,50.35-4.48C426.36,418.37,426.37,415.37,424.45,415.54L424.45,415.54z"/>
		</g>
	</g>
	<g class="st3">
		<g>
			<path class="st1" d="M428.16,454.9c-5.97,2.98-11.94,5.96-17.91,8.94c-1.73,0.86-0.21,3.45,1.51,2.59
				c5.97-2.98,11.94-5.96,17.91-8.94C431.4,456.63,429.88,454.04,428.16,454.9L428.16,454.9z"/>
		</g>
	</g>
</g>
<g id="Layer_3" class="st2">
	<g class="st3">
		<ellipse class="st0" cx="500" cy="500.4" rx="300" ry="300.44"/>
	</g>
	<g class="st3">
		<g>
			<g>
				<path class="st1" d="M797.78,466.21c-28.42,12.22-59.01,19.69-89.92,21.42c-16.29,0.91-32.68,0.25-48.83-2.14
					c-15.87-2.35-31.63-5.92-47.7-6.59c-16-0.67-32.62,1.69-46.48,10.17c1.47,0.6,2.94,1.2,4.41,1.79
					c-1.52-8.41-3.05-16.82-4.57-25.22c-1.37-7.57-3.03-15.15-4.16-22.76c-0.87-5.93-1.11-12.06-3.22-17.74
					c-1.12-3.02-2.66-5.79-4.81-8.21c-2.34-2.64-5.44-4.5-8.61-5.99c-12.95-6.09-27.7-4.76-40.95-0.37
					c-5.54,1.83-13.29,4.73-14.02,11.53c-0.37,3.42,2.01,6.02,4.45,8.07c2.44,2.04,5.36,3.38,8.49,3.95
					c6.23,1.15,12.47-0.06,18.73-0.24c6.24-0.18,12.01-2.52,16.52-6.88c4.36-4.22,7.25-9.99,8.42-15.92
					c1.59-8.06,2.03-16.39,2.28-24.58c0.12-3.99,0.18-7.97,0.27-11.96c0.04-1.98,0.1-3.96,0.17-5.94c0.07-1.93,0.73-4.85-0.17-6.6
					c-2.72-5.29-8.63-7.64-14.26-7.91c-5.53-0.27-10.99,1.12-16.44,1.87c-2.58,0.35-5.64,0.97-8.11,2.65
					c-2.62,1.78-4.83,4.44-4.74,7.78c0.16,5.72,6.08,10.04,11.26,10.89c5.54,0.91,11.16-0.34,16.55-1.54
					c2.54-0.57,5.33-0.86,7.78-1.72c2.96-1.04,5.61-2.81,7.58-5.27c1.96-2.45,3.31-5.34,3.95-8.42c0.78-3.74,0.36-7.4-0.2-11.13
					c-0.5-3.37-0.9-6.64,0.23-9.93c1.25-3.66-4.54-5.23-5.79-1.6c-1.58,4.6-0.78,9.2-0.12,13.88c0.54,3.8,0.55,7.69-1.26,11.18
					c-1.55,2.97-4.16,5.28-7.52,5.88c-3.32,0.6-6.59,1.46-9.91,2.11c-3.14,0.62-6.23,1.11-9.48,0.78c-2.31-0.23-4.7-1.26-6.11-3.28
					c-0.39-0.56-0.85-1.22-0.98-1.9c-0.05-0.26,0.09-0.76,0.35-1.15c0.76-1.16,2.21-2,3.5-2.52c1.6-0.64,2.99-0.68,4.77-0.94
					c1.69-0.24,3.36-0.54,5.04-0.81c3.57-0.59,7.25-1.13,10.91-0.72c3.17,0.36,5.97,1.83,7.79,4.84c-0.14-0.5-0.27-1.01-0.41-1.51
					c-0.53,9.28-0.42,18.59-0.86,27.88c-0.23,4.82-0.59,9.65-1.28,14.42c-0.51,3.51-1.15,7.02-2.71,10.23
					c-2.79,5.76-7.62,10.29-14.03,11.57c-1.43,0.29-2.87,0.24-4.31,0.31c-1.92,0.1-3.84,0.27-5.76,0.42
					c-3.31,0.26-6.78,0.57-10.08-0.02c-3.13-0.56-6.28-2.08-8.23-4.69c-0.36-0.49-0.44-0.57-0.35-1.21
					c-0.06,0.45,0.19-0.45,0.06-0.15c0.09-0.22,0.22-0.44,0.35-0.64c0.78-1.24,2.06-2.19,3.32-2.93c3.01-1.76,6.93-2.77,10.42-3.72
					c3.77-1.02,7.62-1.79,11.52-2.08c7.78-0.6,15.67,0.52,22.56,4.35c3.16,1.76,5.63,3.92,7.36,7.14c1.54,2.86,2.3,6.09,2.84,9.28
					c0.67,3.92,0.97,7.9,1.6,11.82c0.77,4.78,1.79,9.54,2.65,14.31c1.97,10.88,3.94,21.76,5.92,32.64c0.35,1.91,2.87,2.73,4.41,1.79
					c26.43-16.17,58.78-7.73,87.23-3.32c31.89,4.94,64.34,3.74,95.84-3.28c17.11-3.81,33.77-9.33,49.87-16.25
					c1.49-0.64,1.82-2.83,1.08-4.1C800.99,465.74,799.28,465.56,797.78,466.21L797.78,466.21z"/>
			</g>
		</g>
		<g>
			<g>
				<path class="st1" d="M549.72,341.73c2.61-15.92-1-32.29-6.8-47.14c-2.49-6.36-5.57-12.53-10.14-17.67
					c-4.74-5.34-11.07-8.88-18.11-10.15c-3.85-0.7-7.77-0.89-11.67-0.74c-3.86,0.15-7.87,0.44-11.35,2.28
					c-6.18,3.28-7.97,10.5-8.52,16.94c-0.32,3.82-0.34,7.68-0.46,11.51c-0.13,4.23-0.24,8.47-0.35,12.7
					c-0.21,8.64-0.36,17.27-0.46,25.91c-0.2,17.19-0.17,34.39,0.06,51.58c0.03,2.16,0.06,4.32,0.1,6.48c0.07,3.86,6.07,3.87,6,0
					c-0.56-32.72-0.33-65.46,0.69-98.17c0.11-3.57,0.12-7.17,0.48-10.73c0.24-2.41,0.85-5.43,2.03-7.56
					c0.62-1.12,1.02-1.66,1.98-2.51c0.88-0.78,2.44-1.47,3.86-1.81c3.3-0.8,6.93-0.76,10.31-0.65c6.41,0.2,12.95,1.8,17.87,5.94
					c4.64,3.9,7.8,9.07,10.32,14.55c3.23,7.02,5.56,14.7,7.21,22.28c1.8,8.29,2.54,16.95,1.16,25.36c-0.26,1.6,0.42,3.23,2.1,3.69
					C547.46,344.22,549.45,343.34,549.72,341.73L549.72,341.73z"/>
			</g>
		</g>
		<g>
			<g>
				<path class="st1" d="M481.37,387.2c0.67,9.28-0.89,18.72-4.86,27.16c-2,4.26-4.86,8.21-6.13,12.79
					c-1.09,3.93-0.69,8.21,1.52,11.69c3.86,6.06,11.08,8.65,16.94,12.26c6.13,3.78,10.21,9.99,11.16,17.17
					c0.47,3.59,0.1,7.25-1.12,10.66c-0.05,0.13-0.36,0.66-0.31,0.79c0.01,0.02,0.59,0.05,0.78-0.08c0.25-0.16,0.23,0.37-0.01-0.16
					c-0.11-0.24-0.38-0.57-0.53-0.84c-0.91-1.7-0.93-3.81-1.27-5.67c-1.66-9.05-5.12-17.84-10.02-25.62
					c-2.34-3.71-5-7.84-8.45-10.61c-3.51-2.82-8.51-3.82-11.98-0.3c-2.61,2.65-3.12,6.57-3.58,10.08
					c-0.48,3.58-1.45,7.11-3.41,10.34c-4.25,7.02-11.24,11.85-18.27,15.76c-8.11,4.51-16.62,8.29-23.92,14.11
					c-7.02,5.6-12.34,13.18-16.1,21.28c-3.51,7.57-7.5,17.38-4.2,25.68c1.51,3.8,4.35,6.25,7.37,8.84c2.43,2.09,4.97,4.43,3.62,7.89
					c-1.56,4.03-5.71,7.16-8.8,10c-3.54,3.25-7.12,6.49-10.09,10.3c-5.63,7.22-8.75,16.58-4.92,25.37
					c3.04,6.97,9.38,11.65,14.53,16.96c2.7,2.79,5.42,5.95,6.39,9.8c0.97,3.84-0.89,7.46-2.54,10.82
					c-1.88,3.84-3.76,7.89-3.48,12.28c0.27,4.29,2.17,8.07,4.88,11.33c5.56,6.7,13.81,9.51,21.17,13.63c3.27,1.83,6.78,4.1,8.8,7.27
					c1.68,2.64,2.44,5.68,2.15,8.77c-0.23,2.47-1.43,4.63-3.73,5.83c1.37,0.36,2.74,0.72,4.1,1.08c-2.85-4.19-0.59-9.88,3.18-12.78
					c5.3-4.08,12.83-4.05,19.18-3.98c15.64,0.17,31.07,2.84,46.49,5.19c7.82,1.19,15.67,2.32,23.55,3.03
					c7.4,0.67,15.04,1.26,22.44,0.31c7.03-0.91,13.49-3.69,18.06-9.28c4.39-5.38,7.1-12.06,8.88-18.73
					c4.18-15.68,2.62-32.53-4.17-47.24c-0.88-1.91-3.37-1.72-4.71-0.61c-7.41,6.13-10.72,16.02-19.06,21.15
					c-8.87,5.46-19.83,5.63-29.84,4.16c-5.94-0.87-11.8-2.2-17.68-3.4c-5.84-1.19-11.68-2.35-17.54-3.46
					c-11.8-2.26-23.64-4.36-35.49-6.32c-13.35-2.2-26.74-4.22-40.14-6.05c-1.6-0.22-3.22,0.39-3.69,2.1
					c-0.38,1.4,0.48,3.47,2.1,3.69c24.42,3.33,48.75,7.28,72.96,11.86c12.05,2.28,24.02,5.14,36.12,7.1
					c11.09,1.8,22.57,2.07,32.98-2.75c5.41-2.51,9.58-6.45,13.14-11.15c3.31-4.38,6.11-9.14,10.39-12.68
					c-1.57-0.2-3.14-0.4-4.71-0.61c5.83,12.63,7.21,27.29,4.01,40.82c-1.48,6.29-3.78,13-7.94,18.06
					c-4.3,5.24-10.39,7.25-16.99,7.66c-7.51,0.47-15.15-0.19-22.62-0.97c-7.83-0.83-15.62-2.03-23.4-3.23
					c-15.44-2.39-31.05-4.94-46.73-4.63c-7.46,0.15-16.02,1.36-21.34,7.16c-4.51,4.91-6.59,12.77-2.6,18.62
					c0.94,1.39,2.58,1.87,4.1,1.08c6.69-3.49,8-12.07,5.69-18.67c-2.86-8.18-10.53-12.52-17.89-16.14
					c-6.68-3.29-15.32-7.18-17.66-14.99c-1.12-3.75,0.18-7.24,1.81-10.62c1.86-3.86,3.95-7.77,4.05-12.15
					c0.21-8.86-7.2-15.52-13.08-21.11c-5.22-4.97-10.88-10.66-9.77-18.53c1.29-9.14,8.93-15.58,15.31-21.45
					c3.42-3.14,7.31-6.45,9.3-10.74c1.99-4.28,1.4-8.71-1.57-12.34c-2.26-2.76-5.56-4.53-7.73-7.37c-2.28-2.99-2.32-7.07-1.64-10.6
					c1.61-8.45,5.84-16.94,11.01-23.76c5.54-7.31,13.02-12.13,21.01-16.38c7.92-4.21,16.02-8.11,22.76-14.14
					c3.12-2.79,5.94-6.04,8.02-9.67c2.13-3.71,3.2-7.61,3.75-11.82c0.2-1.49,0.42-3.09,0.86-4.59c0.36-1.22,0.82-2.33,1.82-2.71
					c2.83-1.06,6.51,4.73,7.95,6.73c5.34,7.45,9.15,15.89,11.17,24.84c0.92,4.06,0.87,8.77,3.92,11.98c1.4,1.47,3.43,2.29,5.44,1.7
					c2.46-0.73,3.53-3.06,4.28-5.3c2.53-7.52,1.46-16.04-2.21-23c-1.86-3.51-4.47-6.62-7.61-9.05c-2.88-2.22-6.12-3.86-9.28-5.62
					c-2.86-1.58-5.77-3.2-7.92-5.68c-0.84-0.98-1.48-2.17-1.81-3.5c-0.46-1.85-0.11-3.71,0.5-5.49c1.48-4.33,4.31-8.15,6.1-12.36
					c1.91-4.48,3.33-9.13,4.11-13.94c0.77-4.73,1.03-9.5,0.69-14.28c-0.12-1.62-1.3-3-3-3C482.83,384.2,481.25,385.58,481.37,387.2
					L481.37,387.2z"/>
			</g>
		</g>
		<g>
			<g>
				<path class="st1" d="M571.82,615.22c6.97-15.53,8.3-33.26,3.41-49.6c-0.45-1.5-2.12-2.6-3.69-2.1
					c-9.31,3-16.39,10.32-25.77,13.17c-9.38,2.85-19.46,2.31-29.05,0.99c-21.46-2.96-42.78-8.09-63.49-14.4
					c-11.79-3.59-23.43-7.67-34.88-12.21c-1.51-0.6-3.29,0.65-3.69,2.1c-0.47,1.71,0.58,3.09,2.1,3.69
					c20.56,8.15,41.72,14.8,63.25,19.86c10.68,2.51,21.45,4.68,32.29,6.34c10.29,1.58,20.84,2.57,31.13,0.43
					c5.57-1.16,10.72-3.42,15.55-6.4c4.57-2.82,8.99-6.11,14.16-7.78c-1.23-0.7-2.46-1.4-3.69-2.1c4.4,14.71,3.49,30.94-2.81,44.98
					c-0.66,1.48-0.43,3.23,1.08,4.1C569,617.05,571.15,616.71,571.82,615.22L571.82,615.22z"/>
			</g>
		</g>
		<g>
			<g>
				<path class="st1" d="M437.3,479.06c23.7,11.98,48.91,20.96,74.87,26.56c13.03,2.81,26.24,4.76,39.52,5.91
					c5.93,0.51,12.13,1.04,17.19,4.49c3.82,2.61,6.71,6.88,8.13,11.29c3.68,11.42-2,23.86-11.59,30.96c-1.3,0.96-1.96,2.6-1.08,4.1
					c0.75,1.28,2.79,2.05,4.1,1.08c9.64-7.13,16.78-18.77,15.65-31.12c-0.54-5.86-2.67-11.39-6.31-16.03
					c-3.77-4.81-9.06-7.92-14.98-9.3c-6.64-1.55-13.63-1.63-20.39-2.41c-6.75-0.78-13.48-1.81-20.16-3.06
					c-13.45-2.51-26.73-5.91-39.72-10.18c-14.49-4.76-28.6-10.6-42.21-17.49c-1.45-0.73-3.25-0.38-4.1,1.08
					C435.44,476.29,435.84,478.32,437.3,479.06L437.3,479.06z"/>
			</g>
		</g>
		<g>
			<g>
				<path class="st1" d="M562.69,679.27c-0.1,7.39-3.3,14.18-8.54,19.34c-5.92,5.82-13.87,9.09-21.95,10.53
					c-4.53,0.8-9.2,0.9-13.77,0.45c-4.83-0.47-9.51-1.89-14.23-2.94c-10.33-2.31-20.7-4.48-31.1-6.43
					c-20.4-3.83-40.99-6.83-61.7-8.39c-10.3-0.78-20.64-1.2-30.97-1.2c-10.13,0-20.41,0.11-30.46,1.42
					c-19.34,2.53-37.64,9.51-55.12,17.95c-2.14,1.03-4.26,2.09-6.38,3.15c-1.45,0.73-1.86,2.77-1.08,4.1
					c0.86,1.47,2.65,1.81,4.1,1.08c17.3-8.74,35.38-16.41,54.6-19.69c9.9-1.69,20.05-1.89,30.08-2c10.43-0.12,20.86,0.2,31.27,0.9
					c20.89,1.39,41.64,4.31,62.21,8.11c10.49,1.94,20.94,4.11,31.35,6.42c5.01,1.11,9.99,2.55,15.08,3.23
					c4.82,0.65,9.69,0.71,14.52,0.09c9.06-1.16,17.86-4.35,25.03-10.1c6.17-4.94,10.87-12.01,12.42-19.81
					c0.4-2.05,0.62-4.13,0.65-6.22C568.74,675.41,562.74,675.41,562.69,679.27L562.69,679.27z"/>
			</g>
		</g>
	</g>
</g>
</svg>
