<?xml version="1.0" encoding="utf-8"?>
<!-- Generator: Adobe Illustrator 27.3.1, SVG Export Plug-In . SVG Version: 6.00 Build 0)  -->
<svg version="1.1" id="Layer_1" xmlns="http://www.w3.org/2000/svg" xmlns:xlink="http://www.w3.org/1999/xlink" x="0px" y="0px"
	 viewBox="0 0 2405 231" style="enable-background:new 0 0 2405 231;" xml:space="preserve">
<style type="text/css">
	.st0{fill:#FFFFFF;}
</style>
<g>
	<g>
		<path class="st0" d="M1241.77,110.36c-5.06-2.33-10.33-4.13-15.59-5.92c-2.59-0.88-5.17-1.78-7.72-2.78
			c-2.6-1.02-5.08-2.41-7.7-3.35c-3.63-1.3-7.96-1.63-11.42,0.33c-1.87,1.06-3.24,2.69-4.09,4.64c-1.06,2.42-2.06,4.86-3,7.33
			c-3.87,10.16-6.64,20.73-8,31.52c-1.21,9.64-1.63,19.86,0.86,29.33c2.16,8.24,6.41,15.83,12.03,22.21
			c5.61,6.37,12.83,11.98,20.67,15.32c2.19,0.93,4.44,2.04,6.71,2.71c2.73,0.81,5.49,1.55,8.26,2.22c5.34,1.3,10.74,2.34,16.17,3.14
			c10.83,1.6,21.79,2.28,32.74,2.16c21.85-0.25,43.59-3.61,64.83-8.63c2.62-0.62,5.24-1.27,7.85-1.93c1.87-0.48,1.08-3.37-0.8-2.89
			c-20.34,5.21-41.1,9.02-62.1,10.14c-21.07,1.12-42.32-0.54-62.71-6.12c-16.38-4.48-30.91-15.79-38.02-31.4
			c-3.68-8.09-4.57-16.68-4.32-25.48c0.29-10.39,2.12-20.68,5.06-30.64c1.47-4.99,3.21-9.89,5.18-14.7
			c0.85-2.07,1.54-4.41,3.39-5.83c1.42-1.1,3.23-1.51,5-1.5c1.84,0.01,3.76,0.42,5.44,1.17c2.46,1.09,4.88,2.24,7.4,3.22
			c4.87,1.89,9.87,3.43,14.79,5.22c2.57,0.94,5.11,1.95,7.59,3.09C1242,113.75,1243.53,111.17,1241.77,110.36L1241.77,110.36z"/>
	</g>
</g>
<g>
	<g>
		<path class="st0" d="M1234.6,24.33c2.66,21.77,5.35,43.54,8.29,65.27c0.83,6.16,1.69,12.32,2.57,18.47
			c0.27,1.9,3.16,1.09,2.89-0.8c-3.07-21.53-5.84-43.1-8.51-64.68c-0.75-6.09-1.5-12.17-2.25-18.26
			C1237.37,22.44,1234.37,22.42,1234.6,24.33L1234.6,24.33z"/>
	</g>
</g>
<g>
	<g>
		<path class="st0" d="M1004.93,195.33c15.87,1.08,31.71,2.81,47.63,3.02c16.11,0.21,32.37-1.25,47.77-6.21
			c6.77-2.18,13.33-5.7,19.35-9.45c6.15-3.82,12.19-8.26,17.21-13.5c9.99-10.41,18.05-22.46,25.18-34.95
			c7.05-12.35,13.29-25.15,20.32-37.52c0.89-1.57,1.8-3.14,2.72-4.7c0.64-1.08-0.22-2.12-1.3-2.26c-14.39-1.84-28.93-2.22-43.4-1.13
			c0.25,0.93,0.5,1.86,0.76,2.8c25.6-14.29,47.66-33.86,69.33-53.38c6.09-5.49,12.17-10.98,18.33-16.4
			c1.45-1.28-0.68-3.39-2.12-2.12c-21.73,19.1-42.56,39.41-66.25,56.14c-6.71,4.74-13.63,9.16-20.8,13.16
			c-1.25,0.7-0.75,2.91,0.76,2.8c14.46-1.09,29.01-0.71,43.4,1.13c-0.43-0.75-0.86-1.5-1.3-2.26
			c-7.13,12.08-13.33,24.67-20.09,36.95c-6.81,12.38-14.26,24.49-23.58,35.15c-2.43,2.79-4.94,5.52-7.74,7.94
			c-2.7,2.33-5.52,4.54-8.45,6.58c-5.73,4-11.88,7.37-18.26,10.21c-7.26,3.23-15.3,4.97-23.12,6.2c-7.8,1.23-15.7,1.73-23.58,1.8
			c-15.71,0.15-31.35-1.42-47-2.61c-1.92-0.15-3.84-0.29-5.76-0.42C1003,192.2,1003.01,195.2,1004.93,195.33L1004.93,195.33z"/>
	</g>
</g>
<g>
	<g>
		<path class="st0" d="M1838.21,149.14c20.06,2.34,40.17,6.83,59.01,14.2c9.14,3.58,17.99,7.83,26.85,12.02
			c7.14,3.38,14.25,7,21.97,8.85c6.56,1.57,13.68,2.15,20.22,0.19c6.75-2.03,12.2-6.91,14.95-13.41c3.05-7.2,2.42-15.31,0.55-22.73
			c-1.94-7.68-5.23-14.96-8.75-22.03c-7.8-15.65-17.93-31.4-19.04-49.33c-0.49-7.87,1.06-15.55,5.09-22.37
			c3.76-6.36,9.25-11.57,15.39-15.62c11.24-7.41,24.86-11.29,38.3-11.26c13.07,0.03,26.49,4.2,34.96,14.65
			c11.04,13.63,8.75,32.27,2.82,47.55c-6.69,17.25-18.59,31.88-25.44,49.07c-1.77,4.46-3.17,9.05-4.05,13.77
			c-0.35,1.89,2.54,2.7,2.89,0.8c3.55-19.03,15.56-34.58,24.28-51.41c7.77-14.98,13.87-33.42,8.16-50.14
			c-4.72-13.81-16.83-22.95-30.82-25.96c-13.21-2.85-27.48-1.1-39.99,3.82c-13.51,5.31-26.17,14.95-31.81,28.69
			c-6.82,16.63-0.53,34.9,6.89,50.16c3.72,7.64,7.88,15.05,11.52,22.72c3.45,7.26,6.53,14.88,7.74,22.87
			c1.12,7.45,0.12,15.48-5.05,21.3c-4.54,5.12-11.14,7.13-17.83,7.09c-6.79-0.04-13.56-1.85-19.79-4.47
			c-8.95-3.78-17.59-8.29-26.44-12.29c-9.13-4.12-18.42-7.77-28.02-10.63c-9.82-2.93-19.82-5.27-29.92-7
			c-4.87-0.84-9.76-1.53-14.66-2.1C1836.29,145.92,1836.31,148.92,1838.21,149.14L1838.21,149.14z"/>
	</g>
</g>
<g>
	<g>
		<path class="st0" d="M2019.24,159.69c-1.69,5.32-8.1,5.23-11.95,2.29c-5.91-4.51-5.27-14.12-4.38-20.62
			c1.17-8.59,3.1-17.13,4.69-25.65c1.48-7.87,3.84-16.15,3.48-24.21c-0.28-6.35-3.03-12.47-9.09-15.16
			c-5.45-2.42-11.81-1.89-17.54-0.97c-2.8,0.45-5.57,1.62-6.24,4.67c-0.57,2.6,0.76,5.5,2.83,7.07c2.86,2.17,6.61,1.34,9.75,0.33
			c4.16-1.35,8.31-2.71,12.52-3.92c4.71-1.36,9.45-2.59,14.23-3.7c2.28-0.53,7.7-2.01,9.12,1.07c1.79,3.88-7.95,4.05-9.83,3.95
			c-4.58-0.24-8.89-1.88-12.67-4.44c-0.78-0.53-2-0.01-2.2,0.9c-3.91,17.39-6.88,34.97-8.91,52.68c-0.51,4.47-0.96,8.95-1.35,13.44
			c-0.35,4.03-0.88,8.15-0.47,12.2c0.65,6.46,4.47,11.41,11.07,12.34c3.48,0.49,6.91-0.1,10.3-0.87c4.61-1.05,9.59-2.36,14.03-0.05
			c-0.1-0.79-0.2-1.57-0.3-2.36c-6.27,6.31-15.23,5.88-23.47,5.47c-8.17-0.41-16.79-0.8-23.97,3.8c-0.9,0.58-1.04,2.05,0,2.59
			c15.99,8.31,32.5-6.33,48.83-1.51c-0.12-0.91-0.24-1.83-0.36-2.74c-9.49,4.49-19.93,6.78-30.44,6.42
			c-6.62-0.22-15.33-1.19-18.63,6.1c-0.33,0.72-0.23,1.63,0.54,2.05c10.76,5.89,23.47,3.29,35.02,1.83
			c13.49-1.71,26.96-3.53,40.43-5.41c27.22-3.8,54.4-7.83,81.63-11.52c27.3-3.71,54.66-7.08,82.11-9.55
			c27.24-2.45,54.58-4.01,81.93-4.11c25.48-0.09,51.68,0.39,76.01,8.81c3.16,1.09,6.26,2.32,9.31,3.68c1.75,0.78,3.28-1.8,1.51-2.59
			c-23.11-10.31-48.47-12.47-73.48-12.84c-27.29-0.4-54.58,0.77-81.78,2.9c-27.33,2.15-54.56,5.28-81.74,8.84
			c-27.11,3.55-54.17,7.51-81.24,11.36c-13.73,1.95-27.46,3.87-41.21,5.68c-6.87,0.91-13.74,1.79-20.61,2.63
			c-5.84,0.72-11.87,1.48-17.73,0.57c-3.04-0.47-5.93-1.41-8.63-2.88c0.18,0.68,0.36,1.37,0.54,2.05c3.3-7.3,14.19-4.41,20.44-4.62
			c9.57-0.33,18.91-2.75,27.55-6.83c1.22-0.58,0.8-2.4-0.36-2.74c-7.96-2.35-16.13-0.3-23.93,1.63c-7.9,1.96-16.53,4.15-24.18,0.18
			c0,0.86,0,1.73,0,2.59c14.61-9.38,34.85,3.54,48.05-9.74c0.65-0.66,0.56-1.91-0.3-2.36c-6.71-3.49-13.38-0.36-20.28,0.53
			c-2.84,0.36-5.96,0.32-8.58-0.98c-3.23-1.61-4.69-4.93-5.06-8.37c-0.41-3.77,0.08-7.64,0.4-11.4c0.36-4.22,0.77-8.44,1.24-12.65
			c0.95-8.54,2.13-17.05,3.53-25.53c1.55-9.36,3.37-18.68,5.45-27.93c-0.73,0.3-1.47,0.6-2.2,0.9c6.34,4.29,14.29,6,21.77,4.1
			c2.78-0.71,5.48-2.47,5.41-5.67c-0.06-2.53-2.24-4.17-4.45-4.9c-3.17-1.04-6.24-0.16-9.38,0.58c-4.52,1.06-9.01,2.24-13.48,3.52
			c-4.32,1.24-8.57,2.66-12.85,4.02c-1.93,0.62-4.36,1.39-6.3,0.4c-1.37-0.7-2.48-2.57-2.25-4.13c0.46-3.19,6.45-3.03,8.85-3.19
			c3.16-0.22,6.4-0.16,9.44,0.82c7.83,2.51,9.22,10.72,8.53,17.94c-0.42,4.46-1.42,8.86-2.24,13.26c-0.87,4.64-1.74,9.28-2.61,13.93
			c-1.57,8.36-3.9,17.02-3.66,25.59c0.19,6.87,2.48,14.29,9.42,16.96c5.43,2.09,11.48,0.04,13.31-5.72
			C2022.72,158.64,2019.82,157.85,2019.24,159.69L2019.24,159.69z"/>
	</g>
</g>
<g>
	<g>
		<path class="st0" d="M2021.3,159.67c1.19-2.37,2.38-4.74,3.57-7.12c0.35-0.7,0.21-1.66-0.54-2.05c-0.68-0.36-1.68-0.21-2.05,0.54
			c-1.19,2.37-2.38,4.74-3.57,7.12c-0.35,0.7-0.21,1.66,0.54,2.05C2019.93,160.57,2020.92,160.42,2021.3,159.67L2021.3,159.67z"/>
	</g>
</g>
<g>
	<g>
		<path class="st0" d="M13.6,173.78c32.87,11.41,66.78,19.44,101.01,25.56c8.75,1.56,17.52,3.01,26.3,4.36
			c4.24,0.65,8.49,1.4,12.75,1.9c4.04,0.47,8.01-0.2,12.05-0.35c3.99-0.14,7.82,0.9,11.79,1.13c4.1,0.23,8.2,0.27,12.3,0.5
			c8.07,0.46,16.16,0.66,24.25,0.56c31.43-0.37,63.03-5.11,92.61-15.96c14.49-5.32,29.72-11.73,42.02-21.18
			c10.79-8.29,21.37-16.91,31.08-26.48c19.29-19.01,35.17-42.46,37.61-70.1c1.1-12.41-2.78-25.07-10.71-34.69
			c-8.73-10.59-22.13-15.98-35.73-15.65c-31.09,0.75-51.07,30.67-54.48,59c-3.76,31.35,11.29,62.46,36.05,81.45
			c11.64,8.93,25.28,14.73,39.55,17.9c17.23,3.83,34.89,5.52,52.52,5.75c35.75,0.46,71.2-4.9,106.72-8.04
			c8.59-0.76,17.2-1.38,25.82-1.78c1.92-0.09,1.93-3.09,0-3c-33.85,1.57-67.39,6.79-101.2,8.94c-16.92,1.07-33.93,1.36-50.84,0.01
			c-16.33-1.3-33.23-3.65-48.55-9.67c-27.92-10.98-50.06-36.04-56.02-65.64c-5.7-28.3,4.25-63.57,31.7-77.32
			c13.15-6.59,30.02-6.21,42.59,1.59c10.96,6.8,17.99,19,19.48,31.7c1.52,12.91-2.37,26.77-7.78,38.4
			c-5.56,11.97-13.46,22.7-22.38,32.37c-8.99,9.75-19.02,18.5-29.38,26.77c-5.34,4.27-10.62,8.51-16.57,11.89
			c-6.79,3.84-13.79,7.31-20.95,10.4c-28.12,12.11-58.59,18.23-89.09,19.9c-7.6,0.42-15.21,0.56-22.82,0.45
			c-7.4-0.1-14.78-0.8-22.18-0.93c-4-0.07-7.79-0.27-11.73-0.95c-4.01-0.69-8.02-0.08-12.05,0.15c-8.27,0.47-16.91-1.76-25.05-3.07
			c-32.64-5.24-65.11-11.85-96.81-21.3c-7.75-2.31-15.45-4.8-23.09-7.45C12.57,170.25,11.79,173.15,13.6,173.78L13.6,173.78z"/>
	</g>
</g>
<g>
	<g>
		<path class="st0" d="M573.78,178.15c28.45-2.27,56.95-4.03,85.46-5.26c28.17-1.21,56.4-2.17,84.59-1.85
			c28.2,0.32,56.17,3.08,84.19,6.08c28.1,3.01,56.21,6.01,84.31,9.02c31.83,3.41,63.66,6.81,95.5,10.22c1.92,0.21,1.9-2.8,0-3
			c-56.5-6.04-112.99-12.09-169.49-18.13c-28-3-56-6.25-84.17-6.99c-28.17-0.74-56.41,0.15-84.56,1.24
			c-31.98,1.23-63.93,3.13-95.83,5.68C571.87,175.3,571.86,178.3,573.78,178.15L573.78,178.15z"/>
	</g>
</g>
<g>
	<g>
		<path class="st0" d="M1354.61,208.52c30.88-7.69,61.89-14.89,93-21.6c31.11-6.71,62.33-12.92,93.64-18.63
			c31.31-5.71,62.71-10.93,94.18-15.65c31.8-4.76,63.76-9.76,95.87-11.75c32.15-1.99,63.97,0.82,95.66,6.28
			c3.89,0.67,7.78,1.37,11.66,2.1c1.89,0.35,2.7-2.54,0.8-2.89c-31.42-5.85-63.17-10.03-95.19-9.08
			c-32.01,0.95-63.85,5.79-95.5,10.37c-31.81,4.61-63.55,9.74-95.19,15.37c-31.49,5.6-62.89,11.71-94.18,18.31
			c-31.45,6.64-62.79,13.78-94.01,21.42c-3.84,0.94-7.69,1.89-11.53,2.85C1351.94,206.09,1352.73,208.98,1354.61,208.52
			L1354.61,208.52z"/>
	</g>
</g>
<g>
	<g>
		<path class="st0" d="M1229.07,21.44c2.06-1.74,4.08-3.54,6.03-5.4c-0.84-0.22-1.67-0.44-2.51-0.66c0.27,0.72,0.47,1.46,0.63,2.22
			c0.08,0.38,0.14,0.76,0.2,1.14c0.07,0.42,0.11,0.73,0.14,1c0.21,1.64,0.39,3.29,0.82,4.89c0.2,0.76,1.08,1.3,1.85,1.05
			c0.78-0.25,1.27-1.03,1.05-1.85c-0.82-3.04-0.64-6.16-1.79-9.25c-0.39-1.05-1.64-1.49-2.51-0.66c-1.96,1.86-3.97,3.66-6.03,5.4
			c-0.6,0.51-0.56,1.61,0,2.12C1227.59,22.03,1228.42,21.98,1229.07,21.44L1229.07,21.44z"/>
	</g>
</g>
<g>
	<g>
		<path class="st0" d="M1245.16,107.7c0.43,1.19,0.77,2.41,1,3.65c0.06,0.3,0.11,0.61,0.16,0.92c0.07,0.46-0.03-0.3,0.02,0.17
			c0.02,0.17,0.04,0.33,0.06,0.5c0.07,0.64,0.1,1.28,0.12,1.93c0.75-0.43,1.5-0.86,2.26-1.3c-1.42-0.69-2.83-1.45-4.3-2.03
			c-0.56-0.23-1.15-0.38-1.72-0.58c-0.14-0.05-0.3-0.09-0.43-0.16c0.36,0.18-0.09-0.05-0.15-0.09c-0.11-0.06-0.3-0.14-0.38-0.24
			c0.16,0.12,0.17,0.13,0.04,0.02c-0.06-0.05-0.11-0.1-0.16-0.16c-0.55-0.57-1.58-0.59-2.12,0c-0.56,0.61-0.58,1.52,0,2.12
			c1.01,1.05,2.4,1.35,3.71,1.82c0.05,0.02,0.57,0.22,0.31,0.11c0.18,0.07,0.35,0.16,0.52,0.24c0.35,0.16,0.7,0.34,1.04,0.5
			c0.7,0.34,1.41,0.69,2.11,1.03c0.98,0.48,2.28-0.09,2.26-1.3c-0.06-2.7-0.54-5.41-1.46-7.95c-0.27-0.74-1.03-1.31-1.85-1.05
			C1245.48,106.09,1244.87,106.91,1245.16,107.7L1245.16,107.7z"/>
	</g>
</g>
<g>
</g>
<g>
</g>
<g>
</g>
<g>
</g>
<g>
</g>
<g>
</g>
<g>
</g>
<g>
</g>
<g>
</g>
<g>
</g>
<g>
</g>
<g>
</g>
<g>
</g>
<g>
</g>
<g>
</g>
</svg>
