<?xml version="1.0" encoding="utf-8"?>
<!-- Generator: Adobe Illustrator 27.3.1, SVG Export Plug-In . SVG Version: 6.00 Build 0)  -->
<svg version="1.1" xmlns="http://www.w3.org/2000/svg" xmlns:xlink="http://www.w3.org/1999/xlink" x="0px" y="0px"
	 viewBox="0 0 1000 1000" style="enable-background:new 0 0 1000 1000;" xml:space="preserve">
<style type="text/css">
	.st0{display:none;}
	.st1{display:inline;}
	.st2{fill:#439775;}
	.st3{fill:#FFFFFF;}
</style>
<g id="Layer_1" class="st0">
	<g class="st1">
		<ellipse class="st2" cx="499.62" cy="501.75" rx="492.53" ry="493.25"/>
	</g>
	<g class="st1">
		<g>
			<g>
				<path class="st3" d="M10.13,498.34c46.28-1.11,92.18,5.52,138.01,11c45.69,5.47,92.12,9.65,138,3.8
					c39.67-5.06,78.51-18.15,111-41.88c32.58-23.8,58.5-55.36,80.44-88.94c24.3-37.19,44.06-77.06,66.56-115.31
					c2.87-4.89,5.8-9.75,8.77-14.58c2.03-3.3-3.16-6.31-5.18-3.03c-23.14,37.57-42.71,77.19-65.78,114.8
					c-21.11,34.4-45.52,67.36-76.77,93.26c-30.9,25.6-68.04,41.16-107.44,47.94c-44.3,7.62-89.82,4.63-134.24-0.28
					c-45.37-5.01-90.62-12.26-136.36-12.87c-5.67-0.08-11.33-0.04-17,0.09C6.27,492.43,6.26,498.43,10.13,498.34L10.13,498.34z"/>
			</g>
		</g>
		<g>
			<g>
				<path class="st3" d="M549.61,255.25c5.62-2.41,6.84-9.2,5.24-14.53c-0.83-2.79-2.34-5.45-4.42-7.49
					c-2.52-2.48-5.93-3.93-9.28-4.88c-6.86-1.95-14.86-1.4-21.04-5.09c-1.37-0.82-2.57-1.76-3.68-2.92
					c-0.89-0.93-1.84-2.27-2.25-3.25c-0.23-0.55-0.5-1.52-0.55-1.87c-0.04-0.28-0.03-1.52-0.01-1.64c0.23-1.41,0.87-2.59,1.83-3.62
					c2.42-2.59,5.85-4.19,8.88-5.95c3.73-2.17,7.47-4.33,11.23-6.47c7.57-4.32,15.18-8.58,22.82-12.78
					c15.21-8.35,30.56-16.46,46.04-24.31c15.48-7.85,31.08-15.45,46.81-22.79c1.96-0.91,3.92-1.82,5.88-2.73
					c-1.47-0.6-2.94-1.2-4.41-1.79c6.44,27.89,12.04,55.97,16.77,84.19c2.35,14.03,4.49,28.1,6.42,42.2
					c0.96,7.03,1.86,14.06,2.71,21.1c0.21,1.7,0.41,3.41,0.61,5.12c0.16,1.38,0.59,3.16,0.1,4.51c-0.06,0.18-0.62,0.98-0.33,0.66
					c-0.05,0.06-0.71,0.62-0.22,0.26c-0.15,0.11-0.31,0.2-0.46,0.29c-0.68,0.4,0.48-0.07-0.3,0.14c-0.28,0.08-0.55,0.15-0.83,0.22
					c-0.09,0.02-0.58,0.08-0.08,0.02c-0.41,0.05-0.82,0.06-1.23,0.05c-2.37-0.02-4.96-0.93-7.52-1.9
					c-3.89-1.48-7.78-2.96-11.68-4.45c-7.63-2.9-15.26-5.81-22.88-8.71c-1.51-0.58-3.29,0.64-3.69,2.1
					c-0.46,1.69,0.58,3.11,2.1,3.69c7.16,2.73,14.32,5.45,21.48,8.18c3.42,1.3,6.85,2.61,10.27,3.91c2.8,1.07,5.59,2.3,8.56,2.83
					c2.67,0.47,5.43,0.58,7.97-0.5c2.98-1.27,4.68-4.01,4.95-7.19c0.14-1.61-0.13-3.23-0.31-4.82c-0.23-1.95-0.46-3.9-0.7-5.85
					c-0.43-3.57-0.88-7.14-1.35-10.71c-3.82-29.46-8.54-58.8-14.19-87.96c-3.18-16.38-6.65-32.69-10.4-48.95
					c-0.47-2.04-2.74-2.56-4.41-1.79c-15.75,7.28-31.39,14.81-46.9,22.6c-15.51,7.79-30.89,15.83-46.13,24.12
					c-7.59,4.13-15.14,8.32-22.66,12.57c-7.42,4.2-14.96,8.29-22.19,12.81c-3.17,1.98-6.16,4.41-7.64,7.93
					c-1.47,3.48-1.07,7.23,0.59,10.56c3.33,6.67,10.55,10.13,17.53,11.43c3.7,0.69,7.45,1.06,11.12,1.91
					c1.67,0.38,3.35,0.85,4.91,1.55c0.77,0.35,1.53,0.75,2.24,1.2c0.16,0.1,0.31,0.21,0.47,0.32c-0.05-0.03-0.31-0.25-0.04-0.04
					c0.26,0.21,0.51,0.43,0.75,0.66c1.74,1.67,2.74,3.58,3.27,6.05c0.03,0.13,0.16,0.84,0.12,0.57c-0.05-0.34,0.01,0.11,0.02,0.15
					c0.01,0.18,0.03,0.36,0.04,0.55c0.03,0.62,0.02,1.25-0.05,1.87c0.06-0.54-0.02,0-0.07,0.22c-0.07,0.29-0.15,0.57-0.24,0.85
					c-0.04,0.12-0.08,0.24-0.13,0.35c0.02-0.04,0.22-0.44,0.05-0.15c-0.16,0.29-0.33,0.57-0.5,0.85c-0.17,0.28,0.07-0.08,0.1-0.11
					c-0.11,0.13-0.21,0.25-0.33,0.37c-0.18,0.18-0.36,0.35-0.55,0.51c0.4-0.33-0.07,0.02-0.24,0.13c-0.31,0.19-0.64,0.34-0.98,0.48
					c-1.49,0.64-1.82,2.83-1.08,4.1C546.4,255.71,548.11,255.89,549.61,255.25L549.61,255.25z"/>
			</g>
		</g>
		<g>
			<g>
				<path class="st3" d="M970.71,630.76c-20.42-13.77-43.47-22.65-66.72-30.36c-24.76-8.21-50.32-14.14-76.56-13.88
					c-22.92,0.23-45.86,4.6-67.27,12.76c-21.39,8.15-41.27,19.94-58.57,34.93c-17.91,15.51-33.04,34.38-44.24,55.26
					c-1.4,2.6-2.73,5.24-4,7.91c-0.7,1.46-0.4,3.24,1.08,4.1c1.31,0.77,3.4,0.39,4.1-1.08c10.03-20.97,23.87-39.96,40.72-55.98
					c16.19-15.39,35.12-27.76,55.63-36.59c20.25-8.71,42.14-13.82,64.14-15.04c25.48-1.41,50.61,3.05,74.87,10.63
					c22.81,7.13,45.68,15.26,66.22,27.67c2.57,1.55,5.09,3.17,7.57,4.85C970.89,638.11,973.89,632.91,970.71,630.76L970.71,630.76z"
					/>
			</g>
		</g>
		<g>
			<g>
				<path class="st3" d="M654.46,694.65c-0.63,25-0.61,50.02,0.07,75.03c0.19,7.12,0.44,14.24,0.74,21.35c0.07,1.62,1.33,3,3,3
					c1.57,0,3.07-1.37,3-3c-1.05-24.99-1.45-50.01-1.19-75.02c0.07-7.12,0.2-14.24,0.38-21.36
					C660.56,690.78,654.56,690.79,654.46,694.65L654.46,694.65z"/>
			</g>
		</g>
		<g>
			<g>
				<path class="st3" d="M658.55,794.9c21.45,2.49,43.07,3.34,64.65,2.52c6.09-0.23,12.18-0.6,18.26-1.1c1.61-0.13,3-1.28,3-3
					c0-1.52-1.38-3.13-3-3c-21.52,1.75-43.16,1.86-64.7,0.3c-6.08-0.44-12.15-1.02-18.21-1.72c-1.61-0.19-3,1.51-3,3
					C655.55,793.68,656.94,794.71,658.55,794.9L658.55,794.9z"/>
			</g>
		</g>
		<g>
			<g>
				<path class="st3" d="M745.69,792.24c0-58.07,0-116.13,0-174.2c0-57.77,0-115.54,0-173.31c0-32.59,0-65.18,0-97.76
					c0-3.86-6-3.87-6,0c0,58.07,0,116.13,0,174.2c0,57.77,0,115.54,0,173.31c0,32.59,0,65.18,0,97.76
					C739.69,796.1,745.69,796.1,745.69,792.24L745.69,792.24z"/>
			</g>
		</g>
		<g>
			<g>
				<path class="st3" d="M743.91,343.96c-23.44,0-46.88,0-70.32,0c-6.65,0-13.3,0-19.95,0c-3.86,0-3.87,6,0,6
					c23.44,0,46.88,0,70.32,0c6.65,0,13.3,0,19.95,0C747.77,349.96,747.78,343.96,743.91,343.96L743.91,343.96z"/>
			</g>
		</g>
		<g>
			<g>
				<path class="st3" d="M656.07,349.96c3.86,0,3.87-6,0-6C652.21,343.96,652.21,349.96,656.07,349.96L656.07,349.96z"/>
			</g>
		</g>
		<g>
			<g>
				<path class="st3" d="M653.07,346.96c0,33.89,0,67.77,0,101.66c0,33.71,0,67.42,0,101.14c0,19.02,0,38.03,0,57.05
					c0,3.86,6,3.87,6,0c0-33.89,0-67.77,0-101.66c0-33.71,0-67.42,0-101.14c0-19.02,0-38.03,0-57.05
					C659.07,343.1,653.07,343.1,653.07,346.96L653.07,346.96z"/>
			</g>
		</g>
		<g>
			<g>
				<path class="st3" d="M655.57,600.15c-3.02,16.66-6.01,33.67-12.95,49.23c-5.64,12.66-14.08,24.63-25.78,32.33
					c-6.55,4.31-13.83,6.88-21.47,8.48c-8.54,1.79-17.31,2.7-26,3.38c-4.49,0.35-8.98,0.59-13.48,0.73
					c-4.32,0.13-8.7,0.31-13.02,0.02c-3.51-0.24-6.97-1.16-9.67-3.51c-2.71-2.36-4.65-5.39-6.32-8.54
					c-7.42-13.94-10.49-30.09-9.14-45.79c0.16-1.91,0.4-3.82,0.71-5.71c0.26-1.6-0.42-3.23-2.1-3.69c-1.43-0.39-3.43,0.49-3.69,2.1
					c-2.78,17.02-0.62,34.46,6.23,50.29c3.07,7.09,7.22,15.16,14.55,18.63c4.07,1.93,8.54,2.32,12.99,2.35
					c4.7,0.03,9.41-0.09,14.11-0.32c9.44-0.44,18.87-1.35,28.22-2.71c8.72-1.27,17.37-3.22,25.3-7.17
					c13.49-6.72,23.85-18.73,30.83-31.89c8.24-15.51,12.06-32.85,15.24-49.98c0.41-2.21,0.81-4.42,1.21-6.64
					c0.29-1.59-0.43-3.23-2.1-3.69C657.81,597.66,655.86,598.55,655.57,600.15L655.57,600.15z"/>
			</g>
		</g>
		<g>
			<g>
				<path class="st3" d="M517.56,632.43c0-21.13,0-42.27,0-63.4c0-21.05,0-42.1,0-63.15c0-11.9,0-23.8,0-35.7c0-3.86-6-3.87-6,0
					c0,21.13,0,42.27,0,63.4c0,21.05,0,42.1,0,63.15c0,11.9,0,23.8,0,35.7C511.56,636.29,517.56,636.29,517.56,632.43L517.56,632.43
					z"/>
			</g>
		</g>
		<g>
			<g>
				<path class="st3" d="M514.56,474.4c3.86,0,3.87-6,0-6C510.7,468.4,510.69,474.4,514.56,474.4L514.56,474.4z"/>
			</g>
		</g>
		<g>
			<g>
				<path class="st3" d="M514.56,474.4c22.79,0,45.58,0,68.37,0c6.49,0,12.98,0,19.46,0c3.86,0,3.87-6,0-6c-22.79,0-45.58,0-68.37,0
					c-6.49,0-12.98,0-19.46,0C510.7,468.4,510.69,474.4,514.56,474.4L514.56,474.4z"/>
			</g>
		</g>
		<g>
			<g>
				<path class="st3" d="M598.18,471.4c0,41.87,0,83.74,0,125.6s0,83.74,0,125.6c0,23.62,0,47.24,0,70.85c0,3.86,6,3.87,6,0
					c0-41.87,0-83.74,0-125.6c0-41.87,0-83.74,0-125.6c0-23.62,0-47.24,0-70.85C604.18,467.53,598.18,467.53,598.18,471.4
					L598.18,471.4z"/>
			</g>
		</g>
		<g>
			<g>
				<path class="st3" d="M598.74,790.46c-21.92,0-43.83,0-65.75,0c-6.14,0-12.29,0-18.43,0c-3.86,0-3.87,6,0,6
					c21.92,0,43.83,0,65.75,0c6.14,0,12.29,0,18.43,0C602.6,796.46,602.6,790.46,598.74,790.46L598.74,790.46z"/>
			</g>
		</g>
		<g>
			<g>
				<path class="st3" d="M520,792.24c0-18.66,0-37.32,0-55.98c0-5.33,0-10.66,0-15.99c0-3.86-6-3.87-6,0c0,18.66,0,37.32,0,55.98
					c0,5.33,0,10.66,0,15.99C514,796.1,520,796.1,520,792.24L520,792.24z"/>
			</g>
		</g>
		<g>
			<g>
				<path class="st3" d="M520.34,725.21c0.87-6.9-3.16-13.6-8.76-17.35c-5.77-3.87-13.18-4.72-19.94-3.85
					c-11.32,1.46-21.19,7.36-30.33,13.87c-9.09,6.48-17.83,13.77-28.07,18.41c-4.59,2.08-10.34,3.64-15.42,3.78
					c-6.46,0.18-12.93-1.37-18.67-4.35c-13.11-6.81-21.53-20.46-23.35-34.96c-0.2-1.61-1.23-3-3-3c-1.46,0-3.2,1.38-3,3
					c1.73,13.74,8.17,26.95,19.24,35.56c10.8,8.39,24.93,11.81,38.26,8.4c10.95-2.8,20.36-9.46,29.34-16.05
					c8.74-6.41,17.94-13.58,27.95-16.93c6.19-2.07,12.63-3,19.12-1.01c6.45,1.98,11.49,7.66,10.63,14.48c-0.2,1.61,1.52,3,3,3
					C519.13,728.21,520.14,726.82,520.34,725.21L520.34,725.21z"/>
			</g>
		</g>
		<g>
			<g>
				<path class="st3" d="M376.05,697.08c0-28.22,0-56.45,0-84.67c0-7.97,0-15.94,0-23.91c0-3.86-6-3.87-6,0c0,28.22,0,56.45,0,84.67
					c0,7.97,0,15.94,0,23.91C370.05,700.94,376.05,700.95,376.05,697.08L376.05,697.08z"/>
			</g>
		</g>
		<g>
			<g>
				<path class="st3" d="M374.27,592.73c21.92,0,43.83,0,65.75,0c6.14,0,12.29,0,18.43,0c3.86,0,3.87-6,0-6
					c-21.92,0-43.83,0-65.75,0c-6.14,0-12.29,0-18.43,0C370.41,586.73,370.4,592.73,374.27,592.73L374.27,592.73z"/>
			</g>
		</g>
		<g>
			<g>
				<path class="st3" d="M455.45,589.73c0,26.66,0,53.32,0,79.98c0,26.66,0,53.32,0,79.98c0,15,0,29.99,0,44.99c0,3.86,6,3.87,6,0
					c0-26.66,0-53.32,0-79.98s0-53.32,0-79.98c0-15,0-29.99,0-44.99C461.45,585.87,455.45,585.86,455.45,589.73L455.45,589.73z"/>
			</g>
		</g>
		<g>
			<g>
				<path class="st3" d="M458.45,792.9c-22.79,0-45.58,0-68.37,0c-6.49,0-12.98,0-19.46,0c-3.86,0-3.87,6,0,6
					c22.79,0,45.58,0,68.37,0c6.49,0,12.98,0,19.46,0C462.31,798.9,462.31,792.9,458.45,792.9L458.45,792.9z"/>
			</g>
		</g>
		<g>
			<g>
				<path class="st3" d="M374.83,794.68c0-11.39,0-22.77,0-34.16c0-3.86-6-3.87-6,0c0,11.39,0,22.77,0,34.16
					C368.83,798.54,374.83,798.54,374.83,794.68L374.83,794.68z"/>
			</g>
		</g>
		<g>
			<g>
				<path class="st3" d="M373.4,770.04c5.28-10.19-0.75-22.61-10.11-28.02c-5.49-3.17-11.88-4.38-18.15-4.62
					c-6.52-0.25-13.18,0.36-19.61,1.38c-3.25,0.51-6.48,1.26-9.55,2.45c-3.19,1.24-6.09,2.91-8.94,4.8
					c-2.66,1.76-5.3,3.61-8.24,4.88c-2.76,1.19-5.75,1.88-8.71,2.34c-3.08,0.48-6.21,0.63-9.32,0.74c-3.12,0.11-6.26,0.26-9.38,0.08
					c-2.73-0.15-5.56-0.6-7.99-1.93c-2.23-1.22-3.85-3.01-5.15-5.17c-1.51-2.52-2.45-5.17-3.3-7.98c-0.88-2.89-1.69-5.81-2.22-8.79
					c-0.24-1.33-0.36-2.37-0.43-3.83c-0.03-0.7-0.04-1.4-0.01-2.09c0.01-0.29,0.03-0.57,0.05-0.85c0.01-0.12,0.13-1.06,0.07-0.71
					c0.18-1.13,0.63-2.66,0.96-3.31c0.7-1.37,1.21-1.97,2.37-2.96c1.23-1.05,1.08-3.16,0-4.24c-1.22-1.22-3-1.05-4.24,0
					c-8.71,7.42-4.78,21.37-1.64,30.55c1.89,5.53,4.69,10.96,9.8,14.14c5.47,3.41,12.23,3.34,18.45,3.17
					c6.53-0.19,13.23-0.44,19.52-2.39c3.21-1,6.22-2.47,9.06-4.26c2.71-1.71,5.3-3.62,8.13-5.13c5.58-2.97,12.02-3.86,18.23-4.43
					c6.11-0.56,12.44-0.96,18.5,0.23c5.93,1.16,11.42,3.85,14.73,8.68c1.61,2.35,2.64,4.62,3.05,7.49
					c-0.07-0.51,0.05,0.57,0.05,0.53c0.02,0.33,0.04,0.66,0.04,0.99c0,0.33,0,0.66-0.02,0.99c0-0.02-0.08,0.95-0.03,0.52
					c-0.18,1.43-0.6,2.65-1.16,3.72c-0.75,1.44-0.37,3.26,1.08,4.1C370.64,771.9,372.65,771.48,373.4,770.04L373.4,770.04z"/>
			</g>
		</g>
		<g>
			<g>
				<path class="st3" d="M249.84,717.16c17.7,0,35.4,0,53.11,0c5.07,0,10.14,0,15.21,0c3.86,0,3.87-6,0-6c-17.7,0-35.4,0-53.11,0
					c-5.07,0-10.14,0-15.21,0C245.98,711.16,245.97,717.16,249.84,717.16L249.84,717.16z"/>
			</g>
		</g>
		<g>
			<g>
				<path class="st3" d="M315.15,715.38c0,20.61,0,41.23,0,61.84c0,5.82,0,11.64,0,17.46c0,3.86,6,3.87,6,0c0-20.61,0-41.23,0-61.84
					c0-5.82,0-11.64,0-17.46C321.15,711.52,315.15,711.51,315.15,715.38L315.15,715.38z"/>
			</g>
		</g>
		<g>
			<g>
				<path class="st3" d="M316.93,797.68c3.86,0,3.87-6,0-6C313.07,791.68,313.07,797.68,316.93,797.68L316.93,797.68z"/>
			</g>
		</g>
		<g>
			<g>
				<path class="st3" d="M316.93,791.68c-21.57,0-43.14,0-64.72,0c-6.08,0-12.16,0-18.24,0c-3.86,0-3.87,6,0,6
					c21.57,0,43.14,0,64.72,0c6.08,0,12.16,0,18.24,0C320.79,797.68,320.8,791.68,316.93,791.68L316.93,791.68z"/>
			</g>
		</g>
		<g>
			<g>
				<path class="st3" d="M235.76,791.02c0-29.49,0-58.98,0-88.46c0-8.33,0-16.66,0-24.99c0-3.86-6-3.87-6,0c0,29.49,0,58.98,0,88.46
					c0,8.33,0,16.66,0,24.99C229.76,794.88,235.76,794.88,235.76,791.02L235.76,791.02z"/>
			</g>
		</g>
		<g>
			<g>
				<path class="st3" d="M235.7,681.92c3.74-11.88,14.3-19.7,24.98-25.08c12.24-6.17,25.73-9.47,37.82-15.99
					c6.06-3.27,11.68-7.38,16.34-12.47c4.81-5.26,8.74-11.3,12.06-17.59c6.88-13.02,11.47-27.86,10.29-42.72
					c-0.99-12.46-6.2-24.76-15.41-33.38c-10.5-9.83-24.46-12.3-38.39-10.65c-7.8,0.93-15.49,2.68-23.09,4.65
					c-7.64,1.98-15.26,4.22-22.66,6.97c-5.54,2.06-11.38,4.72-15.28,9.33c-4.05,4.78-5.5,11.11-3.42,17.11
					c4.94,14.23,20.63,17.37,33.97,16.7c15.2-0.77,30.14-4.29,44.49-9.22c14.4-4.95,28.29-11.26,42.05-17.75
					c14.91-7.03,29.79-14.14,44.68-21.22c27.91-13.26,56.28-26.14,81.84-43.68c13.12-9,25.26-19.3,37.16-29.83
					c10.49-9.29,20.87-18.7,31.02-28.36c19.99-19.05,39.05-39.13,55.83-61.09c16.48-21.57,30.55-45.04,40.28-70.44
					c2.4-6.28,4.52-12.66,6.36-19.13c1.06-3.72-4.73-5.31-5.79-1.6c-7.14,25.14-18.83,48.66-33.31,70.36
					c-14.67,21.99-32.07,42.03-50.56,60.87c-19.23,19.58-39.57,38.27-60.55,55.96c-11.53,9.73-23.62,18.64-36.51,26.49
					c-12.62,7.69-25.75,14.51-39.02,21.01c-13.94,6.83-28.01,13.41-42.04,20.07c-13.88,6.59-27.7,13.3-41.67,19.7
					c-13.45,6.16-27.14,11.9-41.37,16.01c-6.93,2-13.97,3.61-21.1,4.67c-6.89,1.03-14.07,1.7-21.03,1.06
					c-6.26-0.58-12.75-2.8-16.65-7.99c-3.36-4.46-4.25-10.3-0.81-14.98c3.18-4.32,8.68-6.69,13.56-8.46
					c7.24-2.64,14.66-4.84,22.11-6.77c13.78-3.57,29.37-7.6,43.37-2.95c11.02,3.66,19.24,13.32,23.15,24.01
					c4.65,12.73,3.33,26.58-1,39.2c-4.37,12.73-11.61,25.72-22.07,34.42c-10.31,8.58-23.59,12.54-35.87,17.34
					c-11.27,4.4-22.65,9.89-30.92,19c-3.91,4.3-6.89,9.27-8.64,14.82C228.75,684.02,234.54,685.6,235.7,681.92L235.7,681.92z"/>
			</g>
		</g>
	</g>
</g>
<g id="Layer_2">
	<g>
		<g>
			<path d="M902.19,586.94c1.93,0,1.93-3,0-3C900.26,583.94,900.25,586.94,902.19,586.94L902.19,586.94z"/>
		</g>
	</g>
	<g>
		<ellipse class="st2" cx="498.5" cy="500.08" rx="493.5" ry="492.96"/>
	</g>
	<g>
		<g>
			<g>
				<path class="st3" d="M536.28,579.64c0-26.29,0-52.57,0-78.86c0-26.12,0-52.24,0-78.36c0-14.81,0-29.61,0-44.42
					c0-3.86-6-3.87-6,0c0,26.29,0,52.57,0,78.86c0,26.12,0,52.24,0,78.36c0,14.81,0,29.61,0,44.42
					C530.28,583.51,536.28,583.51,536.28,579.64L536.28,579.64z"/>
			</g>
		</g>
		<g>
			<g>
				<path class="st3" d="M985.38,579.41c-58.6,0-117.19,0-175.79,0c-58.3,0-116.59,0-174.89,0c-32.89,0-65.77,0-98.66,0
					c-3.86,0-3.87,6,0,6c58.6,0,117.19,0,175.79,0c58.3,0,116.59,0,174.89,0c32.89,0,65.77,0,98.66,0
					C989.24,585.41,989.24,579.41,985.38,579.41L985.38,579.41z"/>
			</g>
		</g>
		<g>
			<g>
				<path class="st3" d="M533.22,384.36c7.19-8.61,9.85-20.18,18.51-27.65c3.83-3.31,8.48-5.7,13.35-7.06
					c4.58-1.28,10-1.96,14.67-0.73c1.18,0.31,3.79,1.11,3.75,2.7c-0.05,1.71-2.86,2.87-4.11,3.46c-5.48,2.59-11.41,4.33-17.34,5.53
					c-11.95,2.42-24.32,2.33-36.4,1.04c-13.19-1.42-26.16-4.38-39.09-7.26c-6.4-1.42-12.81-2.96-19.27-4.06
					c-4.63-0.79-10.33-1.13-13.96,2.46c-4.11,4.06-2.97,9.78,0.41,13.85c3.66,4.4,9.23,6.56,14.6,8.07
					c5.95,1.68,12.24,2.41,18.42,2.11c3.12-0.15,6.25-0.55,9.31-1.18c2.85-0.59,5.7-1.78,8.62-1.91c9.43-0.4,8.99,13.55,8.69,19.82
					c-0.67,13.78-1.08,27.58-1.24,41.38c-0.16,13.8-0.07,27.6,0.28,41.4c0.16,6.48,0.09,13.07,0.78,19.52
					c0.6,5.55,2.24,11.13,6.65,14.86c8.39,7.1,20.6,5.75,30.79,5.38c6.74-0.24,13.48-0.48,20.21-0.72
					c5.83-0.21,12.09-0.17,16.91-3.93c8.04-6.28,6.54-17.87,5.4-26.76c-1.54-11.99-0.7-23.91,3.15-35.42
					c3.97-11.87,11.28-21.9,18.84-31.71c7.33-9.52,14.27-19.22,20.04-29.79c11.37-20.84,18.72-44.19,19.06-68.05
					c0.3-21.35-5.38-43.09-16.89-61.14c-5.69-8.92-12.79-16.91-21.17-23.39c-9.75-7.55-20.9-12.92-32.41-17.21
					c-23.93-8.91-49.81-14.2-75.42-13.03c-22.47,1.02-44.69,7.3-63.59,19.69c-18.49,12.12-32.58,29.46-39.75,50.44
					c-3.95,11.56-5.87,23.74-6.77,35.9c-0.93,12.49-0.94,25.13-0.22,37.63c0.74,12.86,2.54,25.79,6.76,38
					c3.48,10.08,8.47,19.57,13.99,28.67c10.89,17.95,24.26,34.79,32.18,54.39c1.91,4.72,3.48,9.58,4.59,14.55
					c1.22,5.48,1.63,11.03,2.22,16.6c0.62,5.93,1.52,11.81,3.95,17.3c2.26,5.1,5.95,9.3,10.39,12.62c9.77,7.31,22.32,9.1,34.21,8.94
					c13.5-0.18,27.07-1.74,40.42-3.6c5.43-0.76,11.19-1.21,16.41-2.97c4.46-1.51,8.64-4.26,9.83-9.08c0.38-1.54-0.49-3.29-2.1-3.69
					c-24.36-6.08-50.17-5.87-74.45,0.53c-5.98,1.58-11.87,3.53-17.6,5.87c-4.74,1.93-12.4,4.02-13.05,10.09
					c-0.66,6.18,6.01,9.58,10.63,11.9c5.62,2.82,11.42,5.28,17.35,7.37c23.36,8.25,48.73,10.53,73.19,6.69
					c4.72-0.74,11.49-2.36,12.52-7.99c1.35-7.35-8.57-7.81-13.37-8.64c-13.28-2.31-26.65-4.4-40.13-4.99
					c-13.26-0.58-26.77,0.33-39.57,4c-5.45,1.56-10.38,4.79-10.38,11.05c0,5.7,3.85,10.35,8.68,12.93c2.61,1.39,5.44,2.33,8.24,3.22
					c3.69,1.18,5.27-4.61,1.6-5.79c-4.18-1.34-9.34-2.81-11.61-6.94c-0.84-1.52-1.31-3.61-0.58-5.26c0.83-1.89,3.03-2.64,4.85-3.2
					c11.09-3.39,22.84-4.37,34.39-4.16c11.7,0.21,23.33,1.69,34.87,3.56c5.62,0.91,11.25,1.88,16.81,3.07
					c0.17,0.04,0.5,0.53,0.34,0.16c-0.14-0.32,0.17-0.25-0.06-0.04c-0.71,0.62-1.16,1.21-2.03,1.69c-2.04,1.11-4.53,1.29-6.79,1.64
					c-21.45,3.27-43.68,1.36-64.35-5.11c-5.11-1.6-10.14-3.46-15.02-5.64c-2.47-1.1-4.91-2.27-7.31-3.51
					c-2.01-1.03-4.4-2.09-5.78-3.98c-1.18-1.62,0.01-2.54,1.49-3.35c2.22-1.21,4.62-2.16,6.96-3.11c5.06-2.04,10.23-3.8,15.48-5.25
					c21.09-5.85,43.58-6.9,65.09-2.79c2.68,0.51,5.34,1.11,7.99,1.77c-0.7-1.23-1.4-2.46-2.1-3.69c-0.98,3.97-5.85,5.15-9.34,5.87
					c-6.1,1.25-12.35,2-18.53,2.76c-6.62,0.81-13.27,1.47-19.92,1.96c-6.51,0.48-13.06,0.9-19.58,0.55
					c-10.77-0.58-22.06-3.82-29.23-12.38c-7.31-8.72-6.58-21.18-8.05-31.8c-2.84-20.65-13.8-38.81-24.99-55.97
					c-11.48-17.6-23.75-35.16-29.22-55.73c-3.25-12.23-4.34-24.89-4.65-37.51c-0.3-12.15-0.13-24.37,1.23-36.45
					c1.31-11.56,3.86-23.2,8.51-33.9c4.18-9.6,10.03-18.34,17.28-25.88c14.19-14.73,32.93-24.68,52.71-29.5
					c24.04-5.86,49.4-4.22,73.29,1.55c22.56,5.44,46.3,13.72,63.14,30.34c14.67,14.48,23.61,33.96,26.98,54.16
					c3.68,22.06,0,44.78-8.04,65.48c-4.18,10.75-9.61,21.01-15.88,30.69c-6.54,10.1-14.43,19.18-21.23,29.09
					c-6.9,10.04-11.9,21.2-14.02,33.24c-1.03,5.85-1.49,11.81-1.24,17.75c0.22,5.19,1.2,10.29,1.54,15.46
					c0.26,4.05,0.35,8.63-1.82,12.23c-2.69,4.44-8.15,4.7-12.8,4.88c-6.74,0.25-13.48,0.48-20.21,0.72
					c-5.62,0.2-11.29,0.64-16.91,0.27c-4.31-0.28-9.15-1.14-12.48-4.12c-3.91-3.5-4.54-8.86-4.79-13.81
					c-0.67-13.4-0.82-26.86-0.87-40.28c-0.05-13.44,0.15-26.89,0.58-40.32c0.22-6.69,0.55-13.37,0.82-20.05
					c0.18-4.34-0.07-8.89-1.35-13.07c-1.24-4.04-3.61-7.92-7.58-9.73c-5.73-2.62-11.57,0.15-17.31,1.21
					c-5.69,1.05-11.69,1.09-17.39,0.14c-5.24-0.87-11.35-2.25-15.6-5.63c-2.39-1.9-5.91-6.58-1.39-8.34
					c1.89-0.74,4.18-0.55,6.15-0.28c2.96,0.41,5.91,1.13,8.84,1.75c12.72,2.68,25.35,5.8,38.17,7.98
					c12.2,2.07,24.59,3.34,36.96,2.57c6.08-0.38,12.15-1.22,18.07-2.66c5.65-1.37,11.59-3.2,16.69-6.05
					c4.3-2.4,7.74-7.48,4.41-12.18c-2.97-4.19-8.7-4.97-13.46-5.03c-10.43-0.14-20.82,4.03-28.4,11.17
					c-3.87,3.64-6.71,8.11-9.17,12.78c-2.48,4.7-4.7,9.67-8.14,13.78c-1.04,1.24-1.22,3.02,0,4.24
					C530.04,385.43,532.17,385.61,533.22,384.36L533.22,384.36z"/>
			</g>
		</g>
		<g>
			<g>
				<path class="st3" d="M481.51,570.81c-1.22,8.33,6.2,13.47,13.68,14.48c4.25,0.58,9.33-0.05,13.25,1.96
					c3.49,1.78,5.97,6.64,1.29,8.48c-4.33,1.71-9.58,2.22-14.15,2.9c-5.46,0.81-10.97,1.28-16.48,1.49
					c-10.38,0.4-20.78-0.14-31.1-1.36c-41.61-4.89-80.78-20.8-121.15-31.1c-19.59-5-39.87-9.13-60.19-8.56
					c-17.51,0.5-34.2,5.08-49.27,14.02c-26.4,15.66-46.13,40.61-73.34,55.03c-6.81,3.61-41.95,17.89-37-1.4
					c2.25-8.78,13.8-12.27,21.15-15.36c9.18-3.87,18.53-7.36,28-10.44c37.26-12.11,77.57-17.97,116.37-10.35
					c37.21,7.3,69.13,28.14,103.34,43.3c16.4,7.27,33.4,13.16,51.26,15.48c20.76,2.69,41.7,0.76,62.43-1.23
					c20.67-1.98,41.72-4.24,62.45-1.68c8.77,1.08,16.76,4.59,18.43,14.08c1.34,7.59-1.68,15.12-6.99,20.49
					c-6.33,6.41-14.99,9.95-23.49,12.46c-10.12,2.99-20.6,4.65-31.15,4.91c-3.22,0.08-11.09,0.85-8.23-4.54
					c2.16-4.08,7.1-6.53,10.91-8.77c8.33-4.91,17.26-8.7,26.56-11.3c8.95-2.5,18.12-3.84,27.4-4.07c-0.86-0.5-1.73-0.99-2.59-1.49
					c3.03,5.96-11.18,11.9-14.88,13.73c-6.56,3.24-13.4,5.84-20.41,7.92c-14.22,4.23-28.98,6.27-43.76,7.2
					c-29.97,1.88-59.98-0.51-89.97,0.15c-13.21,0.29-29.86,0.9-37.35,13.76c-0.62,1.06-0.54,2.8,0.47,3.64
					c7.1,5.87,15.8,7.78,24.77,8.66c10.09,0.99,20.25,1.46,30.37,2.05c20.81,1.21,41.67,1.96,62.5,1.25
					c40.01-1.37,80.13-8.54,115.62-27.84c31.61-17.2,58.41-41.58,87.7-62.21c14.25-10.04,29.23-19.35,45.4-25.97
					c8.05-3.3,16.48-6.11,25.04-7.74c7.79-1.48,18.71-1.74,22.9,6.52c3.96,7.8-1.14,17.75-6.13,23.81
					c-6.21,7.54-14.7,13.48-23.42,17.73c-4,1.95-8.7,4.21-13.28,3.86c-4.73-0.36-6.6-4.16-5.32-8.38
					c2.74-9.04,13.19-13.79,21.53-16.1c4.95-1.37,10-1.91,15.14-1.76c3.86,0.11,3.86-5.89,0-6c-10.71-0.3-21.43,2.39-30.61,7.98
					c-6.69,4.08-13.48,11.82-12.42,20.24c1.24,9.83,11.99,11.27,19.8,8.77c9.74-3.11,18.86-8.97,26.48-15.7
					c6.97-6.15,13.15-14.04,15-23.36c1.68-8.46-1.11-17.29-9.03-21.56c-7.94-4.27-17.64-3.01-26.03-0.98
					c-9.11,2.19-17.94,5.34-26.5,9.14c-35.18,15.61-64.02,41.94-94.85,64.35c-15.78,11.47-32.26,22.13-50.2,29.92
					c-20.36,8.84-42.24,14.08-64.22,16.81c-22.14,2.75-44.5,3.14-66.78,2.51c-11.21-0.32-22.42-0.89-33.62-1.58
					c-10.6-0.65-21.67-0.62-32.1-2.75c-4.88-1-9.62-2.68-13.5-5.89c0.16,1.21,0.31,2.42,0.47,3.64
					c6.93-11.9,24.82-10.72,36.63-10.87c15.8-0.2,31.59,0.34,47.38,0.56c30.53,0.43,62.1-0.1,91.16-10.57
					c7.74-2.79,15.3-6.22,22.36-10.45c6-3.59,12.63-10.03,8.84-17.5c-0.46-0.91-1.59-1.51-2.59-1.49
					c-20.19,0.51-40.12,6.13-57.48,16.48c-5.92,3.53-17.11,10.28-13.53,18.89c1.64,3.96,5.75,5.15,9.68,5.33
					c5.47,0.24,11.08-0.22,16.51-0.88c18.07-2.19,40.7-7.42,51.46-23.67c4.3-6.49,5.79-15.09,3.77-22.62
					c-2.3-8.55-9.1-13.87-17.54-15.79c-10.24-2.33-21.31-2.27-31.76-2.02c-11.31,0.27-22.59,1.31-33.85,2.39
					c-22.28,2.13-44.95,4.6-67.25,1.29c-39.87-5.91-73.85-29.45-110.2-45.1c-18.66-8.04-37.94-13.65-58.2-15.76
					c-21.04-2.2-42.33-0.83-63.11,2.9c-21,3.77-41.52,10.03-61.31,17.95c-8.66,3.46-18.88,6.64-25.85,13.08
					c-5.69,5.26-8.63,14.77-3.5,21.43c5.45,7.09,15.66,5.42,23.23,3.62c7.73-1.83,15.15-4.93,22.09-8.76
					c14.25-7.87,26.6-18.73,38.92-29.25c12.61-10.79,25.45-21.68,40.44-29.05c18.79-9.24,39.9-10.41,60.41-8.01
					c44.92,5.24,87.01,24.09,130.98,33.73c21.56,4.72,43.81,7.55,65.9,5.87c5.42-0.41,10.83-1.1,16.17-2.06
					c4.42-0.8,10.27-1.28,13.87-4.26c6.26-5.2,1.97-14.49-4.23-17.56c-4.15-2.05-8.93-1.93-13.43-2.33
					c-3.56-0.31-11.11-2.07-10.36-7.16C487.85,568.63,482.07,567,481.51,570.81L481.51,570.81z"/>
			</g>
		</g>
		<g>
			<g>
				<path class="st3" d="M761.9,631.14c4.09,2.34-20.09,24.17-22.7,26.41c-9.98,8.57-20.64,16.29-31.52,23.67
					c-23.06,15.65-46.71,30.5-70.27,45.38c-48.6,30.7-97.73,60.59-147.4,89.52c-11.18,6.51-23.09,13.34-36.35,13.87
					c-13.86,0.55-27.45-4.83-40.48-8.88c-25.87-8.04-51.72-16.31-76.86-26.44c-25.74-10.37-50.07-23.14-73.35-38.22
					c-22.55-14.61-44.8-29.39-68.79-41.61c-46.23-23.55-96.19-39.8-147.47-47.74c-6.27-0.97-12.55-1.81-18.85-2.55
					c-3.83-0.45-3.8,5.55,0,6c53.76,6.32,106.46,21.75,155.14,45.41c24.88,12.09,48.05,26.75,71.15,41.9
					c23.71,15.55,48.14,29.09,74.33,40.04c25.84,10.8,52.51,19.47,79.23,27.8c13.18,4.11,26.62,9.29,40.5,10.21
					c13.28,0.88,25.57-3.93,37.04-10.17c25.62-13.95,50.49-29.52,75.44-44.62c25.32-15.32,50.5-30.87,75.53-46.66
					c24.44-15.41,48.93-30.81,72.89-46.96c10.97-7.39,21.73-15.12,31.88-23.61c5.12-4.28,10.07-8.76,14.78-13.49
					c4-4.02,9.07-8.35,11.44-13.59c1.76-3.89,1.82-8.5-2.27-10.84C761.58,624.04,758.55,629.22,761.9,631.14L761.9,631.14z"/>
			</g>
		</g>
	</g>
	<g>
		<g>
			<path class="st3" d="M635.36,426.48c7.37,0.62,14.73,1.23,22.1,1.85c1.92,0.16,1.91-2.84,0-3c-7.37-0.62-14.73-1.23-22.1-1.85
				C633.43,423.32,633.44,426.32,635.36,426.48L635.36,426.48z"/>
		</g>
	</g>
	<g>
		<g>
			<path class="st3" d="M683.24,345.33c19.04,0.96,38.14,0.48,57.11-1.44c1.9-0.19,1.92-3.19,0-3c-18.97,1.92-38.07,2.41-57.11,1.44
				C681.31,342.23,681.32,345.23,683.24,345.33L683.24,345.33z"/>
		</g>
	</g>
	<g>
		<g>
			<path class="st3" d="M682.13,249.42c7.98-4.3,15.96-8.6,23.94-12.89c1.7-0.92,0.19-3.51-1.51-2.59
				c-7.98,4.3-15.96,8.6-23.94,12.89C678.92,247.75,680.43,250.34,682.13,249.42L682.13,249.42z"/>
		</g>
	</g>
	<g>
		<g>
			<path class="st3" d="M592.51,191.87c7.44-15.36,12.97-31.6,16.4-48.32c0.39-1.88-2.5-2.69-2.89-0.8
				c-3.38,16.46-8.77,32.48-16.1,47.6C589.08,192.08,591.67,193.61,592.51,191.87L592.51,191.87z"/>
		</g>
	</g>
	<g>
		<g>
			<path class="st3" d="M472.43,164.32c-7.11-8.23-11.86-18.27-13.85-28.96c-0.35-1.9-3.24-1.09-2.89,0.8
				c2.09,11.2,7.19,21.67,14.62,30.28C471.58,167.91,473.69,165.78,472.43,164.32L472.43,164.32z"/>
		</g>
	</g>
	<g>
		<g>
			<path class="st3" d="M364.1,236.98c-14.8-11.25-30.43-21.38-46.74-30.3c-1.69-0.93-3.21,1.66-1.51,2.59
				c16.31,8.92,31.94,19.05,46.74,30.3C364.12,240.74,365.61,238.14,364.1,236.98L364.1,236.98z"/>
		</g>
	</g>
	<g>
		<g>
			<path class="st3" d="M353.61,296.39c-10.44,0-20.87,0-31.31,0c-1.93,0-1.93,3,0,3c10.44,0,20.87,0,31.31,0
				C355.54,299.39,355.54,296.39,353.61,296.39L353.61,296.39z"/>
		</g>
	</g>
	<g>
		<g>
			<path class="st3" d="M314.94,299.39c1.93,0,1.93-3,0-3C313.01,296.39,313,299.39,314.94,299.39L314.94,299.39z"/>
		</g>
	</g>
	<g>
		<g>
			<path class="st3" d="M373.86,364.5c-21.5,1.91-43.01,3.82-64.51,5.73c-6.12,0.54-12.24,1.09-18.36,1.63c-1.91,0.17-1.93,3.17,0,3
				c21.5-1.91,43.01-3.82,64.51-5.73c6.12-0.54,12.24-1.09,18.36-1.63C375.77,367.33,375.79,364.33,373.86,364.5L373.86,364.5z"/>
		</g>
	</g>
	<g>
		<g>
			<path class="st3" d="M380.46,429.16c-9.82,4.91-19.65,9.81-29.47,14.72c-1.73,0.86-0.21,3.45,1.51,2.59
				c9.82-4.91,19.65-9.81,29.47-14.72C383.7,430.89,382.19,428.3,380.46,429.16L380.46,429.16z"/>
		</g>
	</g>
</g>
<g id="Layer_3" class="st0">
	<g class="st1">
		<ellipse class="st2" cx="500" cy="500.4" rx="300" ry="300.44"/>
	</g>
	<g class="st1">
		<g>
			<g>
				<path class="st3" d="M797.78,466.21c-28.42,12.22-59.01,19.69-89.92,21.42c-16.29,0.91-32.68,0.25-48.83-2.14
					c-15.87-2.35-31.63-5.92-47.7-6.59c-16-0.67-32.62,1.69-46.48,10.17c1.47,0.6,2.94,1.2,4.41,1.79
					c-1.52-8.41-3.05-16.82-4.57-25.22c-1.37-7.57-3.03-15.15-4.16-22.76c-0.87-5.93-1.11-12.06-3.22-17.74
					c-1.12-3.02-2.66-5.79-4.81-8.21c-2.34-2.64-5.44-4.5-8.61-5.99c-12.95-6.09-27.7-4.76-40.95-0.37
					c-5.54,1.83-13.29,4.73-14.02,11.53c-0.37,3.42,2.01,6.02,4.45,8.07c2.44,2.04,5.36,3.38,8.49,3.95
					c6.23,1.15,12.47-0.06,18.73-0.24c6.24-0.18,12.01-2.52,16.52-6.88c4.36-4.22,7.25-9.99,8.42-15.92
					c1.59-8.06,2.03-16.39,2.28-24.58c0.12-3.99,0.18-7.97,0.27-11.96c0.04-1.98,0.1-3.96,0.17-5.94c0.07-1.93,0.73-4.85-0.17-6.6
					c-2.72-5.29-8.63-7.64-14.26-7.91c-5.53-0.27-10.99,1.12-16.44,1.87c-2.58,0.35-5.64,0.97-8.11,2.65
					c-2.62,1.78-4.83,4.44-4.74,7.78c0.16,5.72,6.08,10.04,11.26,10.89c5.54,0.91,11.16-0.34,16.55-1.54
					c2.54-0.57,5.33-0.86,7.78-1.72c2.96-1.04,5.61-2.81,7.58-5.27c1.96-2.45,3.31-5.34,3.95-8.42c0.78-3.74,0.36-7.4-0.2-11.13
					c-0.5-3.37-0.9-6.64,0.23-9.93c1.25-3.66-4.54-5.23-5.79-1.6c-1.58,4.6-0.78,9.2-0.12,13.88c0.54,3.8,0.55,7.69-1.26,11.18
					c-1.55,2.97-4.16,5.28-7.52,5.88c-3.32,0.6-6.59,1.46-9.91,2.11c-3.14,0.62-6.23,1.11-9.48,0.78c-2.31-0.23-4.7-1.26-6.11-3.28
					c-0.39-0.56-0.85-1.22-0.98-1.9c-0.05-0.26,0.09-0.76,0.35-1.15c0.76-1.16,2.21-2,3.5-2.52c1.6-0.64,2.99-0.68,4.77-0.94
					c1.69-0.24,3.36-0.54,5.04-0.81c3.57-0.59,7.25-1.13,10.91-0.72c3.17,0.36,5.97,1.83,7.79,4.84c-0.14-0.5-0.27-1.01-0.41-1.51
					c-0.53,9.28-0.42,18.59-0.86,27.88c-0.23,4.82-0.59,9.65-1.28,14.42c-0.51,3.51-1.15,7.02-2.71,10.23
					c-2.79,5.76-7.62,10.29-14.03,11.57c-1.43,0.29-2.87,0.24-4.31,0.31c-1.92,0.1-3.84,0.27-5.76,0.42
					c-3.31,0.26-6.78,0.57-10.08-0.02c-3.13-0.56-6.28-2.08-8.23-4.69c-0.36-0.49-0.44-0.57-0.35-1.21
					c-0.06,0.45,0.19-0.45,0.06-0.15c0.09-0.22,0.22-0.44,0.35-0.64c0.78-1.24,2.06-2.19,3.32-2.93c3.01-1.76,6.93-2.77,10.42-3.72
					c3.77-1.02,7.62-1.79,11.52-2.08c7.78-0.6,15.67,0.52,22.56,4.35c3.16,1.76,5.63,3.92,7.36,7.14c1.54,2.86,2.3,6.09,2.84,9.28
					c0.67,3.92,0.97,7.9,1.6,11.82c0.77,4.78,1.79,9.54,2.65,14.31c1.97,10.88,3.94,21.76,5.92,32.64c0.35,1.91,2.87,2.73,4.41,1.79
					c26.43-16.17,58.78-7.73,87.23-3.32c31.89,4.94,64.34,3.74,95.84-3.28c17.11-3.81,33.77-9.33,49.87-16.25
					c1.49-0.64,1.82-2.83,1.08-4.1C800.99,465.74,799.28,465.56,797.78,466.21L797.78,466.21z"/>
			</g>
		</g>
		<g>
			<g>
				<path class="st3" d="M549.72,341.73c2.61-15.92-1-32.29-6.8-47.14c-2.49-6.36-5.57-12.53-10.14-17.67
					c-4.74-5.34-11.07-8.88-18.11-10.15c-3.85-0.7-7.77-0.89-11.67-0.74c-3.86,0.15-7.87,0.44-11.35,2.28
					c-6.18,3.28-7.97,10.5-8.52,16.94c-0.32,3.82-0.34,7.68-0.46,11.51c-0.13,4.23-0.24,8.47-0.35,12.7
					c-0.21,8.64-0.36,17.27-0.46,25.91c-0.2,17.19-0.17,34.39,0.06,51.58c0.03,2.16,0.06,4.32,0.1,6.48c0.07,3.86,6.07,3.87,6,0
					c-0.56-32.72-0.33-65.46,0.69-98.17c0.11-3.57,0.12-7.17,0.48-10.73c0.24-2.41,0.85-5.43,2.03-7.56
					c0.62-1.12,1.02-1.66,1.98-2.51c0.88-0.78,2.44-1.47,3.86-1.81c3.3-0.8,6.93-0.76,10.31-0.65c6.41,0.2,12.95,1.8,17.87,5.94
					c4.64,3.9,7.8,9.07,10.32,14.55c3.23,7.02,5.56,14.7,7.21,22.28c1.8,8.29,2.54,16.95,1.16,25.36c-0.26,1.6,0.42,3.23,2.1,3.69
					C547.46,344.22,549.45,343.34,549.72,341.73L549.72,341.73z"/>
			</g>
		</g>
		<g>
			<g>
				<path class="st3" d="M481.37,387.2c0.67,9.28-0.89,18.72-4.86,27.16c-2,4.26-4.86,8.21-6.13,12.79
					c-1.09,3.93-0.69,8.21,1.52,11.69c3.86,6.06,11.08,8.65,16.94,12.26c6.13,3.78,10.21,9.99,11.16,17.17
					c0.47,3.59,0.1,7.25-1.12,10.66c-0.05,0.13-0.36,0.66-0.31,0.79c0.01,0.02,0.59,0.05,0.78-0.08c0.25-0.16,0.23,0.37-0.01-0.16
					c-0.11-0.24-0.38-0.57-0.53-0.84c-0.91-1.7-0.93-3.81-1.27-5.67c-1.66-9.05-5.12-17.84-10.02-25.62
					c-2.34-3.71-5-7.84-8.45-10.61c-3.51-2.82-8.51-3.82-11.98-0.3c-2.61,2.65-3.12,6.57-3.58,10.08
					c-0.48,3.58-1.45,7.11-3.41,10.34c-4.25,7.02-11.24,11.85-18.27,15.76c-8.11,4.51-16.62,8.29-23.92,14.11
					c-7.02,5.6-12.34,13.18-16.1,21.28c-3.51,7.57-7.5,17.38-4.2,25.68c1.51,3.8,4.35,6.25,7.37,8.84c2.43,2.09,4.97,4.43,3.62,7.89
					c-1.56,4.03-5.71,7.16-8.8,10c-3.54,3.25-7.12,6.49-10.09,10.3c-5.63,7.22-8.75,16.58-4.92,25.37
					c3.04,6.97,9.38,11.65,14.53,16.96c2.7,2.79,5.42,5.95,6.39,9.8c0.97,3.84-0.89,7.46-2.54,10.82
					c-1.88,3.84-3.76,7.89-3.48,12.28c0.27,4.29,2.17,8.07,4.88,11.33c5.56,6.7,13.81,9.51,21.17,13.63c3.27,1.83,6.78,4.1,8.8,7.27
					c1.68,2.64,2.44,5.68,2.15,8.77c-0.23,2.47-1.43,4.63-3.73,5.83c1.37,0.36,2.74,0.72,4.1,1.08c-2.85-4.19-0.59-9.88,3.18-12.78
					c5.3-4.08,12.83-4.05,19.18-3.98c15.64,0.17,31.07,2.84,46.49,5.19c7.82,1.19,15.67,2.32,23.55,3.03
					c7.4,0.67,15.04,1.26,22.44,0.31c7.03-0.91,13.49-3.69,18.06-9.28c4.39-5.38,7.1-12.06,8.88-18.73
					c4.18-15.68,2.62-32.53-4.17-47.24c-0.88-1.91-3.37-1.72-4.71-0.61c-7.41,6.13-10.72,16.02-19.06,21.15
					c-8.87,5.46-19.83,5.63-29.84,4.16c-5.94-0.87-11.8-2.2-17.68-3.4c-5.84-1.19-11.68-2.35-17.54-3.46
					c-11.8-2.26-23.64-4.36-35.49-6.32c-13.35-2.2-26.74-4.22-40.14-6.05c-1.6-0.22-3.22,0.39-3.69,2.1
					c-0.38,1.4,0.48,3.47,2.1,3.69c24.42,3.33,48.75,7.28,72.96,11.86c12.05,2.28,24.02,5.14,36.12,7.1
					c11.09,1.8,22.57,2.07,32.98-2.75c5.41-2.51,9.58-6.45,13.14-11.15c3.31-4.38,6.11-9.14,10.39-12.68
					c-1.57-0.2-3.14-0.4-4.71-0.61c5.83,12.63,7.21,27.29,4.01,40.82c-1.48,6.29-3.78,13-7.94,18.06
					c-4.3,5.24-10.39,7.25-16.99,7.66c-7.51,0.47-15.15-0.19-22.62-0.97c-7.83-0.83-15.62-2.03-23.4-3.23
					c-15.44-2.39-31.05-4.94-46.73-4.63c-7.46,0.15-16.02,1.36-21.34,7.16c-4.51,4.91-6.59,12.77-2.6,18.62
					c0.94,1.39,2.58,1.87,4.1,1.08c6.69-3.49,8-12.07,5.69-18.67c-2.86-8.18-10.53-12.52-17.89-16.14
					c-6.68-3.29-15.32-7.18-17.66-14.99c-1.12-3.75,0.18-7.24,1.81-10.62c1.86-3.86,3.95-7.77,4.05-12.15
					c0.21-8.86-7.2-15.52-13.08-21.11c-5.22-4.97-10.88-10.66-9.77-18.53c1.29-9.14,8.93-15.58,15.31-21.45
					c3.42-3.14,7.31-6.45,9.3-10.74c1.99-4.28,1.4-8.71-1.57-12.34c-2.26-2.76-5.56-4.53-7.73-7.37c-2.28-2.99-2.32-7.07-1.64-10.6
					c1.61-8.45,5.84-16.94,11.01-23.76c5.54-7.31,13.02-12.13,21.01-16.38c7.92-4.21,16.02-8.11,22.76-14.14
					c3.12-2.79,5.94-6.04,8.02-9.67c2.13-3.71,3.2-7.61,3.75-11.82c0.2-1.49,0.42-3.09,0.86-4.59c0.36-1.22,0.82-2.33,1.82-2.71
					c2.83-1.06,6.51,4.73,7.95,6.73c5.34,7.45,9.15,15.89,11.17,24.84c0.92,4.06,0.87,8.77,3.92,11.98c1.4,1.47,3.43,2.29,5.44,1.7
					c2.46-0.73,3.53-3.06,4.28-5.3c2.53-7.52,1.46-16.04-2.21-23c-1.86-3.51-4.47-6.62-7.61-9.05c-2.88-2.22-6.12-3.86-9.28-5.62
					c-2.86-1.58-5.77-3.2-7.92-5.68c-0.84-0.98-1.48-2.17-1.81-3.5c-0.46-1.85-0.11-3.71,0.5-5.49c1.48-4.33,4.31-8.15,6.1-12.36
					c1.91-4.48,3.33-9.13,4.11-13.94c0.77-4.73,1.03-9.5,0.69-14.28c-0.12-1.62-1.3-3-3-3C482.83,384.2,481.25,385.58,481.37,387.2
					L481.37,387.2z"/>
			</g>
		</g>
		<g>
			<g>
				<path class="st3" d="M571.82,615.22c6.97-15.53,8.3-33.26,3.41-49.6c-0.45-1.5-2.12-2.6-3.69-2.1
					c-9.31,3-16.39,10.32-25.77,13.17c-9.38,2.85-19.46,2.31-29.05,0.99c-21.46-2.96-42.78-8.09-63.49-14.4
					c-11.79-3.59-23.43-7.67-34.88-12.21c-1.51-0.6-3.29,0.65-3.69,2.1c-0.47,1.71,0.58,3.09,2.1,3.69
					c20.56,8.15,41.72,14.8,63.25,19.86c10.68,2.51,21.45,4.68,32.29,6.34c10.29,1.58,20.84,2.57,31.13,0.43
					c5.57-1.16,10.72-3.42,15.55-6.4c4.57-2.82,8.99-6.11,14.16-7.78c-1.23-0.7-2.46-1.4-3.69-2.1c4.4,14.71,3.49,30.94-2.81,44.98
					c-0.66,1.48-0.43,3.23,1.08,4.1C569,617.05,571.15,616.71,571.82,615.22L571.82,615.22z"/>
			</g>
		</g>
		<g>
			<g>
				<path class="st3" d="M437.3,479.06c23.7,11.98,48.91,20.96,74.87,26.56c13.03,2.81,26.24,4.76,39.52,5.91
					c5.93,0.51,12.13,1.04,17.19,4.49c3.82,2.61,6.71,6.88,8.13,11.29c3.68,11.42-2,23.86-11.59,30.96c-1.3,0.96-1.96,2.6-1.08,4.1
					c0.75,1.28,2.79,2.05,4.1,1.08c9.64-7.13,16.78-18.77,15.65-31.12c-0.54-5.86-2.67-11.39-6.31-16.03
					c-3.77-4.81-9.06-7.92-14.98-9.3c-6.64-1.55-13.63-1.63-20.39-2.41c-6.75-0.78-13.48-1.81-20.16-3.06
					c-13.45-2.51-26.73-5.91-39.72-10.18c-14.49-4.76-28.6-10.6-42.21-17.49c-1.45-0.73-3.25-0.38-4.1,1.08
					C435.44,476.29,435.84,478.32,437.3,479.06L437.3,479.06z"/>
			</g>
		</g>
		<g>
			<g>
				<path class="st3" d="M562.69,679.27c-0.1,7.39-3.3,14.18-8.54,19.34c-5.92,5.82-13.87,9.09-21.95,10.53
					c-4.53,0.8-9.2,0.9-13.77,0.45c-4.83-0.47-9.51-1.89-14.23-2.94c-10.33-2.31-20.7-4.48-31.1-6.43
					c-20.4-3.83-40.99-6.83-61.7-8.39c-10.3-0.78-20.64-1.2-30.97-1.2c-10.13,0-20.41,0.11-30.46,1.42
					c-19.34,2.53-37.64,9.51-55.12,17.95c-2.14,1.03-4.26,2.09-6.38,3.15c-1.45,0.73-1.86,2.77-1.08,4.1
					c0.86,1.47,2.65,1.81,4.1,1.08c17.3-8.74,35.38-16.41,54.6-19.69c9.9-1.69,20.05-1.89,30.08-2c10.43-0.12,20.86,0.2,31.27,0.9
					c20.89,1.39,41.64,4.31,62.21,8.11c10.49,1.94,20.94,4.11,31.35,6.42c5.01,1.11,9.99,2.55,15.08,3.23
					c4.82,0.65,9.69,0.71,14.52,0.09c9.06-1.16,17.86-4.35,25.03-10.1c6.17-4.94,10.87-12.01,12.42-19.81
					c0.4-2.05,0.62-4.13,0.65-6.22C568.74,675.41,562.74,675.41,562.69,679.27L562.69,679.27z"/>
			</g>
		</g>
	</g>
</g>
</svg>
