<?xml version="1.0" encoding="utf-8"?>
<!-- Generator: Adobe Illustrator 27.3.1, SVG Export Plug-In . SVG Version: 6.00 Build 0)  -->
<svg version="1.1" id="Layer_1" xmlns="http://www.w3.org/2000/svg" xmlns:xlink="http://www.w3.org/1999/xlink" x="0px" y="0px"
	 viewBox="0 0 1803 1010" style="enable-background:new 0 0 1803 1010;" xml:space="preserve">
<style type="text/css">
	.st0{fill:#439775;stroke:#439775;stroke-width:9;stroke-miterlimit:10;}
	.st1{fill:#334856;stroke:#334856;stroke-width:8;stroke-miterlimit:10;}
	.st2{fill:#439775;stroke:#439775;stroke-miterlimit:10;}
	.st3{fill:none;stroke:#439775;stroke-width:18;stroke-miterlimit:10;}
	.st4{fill:#439775;}
	.st5{fill:#439775;stroke:#439775;stroke-width:8;stroke-miterlimit:10;}
	.st6{fill:#334856;}
</style>
<g>
	<path class="st0" d="M681.47,395.84"/>
	<path class="st1" d="M782.01,291.11l-59.55,52.9l-78.65,69.85l-3.55-1.16l-9.83-3.2l0.65-0.57c0-0.01,0-0.01,0.01-0.01l80.29-71.32
		l52.41-46.55L782.01,291.11z"/>
	<polygon class="st1" points="942,182.1 941.97,184.31 926.3,184.25 921.92,180.58 909.44,170.12 906.99,168.06 916.08,164.18 
		919.09,162.89 921.92,165.26 	"/>
	<polygon class="st1" points="1210.66,407.35 1198.55,412.53 1118.8,345.65 1053.46,290.88 1065.64,290.88 1065.64,285.77 
		1130.08,339.79 	"/>
	<polygon class="st1" points="921.92,162.11 921.92,184.24 906.29,184.18 906.29,162.11 	"/>
	<rect x="906.29" y="290.88" class="st1" width="15.62" height="163.88"/>
	<polygon class="st2" points="1065.64,283.23 1065.64,285.77 1062.62,283.23 	"/>
	<path class="st1" d="M830.22,290.88l-50.87,81.25l-43.81,69.97l-5.35-1.11l-7.67-1.6c-0.01,0-0.01,0-0.01,0l-1.66-0.34l44.91-71.74
		l47.85-76.43H830.22z"/>
	<polygon class="st1" points="872.28,290.88 846.35,388.5 830.04,449.93 825.14,449.44 817.24,448.66 817.23,448.66 814.75,448.41 
		831.37,385.85 856.6,290.88 	"/>
	<polygon class="st1" points="1026.41,450.04 1025.37,450.18 1014.14,451.65 1011.13,452.04 988.58,387.63 954.7,290.88 
		970.67,290.88 1003.59,384.87 	"/>
	<polygon class="st1" points="1122.82,439.54 1121.88,439.78 1111.88,442.23 1108.44,443.07 1055.75,371.24 996.78,290.88 
		1013.76,290.88 1069.33,366.64 	"/>
	<path class="st1" d="M1208.92,454.84L1208.92,454.84c-4.43,0-8.02-4.17-8.02-9.32v-27.22c0-5.14,3.59-9.32,8.02-9.32l0,0
		c4.43,0,8.02,4.17,8.02,9.32v27.22C1216.94,450.67,1213.35,454.84,1208.92,454.84z"/>
	<path class="st2" d="M885.65,29.51l-2.35,144.14c0.21,0.74,0.22,1.54-0.04,2.32l-0.36,21.84h0.18l16.53,0.06l11.42,0.04l14.21,0.05
		l3.99,0.01l14.26,0.05l0.03-2.01l2.71-166.57C926.04,29.59,905.84,29.73,885.65,29.51z"/>
	<path class="st3" d="M718.74,329.16c43.01,31.85,91.33,50.28,142.87,59.94c91.81,15.8,184.42-5.27,262.04-56.73"/>
	<path class="st1" d="M1118.07,487.99L1118.07,487.99c-4.43,0-8.02-4.49-8.02-10.04v-29.33c0-5.54,3.59-10.04,8.02-10.04l0,0
		c4.43,0,8.02,4.49,8.02,10.04v29.33C1126.1,483.49,1122.5,487.99,1118.07,487.99z"/>
	<path class="st1" d="M1020.32,499.69L1020.32,499.69c-4.43,0-8.02-4.72-8.02-10.53v-30.78c0-5.82,3.59-10.53,8.02-10.53l0,0
		c4.43,0,8.02,4.72,8.02,10.53v30.78C1028.35,494.97,1024.75,499.69,1020.32,499.69z"/>
	<path class="st1" d="M914.03,505L914.03,505c-4.43,0-8.02-4.85-8.02-10.84V462.5c0-5.98,3.59-10.84,8.02-10.84l0,0
		c4.43,0,8.02,4.85,8.02,10.84v31.66C922.06,500.15,918.47,505,914.03,505z"/>
	<path class="st1" d="M820.66,499.69L820.66,499.69c-4.43,0-8.02-4.73-8.02-10.57v-30.9c0-5.84,3.59-10.57,8.02-10.57l0,0
		c4.43,0,8.02,4.73,8.02,10.57v30.9C828.69,494.95,825.09,499.69,820.66,499.69z"/>
	<path class="st1" d="M725.21,487.99L725.21,487.99c-4.43,0-8.02-4.47-8.02-9.99V448.8c0-5.52,3.59-9.99,8.02-9.99h0
		c4.43,0,8.02,4.47,8.02,9.99v29.19C733.23,483.51,729.64,487.99,725.21,487.99z"/>
	<path class="st1" d="M633.74,454.55L633.74,454.55c-4.43,0-8.02-4.17-8.02-9.32v-27.22c0-5.14,3.59-9.32,8.02-9.32l0,0
		c4.43,0,8.02,4.17,8.02,9.32v27.22C641.76,450.38,638.17,454.55,633.74,454.55z"/>
	<path class="st2" d="M880.49,277.75"/>
	<g>
		<g>
			<path class="st4" d="M884.47,174.58c-2.63,2.04-4.57,4.79-5.77,7.88c0.96,0.27,1.93,0.53,2.89,0.8c0.07-0.21,0.2-0.61,0.24-0.69
				c0.03-0.08,0.21-0.45,0.32-0.65c0.25-0.47,0.54-0.92,0.85-1.36c0.07-0.1,0.15-0.21,0.23-0.31c-0.14,0.18,0.15-0.19,0.15-0.18
				c0.16-0.2,0.33-0.4,0.5-0.6c0.38-0.44,0.77-0.86,1.16-1.28c1.57-1.69,3.22-3.39,4.25-5.49c0.74-1.51-1.07-3.01-2.36-1.82
				c-2.49,2.31-4.7,4.9-6.61,7.7c-0.95,1.39,1.27,3.14,2.36,1.82c1.79-2.17,3.58-4.35,5.37-6.52c0.51-0.62,0.61-1.51,0-2.12
				c-0.53-0.53-1.6-0.63-2.12,0c-1.79,2.17-3.58,4.35-5.37,6.52c0.79,0.61,1.57,1.21,2.36,1.82c1.77-2.59,3.83-4.96,6.14-7.1
				c-0.79-0.61-1.57-1.21-2.36-1.82c-1.02,2.07-2.5,3.49-4.11,5.23c-1.64,1.78-3.17,3.69-3.89,6.04c-0.24,0.77,0.28,1.63,1.05,1.85
				c0.85,0.23,1.55-0.29,1.85-1.05c0.46-1.17,1.21-2.52,2.04-3.62c0.76-1.01,1.87-2.09,2.96-2.93c0.64-0.5,0.52-1.6,0-2.12
				C885.96,173.95,885.11,174.08,884.47,174.58L884.47,174.58z"/>
		</g>
	</g>
	<g>
		<g>
			<path class="st4" d="M878.36,185.39c5-5.54,10.76-11.3,12.05-18.97c0.13-0.8-0.21-1.62-1.05-1.85c-0.72-0.2-1.71,0.24-1.85,1.05
				c-1.21,7.17-6.61,12.48-11.28,17.65C874.94,184.7,877.06,186.83,878.36,185.39L878.36,185.39z"/>
		</g>
	</g>
	<g>
		<g>
			<path class="st4" d="M874.99,184.7c-0.5,0.58-1.01,1.15-1.51,1.73c0.71,0.71,1.41,1.41,2.12,2.12c0.53-0.63,1.07-1.26,1.61-1.87
				c0.15-0.14,0.25-0.3,0.31-0.48c0.09-0.18,0.14-0.37,0.13-0.58c0.01-0.21-0.04-0.4-0.13-0.58c-0.06-0.19-0.16-0.35-0.31-0.48
				c-0.29-0.26-0.66-0.46-1.06-0.44c-0.38,0.02-0.8,0.14-1.06,0.44c-0.55,0.62-1.09,1.24-1.61,1.87c-0.15,0.14-0.25,0.3-0.31,0.48
				c-0.09,0.18-0.14,0.37-0.13,0.58c-0.01,0.21,0.04,0.4,0.13,0.58c0.06,0.19,0.16,0.35,0.31,0.48c0.29,0.26,0.66,0.46,1.06,0.44
				c0.38-0.02,0.8-0.14,1.06-0.44c0.5-0.58,1.01-1.15,1.51-1.73c0.15-0.14,0.25-0.3,0.31-0.48c0.09-0.18,0.14-0.37,0.13-0.58
				c0.01-0.21-0.04-0.4-0.13-0.58c-0.06-0.19-0.16-0.35-0.31-0.48c-0.29-0.26-0.66-0.46-1.06-0.44
				C875.67,184.27,875.25,184.4,874.99,184.7L874.99,184.7z"/>
		</g>
	</g>
	<g>
		<g>
			<path class="st4" d="M881.29,181.64c0.16-0.13,0.32-0.26,0.49-0.39c-0.1,0.08-0.2,0.16-0.3,0.23c0.31-0.24,0.63-0.48,0.94-0.72
				c-0.71-0.71-1.41-1.41-2.12-2.12c-1.39,1.58-2.77,3.17-4.16,4.75c-0.26,0.3-0.44,0.65-0.44,1.06c0,0.37,0.16,0.81,0.44,1.06
				c0.57,0.52,1.57,0.63,2.12,0c1.39-1.58,2.77-3.17,4.16-4.75c0.26-0.3,0.44-0.65,0.44-1.06c0-0.37-0.16-0.81-0.44-1.06
				c-0.29-0.26-0.66-0.46-1.06-0.44c-0.42,0.02-0.73,0.18-1.06,0.44c-0.02,0.02-0.05,0.04-0.07,0.05c0.1-0.08,0.2-0.16,0.3-0.23
				c-0.45,0.35-0.91,0.69-1.35,1.05c-0.28,0.23-0.44,0.71-0.44,1.06c0,0.37,0.16,0.81,0.44,1.06c0.29,0.26,0.66,0.46,1.06,0.44
				C880.64,182.06,880.97,181.91,881.29,181.64L881.29,181.64z"/>
		</g>
	</g>
	<g>
		<g>
			<path class="st4" d="M886.23,175.98c-2.33,2.2-4.67,4.4-7,6.6c-0.54,0.51-0.56,1.4-0.12,1.97c0.42,0.54,1.33,0.83,1.93,0.39
				c2.44-1.79,4.23-4.25,5.1-7.16c0.18-0.61-0.11-1.39-0.69-1.69c-0.6-0.32-1.32-0.24-1.82,0.23c-1.41,1.37-2.81,2.73-4.22,4.1
				c0.79,0.61,1.57,1.21,2.36,1.82c0.64-1.17,1.33-2.31,2.07-3.41c0.33-0.5,0.23-1.22-0.12-1.67c-0.33-0.43-1.03-0.76-1.58-0.54
				c-0.37,0.15-0.74,0.3-1.09,0.5c-0.68,0.39-0.97,1.38-0.54,2.05c0.45,0.69,1.32,0.95,2.05,0.54c0.1-0.06,0.2-0.11,0.31-0.17
				c0.08-0.04,0.41-0.17,0.07-0.04c-0.56-0.73-1.13-1.47-1.69-2.2c-0.74,1.1-1.43,2.24-2.07,3.41c-0.36,0.66-0.21,1.47,0.39,1.93
				c0.59,0.46,1.43,0.41,1.97-0.12c1.41-1.37,2.81-2.73,4.22-4.1c-0.84-0.49-1.67-0.97-2.51-1.46c-0.09,0.3-0.19,0.6-0.3,0.89
				c-0.03,0.07-0.05,0.14-0.08,0.2c-0.07,0.2,0.11-0.25,0.02-0.05c-0.07,0.15-0.13,0.3-0.21,0.45c-0.27,0.56-0.59,1.1-0.94,1.61
				c-0.02,0.03-0.26,0.36-0.26,0.35c0,0,0.19-0.24,0.03-0.04c-0.05,0.06-0.09,0.11-0.14,0.17c-0.2,0.24-0.41,0.47-0.62,0.69
				c-0.22,0.22-0.44,0.44-0.68,0.64c-0.12,0.11-0.25,0.22-0.38,0.32c-0.03,0.02-0.23,0.17-0.06,0.05c0.18-0.14-0.1,0.07-0.11,0.08
				c0.61,0.79,1.21,1.57,1.82,2.36c2.33-2.2,4.67-4.4,7-6.6c0.57-0.54,0.59-1.58,0-2.12C887.73,175.41,886.84,175.4,886.23,175.98
				L886.23,175.98z"/>
		</g>
	</g>
	<g>
		<g>
			<path class="st4" d="M948.28,186.62c0.83-2.16-0.23-4.82-2.22-5.94c-0.75-0.42-2.06-0.1-2.2,0.9c-0.27,1.9-0.25,3.74,0.08,5.64
				c0.96-0.27,1.93-0.53,2.89-0.8c-0.14-0.54-0.27-1.09-0.37-1.64c-0.02-0.14-0.05-0.28-0.07-0.42c0-0.03-0.07-0.48-0.03-0.16
				c-0.04-0.28-0.07-0.56-0.09-0.84c-0.1-1.12-0.1-2.25-0.01-3.37c0.06-0.74-0.61-1.38-1.3-1.47c-0.66-0.09-1.54,0.34-1.65,1.07
				c-0.37,2.57-0.51,5.14-0.32,7.73c0.06,0.78,0.65,1.54,1.5,1.5c0.77-0.03,1.56-0.66,1.5-1.5c-0.09-1.2-0.11-2.4-0.07-3.6
				c0.02-0.58,0.05-1.15,0.1-1.73c0.02-0.29,0.05-0.57,0.09-0.86c0.02-0.17,0.04-0.33,0.06-0.5c0.01-0.11,0.01-0.1-0.01,0.04
				c0.01-0.1,0.03-0.19,0.04-0.29c-0.98-0.13-1.96-0.27-2.95-0.4c-0.18,2.42,0.06,4.87,0.67,7.22c0.2,0.76,1.08,1.3,1.85,1.05
				c0.83-0.27,1.19-1.02,1.05-1.85c-0.03-0.18-0.06-0.37-0.09-0.55c0.02,0.15,0.01,0.12,0-0.01c-0.01-0.09-0.02-0.18-0.03-0.28
				c-0.04-0.39-0.06-0.78-0.07-1.18c-0.01-0.37,0-0.74,0.02-1.11c0.01-0.18,0.02-0.37,0.04-0.55c0.01-0.09,0.02-0.18,0.03-0.28
				c0.01-0.06,0.05-0.38,0.01-0.08c-0.73,0.3-1.47,0.6-2.2,0.9c0.09,0.05,0.17,0.1,0.25,0.15c0.28,0.17-0.23-0.22,0.01,0
				c0.12,0.11,0.23,0.23,0.34,0.35c0.21,0.23-0.15-0.24,0,0.01c0.05,0.08,0.11,0.17,0.15,0.25c0.04,0.07,0.07,0.15,0.11,0.22
				c0.05,0.1,0.03,0.06-0.05-0.13c0.02,0.05,0.04,0.09,0.05,0.14c0.06,0.17,0.1,0.35,0.14,0.52c0.06,0.29-0.01-0.33,0-0.01
				c0,0.08,0.01,0.16,0.01,0.24c0,0.08-0.01,0.16-0.01,0.24c0,0.33,0.08-0.33,0-0.01c-0.04,0.19-0.09,0.38-0.17,0.56
				c-0.28,0.73,0.31,1.68,1.05,1.85C947.29,187.87,947.97,187.41,948.28,186.62L948.28,186.62z"/>
		</g>
	</g>
	<polygon class="st5" points="1065.68,283.91 1065.68,289.02 764.75,289.02 773.07,281.37 880.92,182.16 898.57,182.23 
		910.77,182.27 925.96,182.33 930.22,182.33 945.45,182.39 945.49,180.19 1062.74,281.37 	"/>
	<g>
		<g>
			<path class="st4" d="M1066.34,292.61c3.46,0,6.92,0,10.39,0c0.81,0,1.5-0.69,1.5-1.5c0-0.81-0.69-1.5-1.5-1.5
				c-3.46,0-6.92,0-10.39,0c-0.81,0-1.5,0.69-1.5,1.5C1064.84,291.92,1065.52,292.61,1066.34,292.61L1066.34,292.61z"/>
		</g>
	</g>
	<g>
		<g>
			<path class="st4" d="M1077.25,289.25c-2.66-2.66-5.33-5.33-7.99-7.99c-0.56-0.56-1.57-0.6-2.12,0c-0.55,0.6-0.59,1.53,0,2.12
				c2.66,2.66,5.33,5.33,7.99,7.99c0.56,0.56,1.57,0.6,2.12,0C1077.8,290.77,1077.85,289.84,1077.25,289.25L1077.25,289.25z"/>
		</g>
	</g>
	<g>
		<g>
			<path class="st4" d="M1069,289.44c-0.02,0.04-0.04,0.07-0.06,0.11c0.08-0.1,0.16-0.2,0.23-0.3c-0.01,0.01-0.02,0.02-0.03,0.03
				c0.1-0.08,0.2-0.16,0.3-0.23c-0.02,0.02-0.04,0.03-0.06,0.04c0.12-0.05,0.24-0.1,0.36-0.15c-0.04,0.02-0.07,0.02-0.11,0.03
				c0.13-0.02,0.27-0.04,0.4-0.05c-0.04,0-0.08,0-0.12,0c0.13,0.02,0.27,0.04,0.4,0.05c-0.04-0.01-0.08-0.02-0.13-0.04
				c0.12,0.05,0.24,0.1,0.36,0.15c-0.07-0.03-0.14-0.07-0.2-0.12c0.1,0.08,0.2,0.16,0.3,0.23c-0.05-0.04-0.1-0.09-0.14-0.14
				c0.08,0.1,0.16,0.2,0.23,0.3c-0.04-0.05-0.07-0.1-0.1-0.16c0.05,0.12,0.1,0.24,0.15,0.36c-0.02-0.05-0.03-0.09-0.04-0.14
				c0.02,0.13,0.04,0.27,0.05,0.4c-0.02-0.14-0.01-0.28,0.01-0.42c-0.02,0.13-0.04,0.27-0.05,0.4c0.11-0.69,0.31-1.38,0.06-2.07
				c-0.22-0.62-0.63-1.15-1.23-1.45c-0.98-0.5-2.09-0.46-3.14-0.25c0.62,0.35,1.23,0.7,1.85,1.05c-0.01-0.03-0.02-0.06-0.02-0.09
				c0.02,0.13,0.04,0.27,0.05,0.4c0-0.04-0.01-0.08,0-0.12c-0.02,0.13-0.04,0.27-0.05,0.4c0-0.03,0.01-0.05,0.02-0.08
				c-0.05,0.12-0.1,0.24-0.15,0.36c0.02-0.04,0.03-0.07,0.06-0.1c-0.08,0.1-0.16,0.2-0.23,0.3c0.03-0.03,0.06-0.06,0.09-0.09
				c-0.1,0.08-0.2,0.16-0.3,0.23c0.06-0.05,0.13-0.08,0.2-0.11c-0.12,0.05-0.24,0.1-0.36,0.15c0.1-0.04,0.19-0.06,0.3-0.08
				c-0.13,0.02-0.27,0.04-0.4,0.05c0.14-0.02,0.28-0.02,0.43,0c-0.13-0.02-0.27-0.04-0.4-0.05c0.15,0.02,0.29,0.07,0.44,0.13
				c-0.12-0.05-0.24-0.1-0.36-0.15c0.39,0.16,0.75,0.38,1.09,0.63c-0.1-0.08-0.2-0.16-0.3-0.23c0.33,0.26,0.63,0.56,0.89,0.89
				c-0.08-0.1-0.16-0.2-0.23-0.3c0.24,0.32,0.44,0.66,0.6,1.03c-0.05-0.12-0.1-0.24-0.15-0.36c0.11,0.27,0.22,0.54,0.26,0.83
				c-0.02-0.13-0.04-0.27-0.05-0.4c0.01,0.05,0.01,0.09,0,0.14c0.02-0.13,0.04-0.27,0.05-0.4c0,0.04-0.02,0.09-0.03,0.13
				c0.05-0.12,0.1-0.24,0.15-0.36c-0.02,0.04-0.04,0.07-0.06,0.1c0.08-0.1,0.16-0.2,0.23-0.3c-0.03,0.03-0.05,0.05-0.09,0.08
				c0.1-0.08,0.2-0.16,0.3-0.23c-0.05,0.03-0.1,0.06-0.16,0.08c0.12-0.05,0.24-0.1,0.36-0.15c-0.12,0.04-0.23,0.06-0.36,0.08
				c0.13-0.02,0.27-0.04,0.4-0.05c-0.29,0.04-0.57,0.03-0.85,0c0.13,0.02,0.27,0.04,0.4,0.05c-0.28-0.04-0.56-0.12-0.82-0.23
				c0.12,0.05,0.24,0.1,0.36,0.15c-0.3-0.13-0.59-0.29-0.85-0.49c0.1,0.08,0.2,0.16,0.3,0.23c-0.24-0.19-0.46-0.41-0.65-0.65
				c0.08,0.1,0.16,0.2,0.23,0.3c-0.17-0.23-0.32-0.47-0.44-0.73c0.05,0.12,0.1,0.24,0.15,0.36c-0.11-0.27-0.19-0.54-0.23-0.82
				c0.02,0.13,0.04,0.27,0.05,0.4c0-0.02,0-0.04-0.01-0.06c-0.05-0.41-0.14-0.76-0.44-1.06c-0.26-0.26-0.69-0.46-1.06-0.44
				c-0.39,0.02-0.79,0.14-1.06,0.44c-0.25,0.27-0.48,0.67-0.44,1.06c0.08,0.73,0.25,1.39,0.63,2.02c0.29,0.49,0.68,0.95,1.13,1.31
				c0.99,0.79,2.24,1.31,3.52,1.17c0.47-0.05,0.93-0.12,1.33-0.38c0.6-0.38,0.95-1.02,0.92-1.73c-0.02-0.71-0.35-1.46-0.7-2.06
				c-0.6-1.05-1.54-1.98-2.63-2.51c-0.33-0.16-0.67-0.33-1.04-0.39c-0.47-0.08-0.91-0.09-1.38,0.04c-1.08,0.29-1.89,1.35-1.53,2.49
				c0.26,0.82,1.02,1.21,1.85,1.05c0.11-0.02,0.22-0.04,0.33-0.06c-0.13,0.02-0.27,0.04-0.4,0.05c0.34-0.04,0.69-0.06,1.03-0.02
				c-0.13-0.02-0.27-0.04-0.4-0.05c0.19,0.03,0.38,0.07,0.57,0.14c-0.12-0.05-0.24-0.1-0.36-0.15c0.11,0.05,0.2,0.1,0.3,0.17
				c-0.1-0.08-0.2-0.16-0.3-0.23c0.06,0.05,0.12,0.1,0.17,0.17c-0.08-0.1-0.16-0.2-0.23-0.3c0.05,0.07,0.09,0.13,0.12,0.21
				c-0.05-0.12-0.1-0.24-0.15-0.36c0.04,0.09,0.06,0.18,0.08,0.27c-0.02-0.13-0.04-0.27-0.05-0.4c0.01,0.13,0.01,0.25,0,0.37
				c0.02-0.13,0.04-0.27,0.05-0.4c-0.06,0.46-0.21,0.91-0.2,1.38c0.02,0.6,0.24,1.15,0.68,1.57c0.4,0.39,0.95,0.64,1.51,0.65
				c0.63,0,1.36-0.35,1.62-0.95c0.17-0.39,0.27-0.73,0.15-1.16c-0.1-0.35-0.36-0.73-0.69-0.9c-0.35-0.18-0.77-0.28-1.16-0.15
				C1069.56,288.86,1069.15,289.09,1069,289.44L1069,289.44z"/>
		</g>
	</g>
</g>
<g>
	<path class="st6" d="M114.35,771.19c-0.99,2.64-2.97,4.29-5.28,4.29c-2.64,0-4.62-1.65-5.61-4.29L46.7,619.72v190.74
		c0,3.3-1.98,5.28-5.28,5.28h-1.98c-3.3,0-5.28-1.98-5.28-5.28V590.02c0-3.3,1.98-5.28,5.28-5.28h3.3c2.97,0,5.28,1.65,6.27,4.29
		l59.4,161.7l60.39-161.7c0.99-2.64,3.3-4.29,6.27-4.29h3.96c3.3,0,5.28,1.98,5.28,5.28v220.44c0,3.3-1.98,5.28-5.28,5.28h-2.64
		c-3.3,0-5.28-1.98-5.28-5.28V619.72L114.35,771.19z"/>
	<path class="st6" d="M353.6,815.74h-3.3c-2.97,0-4.95-1.32-5.61-4.62l-12.87-56.76h-66.66l-12.87,56.76
		c-0.66,3.3-2.64,4.62-5.61,4.62h-2.64c-3.63,0-5.28-2.31-4.62-5.94l51.15-220.44c0.66-3.3,2.64-4.62,5.61-4.62h4.62
		c2.97,0,4.95,1.32,5.61,4.62l51.81,220.44C358.88,813.43,357.23,815.74,353.6,815.74z M328.85,741.82l-30.36-132.99l-30.36,132.99
		H328.85z"/>
	<path class="st6" d="M519.26,815.74h-3.63c-2.97,0-4.95-1.32-5.94-4.29l-38.61-97.02h-4.62h-39.93v96.03c0,3.3-1.98,5.28-5.28,5.28
		h-2.64c-3.3,0-5.28-1.98-5.28-5.28V590.02c0-3.3,1.98-5.28,5.28-5.28h47.85c34.98,0,51.48,17.16,51.48,48.84v32.01
		c0,25.41-10.56,41.58-33,46.86l38.61,97.02C524.87,813.1,523.22,815.74,519.26,815.74z M504.74,659.65v-20.13
		c0-29.7-10.56-42.24-39.6-42.24h-38.61v104.61h38.61C494.18,701.89,504.74,689.35,504.74,659.65z"/>
	<path class="st6" d="M689.86,815.74h-3.63c-2.97,0-4.95-1.32-5.94-4.29l-50.82-127.38l-32.67,51.81v74.58
		c0,3.3-1.98,5.28-5.28,5.28h-2.64c-3.3,0-5.28-1.98-5.28-5.28V590.02c0-3.3,1.98-5.28,5.28-5.28h2.64c3.3,0,5.28,1.98,5.28,5.28
		V714.1l78.21-125.73c1.32-2.31,3.96-3.63,6.6-3.63h3.3c4.29,0,5.94,2.64,3.63,6.27l-50.49,79.53l56.1,138.93
		C695.47,813.1,693.82,815.74,689.86,815.74z"/>
	<path class="st6" d="M830.77,815.74h-78.54c-3.3,0-5.28-1.98-5.28-5.28V590.02c0-3.3,1.98-5.28,5.28-5.28h77.55
		c3.3,0,5.28,1.98,5.28,5.28V592c0,3.3-1.98,5.28-5.28,5.28h-69.63v95.04h59.4c3.3,0,5.28,1.98,5.28,5.28v1.98
		c0,3.3-1.98,5.28-5.28,5.28h-59.4v98.34h70.62c3.3,0,5.28,1.98,5.28,5.28v1.98C836.05,813.76,834.07,815.74,830.77,815.74z"/>
	<path class="st6" d="M976.3,590.02V592c0,3.3-1.98,5.28-5.28,5.28h-39.27v213.18c0,3.3-1.98,5.28-5.28,5.28h-2.64
		c-3.3,0-5.28-1.98-5.28-5.28V597.28h-39.27c-3.3,0-5.28-1.98-5.28-5.28v-1.98c0-3.3,1.98-5.28,5.28-5.28h91.74
		C974.32,584.74,976.3,586.72,976.3,590.02z"/>
	<path class="st6" d="M1131.07,815.74h-6.93c-4.95,0-8.25-2.31-9.9-6.93l-33-90.42h-1.98h-32.01v88.77c0,5.61-3.3,8.58-8.91,8.58
		h-6.27c-5.61,0-8.58-2.97-8.58-8.58V593.32c0-5.61,2.97-8.58,8.58-8.58h47.19c34.98,0,54.12,15.84,54.12,48.84v35.97
		c0,24.09-10.23,38.94-29.04,45.21l33.66,91.08C1139.98,811.45,1137.34,815.74,1131.07,815.74z M1047.25,697.27h30.69
		c22.11,0,31.68-9.24,31.68-33.33v-24.42c0-24.09-9.57-33.33-31.68-33.33h-30.69V697.27z"/>
	<path class="st6" d="M1297.05,815.74h-6.93c-4.95,0-8.25-2.31-9.24-7.92l-9.9-49.17h-56.76l-9.9,49.17
		c-0.99,5.61-3.96,7.92-9.24,7.92h-5.61c-5.94,0-8.91-3.3-7.92-9.57l45.54-213.84c0.99-5.28,4.29-7.59,9.57-7.59h12.54
		c5.28,0,8.58,2.31,9.57,7.59l46.2,213.84C1305.96,812.44,1302.99,815.74,1297.05,815.74z M1266.69,737.86l-24.09-120.12
		l-24.09,120.12H1266.69z"/>
	<path class="st6" d="M1463.04,815.74h-6.93c-4.95,0-8.25-2.31-9.9-6.93l-41.25-112.2l-26.07,44.88v65.67c0,5.61-3.3,8.58-8.91,8.58
		h-6.27c-5.61,0-8.58-2.97-8.58-8.58V593.32c0-5.61,2.97-8.58,8.58-8.58h6.27c5.61,0,8.91,2.97,8.91,8.58v110.22l60.72-112.53
		c1.98-3.96,5.61-6.27,10.23-6.27h7.92c6.6,0,9.24,4.29,5.94,10.23l-44.22,76.23l50.49,134.64
		C1471.95,811.45,1469.31,815.74,1463.04,815.74z"/>
	<path class="st6" d="M1604.28,815.74h-77.22c-5.61,0-8.58-2.97-8.58-8.58V593.32c0-5.61,2.97-8.58,8.58-8.58h76.23
		c5.61,0,8.58,2.97,8.58,8.58v4.29c0,5.61-2.97,8.58-8.58,8.58h-61.05v81.84h50.82c5.61,0,8.58,2.97,8.58,8.58v3.96
		c0,5.61-2.97,8.58-8.58,8.58h-50.82v85.14h62.04c5.61,0,8.58,2.97,8.58,8.58v4.29C1612.86,812.77,1609.89,815.74,1604.28,815.74z"
		/>
	<path class="st6" d="M1772.25,815.74h-6.93c-4.95,0-8.25-2.31-9.9-6.93l-33-90.42h-1.98h-32.01v88.77c0,5.61-3.3,8.58-8.91,8.58
		h-6.27c-5.61,0-8.58-2.97-8.58-8.58V593.32c0-5.61,2.97-8.58,8.58-8.58h47.19c34.98,0,54.12,15.84,54.12,48.84v35.97
		c0,24.09-10.23,38.94-29.04,45.21l33.66,91.08C1781.16,811.45,1778.52,815.74,1772.25,815.74z M1688.43,697.27h30.69
		c22.11,0,31.68-9.24,31.68-33.33v-24.42c0-24.09-9.57-33.33-31.68-33.33h-30.69V697.27z"/>
</g>
<g>
	<path class="st4" d="M575.22,990.87h-0.96c-1.2,0-1.92-0.72-1.92-1.92v-80.16c0-1.2,0.72-1.92,1.92-1.92h1.56
		c1.08,0,1.8,0.48,2.16,1.44l29.04,70.92v-70.44c0-1.2,0.72-1.92,1.92-1.92h0.96c1.2,0,1.92,0.72,1.92,1.92v80.16
		c0,1.2-0.72,1.92-1.92,1.92h-1.32c-1.08,0-1.8-0.48-2.16-1.44l-29.28-70.92v70.44C577.14,990.15,576.42,990.87,575.22,990.87z"/>
	<path class="st4" d="M654.66,905.91h0.96c12.72,0,18.72,6.24,18.72,17.76v50.4c0,11.52-6,17.76-18.72,17.76h-0.96
		c-12.72,0-18.72-6.24-18.72-17.76v-50.4C635.94,912.03,641.94,905.91,654.66,905.91z M655.14,987.27c10.56,0,14.4-4.56,14.4-15.36
		v-46.08c0-10.8-3.84-15.36-14.4-15.36s-14.4,4.56-14.4,15.36v46.08C640.74,982.71,644.58,987.27,655.14,987.27z"/>
	<path class="st4" d="M754.62,974.67c-0.36,0.96-1.08,1.56-1.92,1.56c-0.96,0-1.68-0.6-2.04-1.56l-20.64-55.08v69.36
		c0,1.2-0.72,1.92-1.92,1.92h-0.72c-1.2,0-1.92-0.72-1.92-1.92v-80.16c0-1.2,0.72-1.92,1.92-1.92h1.2c1.08,0,1.92,0.6,2.28,1.56
		l21.6,58.8l21.96-58.8c0.36-0.96,1.2-1.56,2.28-1.56h1.44c1.2,0,1.92,0.72,1.92,1.92v80.16c0,1.2-0.72,1.92-1.92,1.92h-0.96
		c-1.2,0-1.92-0.72-1.92-1.92v-69.36L754.62,974.67z"/>
	<path class="st4" d="M822.9,905.91h0.96c12.72,0,18.72,6.24,18.72,17.76v50.4c0,11.52-6,17.76-18.72,17.76h-0.96
		c-12.72,0-18.72-6.24-18.72-17.76v-50.4C804.18,912.03,810.18,905.91,822.9,905.91z M823.38,987.27c10.56,0,14.4-4.56,14.4-15.36
		v-46.08c0-10.8-3.84-15.36-14.4-15.36s-14.4,4.56-14.4,15.36v46.08C808.98,982.71,812.82,987.27,823.38,987.27z"/>
	<path class="st4" d="M905.21,990.87h-1.32c-1.08,0-1.8-0.48-2.16-1.56l-14.04-35.28h-1.68H871.5v34.92c0,1.2-0.72,1.92-1.92,1.92
		h-0.96c-1.2,0-1.92-0.72-1.92-1.92v-80.16c0-1.2,0.72-1.92,1.92-1.92h17.4c12.72,0,18.72,6.24,18.72,17.76v11.64
		c0,9.24-3.84,15.12-12,17.04l14.04,35.28C907.26,989.91,906.66,990.87,905.21,990.87z M899.94,934.11v-7.32
		c0-10.8-3.84-15.36-14.4-15.36H871.5v38.04h14.04C896.1,949.47,899.94,944.91,899.94,934.11z"/>
	<path class="st4" d="M959.09,990.87h-28.56c-1.2,0-1.92-0.72-1.92-1.92v-80.16c0-1.2,0.72-1.92,1.92-1.92h28.2
		c1.2,0,1.92,0.72,1.92,1.92v0.72c0,1.2-0.72,1.92-1.92,1.92h-25.32v34.56h21.6c1.2,0,1.92,0.72,1.92,1.92v0.72
		c0,1.2-0.72,1.92-1.92,1.92h-21.6v35.76h25.68c1.2,0,1.92,0.72,1.92,1.92v0.72C961.01,990.15,960.29,990.87,959.09,990.87z"/>
	<path class="st4" d="M1011.17,990.87h-0.96c-1.2,0-1.92-0.72-1.92-1.92v-80.16c0-1.2,0.72-1.92,1.92-1.92h1.56
		c1.08,0,1.8,0.48,2.16,1.44l29.04,70.92v-70.44c0-1.2,0.72-1.92,1.92-1.92h0.96c1.2,0,1.92,0.72,1.92,1.92v80.16
		c0,1.2-0.72,1.92-1.92,1.92h-1.32c-1.08,0-1.8-0.48-2.16-1.44l-29.28-70.92v70.44C1013.09,990.15,1012.37,990.87,1011.17,990.87z"
		/>
	<path class="st4" d="M1090.61,905.91h0.96c12.72,0,18.72,6.24,18.72,17.76v50.4c0,11.52-6,17.76-18.72,17.76h-0.96
		c-12.72,0-18.72-6.24-18.72-17.76v-50.4C1071.89,912.03,1077.89,905.91,1090.61,905.91z M1091.09,987.27
		c10.56,0,14.4-4.56,14.4-15.36v-46.08c0-10.8-3.84-15.36-14.4-15.36c-10.56,0-14.4,4.56-14.4,15.36v46.08
		C1076.69,982.71,1080.53,987.27,1091.09,987.27z"/>
	<path class="st4" d="M1137.77,990.87h-0.96c-1.2,0-1.92-0.72-1.92-1.92v-80.16c0-1.2,0.72-1.92,1.92-1.92h0.96
		c1.2,0,1.92,0.72,1.92,1.92v80.16C1139.69,990.15,1138.97,990.87,1137.77,990.87z"/>
	<path class="st4" d="M1197.89,935.67h-0.96c-1.2,0-1.92-0.72-1.92-1.92v-8.64c0-10.08-3.48-14.64-13.56-14.64
		c-10.08,0-13.56,4.56-13.56,14.64v5.88c0,6.72,2.4,8.28,9.24,12l13.56,7.32c5.28,2.88,9.36,7.8,9.36,13.44v10.56
		c0,11.76-5.64,17.52-18.36,17.52h-0.24c-12.72,0-18.36-5.64-18.36-17.52v-11.52c0-1.2,0.72-1.92,1.92-1.92h0.96
		c1.2,0,1.92,0.72,1.92,1.92v9.6c0,9.96,3.48,14.88,13.68,14.88s13.68-4.92,13.68-14.88v-6.72c0-6.72-2.76-8.88-9.72-12.72
		l-13.2-7.2c-6.72-3.72-9.24-6.84-9.24-13.08v-9.48c0-11.28,6.72-17.28,18.24-17.28h0.24c11.52,0,18.24,6,18.24,17.28v10.56
		C1199.81,934.95,1199.09,935.67,1197.89,935.67z"/>
	<path class="st4" d="M1253.21,990.87h-28.56c-1.2,0-1.92-0.72-1.92-1.92v-80.16c0-1.2,0.72-1.92,1.92-1.92h28.2
		c1.2,0,1.92,0.72,1.92,1.92v0.72c0,1.2-0.72,1.92-1.92,1.92h-25.32v34.56h21.6c1.2,0,1.92,0.72,1.92,1.92v0.72
		c0,1.2-0.72,1.92-1.92,1.92h-21.6v35.76h25.68c1.2,0,1.92,0.72,1.92,1.92v0.72C1255.13,990.15,1254.41,990.87,1253.21,990.87z"/>
	<path class="st4" d="M1278.53,985.59v3.36c0,1.2-0.72,1.92-1.92,1.92h-1.68c-1.2,0-1.92-0.72-1.92-1.92v-3.36
		c0-1.2,0.72-1.92,1.92-1.92h1.68C1277.81,983.67,1278.53,984.39,1278.53,985.59z"/>
</g>
<g>
</g>
<g>
</g>
<g>
</g>
<g>
</g>
<g>
</g>
<g>
</g>
<g>
</g>
<g>
</g>
<g>
</g>
<g>
</g>
<g>
</g>
<g>
</g>
<g>
</g>
<g>
</g>
<g>
</g>
</svg>
