<?xml version="1.0" encoding="utf-8"?>
<!-- Generator: Adobe Illustrator 27.3.1, SVG Export Plug-In . SVG Version: 6.00 Build 0)  -->
<svg version="1.1" xmlns="http://www.w3.org/2000/svg" xmlns:xlink="http://www.w3.org/1999/xlink" x="0px" y="0px"
	 viewBox="0 0 1850 1023" style="enable-background:new 0 0 1850 1023;" xml:space="preserve">
<style type="text/css">
	.st0{fill:#FFFFFF;stroke:#FFFFFF;stroke-width:9;stroke-miterlimit:10;}
	.st1{fill:#FFFFFF;stroke:#FFFFFF;stroke-width:8;stroke-miterlimit:10;}
	.st2{fill:#FFFFFF;stroke:#FFFFFF;stroke-miterlimit:10;}
	.st3{fill:none;stroke:#FFFFFF;stroke-width:18;stroke-miterlimit:10;}
	.st4{fill:#FFFFFF;}
</style>
<g id="Layer_5">
</g>
<g id="Layer_4">
</g>
<g id="Layer_2">
</g>
<g id="Layer_1">
	<g>
		<path class="st0" d="M576.09,516.44"/>
		<path class="st1" d="M721.03,365.46l-85.85,76.26L521.8,542.41l-5.12-1.67l-14.17-4.61l0.93-0.83c0-0.01,0-0.01,0.01-0.01
			L619.2,432.49l75.55-67.11L721.03,365.46z"/>
		<polygon class="st1" points="1129.89,357.76 1129.89,365.13 696.09,365.13 708.09,354.1 863.55,211.08 889.01,211.18 
			906.59,211.24 928.48,211.32 934.62,211.33 956.59,211.42 956.63,208.24 1125.65,354.1 		"/>
		<polygon class="st1" points="951.66,208.32 951.61,211.5 929.02,211.42 922.7,206.13 904.71,191.05 901.18,188.09 914.29,182.48 
			918.63,180.63 922.7,184.04 		"/>
		<polygon class="st1" points="1338.94,533.03 1321.49,540.49 1206.52,444.09 1112.34,365.13 1129.89,365.13 1129.89,357.76 
			1222.78,435.64 		"/>
		<polygon class="st1" points="922.7,179.51 922.7,211.4 900.18,211.32 900.18,179.51 		"/>
		<rect x="900.18" y="365.13" class="st1" width="22.52" height="236.24"/>
		<polygon class="st2" points="1129.89,354.1 1129.89,357.76 1125.53,354.1 		"/>
		<path class="st1" d="M790.53,365.13L717.2,482.25l-63.15,100.86l-7.71-1.6l-11.06-2.3c-0.01,0-0.01,0-0.01,0l-2.4-0.49
			l64.75-103.41l68.97-110.17H790.53z"/>
		<polygon class="st1" points="851.15,365.13 813.77,505.86 790.26,594.4 783.2,593.71 771.81,592.57 771.8,592.57 768.22,592.22 
			792.18,502.04 828.54,365.13 		"/>
		<polygon class="st1" points="1073.34,594.57 1071.84,594.77 1055.65,596.89 1051.31,597.45 1018.8,504.61 969.96,365.13 
			992.99,365.13 1040.45,500.62 		"/>
		<polygon class="st1" points="1212.32,579.44 1210.97,579.78 1196.54,583.31 1191.59,584.52 1115.63,480.98 1030.62,365.13 
			1055.1,365.13 1135.21,474.34 		"/>
		<path class="st1" d="M1336.43,601.49L1336.43,601.49c-6.39,0-11.57-6.01-11.57-13.43v-39.24c0-7.42,5.18-13.43,11.57-13.43l0,0
			c6.39,0,11.57,6.01,11.57,13.43v39.24C1348,595.48,1342.82,601.49,1336.43,601.49z"/>
		<path class="st2" d="M874.14,19l-5.62,192.62c0.3,0.6,0.32,1.24-0.05,1.87l-0.51,17.59h0.26l23.82,0.05l16.46,0.03L929,231.2
			l5.74,0.01l20.56,0.04l0.04-1.62L961.48,19L874.14,19z"/>
		<path class="st3" d="M639.45,425.14c61.36,43.56,130.3,68.76,203.83,81.97c130.98,21.61,263.1-7.2,373.85-77.57"/>
		<path class="st1" d="M1205.47,649.27L1205.47,649.27c-6.39,0-11.57-6.48-11.57-14.47v-42.29c0-7.99,5.18-14.47,11.57-14.47l0,0
			c6.39,0,11.57,6.48,11.57,14.47v42.29C1217.04,642.79,1211.86,649.27,1205.47,649.27z"/>
		<path class="st1" d="M1064.56,666.14L1064.56,666.14c-6.39,0-11.57-6.8-11.57-15.19v-44.37c0-8.39,5.18-15.19,11.57-15.19l0,0
			c6.39,0,11.57,6.8,11.57,15.19v44.37C1076.13,659.34,1070.95,666.14,1064.56,666.14z"/>
		<path class="st1" d="M911.34,673.8L911.34,673.8c-6.39,0-11.57-6.99-11.57-15.62v-45.64c0-8.63,5.18-15.62,11.57-15.62l0,0
			c6.39,0,11.57,6.99,11.57,15.62v45.64C922.91,666.8,917.73,673.8,911.34,673.8z"/>
		<path class="st1" d="M776.74,666.14L776.74,666.14c-6.39,0-11.57-6.82-11.57-15.24v-44.54c0-8.42,5.18-15.24,11.57-15.24h0
			c6.39,0,11.57,6.82,11.57,15.24v44.54C788.31,659.31,783.13,666.14,776.74,666.14z"/>
		<path class="st1" d="M639.14,649.27L639.14,649.27c-6.39,0-11.57-6.45-11.57-14.4v-42.08c0-7.95,5.18-14.4,11.57-14.4h0
			c6.39,0,11.57,6.45,11.57,14.4v42.08C650.71,642.82,645.53,649.27,639.14,649.27z"/>
		<path class="st1" d="M507.28,601.07L507.28,601.07c-6.39,0-11.57-6.01-11.57-13.43V548.4c0-7.42,5.18-13.43,11.57-13.43l0,0
			c6.39,0,11.57,6.01,11.57,13.43v39.24C518.85,595.06,513.67,601.07,507.28,601.07z"/>
		<path class="st2" d="M862.98,346.21"/>
		<g>
			<path class="st4" d="M870.25,199.01c-3.48,2.67-6.2,6.31-7.77,10.41c1.85-6.24,8.49-9.87,11.31-15.73
				c-3.46,3.19-6.55,6.77-9.19,10.67c2.58-3.13,5.16-6.26,7.74-9.4"/>
			<g>
				<path class="st4" d="M869.19,197.95c-3.7,2.87-6.46,6.72-8.15,11.07c0.96,0.27,1.93,0.53,2.89,0.8c0.92-2.99,3.05-5.35,5.14-7.6
					c2.23-2.4,4.57-4.81,6.03-7.78c0.74-1.51-1.07-3.01-2.36-1.82c-3.55,3.29-6.7,6.97-9.42,10.97c-0.95,1.39,1.27,3.14,2.36,1.82
					c2.58-3.13,5.16-6.26,7.74-9.4c0.51-0.62,0.61-1.51,0-2.12c-0.53-0.53-1.6-0.63-2.12,0c-2.58,3.13-5.16,6.26-7.74,9.4
					c0.79,0.61,1.57,1.21,2.36,1.82c2.58-3.79,5.59-7.25,8.95-10.36c-0.79-0.61-1.57-1.21-2.36-1.82
					c-2.95,6.01-9.45,9.5-11.47,16.09c-0.24,0.77,0.28,1.63,1.05,1.85c0.85,0.23,1.55-0.29,1.85-1.05c1.5-3.87,4.11-7.21,7.38-9.74
					c0.64-0.5,0.52-1.6,0-2.12C870.68,197.31,869.83,197.45,869.19,197.95L869.19,197.95z"/>
			</g>
		</g>
		<g>
			<path class="st4" d="M858.38,211.53c6.84-7.59,15.13-15.86,16.81-26.4"/>
			<g>
				<path class="st4" d="M859.44,212.6c7.13-7.9,15.36-16.11,17.2-27.06c0.32-1.89-2.57-2.7-2.89-0.8
					c-1.75,10.44-9.63,18.2-16.43,25.73C856.03,211.9,858.15,214.03,859.44,212.6L859.44,212.6z"/>
			</g>
		</g>
		<g>
			<path class="st4" d="M856.59,213.59c-0.73,0.83-1.45,1.66-2.18,2.49c0.76-0.91,1.54-1.81,2.33-2.7"/>
			<g>
				<path class="st4" d="M855.53,212.53c-0.73,0.83-1.45,1.66-2.18,2.49c0.71,0.71,1.41,1.41,2.12,2.12
					c0.76-0.91,1.54-1.81,2.33-2.7c0.26-0.3,0.44-0.65,0.44-1.06c0-0.37-0.16-0.81-0.44-1.06c-0.29-0.26-0.66-0.46-1.06-0.44
					c-0.38,0.02-0.8,0.14-1.06,0.44c-0.79,0.89-1.56,1.79-2.33,2.7c-0.15,0.14-0.25,0.3-0.31,0.48c-0.09,0.18-0.14,0.37-0.13,0.58
					c0,0.37,0.16,0.81,0.44,1.06c0.29,0.26,0.66,0.46,1.06,0.44c0.38-0.02,0.8-0.14,1.06-0.44c0.73-0.83,1.45-1.66,2.18-2.49
					c0.26-0.3,0.44-0.65,0.44-1.06c0-0.37-0.16-0.81-0.44-1.06c-0.29-0.26-0.66-0.46-1.06-0.44
					C856.21,212.11,855.79,212.23,855.53,212.53L855.53,212.53z"/>
			</g>
		</g>
		<g>
			<path class="st4" d="M862.61,206.13c0.52-0.44,1.08-0.84,1.61-1.26c-2,2.28-4,4.57-6,6.85"/>
			<g>
				<path class="st4" d="M863.67,207.19c0.13-0.11,0.26-0.22,0.4-0.32c0.07-0.05,0.13-0.11,0.2-0.16c-0.13,0.1-0.13,0.1,0,0
					c0.34-0.26,0.68-0.52,1.01-0.78c-0.71-0.71-1.41-1.41-2.12-2.12c-2,2.28-4,4.57-6,6.85c-0.52,0.59-0.62,1.55,0,2.12
					c0.57,0.52,1.57,0.63,2.12,0c2-2.28,4-4.57,6-6.85c0.52-0.59,0.62-1.55,0-2.12c-0.66-0.61-1.46-0.52-2.12,0
					c0.27-0.21-0.16,0.12-0.2,0.15c-0.14,0.1-0.27,0.21-0.41,0.31c-0.34,0.26-0.68,0.52-1,0.79c-0.61,0.5-0.56,1.61,0,2.12
					C862.19,207.79,863.02,207.73,863.67,207.19L863.67,207.19z"/>
			</g>
		</g>
		<g>
			<path class="st4" d="M872.79,201.02c-3.37,3.17-6.73,6.35-10.1,9.52c3.04-2.21,5.3-5.41,6.35-9.02c-2.03,1.97-4.05,3.94-6.08,5.9
				c0.91-1.69,1.91-3.33,2.99-4.92c-0.37,0.14-0.72,0.31-1.06,0.51"/>
			<g>
				<path class="st4" d="M871.72,199.96c-3.37,3.17-6.73,6.35-10.1,9.52c-0.54,0.51-0.57,1.4-0.12,1.97
					c0.43,0.53,1.32,0.83,1.93,0.39c3.37-2.47,5.85-5.91,7.04-9.92c0.43-1.46-1.45-2.48-2.51-1.46c-2.03,1.97-4.05,3.94-6.08,5.9
					c0.79,0.61,1.57,1.21,2.36,1.82c0.92-1.69,1.91-3.33,2.99-4.92c0.69-1.03-0.48-2.69-1.69-2.2c-0.49,0.19-0.96,0.4-1.42,0.66
					c-0.7,0.4-0.94,1.36-0.54,2.05c0.41,0.71,1.34,0.94,2.05,0.54c0.15-0.08,0.29-0.16,0.44-0.24c0.03-0.02,0.42-0.18,0.26-0.12
					c-0.56-0.73-1.13-1.47-1.69-2.2c-1.07,1.59-2.07,3.23-2.99,4.92c-0.81,1.49,1.11,3.02,2.36,1.82c2.03-1.97,4.05-3.94,6.08-5.9
					c-0.84-0.49-1.67-0.97-2.51-1.46c-0.13,0.43-0.27,0.86-0.43,1.28c-0.04,0.1-0.08,0.2-0.12,0.29c-0.1,0.24,0.07-0.16-0.03,0.08
					c-0.09,0.22-0.19,0.43-0.3,0.65c-0.39,0.81-0.85,1.58-1.36,2.31c-0.28,0.41-0.34,0.48-0.63,0.83c-0.29,0.35-0.58,0.68-0.9,1
					c-0.31,0.32-0.64,0.63-0.97,0.93c-0.18,0.16-0.36,0.31-0.55,0.46c-0.02,0.02-0.23,0.18-0.16,0.13c0.07-0.05-0.23,0.17-0.23,0.17
					c0.61,0.79,1.21,1.57,1.82,2.36c3.37-3.17,6.73-6.35,10.1-9.52c0.59-0.56,0.56-1.56,0-2.12
					C873.26,199.37,872.32,199.4,871.72,199.96L871.72,199.96z"/>
			</g>
		</g>
		<g>
			<path class="st4" d="M958.62,214.27c0.89-2.2-0.12-4.99-2.21-6.11c-0.34,2.31-0.3,4.68,0.12,6.97c-0.85-3.19-1.16-6.53-0.89-9.83
				c-0.52,3.5-0.65,7.05-0.39,10.57"/>
			<g>
				<path class="st4" d="M960.06,214.67c1.1-2.85-0.26-6.33-2.9-7.81c-0.75-0.42-2.06-0.1-2.2,0.9c-0.37,2.61-0.34,5.18,0.12,7.77
					c0.96-0.27,1.93-0.53,2.89-0.8c-0.81-3.09-1.08-6.25-0.84-9.43c0.06-0.73-0.61-1.39-1.3-1.47c-0.66-0.08-1.54,0.33-1.65,1.07
					c-0.53,3.64-0.7,7.3-0.44,10.97c0.06,0.81,0.65,1.5,1.5,1.5c0.77,0,1.56-0.69,1.5-1.5c-0.24-3.39-0.15-6.81,0.34-10.17
					c-0.98-0.13-1.96-0.27-2.95-0.4c-0.26,3.43,0.07,6.9,0.95,10.23c0.21,0.78,1.07,1.26,1.85,1.05c0.84-0.23,1.19-1.04,1.05-1.85
					c-0.36-2.02-0.41-4.15-0.12-6.18c-0.73,0.3-1.47,0.6-2.2,0.9c0.12,0.07,0.24,0.14,0.36,0.22c0.34,0.21-0.14-0.16,0.14,0.11
					c0.17,0.16,0.34,0.33,0.5,0.5c0.22,0.24-0.05-0.11,0.11,0.15c0.07,0.12,0.15,0.24,0.22,0.36c0.06,0.1,0.11,0.21,0.16,0.32
					c0.04,0.1,0.04,0.09-0.01-0.03c0.03,0.07,0.05,0.13,0.07,0.2c0.09,0.25,0.15,0.5,0.2,0.75c0.07,0.31,0.01-0.19,0.02,0.16
					c0,0.12,0.01,0.24,0.01,0.35c0,0.12-0.01,0.24-0.01,0.35c-0.01,0.41,0.07-0.24-0.02,0.16c-0.06,0.28-0.14,0.55-0.24,0.81
					c-0.29,0.76,0.32,1.65,1.05,1.85C959.06,215.95,959.77,215.42,960.06,214.67L960.06,214.67z"/>
			</g>
		</g>
	</g>
</g>
<g id="Layer_3">
	<g>
	</g>
	<g>
		<path class="st4" d="M127.45,960.73c-0.99,2.64-2.97,4.29-5.28,4.29c-2.64,0-4.62-1.65-5.61-4.29L59.8,809.26V1000
			c0,3.3-1.98,5.28-5.28,5.28h-1.98c-3.3,0-5.28-1.98-5.28-5.28V779.56c0-3.3,1.98-5.28,5.28-5.28h3.3c2.97,0,5.28,1.65,6.27,4.29
			l59.4,161.7l60.39-161.7c0.99-2.64,3.3-4.29,6.27-4.29h3.96c3.3,0,5.28,1.98,5.28,5.28V1000c0,3.3-1.98,5.28-5.28,5.28h-2.64
			c-3.3,0-5.28-1.98-5.28-5.28V809.26L127.45,960.73z"/>
		<path class="st4" d="M366.69,1005.28h-3.3c-2.97,0-4.95-1.32-5.61-4.62l-12.87-56.76h-66.66l-12.87,56.76
			c-0.66,3.3-2.64,4.62-5.61,4.62h-2.64c-3.63,0-5.28-2.31-4.62-5.94l51.15-220.44c0.66-3.3,2.64-4.62,5.61-4.62h4.62
			c2.97,0,4.95,1.32,5.61,4.62l51.81,220.44C371.97,1002.97,370.32,1005.28,366.69,1005.28z M341.94,931.36l-30.36-132.99
			l-30.36,132.99H341.94z"/>
		<path class="st4" d="M532.35,1005.28h-3.63c-2.97,0-4.95-1.32-5.94-4.29l-38.61-97.02h-4.62h-39.93V1000
			c0,3.3-1.98,5.28-5.28,5.28h-2.64c-3.3,0-5.28-1.98-5.28-5.28V779.56c0-3.3,1.98-5.28,5.28-5.28h47.85
			c34.98,0,51.48,17.16,51.48,48.84v32.01c0,25.41-10.56,41.58-33,46.86l38.61,97.02C537.96,1002.64,536.31,1005.28,532.35,1005.28z
			 M517.83,849.19v-20.13c0-29.7-10.56-42.24-39.6-42.24h-38.61v104.61h38.61C507.27,891.43,517.83,878.89,517.83,849.19z"/>
		<path class="st4" d="M702.96,1005.28h-3.63c-2.97,0-4.95-1.32-5.94-4.29l-50.82-127.38l-32.67,51.81V1000
			c0,3.3-1.98,5.28-5.28,5.28h-2.64c-3.3,0-5.28-1.98-5.28-5.28V779.56c0-3.3,1.98-5.28,5.28-5.28h2.64c3.3,0,5.28,1.98,5.28,5.28
			v124.08l78.21-125.73c1.32-2.31,3.96-3.63,6.6-3.63h3.3c4.29,0,5.94,2.64,3.63,6.27l-50.49,79.53l56.1,138.93
			C708.57,1002.64,706.92,1005.28,702.96,1005.28z"/>
		<path class="st4" d="M843.87,1005.28h-78.54c-3.3,0-5.28-1.98-5.28-5.28V779.56c0-3.3,1.98-5.28,5.28-5.28h77.55
			c3.3,0,5.28,1.98,5.28,5.28v1.98c0,3.3-1.98,5.28-5.28,5.28h-69.63v95.04h59.4c3.3,0,5.28,1.98,5.28,5.28v1.98
			c0,3.3-1.98,5.28-5.28,5.28h-59.4v98.34h70.62c3.3,0,5.28,1.98,5.28,5.28v1.98C849.15,1003.3,847.17,1005.28,843.87,1005.28z"/>
		<path class="st4" d="M989.39,779.56v1.98c0,3.3-1.98,5.28-5.28,5.28h-39.27V1000c0,3.3-1.98,5.28-5.28,5.28h-2.64
			c-3.3,0-5.28-1.98-5.28-5.28V786.82h-39.27c-3.3,0-5.28-1.98-5.28-5.28v-1.98c0-3.3,1.98-5.28,5.28-5.28h91.74
			C987.41,774.28,989.39,776.26,989.39,779.56z"/>
		<path class="st4" d="M1144.16,1005.28h-6.93c-4.95,0-8.25-2.31-9.9-6.93l-33-90.42h-1.98h-32.01v88.77c0,5.61-3.3,8.58-8.91,8.58
			h-6.27c-5.61,0-8.58-2.97-8.58-8.58V782.86c0-5.61,2.97-8.58,8.58-8.58h47.19c34.98,0,54.12,15.84,54.12,48.84v35.97
			c0,24.09-10.23,38.94-29.04,45.21l33.66,91.08C1153.07,1000.99,1150.43,1005.28,1144.16,1005.28z M1060.34,886.81h30.69
			c22.11,0,31.68-9.24,31.68-33.33v-24.42c0-24.09-9.57-33.33-31.68-33.33h-30.69V886.81z"/>
		<path class="st4" d="M1310.15,1005.28h-6.93c-4.95,0-8.25-2.31-9.24-7.92l-9.9-49.17h-56.76l-9.9,49.17
			c-0.99,5.61-3.96,7.92-9.24,7.92h-5.61c-5.94,0-8.91-3.3-7.92-9.57l45.54-213.84c0.99-5.28,4.29-7.59,9.57-7.59h12.54
			c5.28,0,8.58,2.31,9.57,7.59l46.2,213.84C1319.06,1001.98,1316.09,1005.28,1310.15,1005.28z M1279.79,927.4l-24.09-120.12
			l-24.09,120.12H1279.79z"/>
		<path class="st4" d="M1476.14,1005.28h-6.93c-4.95,0-8.25-2.31-9.9-6.93l-41.25-112.2l-26.07,44.88v65.67
			c0,5.61-3.3,8.58-8.91,8.58h-6.27c-5.61,0-8.58-2.97-8.58-8.58V782.86c0-5.61,2.97-8.58,8.58-8.58h6.27
			c5.61,0,8.91,2.97,8.91,8.58v110.22l60.72-112.53c1.98-3.96,5.61-6.27,10.23-6.27h7.92c6.6,0,9.24,4.29,5.94,10.23l-44.22,76.23
			l50.49,134.64C1485.05,1000.99,1482.41,1005.28,1476.14,1005.28z"/>
		<path class="st4" d="M1617.37,1005.28h-77.22c-5.61,0-8.58-2.97-8.58-8.58V782.86c0-5.61,2.97-8.58,8.58-8.58h76.23
			c5.61,0,8.58,2.97,8.58,8.58v4.29c0,5.61-2.97,8.58-8.58,8.58h-61.05v81.84h50.82c5.61,0,8.58,2.97,8.58,8.58v3.96
			c0,5.61-2.97,8.58-8.58,8.58h-50.82v85.14h62.04c5.61,0,8.58,2.97,8.58,8.58v4.29
			C1625.95,1002.31,1622.98,1005.28,1617.37,1005.28z"/>
		<path class="st4" d="M1785.34,1005.28h-6.93c-4.95,0-8.25-2.31-9.9-6.93l-33-90.42h-1.98h-32.01v88.77c0,5.61-3.3,8.58-8.91,8.58
			h-6.27c-5.61,0-8.58-2.97-8.58-8.58V782.86c0-5.61,2.97-8.58,8.58-8.58h47.19c34.98,0,54.12,15.84,54.12,48.84v35.97
			c0,24.09-10.23,38.94-29.04,45.21l33.66,91.08C1794.25,1000.99,1791.61,1005.28,1785.34,1005.28z M1701.52,886.81h30.69
			c22.11,0,31.68-9.24,31.68-33.33v-24.42c0-24.09-9.57-33.33-31.68-33.33h-30.69V886.81z"/>
	</g>
	<g>
	</g>
	<g>
	</g>
	<g>
	</g>
	<g>
	</g>
	<g>
	</g>
	<g>
	</g>
	<g>
	</g>
	<g>
	</g>
	<g>
	</g>
	<g>
	</g>
	<g>
	</g>
	<g>
	</g>
	<g>
	</g>
	<g>
	</g>
	<g>
	</g>
</g>
</svg>
