<?xml version="1.0" encoding="utf-8"?>
<!-- Generator: Adobe Illustrator 27.4.0, SVG Export Plug-In . SVG Version: 6.00 Build 0)  -->
<svg version="1.1" xmlns="http://www.w3.org/2000/svg" xmlns:xlink="http://www.w3.org/1999/xlink" x="0px" y="0px"
	 viewBox="0 0 305.5 183" style="enable-background:new 0 0 305.5 183;" xml:space="preserve">
<style type="text/css">
	.st0{fill:#FFFFFF;}
</style>
<g id="Layer_1">
</g>
<g id="Layer_2">
	<g>
		<g>
			<path class="st0" d="M5.4,109.94c-1.97,10.95-2.14,22.08-1.41,33.16c0.19,2.87,0.43,5.74,0.72,8.61
				c0.28,2.83,0.41,5.77,1.03,8.55c0.58,2.57,1.41,5.07,2.48,7.48c0.99,2.23,2.23,4.91,4.03,6.61c1.67,1.58,3.86,2.47,6.06,3.03
				c1.01,0.26,2.04,0.45,3.05,0.71c1.25,0.31,2.32,0.41,3.61,0.41c5.84-0.02,11.69-0.14,17.53-0.36c11.61-0.45,23.2-1.33,34.74-2.71
				c6.46-0.77,12.9-1.69,19.32-2.77c3.15-0.53,6.48-0.84,9.44-2.08c2.42-1.01,4.56-2.56,6.98-3.58c0.75-0.32,1.27-0.99,1.05-1.85
				c-0.19-0.71-1.1-1.36-1.85-1.05c-2.08,0.87-3.96,2.04-5.96,3.07c-2.31,1.19-4.75,1.6-7.29,2.04c-5.6,0.98-11.23,1.86-16.87,2.6
				c-11.05,1.46-22.16,2.45-33.28,3.03c-5.49,0.29-10.99,0.47-16.48,0.57c-2.84,0.05-5.71,0.18-8.55,0.08
				c-0.98-0.03-1.96-0.4-2.91-0.61c-0.99-0.22-1.98-0.44-2.95-0.75c-1.02-0.32-2-0.76-2.87-1.39c-1.07-0.77-1.73-1.91-2.39-3.02
				c-1.29-2.16-2.3-4.47-3.07-6.87c-1.65-5.18-1.86-10.81-2.3-16.2c-0.97-11.97-1.08-24.08,1.04-35.93
				C8.64,108.85,5.74,108.04,5.4,109.94L5.4,109.94z"/>
		</g>
	</g>
	<g>
		<g>
			<path class="st0" d="M113.86,165.66c4-17.74,4.1-35.94,0.73-53.78c-0.97-5.16-2-10.3-3.01-15.46c-0.37-1.89-3.26-1.09-2.89,0.8
				c1.72,8.81,3.75,17.62,4.68,26.55c0.91,8.7,0.93,17.49,0.04,26.2c-0.51,5.01-1.34,9.98-2.45,14.9
				C110.55,166.74,113.44,167.54,113.86,165.66L113.86,165.66z"/>
		</g>
	</g>
	<g>
		<g>
			<path class="st0" d="M110.49,95.83c-26.63-4.33-53.62-1.13-79.95,3.7c-7.52,1.38-15.02,2.9-22.51,4.42
				c-1.09,0.22-1.47,1.78-0.66,2.51c6.67,6.07,13.35,12.13,20.02,18.2c5.8,5.27,11.49,10.98,18.27,15.02
				c3.18,1.89,6.67,3.39,10.33,4.07c1.96,0.36,4.02,0.57,5.93-0.12c1.76-0.64,3.16-1.9,4.47-3.2c6.41-6.38,12.74-12.83,19.12-19.25
				c7.22-7.27,14.43-14.54,21.65-21.8c1.36-1.37-0.76-3.49-2.12-2.12c-12.26,12.35-24.53,24.7-36.79,37.05
				c-1.47,1.48-2.91,2.98-4.41,4.43c-1.37,1.32-2.78,2.36-4.75,2.36c-3.61,0.01-7.36-1.5-10.5-3.19
				c-6.56-3.54-11.96-8.88-17.43-13.85c-7.22-6.57-14.45-13.13-21.67-19.7c-0.22,0.84-0.44,1.67-0.66,2.51
				c25.88-5.27,52.09-10.57,78.63-10.07c7.45,0.14,14.88,0.75,22.23,1.94C111.58,99.03,112.39,96.14,110.49,95.83L110.49,95.83z"/>
		</g>
	</g>
	<g>
		<g>
			<path class="st0" d="M105.7,99.39c7.82-3.04,15.03-7.76,21.68-12.84c2.82-2.15,5.35-4.64,8.12-6.85
				c2.57-2.06,5.58-4.12,8.93-4.55c7.15-0.91,12.26,5.67,14.34,11.71c1.14,3.29,1.93,6.75,2.09,10.24c0.15,3.26-0.17,6.91-2.13,9.64
				c-1.45,2.03-3.98,3.55-6.52,3.4c-3.02-0.18-4.94-3.2-5.05-6.02c-0.13-3.4,2.18-6.43,4.89-8.25c3.18-2.13,7.08-2.89,10.83-3.24
				c3.99-0.36,8-0.3,11.98-0.75c4.39-0.5,8.74-1.43,13.02-2.5c7.24-1.81,14.51-3.88,21.48-6.58c11.01-4.25,22.59-11.03,26.22-23.03
				c0.46-1.52,0.74-3.06,0.94-4.63c0.25-1.91-2.76-1.89-3,0c-1.74,13.44-14.45,20.86-26.01,25.17c-7.69,2.87-15.72,5.16-23.73,6.96
				c-4.46,1-8.92,1.73-13.49,1.95c-4.2,0.2-8.44,0.26-12.56,1.16c-7.04,1.55-14.91,7.18-13.37,15.37c0.61,3.25,2.94,6.36,6.26,7.16
				c2.93,0.71,5.99-0.3,8.32-2.12c5.85-4.58,5.53-13.26,4.12-19.81c-1.48-6.89-4.72-14.31-11.44-17.53
				c-3.3-1.58-7.02-1.81-10.48-0.57c-3.6,1.3-6.64,3.69-9.51,6.15c-2.94,2.51-5.8,5-8.96,7.24c-3.72,2.64-7.53,5.17-11.56,7.33
				c-2.01,1.07-4.06,2.05-6.18,2.87C103.12,97.19,103.9,100.09,105.7,99.39L105.7,99.39z"/>
		</g>
	</g>
	<g>
		<g>
			<path class="st0" d="M237.01,54.69c4.01-8.21,10.72-14.53,18.16-19.66c8.26-5.69,17.29-10.27,26.18-14.87
				c5.75-2.97,11.54-5.86,17.38-8.67c-0.68-0.68-1.37-1.37-2.05-2.05c-5.96,11.76-12.41,23.28-19.35,34.49
				c-1.67,2.7-3.37,5.39-5.1,8.05c-1.27,1.96-3,6.03-5.9,4.64c-1.37-0.65-2.61-1.66-3.87-2.5c-1.51-1-3.01-2.01-4.52-3.01
				c-2.74-1.82-5.47-3.65-8.21-5.47c-1.13-0.75-2.29-1.52-3.69-1.58c-1.44-0.06-2.79,0.66-3.92,1.48c-1.98,1.43-3.6,3.23-5.21,5.06
				c-1.55,1.76-3.13,3.61-5.16,4.84c-0.47,0.29-0.97,0.56-1.5,0.75c-0.62,0.22-0.61,0.38-0.8-0.14c-0.16-0.46,0.05-1.31,0.11-1.77
				c0.12-0.98,0.25-1.96,0.37-2.94c0.41-3.27,0.82-6.54,1.23-9.81c0.2-1.64,0.41-3.27,0.61-4.91c0.18-1.41,0.19-3.01,1.56-3.8
				c1.29-0.74,2.89-1.08,4.29-1.56c1.65-0.56,3.3-1.12,4.94-1.69c3.22-1.1,6.43-2.2,9.65-3.3c14.59-5,29.17-10.02,43.74-15.08
				c1.81-0.63,1.03-3.53-0.8-2.89c-13.94,4.84-27.89,9.65-41.85,14.43c-3.45,1.18-6.9,2.36-10.35,3.54
				c-3.34,1.14-6.79,2.13-10.06,3.46c-1.2,0.49-2.32,1.17-3.01,2.3c-0.83,1.37-0.91,3.03-1.11,4.58c-0.45,3.6-0.9,7.2-1.35,10.79
				c-0.22,1.8-0.45,3.6-0.67,5.4c-0.17,1.39-0.52,2.87-0.14,4.25c0.87,3.16,4.2,2.36,6.36,1.14c4.56-2.59,6.88-7.67,11.24-10.47
				c0.69-0.44,1.37-0.83,2.2-0.58c0.65,0.19,1.25,0.7,1.8,1.07c1.51,1,3.01,2.01,4.52,3.01c3.08,2.05,6.16,4.11,9.24,6.16
				c2.45,1.63,5.22,3.65,8.17,1.88c2.59-1.55,4.15-4.93,5.72-7.38c8.5-13.24,16.31-26.91,23.42-40.94c0.7-1.38-0.69-2.71-2.05-2.05
				c-10.35,4.99-20.59,10.21-30.66,15.74c-8.16,4.48-16.28,9.39-22.94,15.97c-3.71,3.67-6.9,7.87-9.19,12.57
				C233.57,54.91,236.16,56.43,237.01,54.69L237.01,54.69z"/>
		</g>
	</g>
	<g>
		<g>
			<path class="st0" d="M294.29,6.84c-18.85,3.06-37.69,6.13-56.54,9.19c-5.41,0.88-10.82,1.76-16.22,2.64
				c-1.9,0.31-1.09,3.2,0.8,2.89c18.85-3.06,37.69-6.13,56.54-9.19c5.41-0.88,10.82-1.76,16.22-2.64
				C296.98,9.42,296.18,6.53,294.29,6.84L294.29,6.84z"/>
		</g>
	</g>
	<g>
		<g>
			<path class="st0" d="M223.81,18.42c-4.9,0.06-9.79,0.63-14.58,1.69c-1.03,0.23-1.54,1.8-0.66,2.51
				c5.35,4.29,11.24,7.74,17.59,10.32c0.75,0.31,1.65-0.33,1.85-1.05c0.24-0.86-0.29-1.54-1.05-1.85
				c-5.83-2.37-11.35-5.61-16.26-9.55c-0.22,0.84-0.44,1.67-0.66,2.51c4.53-1,9.14-1.53,13.78-1.58
				C225.74,21.4,225.74,18.4,223.81,18.42L223.81,18.42z"/>
		</g>
	</g>
	<g>
		<g>
			<path class="st0" d="M294.15,7.77c2.13-0.03,4.26-0.34,6.3-0.95c-0.15-0.09-0.31-0.17-0.46-0.26c0.12,0.29-0.03,0.56-0.19,0.81
				c-0.19,0.3-0.39,0.6-0.59,0.9c-0.4,0.61-0.8,1.22-1.21,1.83c-0.27,0.4,0.38,0.78,0.65,0.38c0.47-0.71,0.94-1.42,1.41-2.13
				c0.37-0.56,0.95-1.26,0.66-1.98c-0.08-0.18-0.25-0.33-0.46-0.26c-1.99,0.59-4.03,0.9-6.1,0.92
				C293.67,7.03,293.67,7.78,294.15,7.77L294.15,7.77z"/>
		</g>
	</g>
	<g>
		<g>
			<path class="st0" d="M295.16,9.76c1.29-0.31,2.6-0.55,3.92-0.73c-0.13,0.02-0.27,0.04-0.4,0.05c0.31-0.04,0.63-0.08,0.94-0.12
				c-0.43-0.75-0.86-1.5-1.3-2.26c-0.75,1.04-1.5,2.08-2.25,3.12c-0.21,0.3-0.24,0.82-0.15,1.16c0.1,0.35,0.36,0.73,0.69,0.9
				c0.35,0.18,0.77,0.28,1.16,0.15c0.39-0.13,0.66-0.36,0.9-0.69c0.75-1.04,1.5-2.08,2.25-3.12c0.31-0.42,0.25-1.09,0-1.51
				c-0.24-0.42-0.79-0.8-1.3-0.74c-1.77,0.2-3.53,0.49-5.26,0.9c-0.76,0.18-1.29,1.09-1.05,1.85
				C293.57,9.51,294.34,9.95,295.16,9.76L295.16,9.76z"/>
		</g>
	</g>
	<g>
	</g>
	<g>
	</g>
	<g>
	</g>
	<g>
	</g>
	<g>
	</g>
	<g>
	</g>
	<g>
	</g>
	<g>
	</g>
	<g>
	</g>
	<g>
	</g>
	<g>
	</g>
	<g>
	</g>
	<g>
	</g>
	<g>
	</g>
	<g>
	</g>
</g>
</svg>
