<?xml version="1.0" encoding="utf-8"?>
<!-- Generator: Adobe Illustrator 27.3.1, SVG Export Plug-In . SVG Version: 6.00 Build 0)  -->
<svg version="1.1" id="Layer_1" xmlns="http://www.w3.org/2000/svg" xmlns:xlink="http://www.w3.org/1999/xlink" x="0px" y="0px"
	 viewBox="0 0 1344 218" style="enable-background:new 0 0 1344 218;" xml:space="preserve">
<style type="text/css">
	.st0{fill:#FFFFFF;}
</style>
<g id="Logo" transform="translate(-188 -307)">
	<path id="Path_397" class="st0" d="M807.62,398.09H696.43c-4.42,0.37-8.34,2.99-10.37,6.94l-23.74,48.65
		c-0.93,1.92,0,3.49,1.81,3.49h18.45c2.22-0.19,4.18-1.51,5.2-3.49l9.31-19.08h74.14l-9.35,19.11c-0.93,1.89,0,3.45,1.77,3.45h18.6
		c2.22-0.18,4.19-1.5,5.2-3.49l23.74-48.65C813.06,401.19,811.46,398.09,807.62,398.09z M779.91,416.79
		c-1.18,2.29-3.45,3.82-6.01,4.06h-66.11c-2.19,0-3.01-1.83-2.04-4.06c1.19-2.28,3.45-3.8,6.01-4.03h66.11
		C780.06,412.76,780.99,414.59,779.91,416.79L779.91,416.79z"/>
	<path id="Path_398" class="st0" d="M532.73,312.36l-225.18,27.41c-18.99,2.43-43.22,19.41-53.79,37.74l-50.73,107.32
		c-10.6,18.36-3.71,31.38,15.26,28.98l224.88-28.06c11.6-1.46,25.14-8.44,36.35-17.77h-54.87l-5.91-11.54l28.35-58.3l-5.12-9.99
		h-26.17l-14.94,10.05l-30.2,62.14l-11.51,7.74h-26.64l-5.93-11.58l28.48-58.31l-28.35,58.25l28.35-58.26l-5.12-10.02h-78.08
		l6.89-14c3.62-7.05,10.62-11.74,18.51-12.43h201.18c6.94,0,9.79,5.6,6.43,12.52L464.91,456h26.54c2.05-2.51,3.9-5.17,5.54-7.96
		l51.03-106.67C558.62,322.98,551.72,309.9,532.73,312.36z M311.43,401.48l-28.98,59.07l-11.45,7.7h-26.45l-6.04-11.8l26.86-54.98
		L311.43,401.48z"/>
	<path id="Path_399" class="st0" d="M830.52,398.06l-7.15,14.7h50.43l-19.53,40.03l2.25,4.39h16.8l6.46-4.33l19.53-40.09h50.3
		l7.15-14.7L830.52,398.06z"/>
	<path id="Path_400" class="st0" d="M1075.85,398.09H983.3c-6.6,0.56-12.46,4.47-15.49,10.37l-12.21,25.09
		c-6.37,13.04-0.96,23.62,12.02,23.62h92.58c6.61-0.58,12.46-4.52,15.49-10.43l12.2-25.03
		C1094.28,408.64,1088.93,398.09,1075.85,398.09z M1061.67,423.21l-6.67,13.73c-1.63,3.13-4.75,5.22-8.27,5.53h-59.5
		c-5.77,0-8.17-4.66-5.35-10.43l6.67-13.7c1.61-3.17,4.75-5.29,8.29-5.59h59.47C1062.09,412.76,1064.49,417.45,1061.67,423.21
		L1061.67,423.21z"/>
	<path id="Path_401" class="st0" d="M1134.46,412.76h101.48l3.76-7.73c1.89-3.85,0.3-6.94-3.55-6.94h-113.12
		c-4.42,0.37-8.34,2.99-10.37,6.94l-3.76,7.73l-14.61,29.72l-3.77,7.75c-1.89,3.82-0.3,6.94,3.55,6.94h87.57
		c4.43-0.38,8.34-3.02,10.37-6.97l-3.27,7h25.54l11-22.57l6.74-13.77h-51.6l-6.7,13.77h26.01l-3.85,7.87h-70.71
		c-3.01,0-4.09-2.34-2.68-5.2L1134.46,412.76z"/>
	<path id="Path_402" class="st0" d="M1368.07,420.84h-94.52c-2.22,0-3.01-1.83-2.09-4.06c1.18-2.29,3.45-3.81,6.01-4.03h99.71
		l4.63-9.47c1.41-3.01,0.21-5.2-2.68-5.2h-113.05c-4.4,0.38-8.3,3-10.3,6.94l-18.18,37.14c-4,8.24-0.59,15.03,7.66,15.03h110.25
		l4.63-9.5c1.41-3.01,0.21-5.2-2.68-5.2h-94.57c-2.19,0-3.01-1.78-2.04-3.94c1.15-2.23,3.36-3.72,5.86-3.94h99.83l4.19-8.59
		C1372.14,423.15,1370.94,420.84,1368.07,420.84z"/>
	<path id="Path_403" class="st0" d="M1501.48,398.06l-17.82,36.54l-46.58-36.54h-34.93l-28.82,59.11h25.54l20.71-42.43l53.07,42.43
		h25.54l28.82-59.11H1501.48z"/>
	<path id="Path_404" class="st0" d="M668.5,397.49H553.87c-4.51,0.38-8.51,3.06-10.57,7.09l-3.86,7.95h44.46l3.08,5.73l0,0
		l-16.21,33.21l3.39,6.59h15.19l6.56-4.4l17.25-35.4l8.53-5.73h14.82l2.9,5.7l-16.21,33.24l3.39,6.56h15.19l6.56-4.4l23.91-49.01
		C674.08,400.66,672.45,397.49,668.5,397.49z"/>
	<path id="Path_405" class="st0" d="M520.44,451.47l3.43,6.72h15.06l6.53-4.4l17.34-35.52h-26.18L520.44,451.47z"/>
</g>
<g>
</g>
<g>
</g>
<g>
</g>
<g>
</g>
<g>
</g>
<g>
</g>
<g>
</g>
<g>
</g>
<g>
</g>
<g>
</g>
<g>
</g>
<g>
</g>
<g>
</g>
<g>
</g>
<g>
</g>
</svg>
