<?xml version="1.0" encoding="utf-8"?>
<!-- Generator: Adobe Illustrator 27.8.1, SVG Export Plug-In . SVG Version: 6.00 Build 0)  -->
<svg version="1.1" id="Layer_1" xmlns="http://www.w3.org/2000/svg" xmlns:xlink="http://www.w3.org/1999/xlink" x="0px" y="0px"
	 viewBox="0 0 150 155" style="enable-background:new 0 0 150 155;" xml:space="preserve">
<style type="text/css">
	.st0{fill:#808080;}
	.st1{enable-background:new    ;}
	.st2{fill:#666666;}
	.st3{font-family:'Calibri-Bold';}
	.st4{font-size:20px;}
</style>
<path id="matogen-logo-abbreviated" class="st0" d="M131.7,33.6l-81.9,10c-6.9,0.9-15.7,7.1-19.6,13.7l-18.4,39
	c-3.9,6.7-1.3,11.4,5.5,10.5l81.8-10.2c4.2-0.5,9.1-3.1,13.2-6.5H92.4L90.2,86l10.3-21.2l-1.9-3.6h-9.5l-5.4,3.7l-11,22.6l-4.2,2.8
	h-9.7L56.7,86l10.4-21.2L56.8,86l10.3-21.2l-1.9-3.6H36.8l2.5-5.1c1.3-2.6,3.9-4.3,6.7-4.5h73.1c2.5,0,3.6,2,2.3,4.5L107,85.8h9.6
	c0.7-0.9,1.4-1.9,2-2.9l18.6-38.8C141.1,37.5,138.6,32.7,131.7,33.6z M51.2,66L40.7,87.5l-4.2,2.8h-9.6L24.7,86l9.8-20H51.2z"/>
<text transform="matrix(1 0 0 1 37.3388 125.4637)" class="st1"><tspan x="0" y="0" class="st2 st3 st4">Matogen</tspan><tspan x="-2" y="24" class="st2 st3 st4">Software </tspan></text>
</svg>
