<?xml version="1.0" encoding="utf-8"?>
<!-- Generator: Adobe Illustrator 27.8.1, SVG Export Plug-In . SVG Version: 6.00 Build 0)  -->
<svg version="1.1" id="Layer_1" xmlns="http://www.w3.org/2000/svg" xmlns:xlink="http://www.w3.org/1999/xlink" x="0px" y="0px"
	 viewBox="0 0 150 155" style="enable-background:new 0 0 150 155;" xml:space="preserve">
<style type="text/css">
	.st0{fill:#808080;}
</style>
<path id="matogen-logo-abbreviated" class="st0" d="M134.3,32.6L49.3,43C42.2,43.9,33,50.3,29,57.2L9.9,97.7
	c-4,6.9-1.4,11.8,5.8,10.9l84.9-10.6c4.4-0.6,9.5-3.2,13.7-6.7H93.5L91.3,87L102,65l-1.9-3.8h-9.9L84.5,65L73.1,88.5l-4.3,2.9H58.7
	L56.5,87l10.7-22L56.6,87l10.7-22l-1.9-3.8H35.9l2.6-5.3c1.4-2.7,4-4.4,7-4.7h75.9c2.6,0,3.7,2.1,2.4,4.7l-15.1,30.9h10
	c0.8-0.9,1.5-2,2.1-3l19.3-40.3C144.1,36.6,141.5,31.7,134.3,32.6z M50.8,66.2L39.9,88.5l-4.3,2.9h-10L23.3,87l10.1-20.8L50.8,66.2z
	"/>
<g id="Matogen_Base" transform="translate(-543 -399.745)">
	<g id="logo" transform="translate(543 300.752)">
		<path id="Path_397" class="st0" d="M43.3,220.4H29.4c-0.5,0-1.1,0.3-1.3,0.9l-3,6c-0.1,0.2,0,0.4,0.2,0.4h2.3
			c0.3,0,0.5-0.2,0.6-0.4l1.2-2.4h9.2l-1.2,2.4c-0.1,0.2,0,0.4,0.2,0.4H40c0.3,0,0.5-0.2,0.6-0.4l3-6
			C43.9,220.8,43.7,220.4,43.3,220.4z M39.8,222.7c-0.1,0.3-0.4,0.4-0.8,0.5h-8.3c-0.3,0-0.3-0.2-0.2-0.5c0.1-0.3,0.4-0.4,0.8-0.5
			h8.3C39.8,222.3,39.9,222.5,39.8,222.7L39.8,222.7z"/>
		<path id="Path_399" class="st0" d="M46.1,220.4l-0.9,1.8h6.3l-2.5,4.9l0.3,0.5h2.1l0.8-0.5l2.5-5H61l0.9-1.8L46.1,220.4z"/>
		<path id="Path_400" class="st0" d="M76.6,220.4H65.2c-0.9,0.1-1.5,0.5-1.9,1.3l-1.5,3.1c-0.8,1.6-0.1,2.9,1.5,2.9h11.5
			c0.9-0.1,1.5-0.5,1.9-1.3l1.5-3.1C79,221.7,78.3,220.4,76.6,220.4z M74.9,223.6l-0.9,1.7c-0.2,0.4-0.6,0.6-1.1,0.6h-7.4
			c-0.8,0-1-0.5-0.6-1.3l0.9-1.7c0.2-0.4,0.6-0.6,1.1-0.6h7.4C74.9,222.3,75.3,222.8,74.9,223.6L74.9,223.6z"/>
		<path id="Path_401" class="st0" d="M83.9,222.3h12.7l0.4-1c0.2-0.4,0-0.9-0.4-0.9H82.6c-0.5,0-1.1,0.3-1.3,0.9l-0.4,1L79,226
			l-0.4,1c-0.2,0.4,0,0.9,0.4,0.9H90c0.5,0,1.1-0.4,1.3-0.9l-0.4,0.9H94l1.4-2.8l0.9-1.7h-6.4l-0.9,1.7h3.2l-0.4,1H83
			c-0.3,0-0.5-0.3-0.3-0.6L83.9,222.3z"/>
		<path id="Path_402" class="st0" d="M113,223.2h-11.8c-0.3,0-0.3-0.2-0.2-0.5c0.1-0.3,0.4-0.4,0.8-0.5h12.5l0.5-1.2
			c0.2-0.3,0-0.6-0.3-0.6h-14.1c-0.5,0-1.1,0.3-1.3,0.9l-2.3,4.6c-0.5,1.1-0.1,1.8,1,1.8h13.7l0.5-1.2c0.2-0.3,0-0.6-0.3-0.6H99.9
			c-0.3,0-0.3-0.2-0.2-0.5c0.1-0.3,0.4-0.4,0.8-0.5h12.5l0.5-1.1C113.6,223.6,113.5,223.2,113,223.2z"/>
		<path id="Path_403" class="st0" d="M129.7,220.4l-2.3,4.5l-5.8-4.5h-4.3l-3.5,7.4h3.2l2.6-5.3l6.7,5.3h3.2l3.5-7.4H129.7z"/>
		<path id="Path_404" class="st0" d="M25.6,220.4h-14c-0.5,0-1.1,0.3-1.3,0.9l-0.4,1h5.4l0.3,0.6l0,0l-1.9,4.1l0.4,0.8h1.8l0.8-0.5
			l2.1-4.3l1.1-0.6h1.8l0.3,0.6l-1.9,4.1l0.4,0.8h1.8l0.8-0.5l2.9-5.9C26.3,220.8,26.1,220.4,25.6,220.4z"/>
		<path id="Path_405" class="st0" d="M7.6,227l0.4,0.9h1.8l0.8-0.5l2.1-4.3H9.6L7.6,227z"/>
	</g>
</g>
</svg>
