<?xml version="1.0" encoding="utf-8"?>
<!-- Generator: Adobe Illustrator 27.3.1, SVG Export Plug-In . SVG Version: 6.00 Build 0)  -->
<svg version="1.1" id="Layer_1" xmlns="http://www.w3.org/2000/svg" xmlns:xlink="http://www.w3.org/1999/xlink" x="0px" y="0px"
	 viewBox="0 0 1084 147" style="enable-background:new 0 0 1084 147;" xml:space="preserve">
<style type="text/css">
	.st0{fill:#FFFFFF;}
</style>
<g id="Logo" transform="translate(-188 -307)">
	<path id="Path_397" class="st0" d="M549.62,351.09H438.43c-4.42,0.37-8.34,2.99-10.37,6.94l-23.74,48.65
		c-0.93,1.92,0,3.49,1.81,3.49h18.45c2.22-0.19,4.18-1.51,5.2-3.49l9.31-19.08h74.14l-9.35,19.11c-0.93,1.89,0,3.45,1.77,3.45h18.6
		c2.22-0.18,4.19-1.5,5.2-3.49l23.74-48.65C555.06,354.19,553.46,351.09,549.62,351.09z M521.91,369.79
		c-1.18,2.29-3.45,3.82-6.01,4.06h-66.11c-2.19,0-3.01-1.83-2.04-4.06c1.19-2.28,3.45-3.8,6.01-4.03h66.11
		C522.06,365.76,522.99,367.59,521.91,369.79L521.91,369.79z"/>
	<path id="Path_398" class="st0" d="M416.35,316.51l-146.89,17.88c-12.39,1.59-28.19,12.66-35.09,24.62l-33.09,70.01
		c-6.91,11.98-2.42,20.47,9.96,18.9l146.69-18.31c7.57-0.95,16.4-5.5,23.71-11.59h-35.79l-3.85-7.53l18.49-38.03l-3.34-6.52h-17.07
		l-9.74,6.56l-19.7,40.54l-7.51,5.05h-17.38l-3.87-7.55l18.58-38.03l-18.49,37.99l18.49-38.01l-3.34-6.54h-50.93l4.49-9.13
		c2.36-4.6,6.92-7.66,12.08-8.11h131.23c4.52,0,6.39,3.66,4.2,8.16l-26.05,53.32h17.31c1.33-1.64,2.54-3.37,3.61-5.19l33.29-69.58
		C433.24,323.44,428.74,314.9,416.35,316.51z M272,374.64l-18.9,38.53l-7.47,5.02h-17.25l-3.94-7.69l17.52-35.87L272,374.64z"/>
	<path id="Path_399" class="st0" d="M572.52,351.06l-7.15,14.7h50.43l-19.53,40.03l2.25,4.39h16.8l6.46-4.33l19.53-40.09h50.3
		l7.15-14.7L572.52,351.06z"/>
	<path id="Path_400" class="st0" d="M817.85,351.09H725.3c-6.6,0.56-12.46,4.47-15.49,10.37l-12.21,25.09
		c-6.37,13.04-0.96,23.62,12.02,23.62h92.58c6.61-0.58,12.46-4.52,15.49-10.43l12.2-25.03
		C836.28,361.64,830.93,351.09,817.85,351.09z M803.67,376.21l-6.67,13.73c-1.63,3.13-4.75,5.22-8.27,5.53h-59.5
		c-5.77,0-8.17-4.66-5.35-10.43l6.67-13.7c1.61-3.17,4.75-5.29,8.29-5.59h59.47C804.09,365.76,806.49,370.45,803.67,376.21
		L803.67,376.21z"/>
	<path id="Path_401" class="st0" d="M876.46,365.76h101.48l3.76-7.73c1.89-3.85,0.3-6.94-3.55-6.94H865.04
		c-4.42,0.37-8.34,2.99-10.37,6.94l-3.76,7.73l-14.61,29.72l-3.76,7.75c-1.89,3.82-0.3,6.94,3.55,6.94h87.57
		c4.43-0.38,8.34-3.02,10.37-6.97l-3.27,7h25.54l11-22.57l6.74-13.77h-51.6l-6.7,13.77h26.01l-3.85,7.87h-70.71
		c-3.01,0-4.09-2.34-2.68-5.2L876.46,365.76z"/>
	<path id="Path_402" class="st0" d="M1110.07,373.84h-94.52c-2.22,0-3.01-1.83-2.09-4.06c1.18-2.29,3.45-3.81,6.01-4.03h99.71
		l4.63-9.47c1.41-3.01,0.21-5.2-2.68-5.2h-113.05c-4.4,0.38-8.3,3-10.3,6.94l-18.18,37.14c-4,8.24-0.59,15.03,7.66,15.03h110.25
		l4.63-9.5c1.41-3.01,0.21-5.2-2.68-5.2h-94.57c-2.19,0-3.01-1.78-2.04-3.94c1.15-2.23,3.36-3.72,5.86-3.94h99.83l4.19-8.59
		C1114.14,376.15,1112.94,373.84,1110.07,373.84z"/>
	<path id="Path_403" class="st0" d="M1243.48,351.06l-17.82,36.54l-46.58-36.54h-34.93l-28.82,59.11h25.54l20.71-42.43l53.07,42.43
		h25.54l28.82-59.11H1243.48z"/>
</g>
<g>
</g>
<g>
</g>
<g>
</g>
<g>
</g>
<g>
</g>
<g>
</g>
<g>
</g>
<g>
</g>
<g>
</g>
<g>
</g>
<g>
</g>
<g>
</g>
<g>
</g>
<g>
</g>
<g>
</g>
</svg>
