<?xml version="1.0" encoding="UTF-8"?>
<!DOCTYPE svg PUBLIC "-//W3C//DTD SVG 1.1//EN" "http://www.w3.org/Graphics/SVG/1.1/DTD/svg11.dtd">
<svg xmlns="http://www.w3.org/2000/svg" version="1.1" width="512px" height="512px" style="shape-rendering:geometricPrecision; text-rendering:geometricPrecision; image-rendering:optimizeQuality; fill-rule:evenodd; clip-rule:evenodd" xmlns:xlink="http://www.w3.org/1999/xlink">
<g><path style="opacity:0.993" fill="#ebeef0" d="M 233.5,-0.5 C 248.167,-0.5 262.833,-0.5 277.5,-0.5C 377.805,11.9821 449.305,63.9821 492,155.5C 502.297,180.687 508.797,206.687 511.5,233.5C 511.5,248.167 511.5,262.833 511.5,277.5C 505.639,335.873 482.973,386.539 443.5,429.5C 449.468,420.725 448.801,412.558 441.5,405C 429.898,396.125 416.898,390.125 402.5,387C 378.869,382.207 355.203,377.541 331.5,373C 324.318,370.819 320.485,365.985 320,358.5C 319.5,351.842 319.334,345.175 319.5,338.5C 339.991,337.216 359.991,333.382 379.5,327C 396.547,320.555 403.047,308.388 399,290.5C 395.668,263.508 390.668,236.841 384,210.5C 378.645,189.08 372.978,167.747 367,146.5C 367.535,128.275 362.868,111.609 353,96.5C 346.727,88.5151 338.561,83.6818 328.5,82C 323.143,81.1286 317.809,80.1286 312.5,79C 278.872,61.0778 244.539,59.4111 209.5,74C 177.07,88.0944 154.57,111.594 142,144.5C 128.882,191.518 118.882,239.184 112,287.5C 107.295,306.243 113.462,319.743 130.5,328C 150.173,335.279 170.507,339.112 191.5,339.5C 191.821,347.561 191.321,355.561 190,363.5C 188.073,368.428 184.573,371.594 179.5,373C 155.451,377.41 131.451,382.076 107.5,387C 94.0087,390.247 81.6754,395.914 70.5,404C 62.3028,411.605 61.3028,420.105 67.5,429.5C 28.0273,386.539 5.36068,335.873 -0.5,277.5C -0.5,262.833 -0.5,248.167 -0.5,233.5C 11.9821,133.195 63.9821,61.6947 155.5,19C 180.687,8.70332 206.687,2.20332 233.5,-0.5 Z"/></g>
<g><path style="opacity:1" fill="#455a64" d="M 443.5,429.5 C 425.323,450.359 403.99,467.026 379.5,479.5C 377.973,479.427 376.973,480.094 376.5,481.5C 367.317,486.789 357.65,491.122 347.5,494.5C 345.447,494.402 343.78,495.069 342.5,496.5C 321.431,504.184 299.765,509.184 277.5,511.5C 262.833,511.5 248.167,511.5 233.5,511.5C 219.293,509.992 205.293,507.325 191.5,503.5C 189.485,502.076 187.152,501.41 184.5,501.5C 182.485,500.076 180.152,499.41 177.5,499.5C 175.035,499.233 172.701,498.566 170.5,497.5C 169.365,495.787 167.698,495.12 165.5,495.5C 154.742,491.618 144.409,486.952 134.5,481.5C 134.027,480.094 133.027,479.427 131.5,479.5C 129.847,479.34 128.514,478.674 127.5,477.5C 127.027,476.094 126.027,475.427 124.5,475.5C 123.508,475.672 122.842,475.338 122.5,474.5C 122.027,473.094 121.027,472.427 119.5,472.5C 119.027,471.094 118.027,470.427 116.5,470.5C 116.027,469.094 115.027,468.427 113.5,468.5C 113.027,467.094 112.027,466.427 110.5,466.5C 110.027,465.094 109.027,464.427 107.5,464.5C 106.738,462.738 105.404,461.738 103.5,461.5C 102.738,459.738 101.404,458.738 99.5,458.5C 98.4154,456.413 96.7488,455.08 94.5,454.5C 93.4154,452.413 91.7488,451.08 89.5,450.5C 88.5,450.167 87.8333,449.5 87.5,448.5C 85.4309,445.427 82.7642,443.094 79.5,441.5C 75.1667,437.833 71.1667,433.833 67.5,429.5C 61.3028,420.105 62.3028,411.605 70.5,404C 81.6754,395.914 94.0087,390.247 107.5,387C 131.451,382.076 155.451,377.41 179.5,373C 184.573,371.594 188.073,368.428 190,363.5C 191.321,355.561 191.821,347.561 191.5,339.5C 170.507,339.112 150.173,335.279 130.5,328C 113.462,319.743 107.295,306.243 112,287.5C 118.882,239.184 128.882,191.518 142,144.5C 154.57,111.594 177.07,88.0944 209.5,74C 244.539,59.4111 278.872,61.0778 312.5,79C 317.809,80.1286 323.143,81.1286 328.5,82C 338.561,83.6818 346.727,88.5151 353,96.5C 362.868,111.609 367.535,128.275 367,146.5C 372.978,167.747 378.645,189.08 384,210.5C 390.668,236.841 395.668,263.508 399,290.5C 403.047,308.388 396.547,320.555 379.5,327C 359.991,333.382 339.991,337.216 319.5,338.5C 319.334,345.175 319.5,351.842 320,358.5C 320.485,365.985 324.318,370.819 331.5,373C 355.203,377.541 378.869,382.207 402.5,387C 416.898,390.125 429.898,396.125 441.5,405C 448.801,412.558 449.468,420.725 443.5,429.5 Z"/></g>
<g><path style="opacity:0.992" fill="#a9b3b9" d="M 79.5,441.5 C 82.7642,443.094 85.4309,445.427 87.5,448.5C 84.2358,446.906 81.5691,444.573 79.5,441.5 Z"/></g>
<g><path style="opacity:0.984" fill="#a8b2b8" d="M 89.5,450.5 C 91.7488,451.08 93.4154,452.413 94.5,454.5C 92.2512,453.92 90.5846,452.587 89.5,450.5 Z"/></g>
<g><path style="opacity:0.667" fill="#9faab0" d="M 94.5,454.5 C 96.7488,455.08 98.4154,456.413 99.5,458.5C 97.2512,457.92 95.5846,456.587 94.5,454.5 Z"/></g>
<g><path style="opacity:0.929" fill="#9fabb0" d="M 99.5,458.5 C 101.404,458.738 102.738,459.738 103.5,461.5C 101.596,461.262 100.262,460.262 99.5,458.5 Z"/></g>
<g><path style="opacity:0.988" fill="#94a0a7" d="M 103.5,461.5 C 105.404,461.738 106.738,462.738 107.5,464.5C 105.596,464.262 104.262,463.262 103.5,461.5 Z"/></g>
<g><path style="opacity:0.753" fill="#a3aeb3" d="M 107.5,464.5 C 109.027,464.427 110.027,465.094 110.5,466.5C 108.973,466.573 107.973,465.906 107.5,464.5 Z"/></g>
<g><path style="opacity:0.816" fill="#a1acb2" d="M 110.5,466.5 C 112.027,466.427 113.027,467.094 113.5,468.5C 111.973,468.573 110.973,467.906 110.5,466.5 Z"/></g>
<g><path style="opacity:0.788" fill="#98a4aa" d="M 113.5,468.5 C 115.027,468.427 116.027,469.094 116.5,470.5C 114.973,470.573 113.973,469.906 113.5,468.5 Z"/></g>
<g><path style="opacity:0.722" fill="#94a0a7" d="M 116.5,470.5 C 118.027,470.427 119.027,471.094 119.5,472.5C 117.973,472.573 116.973,471.906 116.5,470.5 Z"/></g>
<g><path style="opacity:0.576" fill="#b0b9be" d="M 119.5,472.5 C 121.027,472.427 122.027,473.094 122.5,474.5C 120.973,474.573 119.973,473.906 119.5,472.5 Z"/></g>
<g><path style="opacity:0.529" fill="#a9b3b8" d="M 124.5,475.5 C 126.027,475.427 127.027,476.094 127.5,477.5C 125.973,477.573 124.973,476.906 124.5,475.5 Z"/></g>
<g><path style="opacity:0.463" fill="#b4bdc1" d="M 131.5,479.5 C 133.027,479.427 134.027,480.094 134.5,481.5C 132.973,481.573 131.973,480.906 131.5,479.5 Z"/></g>
<g><path style="opacity:0.008" fill="#c5cdd1" d="M 379.5,479.5 C 379.027,480.906 378.027,481.573 376.5,481.5C 376.973,480.094 377.973,479.427 379.5,479.5 Z"/></g>
<g><path style="opacity:0.992" fill="#97a3a9" d="M 165.5,495.5 C 167.698,495.12 169.365,495.787 170.5,497.5C 168.597,497.204 166.93,496.537 165.5,495.5 Z"/></g>
<g><path style="opacity:0.376" fill="#a6b1b6" d="M 347.5,494.5 C 346.22,495.931 344.553,496.598 342.5,496.5C 343.78,495.069 345.447,494.402 347.5,494.5 Z"/></g>
<g><path style="opacity:0.992" fill="#8d9aa1" d="M 177.5,499.5 C 180.152,499.41 182.485,500.076 184.5,501.5C 181.848,501.59 179.515,500.924 177.5,499.5 Z"/></g>
<g><path style="opacity:0.992" fill="#839198" d="M 184.5,501.5 C 187.152,501.41 189.485,502.076 191.5,503.5C 188.848,503.59 186.515,502.924 184.5,501.5 Z"/></g>
</svg>
