<?xml version="1.0" encoding="utf-8"?>
<!-- Generator: Adobe Illustrator 27.3.1, SVG Export Plug-In . SVG Version: 6.00 Build 0)  -->
<svg version="1.1" id="Layer_1" xmlns="http://www.w3.org/2000/svg" xmlns:xlink="http://www.w3.org/1999/xlink" x="0px" y="0px"
	 viewBox="0 0 500 500" style="enable-background:new 0 0 500 500;" xml:space="preserve">
<style type="text/css">
	.st0{fill:none;stroke:#FFFFFF;stroke-miterlimit:10;}
	.st1{fill-rule:evenodd;clip-rule:evenodd;fill:#FFFFFF;}
	.st2{fill-rule:evenodd;clip-rule:evenodd;fill:#FFD600;}
	.st3{fill-rule:evenodd;clip-rule:evenodd;fill:#465268;}
</style>
<circle class="st0" cx="250.5" cy="250.5" r="249"/>
<path class="st1" d="M418.76,137.17c-4.19-15.81-18.02-27.41-34.45-27.41H187.72c-29.61,0-53.61,25.15-53.61,56.17v168.52H86.19
	c-3.22,0-5.72,2.95-5.36,6.31c0.25,2.3,0.67,4.54,1.17,6.75c0.03,0.14,0.02,0.28,0.05,0.43c0.06,0.25,0.17,0.48,0.23,0.73
	c0.67,2.68,1.49,5.29,2.51,7.8c0.13,0.32,0.28,0.63,0.42,0.95c1.11,2.59,2.36,5.1,3.82,7.47c0.05,0.08,0.11,0.16,0.17,0.25
	c1.47,2.36,3.13,4.59,4.91,6.69c0.15,0.18,0.28,0.37,0.44,0.54c1.76,2.02,3.69,3.88,5.72,5.61c0.3,0.25,0.58,0.52,0.89,0.77
	c2,1.64,4.13,3.12,6.36,4.45c0.38,0.23,0.75,0.45,1.14,0.67c2.25,1.27,4.59,2.39,7.02,3.32c0.39,0.15,0.77,0.27,1.16,0.41
	c2.51,0.9,5.09,1.63,7.75,2.13c0.29,0.05,0.59,0.08,0.88,0.13c2.81,0.48,5.69,0.78,8.63,0.78h160.85h-0.01h0.01
	c29.61,0,53.61-25.15,53.61-56.17V147.21h63C416.54,147.21,420.09,142.19,418.76,137.17z"/>
<path class="st2" d="M196.37,251.14c0,31.02,24,56.17,53.62,56.17c29.61,0,53.61-25.15,53.61-56.17s-24-56.17-53.61-56.17
	C220.37,194.96,196.37,220.11,196.37,251.14z"/>
<path class="st3" d="M384.31,109.76c-19.74,0-35.74,16.76-35.74,37.45h63c4.98,0,8.52-5.01,7.19-10.04
	C414.57,121.36,400.74,109.76,384.31,109.76z"/>
<path class="st3" d="M294.96,390.62c-26.65,0-48.76-20.37-52.91-47.06c-0.83-5.34-5.49-9.11-10.66-9.11H86.19
	c-3.22,0-5.72,2.96-5.36,6.31c2.99,28.06,25.71,49.87,53.28,49.87H294.96z"/>
</svg>
