<?xml version="1.0" encoding="UTF-8"?>
<!DOCTYPE svg PUBLIC "-//W3C//DTD SVG 1.1//EN" "http://www.w3.org/Graphics/SVG/1.1/DTD/svg11.dtd">
<svg xmlns="http://www.w3.org/2000/svg" version="1.1" width="800px" height="533px" style="shape-rendering:geometricPrecision; text-rendering:geometricPrecision; image-rendering:optimizeQuality; fill-rule:evenodd; clip-rule:evenodd" xmlns:xlink="http://www.w3.org/1999/xlink">
<g><path style="opacity:1" fill="#000000" d="M 0.5,-0.5 C 266.833,-0.5 533.167,-0.5 799.5,-0.5C 799.5,58.8333 799.5,118.167 799.5,177.5C 592.5,177.5 385.5,177.5 178.5,177.5C 118.833,118.5 59.5,59.1667 0.5,-0.5 Z"/></g>
<g><path style="opacity:1" fill="#cd1126" d="M -0.5,-0.5 C -0.166667,-0.5 0.166667,-0.5 0.5,-0.5C 59.5,59.1667 118.833,118.5 178.5,177.5C 207.672,206.839 236.672,236.339 265.5,266C 236.672,295.661 207.672,325.161 178.5,354.5C 118.833,413.5 59.5,472.833 0.5,532.5C 0.166667,532.5 -0.166667,532.5 -0.5,532.5C -0.5,354.833 -0.5,177.167 -0.5,-0.5 Z"/></g>
<g><path style="opacity:1" fill="#00793c" d="M 178.5,177.5 C 385.5,177.5 592.5,177.5 799.5,177.5C 799.5,236.5 799.5,295.5 799.5,354.5C 592.5,354.5 385.5,354.5 178.5,354.5C 207.672,325.161 236.672,295.661 265.5,266C 236.672,236.339 207.672,206.839 178.5,177.5 Z"/></g>
<g><path style="opacity:1" fill="#fefefe" d="M 178.5,354.5 C 385.5,354.5 592.5,354.5 799.5,354.5C 799.5,413.833 799.5,473.167 799.5,532.5C 533.167,532.5 266.833,532.5 0.5,532.5C 59.5,472.833 118.833,413.5 178.5,354.5 Z"/></g>
</svg>
